<svg xmlns="http://www.w3.org/2000/svg" width="369" height="368" viewBox="0 0 369 368">
    <g fill="#FFDC00" fill-rule="nonzero">
        <path d="M242.758 288.029l-33.417 12.163c-41.376 15.06-86.19-3.346-99.91-41.038-1.646-4.526.69-9.537 5.216-11.184l167.083-60.813c4.525-1.647 9.536.69 11.183 5.215 13.72 37.692-8.785 80.6-50.155 95.657zM129.55 261.124c13.46 23.138 44.641 33.29 73.821 22.669l33.417-12.163c29.18-10.62 46.535-38.438 41.98-64.817L129.55 261.124zM258.53 161.261c-.172.07-.39.136-.59.197a9.45 9.45 0 0 1-.53.211c-2.39.87-8.724 3.175-34.876-12.632-11.852-7.17-26.706-17.704-30.16-27.194-6.295-17.296 2.654-36.488 19.944-42.781 5.74-2.09 11.474-.419 16.163 1.46 2.38-4.451 5.698-9.417 11.438-11.506 17.29-6.293 36.483 2.656 42.778 19.952 3.454 9.49-1.153 27.108-5.63 40.22-9.79 28.686-16.104 31.188-18.536 32.073zM217.943 95.55c-7.908 2.915-12.17 12.075-9.168 20.324 2.735 6.73 31.955 25.067 42.947 28.495 6.209-9.695 16.806-42.524 14.57-49.449-2.995-8.232-12.148-12.509-20.402-9.505-.646.557-2.33 3.907-3.225 5.7-.977 1.94-1.924 3.764-2.883 5.228a8.708 8.708 0 0 1-9.785 3.561c-1.68-.502-3.585-1.295-5.582-2.153-1.843-.796-5.274-2.278-6.472-2.201zM126.849 209.19c-.19.074-.39.135-.591.196a9.45 9.45 0 0 1-.53.211c-2.383.868-8.724 3.176-34.876-12.631-11.852-7.17-26.706-17.705-30.16-27.195-6.295-17.296 2.654-36.488 19.945-42.781 5.74-2.09 11.473-.418 16.162 1.46 2.38-4.451 5.698-9.417 11.438-11.506 17.29-6.293 36.483 2.656 42.778 19.952 3.454 9.49-1.153 27.108-5.63 40.22-9.79 28.686-16.103 31.188-18.536 32.073zM86.26 143.477c-7.91 2.916-12.171 12.075-9.169 20.324 2.735 6.73 31.955 25.068 42.947 28.495 6.21-9.695 16.812-42.526 14.571-49.448-2.996-8.233-12.149-12.51-20.403-9.505-.646.556-2.324 3.904-3.225 5.699-.977 1.94-1.923 3.765-2.883 5.228a8.708 8.708 0 0 1-9.785 3.561c-1.68-.502-3.585-1.295-5.581-2.153-1.844-.796-5.274-2.278-6.472-2.201z"/>
        <path d="M247.617 356.605c-95.221 34.657-200.887-14.63-235.552-109.872-34.666-95.242 14.598-200.919 109.819-235.576C217.104-23.5 322.77 25.787 357.436 121.03c34.665 95.242-14.599 200.918-109.82 235.576zM127.853 27.557C41.673 58.923-2.908 154.57 28.464 240.764 59.837 326.96 155.467 371.566 241.646 340.2c86.178-31.367 130.762-127.008 99.39-213.202C309.664 40.803 214.032-3.81 127.853 27.557z"/>
    </g>
</svg>
