<svg xmlns="http://www.w3.org/2000/svg" width="250" height="339" viewBox="0 0 250 339">
    <path fill="#E8EDED" fill-rule="evenodd" d="M222.5 14c0-7.456 6.044-13.5 13.5-13.5s13.5 6.044 13.5 13.5-6.044 13.5-13.5 13.5-13.5-6.044-13.5-13.5zm0 44c0-7.456 6.044-13.5 13.5-13.5s13.5 6.044 13.5 13.5-6.044 13.5-13.5 13.5-13.5-6.044-13.5-13.5zm0 45c0-7.456 6.044-13.5 13.5-13.5s13.5 6.044 13.5 13.5-6.044 13.5-13.5 13.5-13.5-6.044-13.5-13.5zm0 44c0-7.456 6.044-13.5 13.5-13.5s13.5 6.044 13.5 13.5-6.044 13.5-13.5 13.5-13.5-6.044-13.5-13.5zm0 45c0-7.456 6.044-13.5 13.5-13.5s13.5 6.044 13.5 13.5-6.044 13.5-13.5 13.5-13.5-6.044-13.5-13.5zm0 44c0-7.456 6.044-13.5 13.5-13.5s13.5 6.044 13.5 13.5-6.044 13.5-13.5 13.5-13.5-6.044-13.5-13.5zm0 45c0-7.456 6.044-13.5 13.5-13.5s13.5 6.044 13.5 13.5-6.044 13.5-13.5 13.5-13.5-6.044-13.5-13.5zm0 44c0-7.456 6.044-13.5 13.5-13.5s13.5 6.044 13.5 13.5-6.044 13.5-13.5 13.5-13.5-6.044-13.5-13.5zm-44-311c0-7.456 6.044-13.5 13.5-13.5s13.5 6.044 13.5 13.5-6.044 13.5-13.5 13.5-13.5-6.044-13.5-13.5zm0 44c0-7.456 6.044-13.5 13.5-13.5s13.5 6.044 13.5 13.5-6.044 13.5-13.5 13.5-13.5-6.044-13.5-13.5zm0 45c0-7.456 6.044-13.5 13.5-13.5s13.5 6.044 13.5 13.5-6.044 13.5-13.5 13.5-13.5-6.044-13.5-13.5zm0 44c0-7.456 6.044-13.5 13.5-13.5s13.5 6.044 13.5 13.5-6.044 13.5-13.5 13.5-13.5-6.044-13.5-13.5zm0 45c0-7.456 6.044-13.5 13.5-13.5s13.5 6.044 13.5 13.5-6.044 13.5-13.5 13.5-13.5-6.044-13.5-13.5zm0 44c0-7.456 6.044-13.5 13.5-13.5s13.5 6.044 13.5 13.5-6.044 13.5-13.5 13.5-13.5-6.044-13.5-13.5zm0 45c0-7.456 6.044-13.5 13.5-13.5s13.5 6.044 13.5 13.5-6.044 13.5-13.5 13.5-13.5-6.044-13.5-13.5zm0 44c0-7.456 6.044-13.5 13.5-13.5s13.5 6.044 13.5 13.5-6.044 13.5-13.5 13.5-13.5-6.044-13.5-13.5zm-45-311c0-7.456 6.044-13.5 13.5-13.5s13.5 6.044 13.5 13.5-6.044 13.5-13.5 13.5-13.5-6.044-13.5-13.5zm0 44c0-7.456 6.044-13.5 13.5-13.5s13.5 6.044 13.5 13.5-6.044 13.5-13.5 13.5-13.5-6.044-13.5-13.5zm0 45c0-7.456 6.044-13.5 13.5-13.5s13.5 6.044 13.5 13.5-6.044 13.5-13.5 13.5-13.5-6.044-13.5-13.5zm0 44c0-7.456 6.044-13.5 13.5-13.5s13.5 6.044 13.5 13.5-6.044 13.5-13.5 13.5-13.5-6.044-13.5-13.5zm0 45c0-7.456 6.044-13.5 13.5-13.5s13.5 6.044 13.5 13.5-6.044 13.5-13.5 13.5-13.5-6.044-13.5-13.5zm0 44c0-7.456 6.044-13.5 13.5-13.5s13.5 6.044 13.5 13.5-6.044 13.5-13.5 13.5-13.5-6.044-13.5-13.5zm0 45c0-7.456 6.044-13.5 13.5-13.5s13.5 6.044 13.5 13.5-6.044 13.5-13.5 13.5-13.5-6.044-13.5-13.5zm0 44c0-7.456 6.044-13.5 13.5-13.5s13.5 6.044 13.5 13.5-6.044 13.5-13.5 13.5-13.5-6.044-13.5-13.5zm-44-311C89.5 6.544 95.544.5 103 .5s13.5 6.044 13.5 13.5-6.044 13.5-13.5 13.5S89.5 21.456 89.5 14zm0 44c0-7.456 6.044-13.5 13.5-13.5s13.5 6.044 13.5 13.5-6.044 13.5-13.5 13.5S89.5 65.456 89.5 58zm0 45c0-7.456 6.044-13.5 13.5-13.5s13.5 6.044 13.5 13.5-6.044 13.5-13.5 13.5-13.5-6.044-13.5-13.5zm0 44c0-7.456 6.044-13.5 13.5-13.5s13.5 6.044 13.5 13.5-6.044 13.5-13.5 13.5-13.5-6.044-13.5-13.5zm0 45c0-7.456 6.044-13.5 13.5-13.5s13.5 6.044 13.5 13.5-6.044 13.5-13.5 13.5-13.5-6.044-13.5-13.5zm0 44c0-7.456 6.044-13.5 13.5-13.5s13.5 6.044 13.5 13.5-6.044 13.5-13.5 13.5-13.5-6.044-13.5-13.5zm0 45c0-7.456 6.044-13.5 13.5-13.5s13.5 6.044 13.5 13.5-6.044 13.5-13.5 13.5-13.5-6.044-13.5-13.5zm0 44c0-7.456 6.044-13.5 13.5-13.5s13.5 6.044 13.5 13.5-6.044 13.5-13.5 13.5-13.5-6.044-13.5-13.5zm-45-311C44.5 6.544 50.544.5 58 .5S71.5 6.544 71.5 14 65.456 27.5 58 27.5 44.5 21.456 44.5 14zm0 44c0-7.456 6.044-13.5 13.5-13.5S71.5 50.544 71.5 58 65.456 71.5 58 71.5 44.5 65.456 44.5 58zm0 45c0-7.456 6.044-13.5 13.5-13.5s13.5 6.044 13.5 13.5-6.044 13.5-13.5 13.5-13.5-6.044-13.5-13.5zm0 44c0-7.456 6.044-13.5 13.5-13.5s13.5 6.044 13.5 13.5-6.044 13.5-13.5 13.5-13.5-6.044-13.5-13.5zm0 45c0-7.456 6.044-13.5 13.5-13.5s13.5 6.044 13.5 13.5-6.044 13.5-13.5 13.5-13.5-6.044-13.5-13.5zm0 44c0-7.456 6.044-13.5 13.5-13.5s13.5 6.044 13.5 13.5-6.044 13.5-13.5 13.5-13.5-6.044-13.5-13.5zm0 45c0-7.456 6.044-13.5 13.5-13.5s13.5 6.044 13.5 13.5-6.044 13.5-13.5 13.5-13.5-6.044-13.5-13.5zm0 44c0-7.456 6.044-13.5 13.5-13.5s13.5 6.044 13.5 13.5-6.044 13.5-13.5 13.5-13.5-6.044-13.5-13.5zM.5 14C.5 6.544 6.544.5 14 .5S27.5 6.544 27.5 14 21.456 27.5 14 27.5.5 21.456.5 14zm0 44c0-7.456 6.044-13.5 13.5-13.5S27.5 50.544 27.5 58 21.456 71.5 14 71.5.5 65.456.5 58zm0 45c0-7.456 6.044-13.5 13.5-13.5s13.5 6.044 13.5 13.5-6.044 13.5-13.5 13.5S.5 110.456.5 103zm0 44c0-7.456 6.044-13.5 13.5-13.5s13.5 6.044 13.5 13.5-6.044 13.5-13.5 13.5S.5 154.456.5 147zm0 45c0-7.456 6.044-13.5 13.5-13.5s13.5 6.044 13.5 13.5-6.044 13.5-13.5 13.5S.5 199.456.5 192zm0 44c0-7.456 6.044-13.5 13.5-13.5s13.5 6.044 13.5 13.5-6.044 13.5-13.5 13.5S.5 243.456.5 236zm0 45c0-7.456 6.044-13.5 13.5-13.5s13.5 6.044 13.5 13.5-6.044 13.5-13.5 13.5S.5 288.456.5 281zm0 44c0-7.456 6.044-13.5 13.5-13.5s13.5 6.044 13.5 13.5-6.044 13.5-13.5 13.5S.5 332.456.5 325z"/>
</svg>
