<svg xmlns="http://www.w3.org/2000/svg" width="195" height="200" viewBox="0 0 195 200">
    <path fill="#EACC11" fill-rule="nonzero" d="M173.194 73.875l19.535-19.535a4.486 4.486 0 0 0 0-6.346l-46.68-46.68a4.488 4.488 0 0 0-6.346 0l-9.16 9.158c-10.483-5.18-23.552-3.42-32.268 5.295l-20.44 20.438a57.02 57.02 0 0 0-8.753-.154L54.787 21.756a4.488 4.488 0 0 0-6.346 0l-46.68 46.68a4.486 4.486 0 0 0 0 6.346l7.045 7.046-2.786 28.007c-2.594 6.22-1.368 13.668 3.684 18.72a17.069 17.069 0 0 0 12.875 4.99 17.013 17.013 0 0 0 4.997 12.882 17.014 17.014 0 0 0 12.882 4.997c-.205 4.637 1.457 9.342 4.99 12.875a17.014 17.014 0 0 0 12.882 4.997c-.206 4.637 1.457 9.342 4.99 12.875a17.069 17.069 0 0 0 12.108 5.007c3.18 0 6.357-.882 9.137-2.636.065.073.127.147.197.217l9.74 9.741a17.452 17.452 0 0 0 12.38 5.12c4.483 0 8.967-1.707 12.38-5.12a17.392 17.392 0 0 0 5.103-13.312 17.393 17.393 0 0 0 13.312-5.103 17.392 17.392 0 0 0 5.101-13.32 17.455 17.455 0 0 0 13.312-5.093 17.396 17.396 0 0 0 5.102-13.312 17.394 17.394 0 0 0 13.312-5.103 17.396 17.396 0 0 0 5.128-12.38c0-4.676-1.821-9.073-5.128-12.38l-10.448-10.448c6.032-9.136 9.015-19.619 9.04-30.084.032-.031.066-.058.098-.09zm-30.319-63.042l40.335 40.334-11.288 11.288c-2.128-10.167-7.12-19.815-14.904-27.6l-19.083-19.083 4.94-4.94zM16.051 122.209c-3.178-3.178-3.178-8.348 0-11.526h-.001l6.792-6.79a8.096 8.096 0 0 1 5.762-2.388c2.177 0 4.224.848 5.763 2.387a8.098 8.098 0 0 1 2.387 5.763 8.092 8.092 0 0 1-2.387 5.763l-1.304 1.304-5.487 5.487c-3.178 3.176-8.348 3.178-11.525 0zm23.634 20.258a8.094 8.094 0 0 1-5.763-2.387 8.098 8.098 0 0 1-2.387-5.763c0-2.175.846-4.22 2.383-5.759l.004-.004 12.942-12.942a8.096 8.096 0 0 1 5.762-2.388c2.177 0 4.224.848 5.763 2.388 3.177 3.176 3.178 8.346.003 11.523l-2.957 2.957-9.988 9.987a8.089 8.089 0 0 1-5.762 2.388zm17.871 17.871a8.094 8.094 0 0 1-5.762-2.387c-3.178-3.177-3.178-8.348 0-11.525h-.001l12.943-12.942.007-.008 5.432-5.432a8.096 8.096 0 0 1 5.762-2.387c2.176 0 4.224.847 5.763 2.387a8.098 8.098 0 0 1 2.387 5.763 8.092 8.092 0 0 1-2.388 5.763l-5.439 5.439-12.941 12.942a8.09 8.09 0 0 1-5.763 2.387zm12.109 15.485c-3.178-3.177-3.178-8.348 0-11.526l12.943-12.943c3.178-3.175 8.347-3.176 11.524.002 3.178 3.177 3.178 8.348 0 11.525l-12.941 12.943c-3.178 3.176-8.349 3.177-11.526 0zm100.991-48.947c0 2.28-.887 4.422-2.499 6.034a8.476 8.476 0 0 1-6.033 2.5 8.478 8.478 0 0 1-6.034-2.5l-2.564-2.563a4.488 4.488 0 0 0-6.346 6.345l2.564 2.564a8.477 8.477 0 0 1 2.499 6.034 8.48 8.48 0 0 1-2.499 6.034c-3.326 3.326-8.74 3.327-12.068 0l-2.563-2.564a4.488 4.488 0 0 0-6.346 6.346l2.564 2.563a8.477 8.477 0 0 1 2.498 6.034c0 2.28-.887 4.423-2.499 6.034-3.326 3.327-8.738 3.327-12.065.002l-.002-.002-.003-.003-2.561-2.56a4.487 4.487 0 0 0-6.345 6.346l2.563 2.563a8.476 8.476 0 0 1 2.499 6.034c0 2.28-.888 4.422-2.5 6.034-3.326 3.327-8.74 3.327-12.067 0l-9.647-9.647 9.278-9.279c6.676-6.677 6.676-17.54 0-24.217a17.019 17.019 0 0 0-8.704-4.666 17.1 17.1 0 0 0 1.287-6.537c0-4.574-1.782-8.874-5.016-12.108a17.014 17.014 0 0 0-12.109-5.016 17.1 17.1 0 0 0-6.536 1.288 17.02 17.02 0 0 0-4.666-8.704 17.011 17.011 0 0 0-12.11-5.016c-2.572 0-5.058.564-7.316 1.632a17.008 17.008 0 0 0-4.597-8.337 17.014 17.014 0 0 0-12.109-5.015 17.012 17.012 0 0 0-12.108 5.015l-.26.261 1.71-17.205a4.485 4.485 0 0 0-1.292-3.617l-5.376-5.376 40.335-40.335L64.201 43.86a4.453 4.453 0 0 0 3.704 1.282 47.96 47.96 0 0 1 9.428.021l-2.788 28.59a18.052 18.052 0 0 0 4.052 13.307 18.047 18.047 0 0 0 12.277 6.54c.593.057 1.181.085 1.766.085 9.234 0 17.16-7.038 18.069-16.416l1.226-12.65 56.222 56.222a8.485 8.485 0 0 1 2.5 6.035zm-13.103-29.33L113.96 53.954a4.462 4.462 0 0 0-.923-.705l.856-8.836a4.487 4.487 0 0 0-4.033-4.9 4.485 4.485 0 0 0-4.9 4.034l-3.185 32.858c-.489 5.046-4.994 8.752-10.037 8.264a9.133 9.133 0 0 1-6.212-3.31 9.134 9.134 0 0 1-2.05-6.733l3.388-34.759 17.756-17.755c7.433-7.434 19.528-7.434 26.962 0l19.088 19.09c15.076 15.075 17.666 38.478 6.882 56.344z"/>
</svg>
