<svg xmlns="http://www.w3.org/2000/svg" width="150" height="136" viewBox="0 0 150 136">
    <g fill="none" fill-rule="evenodd">
        <path fill="#FFDC00" d="M14.565 0l-.049 40.113h15.58V15.58H134.42v104.322H30.097V108h-15.58v27.435l135.435.049L150 .048z"/>
        <g fill="#060720" fill-rule="nonzero" transform="translate(0 43.065)">
            <path d="M53.032 54.629v-7.548h-1.79v10.984h.629l6.823-7.694v7.5h1.79V46.935h-.63zM47.903 51.387H42.34v-4.306h-1.742v10.79h1.742v-4.936h5.564v4.936h1.79v-10.79h-1.79zM41.371 45.097c0-.58-.532-1.065-1.161-1.065-.581 0-1.162.484-1.162 1.065 0 .58.533 1.064 1.162 1.064.629 0 1.161-.484 1.161-1.064zM37.258 47.081h1.79v10.79h-1.79zM28.065 50.42c0-1.936-1.549-3.291-3.775-3.291h-4.016v10.79h1.79v-4.21h2.275c2.177 0 3.726-1.403 3.726-3.29zM24.29 52.16h-2.225V48.63h2.225c1.258 0 1.984.726 1.984 1.79-.048 1.065-.726 1.742-1.984 1.742zM19.258 47.08h-2.177l-4.646 5.081 5.13 5.71h2.225l-5.129-5.71zM10.645 47.081h1.79v10.79h-1.79zM5.226 53.613l-3.242-6.484H0l4.258 8.468c-.435.677-.92.92-1.645.92-.339 0-.58 0-.871-.05v1.5c.387.098.774.194 1.064.194 1.79-.048 2.468-.87 3.388-2.806l3.87-8.178H8.227l-3 6.436zM31.306 46.935L26.42 57.92h1.887l.775-1.79h4.984l.774 1.79h1.935l-4.887-10.984h-.58zm-1.548 7.646l1.839-4.452 1.838 4.452h-3.677zM36.097 44.032c-.58 0-1.162.484-1.162 1.065 0 .58.533 1.064 1.162 1.064.629 0 1.161-.484 1.161-1.064 0-.63-.484-1.065-1.161-1.065zM115.887 31.113c1.016-1.016 1.452-2.323 1.452-3.871 0-3.968-3.533-6.774-8.226-6.774h-8.758v22.887h11.322c4.694 0 8.226-2.855 8.226-6.774.049-2.662-1.451-4.5-4.016-5.468zM106.5 25.5h2.274c1.5 0 2.42.774 2.42 2.032s-.92 2.033-2.42 2.033H106.5V25.5zm4.839 12.823H106.5v-4.017h4.839c1.5 0 2.42.678 2.42 2.033s-.92 1.984-2.42 1.984zM89.516 20.468h-9.532v22.887h6.339v-7.113h3.193c5.323 0 9.387-3.242 9.387-7.887 0-4.742-3.968-7.887-9.387-7.887zm.049 10.597h-3.242v-5.371h3.242c1.79 0 2.903 1.016 2.903 2.66 0 1.646-1.162 2.71-2.903 2.71zM66.484 34.016h7.5v-4.984h-7.5v-3.145h10.5v-5.42H60.145v22.888H77.42v-5.371H66.484zM37.742 25.887v-5.42H20.903v22.888h17.323v-5.371H27.242v-3.968h7.5v-4.984h-7.5v-3.145zM6.823 36.242h3.193c5.323 0 9.387-3.242 9.387-7.887 0-4.742-3.968-7.887-9.387-7.887H.484v22.887h6.339v-7.113zm0-10.548h3.242c1.79 0 2.903 1.016 2.903 2.66 0 1.646-1.162 2.71-2.903 2.71H6.823v-5.37zM48.774 38.323c-2.177 0-3.92-.823-5.42-2.904l-4.402 2.904c1.742 3.435 5.322 5.467 9.822 5.467 6.049 0 9.63-2.806 9.63-7.258 0-2.274-1.162-4.016-3.146-5.032 1.452-1.113 2.226-2.71 2.226-4.5 0-4.452-3.242-6.92-8.516-6.92-4.307 0-7.549 1.985-9.29 5.468l4.403 2.904c1.064-1.936 2.564-2.904 4.451-2.904 1.645 0 2.758.775 2.758 2.033 0 1.16-.967 1.935-2.613 1.935h-2.71v4.79h3.436c1.79 0 2.807.726 2.807 1.888.048 1.403-1.404 2.129-3.436 2.129zM100.597 10.306v6.581h3.435V4.017h-1.113l-7.113 6.725V4.258h-3.435V17.13h1.064zM87.29 10.306v6.581h3.436V4.017h-1.113L82.5 10.741V4.258h-3.435V17.13h1.064zM75.774 10.113c.532-.58.823-1.307.823-2.13 0-2.177-1.936-3.725-4.452-3.725h-4.742v12.63h6.145c2.517 0 4.452-1.55 4.452-3.775-.048-1.452-.871-2.468-2.226-3zm-5.129-3.097h1.258c.823 0 1.307.436 1.307 1.113s-.484 1.113-1.307 1.113h-1.258V7.016zm2.613 7.113h-2.613v-2.226h2.613c.823 0 1.307.387 1.307 1.113.048.726-.484 1.113-1.307 1.113zM44.42 12.968h1.741c2.855 0 5.08-1.79 5.08-4.355 0-2.613-2.176-4.355-5.08-4.355h-5.177v12.63h3.435v-3.92zm0-5.855h1.741c.968 0 1.597.58 1.597 1.452 0 .87-.629 1.5-1.597 1.5H44.42V7.113zM3.92 10.597l4.983 6.29h3.678l.145-.339-4.984-6.29 4.5-6H8.274L3.92 9.968v-5.71H.484v12.63h3.435zM25.597 16.887v1.5h3.435v-1.5h7.307v1.5h3.435v-4.452h-1.839V4.258h-9.919v2.468c0 4.113-.387 6.484-1.306 7.21h-1.113v2.854l.048.145h-.048v-.048zm5.661-9.677H34.5v6.677h-4.113c.532-1.355.871-3.629.871-6.677z"/>
            <path d="M16.258 16.887l.484-1.064h4.742l.484 1.064h3.629v-.145L19.645 4.016h-1.113l-5.855 12.532.242.34h3.34zm2.855-6.629l1.161 2.952H18l1.113-2.952zM59.032 17.129c3.823.048 7.21-2.903 7.113-6.532.097-3.63-3.29-6.63-7.113-6.532-3.87-.097-7.161 2.951-7.064 6.532-.097 3.629 3.193 6.58 7.064 6.532zm0-10.064c2.033 0 3.58 1.451 3.58 3.532 0 2.129-1.547 3.532-3.58 3.532-1.064 0-1.935-.339-2.613-.968-.677-.629-1.016-1.5-1.016-2.564.049-2.13 1.549-3.532 3.63-3.532z"/>
            <ellipse cx="98.758" cy="2.323" rx="2.177" ry="2.129"/>
        </g>
    </g>
</svg>
