<svg xmlns="http://www.w3.org/2000/svg" width="368" height="369" viewBox="0 0 368 369">
    <g fill="#FFDC00" fill-rule="nonzero">
        <path d="M243.697 112.188c3.968 10.9-1.648 22.951-12.55 26.92-10.897 3.965-22.95-1.654-26.917-12.555-3.967-10.9 1.656-22.947 12.552-26.913 10.902-3.968 22.948 1.648 26.915 12.548zM129.994 153.573c3.968 10.9-1.653 22.953-12.55 26.919-10.896 3.966-22.95-1.654-26.917-12.554-3.967-10.9 1.656-22.948 12.552-26.914 10.897-3.966 22.948 1.648 26.915 12.549zM153.682 313.094c-4.512 1.643-9.51-.69-11.158-5.22-12.876-35.377 5.032-74.492 39.924-87.191l27.556-10.03c34.893-12.7 73.696 5.594 86.5 40.775 1.649 4.529-.672 9.532-5.19 11.176-4.513 1.643-9.506-.698-11.154-5.227-9.514-26.139-38.31-39.747-64.187-30.328l-27.556 10.03c-25.878 9.418-39.129 38.503-29.542 64.843 1.648 4.53-.68 9.53-5.193 11.172z"/>
        <path d="M246.934 357.902C151.592 392.604 45.796 343.27 11.096 247.93c-34.7-95.334 14.633-201.132 109.975-235.833 95.337-34.7 201.133 14.635 235.831 109.97 34.701 95.339-14.63 201.137-109.968 235.836zM127.048 28.517C40.76 59.924-3.888 155.67 27.516 241.952c31.407 86.29 127.153 130.935 213.441 99.529 86.284-31.405 130.931-127.15 99.525-213.439-31.405-86.284-127.15-130.93-213.434-99.525z"/>
    </g>
</svg>
