<svg xmlns="http://www.w3.org/2000/svg" width="90" height="90" viewBox="0 0 90 90">
    <g fill="#FFDC00" fill-rule="nonzero">
        <path d="M15 0v18.75H0V52.5h15V90h52.5L90 67.5V0H15zM3.75 48.75V22.5H60v26.25H3.75zM67.5 84.698V67.5h17.198L67.5 84.698zM86.25 63.75h-22.5v22.5h-45V52.5h45V18.75h-45v-15h67.5v60z"/>
        <path d="M21.777 30.036a4.255 4.255 0 0 0-.737-1.535 3.738 3.738 0 0 0-1.35-1.086c-.562-.277-1.247-.415-2.065-.415H12v16h3.214v-6.387h1.719c.759 0 1.45-.104 2.076-.295a4.243 4.243 0 0 0 1.596-.874c.439-.384.781-.885 1.027-1.497.245-.613.368-1.33.368-2.151 0-.598-.078-1.188-.223-1.76zm-3.583 3.623c-.39.389-.911.587-1.551.587h-1.429v-4.867h1.34c.803 0 1.376.213 1.718.628.343.418.514 1.03.514 1.837 0 .822-.197 1.427-.592 1.815zM35.79 31.575c-.14-.96-.403-1.774-.803-2.454a3.967 3.967 0 0 0-1.666-1.568c-.718-.366-1.654-.553-2.823-.553H25v16h5.296c1.118 0 2.043-.164 2.772-.493a3.967 3.967 0 0 0 1.748-1.501c.435-.673.741-1.532.92-2.566.179-1.039.264-2.26.264-3.664 0-1.177-.07-2.245-.21-3.2zm-3.253 6.028c-.066.736-.206 1.326-.42 1.774-.21.448-.493.77-.85.964-.357.194-.831.291-1.421.291h-1.491V29.38h1.417c.637 0 1.145.12 1.526.351.384.228.668.572.866 1.027.194.456.322 1.027.384 1.715.058.69.093 1.49.093 2.401 0 1.09-.035 2.002-.104 2.73zM50 29.644V27h-9v16h3.248v-6.947h5.414V33.41h-5.414v-3.765z"/>
    </g>
</svg>
