<svg xmlns="http://www.w3.org/2000/svg" width="96" height="87" viewBox="0 0 96 87">
    <g fill="#FFDC00" fill-rule="nonzero">
        <path d="M95.467 61.905l-4.397-4.38a1.796 1.796 0 0 0-2.547.01c-.701.71-.696 1.856.01 2.56l4.397 4.38a1.791 1.791 0 0 0 2.548-.01 1.815 1.815 0 0 0-.01-2.56zM86.415 52.586a1.998 1.998 0 0 0-2.827 0l-.003.003a1.998 1.998 0 1 0 2.83 2.824 2 2 0 0 0 0-2.827z"/>
        <path d="M69.848 61.645l18.096-18.15c2.741-2.75 2.741-7.223 0-9.972a6.979 6.979 0 0 0-3.39-1.88c.426-.92.652-1.929.652-2.973a7.015 7.015 0 0 0-2.059-4.985 6.967 6.967 0 0 0-3.775-1.962c.801-2.448.235-5.252-1.703-7.195a6.981 6.981 0 0 0-3.772-1.957 7.08 7.08 0 0 0 .354-2.213 7.015 7.015 0 0 0-2.06-4.986 6.974 6.974 0 0 0-4.97-2.065 6.974 6.974 0 0 0-3.357.854l-.18-.194A12.432 12.432 0 0 0 54.6 0H39.95c-1.03 0-1.865.838-1.865 1.871v2.454c0 .981.165 1.937.482 2.836a7.002 7.002 0 0 0-2.698-.536A6.974 6.974 0 0 0 30.9 8.69c-1.94 1.944-2.505 4.75-1.702 7.198a6.983 6.983 0 0 0-3.776 1.958 7.016 7.016 0 0 0-2.06 4.986c0 .762.123 1.505.353 2.209a6.969 6.969 0 0 0-3.771 1.962c-2.14 2.146-2.61 5.345-1.406 7.953a6.977 6.977 0 0 0-3.391 1.885c-2.741 2.749-2.741 7.222 0 9.971l3.721 3.733L.546 68.92a1.875 1.875 0 0 0 0 2.646 1.858 1.858 0 0 0 2.638 0l18.499-18.553a6.97 6.97 0 0 0 3.474.92 6.973 6.973 0 0 0 4.971-2.065 7.043 7.043 0 0 0 2.049-5.27 7 7 0 0 0 5.254-2.055 7.016 7.016 0 0 0 2.052-5.27 6.998 6.998 0 0 0 5.251-2.055 7.016 7.016 0 0 0 2.053-5.27 6.997 6.997 0 0 0 5.251-2.055c2.575-2.583 2.73-6.688.466-9.454l12.383-12.42a3.271 3.271 0 0 1 2.333-.97c.881 0 1.71.345 2.333.97.623.625.966 1.455.966 2.34a3.29 3.29 0 0 1-.967 2.339l-1.825 1.83-6.625 6.645a1.875 1.875 0 0 0 0 2.646 1.858 1.858 0 0 0 2.638 0l6.625-6.644a3.296 3.296 0 0 1 4.665 0 3.32 3.32 0 0 1 0 4.679l-1.826 1.831-4.799 4.813a1.875 1.875 0 0 0 0 2.646 1.858 1.858 0 0 0 2.638 0l4.799-4.812a3.271 3.271 0 0 1 2.333-.97c.88 0 1.71.344 2.332.97.623.625.966 1.455.966 2.339a3.29 3.29 0 0 1-.966 2.34l-2.506 2.513-2.293 2.3a1.875 1.875 0 0 0 0 2.645 1.858 1.858 0 0 0 2.639 0l2.294-2.3a3.296 3.296 0 0 1 4.663.001 3.32 3.32 0 0 1 0 4.68L67.207 59a25.236 25.236 0 0 1-17.006 7.43c-.472.017-.92.213-1.253.55L32.23 83.807a1.875 1.875 0 0 0 .005 2.646c.364.364.84.546 1.317.546.478 0 .957-.184 1.321-.55L47.169 74.07a17.3 17.3 0 0 0 10.532 2.718l9.623 9.652a1.858 1.858 0 0 0 2.638 0 1.875 1.875 0 0 0 0-2.646L59.73 73.532a1.863 1.863 0 0 0-1.471-.542l-.592.048a13.584 13.584 0 0 1-7.784-1.7l1.199-1.206a28.948 28.948 0 0 0 18.766-8.487zM27.49 49.222a3.272 3.272 0 0 1-2.332.97 3.27 3.27 0 0 1-2.333-.97l-5.04-5.055a3.32 3.32 0 0 1 0-4.68 3.272 3.272 0 0 1 2.332-.969c.881 0 1.71.344 2.333.97l5.04 5.055a3.32 3.32 0 0 1 0 4.679zm7.304-7.325a3.296 3.296 0 0 1-4.666 0l-5.04-5.056-2.507-2.514a3.32 3.32 0 0 1 0-4.679 3.272 3.272 0 0 1 2.333-.969c.881 0 1.71.344 2.332.97l7.547 7.569c.624.625.967 1.455.967 2.34 0 .883-.343 1.714-.966 2.339zm7.303-7.325a3.296 3.296 0 0 1-4.665 0l-9.373-9.4a3.291 3.291 0 0 1-.966-2.34c0-.884.343-1.715.966-2.34a3.284 3.284 0 0 1 2.332-.967c.845 0 1.689.322 2.332.966l4.271 4.284 5.103 5.118c.623.625.966 1.455.966 2.34a3.29 3.29 0 0 1-.966 2.339zm7.303-7.325a3.296 3.296 0 0 1-4.665 0l-9.373-9.4c0-.002-.002-.003-.003-.004l-1.823-1.828a3.32 3.32 0 0 1 0-4.68 3.283 3.283 0 0 1 2.333-.967c.845 0 1.69.323 2.333.968L49.4 22.567a3.29 3.29 0 0 1 .966 2.34 3.29 3.29 0 0 1-.966 2.34zm.49-9.48l-5.123-5.138c.581.124 1.178.19 1.786.19h.042l5.12-.024a1.868 1.868 0 0 0 1.856-1.88 1.868 1.868 0 0 0-1.865-1.862h-.01l-5.119.024h-.023a4.7 4.7 0 0 1-3.342-1.384 4.727 4.727 0 0 1-1.396-3.369v-.582H54.6a8.694 8.694 0 0 1 6.353 2.774l.076.082-11.137 11.17z"/>
    </g>
</svg>
