<?xml version="1.0" encoding="UTF-8" standalone="no"?>
<!-- Created with Inkscape (http://www.inkscape.org/) -->

<svg
   xmlns:dc="http://purl.org/dc/elements/1.1/"
   xmlns:cc="http://creativecommons.org/ns#"
   xmlns:rdf="http://www.w3.org/1999/02/22-rdf-syntax-ns#"
   xmlns:svg="http://www.w3.org/2000/svg"
   xmlns="http://www.w3.org/2000/svg"
   xmlns:sodipodi="http://sodipodi.sourceforge.net/DTD/sodipodi-0.dtd"
   xmlns:inkscape="http://www.inkscape.org/namespaces/inkscape"
   width="96"
   height="87"
   viewBox="0 0 25.400001 23.01875"
   version="1.1"
   id="svg8"
   inkscape:version="0.92.4 (5da689c313, 2019-01-14)"
   sodipodi:docname="drawing.svg">
  <defs
     id="defs2">
    <filter
       filterUnits="objectBoundingBox"
       y="-0.50200003"
       x="-0.56299996"
       height="2.0050001"
       width="2.125"
       id="a">
      <feOffset
         id="feOffset10"
         result="shadowOffsetOuter1"
         in="SourceAlpha"
         dy="40" />
      <feGaussianBlur
         id="feGaussianBlur12"
         stdDeviation="35"
         result="shadowBlurOuter1"
         in="shadowOffsetOuter1" />
      <feColorMatrix
         id="feColorMatrix14"
         values="0 0 0 0 0.242413949 0 0 0 0 0.214847729 0 0 0 0 0.088655696 0 0 0 0.120110358 0"
         result="shadowMatrixOuter1"
         in="shadowBlurOuter1" />
      <feMerge
         id="feMerge20">
        <feMergeNode
           id="feMergeNode16"
           in="shadowMatrixOuter1" />
        <feMergeNode
           id="feMergeNode18"
           in="SourceGraphic" />
      </feMerge>
    </filter>
  </defs>
  <sodipodi:namedview
     id="base"
     pagecolor="#ffffff"
     bordercolor="#666666"
     borderopacity="1.0"
     inkscape:pageopacity="0.0"
     inkscape:pageshadow="2"
     inkscape:zoom="1.979899"
     inkscape:cx="322.45569"
     inkscape:cy="26.194393"
     inkscape:document-units="mm"
     inkscape:current-layer="layer1"
     showgrid="false"
     fit-margin-top="0"
     fit-margin-left="0"
     fit-margin-right="0"
     fit-margin-bottom="0"
     units="px"
     inkscape:window-width="1920"
     inkscape:window-height="1017"
     inkscape:window-x="-8"
     inkscape:window-y="-8"
     inkscape:window-maximized="1" />
  <metadata
     id="metadata5">
    <rdf:RDF>
      <cc:Work
         rdf:about="">
        <dc:format>image/svg+xml</dc:format>
        <dc:type
           rdf:resource="http://purl.org/dc/dcmitype/StillImage" />
        <dc:title></dc:title>
      </cc:Work>
    </rdf:RDF>
  </metadata>
  <g
     inkscape:label="Layer 1"
     inkscape:groupmode="layer"
     id="layer1"
     transform="translate(-88.848076,-182.86814)">
    <path
       id="path25"
       transform="matrix(0.23813477,0,0,0.23963823,90.231342,183.4061)"
       d="m 87.299,62.917 c 1.897,-2.419 2.807,-5.012 2.691,-7.683 -0.116,-2.942 -1.433,-5.245 -2.517,-6.657 1.259,-3.136 1.743,-8.07 -2.459,-11.903 -3.078,-2.806 -8.306,-4.064 -15.547,-3.715 -5.092,0.232 -9.351,1.18 -9.525,1.219 h -0.02 c -0.968,0.174 -1.994,0.387 -3.04,0.62 -0.077,-1.24 0.136,-4.317 2.42,-11.245 C 62.014,15.308 61.86,8.999 58.8,4.78 55.586,0.348 50.455,0 48.945,0 47.493,0 46.157,0.6 45.208,1.703 43.059,4.2 43.311,8.806 43.582,10.935 c -2.556,6.85 -9.72,23.65 -15.78,28.313 -0.116,0.078 -0.213,0.175 -0.31,0.271 -1.78,1.878 -2.98,3.91 -3.794,5.69 A 7.992,7.992 0 0 0 19.864,44.241 H 8.054 C 3.601,44.241 0,47.861 0,52.292 v 31.45 c 0,4.45 3.62,8.05 8.054,8.05 h 11.81 a 8.04,8.04 0 0 0 4.647,-1.47 l 4.55,0.541 c 0.697,0.097 13.088,1.665 25.808,1.413 2.304,0.174 4.473,0.271 6.486,0.271 3.466,0 6.486,-0.27 9.003,-0.813 5.925,-1.258 9.971,-3.774 12.023,-7.47 1.568,-2.826 1.568,-5.632 1.317,-7.412 3.853,-3.484 4.53,-7.335 4.395,-10.045 a 13.069,13.069 0 0 0 -0.794,-3.89 z M 8.054,86.567 A 2.83,2.83 0 0 1 5.227,83.741 V 52.273 a 2.83,2.83 0 0 1 2.827,-2.825 h 11.81 a 2.83,2.83 0 0 1 2.827,2.825 v 31.45 a 2.83,2.83 0 0 1 -2.827,2.825 H 8.054 Z M 82.343,60.653 a 2.6,2.6 0 0 0 -0.349,3.155 c 0,0.019 0.794,1.374 0.89,3.232 0.136,2.535 -1.084,4.78 -3.64,6.696 a 2.636,2.636 0 0 0 -0.89,2.98 c 0,0.02 0.833,2.574 -0.523,4.993 -1.297,2.323 -4.182,3.987 -8.557,4.916 -3.505,0.755 -8.267,0.89 -14.114,0.426 h -0.271 c -12.45,0.27 -25.034,-1.355 -25.17,-1.374 h -0.02 l -1.955,-0.232 a 8.196,8.196 0 0 0 0.175,-1.704 V 52.273 c 0,-0.832 -0.136,-1.645 -0.368,-2.4 0.348,-1.296 1.316,-4.18 3.6,-6.638 8.694,-6.89 17.194,-30.133 17.561,-31.14 a 2.45,2.45 0 0 0 0.117,-1.296 C 48.499,8.632 48.616,5.98 49.08,5.187 c 1.026,0.019 3.795,0.31 5.46,2.612 1.975,2.73 1.897,7.606 -0.232,14.07 -3.253,9.851 -3.524,15.038 -0.949,17.321 1.278,1.142 2.982,1.2 4.22,0.755 a 54.657,54.657 0 0 1 3.37,-0.677 c 0.077,-0.02 0.174,-0.039 0.251,-0.058 5.944,-1.297 16.593,-2.09 20.29,1.277 3.137,2.864 0.91,6.657 0.659,7.064 -0.716,1.084 -0.503,2.496 0.465,3.367 0.019,0.02 2.052,1.936 2.149,4.51 0.077,1.722 -0.736,3.483 -2.42,5.225 z"
       inkscape:connector-curvature="0"
       style="fill:#ffdc00;fill-rule:nonzero;stroke-width:1.10757446;filter:url(#a)" />
  </g>
</svg>
