<svg width="140" height="125" viewBox="0 0 140 125" fill="none" xmlns="http://www.w3.org/2000/svg">
<path d="M131.6 84.7C130.8 84.6 130.2 83.7999 130.3 82.9999C130.4 82.1999 131.2 81.6 132 81.7C132.8 81.7999 133.4 82.6 133.3 83.4C133.2 84.1 132.6 84.7 131.8 84.7C131.7 84.7 131.7 84.7 131.6 84.7ZM133.8 68.7C134.5 68.7 135.2 68.1 135.3 67.4C135.4 66.6 134.8 65.8999 134 65.7999C133.2 65.6999 132.5 66.2999 132.4 67.0999C132.3 67.8999 132.9 68.6 133.7 68.7C133.8 68.7 133.8 68.7 133.8 68.7ZM122.7 101.5C123.5 101.5 124.1 100.9 124.2 100.1C124.3 99.1999 123.7 98.4999 122.9 98.2999C122 98.1999 121.3 98.7999 121.1 99.5999C121 100.5 121.6 101.2 122.4 101.4C122.6 101.5 122.6 101.5 122.7 101.5ZM125.5 85.5999C126.2 85.5999 126.9 85.0999 127 84.2999C127.2 83.4999 126.6 82.5999 125.8 82.4999C125 82.2999 124.1 82.8999 124 83.7C123.8 84.6 124.4 85.3999 125.2 85.4999C125.3 85.5999 125.4 85.5999 125.5 85.5999ZM128.5 69.7999C129.3 69.7999 129.9 69.1999 130 68.4999C130.1 67.5999 129.5 66.8999 128.7 66.7C127.9 66.6 127.1 67.1999 126.9 67.9999C126.8 68.8999 127.4 69.6999 128.2 69.7999C128.3 69.7999 128.4 69.7999 128.5 69.7999ZM128.8 53.7999C128.9 53.7999 128.9 53.7999 129 53.7999C129.8 53.6999 130.4 52.8999 130.3 51.9999C130.2 51.0999 129.4 50.6 128.5 50.7C127.7 50.7999 127.1 51.5999 127.2 52.4999C127.4 53.1999 128.1 53.7999 128.8 53.7999ZM115.7 101.6C116.5 101.6 117.1 101.1 117.3 100.3C117.5 99.3999 116.9 98.4999 116 98.2999C115.1 98.0999 114.2 98.6999 114.1 99.5999C113.9 100.5 114.5 101.4 115.4 101.6C115.5 101.6 115.6 101.6 115.7 101.6ZM119.5 85.9999C120.2 85.9999 120.9 85.4999 121.1 84.7999C121.3 83.8999 120.8 82.9999 119.9 82.7999C119 82.5999 118.1 83.0999 117.9 83.9999C117.7 84.8999 118.2 85.7999 119.1 85.9999C119.2 85.9999 119.4 85.9999 119.5 85.9999ZM123.3 70.4C124.1 70.4 124.8 69.7999 124.9 69.0999C125.1 68.1999 124.5 67.2999 123.6 67.2C122.7 67 121.8 67.5999 121.7 68.4999C121.5 69.3999 122.1 70.3 123 70.4C123.1 70.4 123.2 70.4 123.3 70.4ZM123.8 54.4C123.9 54.4 124 54.4 124 54.4C124.9 54.3 125.5 53.3999 125.4 52.4999C125.3 51.5999 124.4 50.9999 123.5 51.0999C122.6 51.1999 122 52.0999 122.1 52.9999C122.3 53.7999 123 54.4 123.8 54.4ZM118.5 39.2999C118.8 39.2999 119.1 39.1999 119.3 39.0999C120.1 38.5999 120.3 37.5999 119.9 36.7999C119.4 35.9999 118.4 35.7 117.7 36.2C116.9 36.7 116.6 37.6999 117.1 38.4999C117.4 38.9999 117.9 39.2999 118.5 39.2999ZM109.1 26.2999C109.5 26.2999 109.8 26.2 110.1 25.9C110.8 25.3 110.9 24.2999 110.3 23.5999C109.7 22.8999 108.7 22.8 108 23.4C107.3 24 107.2 25 107.8 25.7C108.2 26.1 108.6 26.2999 109.1 26.2999ZM99 13.7999C99.4 13.7999 99.7 13.6999 100 13.4999C100.7 12.8999 100.8 11.9 100.3 11.2C99.7001 10.5 98.7 10.4 98 10.9C97.3 11.5 97.2 12.5 97.7 13.2C98 13.6 98.5 13.7999 99 13.7999ZM105 116.9C105.8 116.9 106.5 116.4 106.7 115.6C106.9 114.7 106.4 113.7 105.4 113.5C104.5 113.3 103.5 113.8 103.3 114.8C103.1 115.7 103.6 116.7 104.5 116.9C104.7 116.8 104.9 116.9 105 116.9ZM109 101.3C109.8 101.3 110.5 100.8 110.7 99.9999C111 99.0999 110.4 98.0999 109.5 97.7999C108.6 97.4999 107.6 98.0999 107.4 98.9999C107.1 99.8999 107.7 100.9 108.6 101.2C108.7 101.3 108.8 101.3 109 101.3ZM113.9 85.9999C114.6 85.9999 115.3 85.4999 115.5 84.7999C115.8 83.8999 115.3 82.8999 114.4 82.5999C113.5 82.2999 112.5 82.7999 112.2 83.7C111.9 84.6 112.4 85.6 113.3 85.9C113.5 85.9 113.7 85.9999 113.9 85.9999ZM118.4 70.4999C119.2 70.4999 119.9 69.8999 120.1 69.0999C120.3 68.1999 119.7 67.1999 118.8 66.9999C117.9 66.7999 116.9 67.4 116.7 68.4C116.5 69.3 117.1 70.2999 118 70.4999C118.1 70.4999 118.2 70.4999 118.4 70.4999ZM118.8 54.4999C118.9 54.4999 119 54.4999 119.1 54.4999C120 54.2999 120.7 53.3999 120.5 52.4999C120.3 51.5999 119.4 50.8999 118.5 51.0999C117.6 51.2999 116.9 52.1999 117.1 53.0999C117.3 53.8999 118 54.4999 118.8 54.4999ZM112.9 39.7C113.2 39.7 113.5 39.6 113.8 39.4C114.6 38.9 114.8 37.7999 114.3 36.9999C113.8 36.1999 112.7 35.8999 111.9 36.4999C111.1 36.9999 110.9 38.1 111.4 38.9C111.8 39.4 112.3 39.7 112.9 39.7ZM103.1 26.9999C103.5 26.9999 103.9 26.8999 104.2 26.5999C104.9 25.9999 105 24.8999 104.4 24.0999C103.8 23.3999 102.7 23.3 102 23.9C101.3 24.5 101.2 25.6 101.8 26.4C102.1 26.8 102.6 26.9999 103.1 26.9999ZM92.7 14.7C93.1 14.7 93.5001 14.5999 93.8001 14.2999C94.6001 13.6999 94.7 12.6 94.1 11.9C93.5 11.1 92.4 10.9999 91.7 11.5999C90.9 12.1999 90.8001 13.2999 91.4001 14.0999C91.7001 14.4999 92.2 14.7 92.7 14.7ZM97.8001 115.8C98.6001 115.8 99.3 115.3 99.5 114.5C99.8 113.5 99.3001 112.5 98.3001 112.2C97.3001 111.9 96.3 112.4 96 113.4C95.7 114.4 96.2 115.4 97.2 115.7C97.4 115.7 97.6001 115.8 97.8001 115.8ZM102.7 100.5C103.4 100.5 104.1 99.9999 104.4 99.2999C104.8 98.3999 104.3 97.3 103.3 96.9C102.4 96.5 101.3 96.9999 101 97.9999C100.6 98.8999 101.1 100 102.1 100.4C102.3 100.4 102.5 100.5 102.7 100.5ZM108.7 85.4999C109.4 85.4999 110.1 85.0999 110.4 84.2999C110.8 83.3999 110.3 82.3 109.4 81.9C108.5 81.5 107.4 82 107 82.9C106.6 83.8 107.1 84.8999 108 85.2999C108.2 85.4999 108.5 85.4999 108.7 85.4999ZM113.6 70.2C114.4 70.2 115.2 69.6 115.4 68.7C115.6 67.7 115 66.6999 114 66.4999C113 66.2999 112 66.9 111.8 67.9C111.6 68.9 112.2 69.8999 113.2 70.0999C113.4 70.1999 113.5 70.2 113.6 70.2ZM113.8 54.2999C113.9 54.2999 114.1 54.2999 114.2 54.2999C115.2 54.0999 115.8 53.0999 115.6 52.0999C115.4 51.0999 114.4 50.5 113.4 50.7C112.4 50.9 111.8 51.9 112 52.9C112.2 53.7 112.9 54.2999 113.8 54.2999ZM107 39.7999C107.4 39.7999 107.7 39.6999 108.1 39.4999C108.9 38.8999 109.1 37.8 108.5 36.9C107.9 36.1 106.8 35.8999 106 36.4999C105.2 37.0999 105 38.1999 105.6 39.0999C105.9 39.4999 106.4 39.7999 107 39.7999ZM96.7 27.4999C97.1 27.4999 97.6001 27.2999 97.9001 26.9999C98.6001 26.2999 98.7 25.2 98 24.4C97.3 23.7 96.2001 23.5999 95.4001 24.2999C94.7001 24.9999 94.6001 26.1 95.3001 26.9C95.7001 27.3 96.2 27.4999 96.7 27.4999ZM91 114.2C91.8 114.2 92.5001 113.7 92.8001 113C93.2001 112 92.7 110.9 91.7 110.5C90.7 110.1 89.6 110.6 89.2 111.6C88.8 112.6 89.3001 113.7 90.3001 114.1C90.5001 114.1 90.8 114.2 91 114.2ZM97.1 99.2999C97.8 99.2999 98.5001 98.8999 98.8001 98.2C99.2001 97.2 98.8001 96.0999 97.9001 95.5999C96.9001 95.0999 95.8001 95.5999 95.4001 96.4999C95.0001 97.4999 95.4001 98.5999 96.3001 99.0999C96.5001 99.1999 96.8 99.2999 97.1 99.2999ZM104 84.7999C104.7 84.7999 105.4 84.3999 105.7 83.7C106.1 82.7 105.7 81.6 104.7 81.2C103.7 80.7999 102.6 81.2 102.2 82.2C101.8 83.2 102.2 84.2999 103.2 84.7C103.5 84.7 103.7 84.7999 104 84.7999ZM109.2 69.5999C110.1 69.5999 110.9 68.9999 111.1 67.9999C111.3 66.9999 110.6 65.9999 109.6 65.7999C108.6 65.5999 107.6 66.2999 107.4 67.2999C107.2 68.2999 107.9 69.2999 108.9 69.4999C108.9 69.5999 109 69.5999 109.2 69.5999ZM108.5 53.7C108.7 53.7 108.9 53.6999 109.1 53.5999C110.1 53.2999 110.7 52.2 110.4 51.2C110.1 50.2 109 49.6 108 49.9C107 50.2 106.4 51.2999 106.7 52.2999C107 53.0999 107.7 53.7 108.5 53.7ZM100.7 39.7C101.1 39.7 101.5 39.5999 101.9 39.2999C102.7 38.5999 102.9 37.3999 102.2 36.5999C101.5 35.7999 100.3 35.5999 99.5 36.2999C98.7 36.9999 98.5 38.1999 99.2 38.9999C99.6 39.4999 100.1 39.7 100.7 39.7ZM89.9001 27.7999C90.4001 27.7999 90.9 27.5999 91.2 27.2999C92 26.5999 92.0001 25.2999 91.3001 24.5999C90.6001 23.7999 89.4 23.7999 88.6 24.5999C87.8 25.2999 87.8 26.4999 88.5 27.2999C88.9 27.5999 89.4001 27.7999 89.9001 27.7999ZM79.2 15.9C79.6 15.9 80.0001 15.7999 80.4001 15.4999C81.2001 14.7999 81.4 13.5999 80.7 12.7999C80 11.9999 78.8 11.7999 78 12.4999C77.2 13.1999 77 14.4 77.7 15.2C78.1 15.7 78.6 15.9 79.2 15.9ZM84.8001 112.3C85.6001 112.3 86.3 111.9 86.6 111.1C87.1 110.1 86.6 108.9 85.6 108.4C84.6 107.9 83.4 108.4 83 109.4C82.5 110.4 83 111.6 84 112.1C84.2 112.2 84.5001 112.3 84.8001 112.3ZM92.1 97.9C92.8 97.9 93.5001 97.5 93.8001 96.9C94.3001 95.9 94 94.7 93 94.2C92 93.7 90.8001 93.9999 90.3001 94.9999C89.8001 95.9999 90.1 97.2 91.1 97.7C91.4 97.7999 91.7 97.9 92.1 97.9ZM99.7 83.7999C100.4 83.7999 101.2 83.3999 101.5 82.7C102 81.7 101.6 80.4999 100.6 79.9999C99.6 79.4999 98.4001 79.9 97.9001 80.9C97.4001 81.9 97.8001 83.0999 98.8001 83.5999C99.1001 83.6999 99.4 83.7999 99.7 83.7999ZM104.8 68.5999C105.8 68.5999 106.6 67.9 106.8 66.9C107 65.8 106.2 64.7999 105.1 64.5999C104 64.3999 103 65.1999 102.8 66.2999C102.6 67.3999 103.4 68.3999 104.5 68.5999C104.6 68.5999 104.7 68.5999 104.8 68.5999ZM103 52.7999C103.3 52.7999 103.5 52.7999 103.8 52.5999C104.8 52.1999 105.3 50.9999 104.9 49.9999C104.5 48.9999 103.3 48.5 102.3 48.9C101.3 49.3 100.8 50.4999 101.2 51.4999C101.5 52.3999 102.2 52.7999 103 52.7999ZM94 39.5999C94.5 39.5999 95.0001 39.3999 95.3001 39.0999C96.1001 38.3999 96.2001 37.0999 95.4001 36.2999C94.7001 35.4999 93.4 35.4 92.6 36.2C91.8 36.9 91.7 38.1999 92.5 38.9999C92.9 39.3999 93.5 39.5999 94 39.5999ZM82.8001 28.2C83.3001 28.2 83.8 27.9999 84.2 27.5999C85 26.7999 85 25.4999 84.2 24.7999C83.4 23.9999 82.2001 23.9999 81.4001 24.7999C80.6001 25.5999 80.6001 26.8999 81.4001 27.5999C81.7001 27.9999 82.3001 28.2 82.8001 28.2ZM72 16.2999C72.4 16.2999 72.8 16.2 73.2 15.9C74.1 15.2 74.3 13.9999 73.6 13.0999C72.9 12.1999 71.7001 12 70.8001 12.7C69.9001 13.4 69.7001 14.5999 70.4001 15.4999C70.8001 15.9999 71.4 16.2999 72 16.2999ZM83.8001 113.4C84.5001 113.4 85.2 113 85.6 112.3C86.1 111.3 85.7 110.1 84.7 109.7C83.7 109.2 82.6 109.6 82.1 110.6C81.6 111.6 82 112.7 83 113.2C83.2 113.4 83.5001 113.4 83.8001 113.4ZM91.5 99.2999C92.2 99.2999 92.8 98.9999 93.2 98.2999C93.8 97.3999 93.4 96.1999 92.5 95.5999C91.6 94.9999 90.4001 95.3999 89.8001 96.2999C89.2001 97.1999 89.6 98.3999 90.5 98.9999C90.8 99.1999 91.1 99.2999 91.5 99.2999ZM99.3001 85.2999C100 85.2999 100.7 84.8999 101.1 84.2C101.6 83.2 101.2 81.9999 100.2 81.5999C99.2 81.0999 98.1 81.4999 97.6 82.4999C97.1 83.4999 97.5 84.5999 98.5 85.0999C98.8 85.1999 99.1001 85.2999 99.3001 85.2999ZM104.4 70.0999C105.4 70.0999 106.2 69.4 106.3 68.4C106.4 67.3 105.7 66.2999 104.6 66.2C103.5 66.1 102.5 66.8 102.4 67.9C102.2 69 103 69.9999 104.1 70.0999C104.2 70.0999 104.3 70.0999 104.4 70.0999ZM102.3 54.4C102.6 54.4 102.8 54.4 103.1 54.2C104.1 53.7999 104.5 52.5999 104.1 51.5999C103.7 50.5999 102.5 50.1999 101.5 50.5999C100.5 50.9999 100.1 52.2 100.5 53.2C100.8 54 101.5 54.4 102.3 54.4ZM93.3001 41.0999C93.8001 41.0999 94.2 40.8999 94.6 40.5999C95.4 39.8999 95.5001 38.6999 94.8001 37.7999C94.1001 36.9999 92.9 36.8999 92 37.5999C91.2 38.2999 91.1001 39.6 91.8001 40.4C92.2001 40.9 92.8001 41.0999 93.3001 41.0999ZM82.6 29.2C83.1 29.2 83.5001 29 83.9001 28.7C84.7001 28 84.8 26.7 84.1 25.9C83.4 25.1 82.1001 25 81.3001 25.7C80.5001 26.4 80.4 27.6999 81.1 28.4999C81.5 28.8999 82.1 29.2 82.6 29.2ZM73.1 16.2999C73.5 16.2999 73.8 16.1999 74.1 15.9999C75 15.3999 75.3001 14.1999 74.8001 13.2999C74.2001 12.3999 73 12.0999 72.1 12.5999C71.2 13.1999 70.9001 14.3999 71.4001 15.2999C71.7001 15.8999 72.4 16.2999 73.1 16.2999ZM83.5 113.4C84.2 113.4 84.9 113 85.2 112.4C85.7 111.5 85.3001 110.3 84.4001 109.8C83.5001 109.3 82.3001 109.7 81.8001 110.6C81.3001 111.5 81.7 112.7 82.6 113.2C82.9 113.4 83.2 113.4 83.5 113.4ZM91.7 99.5999C92.3 99.5999 93.0001 99.2999 93.3001 98.7C93.9001 97.7999 93.6 96.5999 92.7 96.0999C91.8 95.4999 90.6 95.7999 90.1 96.7C89.5 97.6 89.8 98.7999 90.7 99.2999C91 99.4999 91.3 99.5999 91.7 99.5999ZM99.6 85.5999C100.3 85.5999 101 85.1999 101.3 84.4999C101.8 83.4999 101.4 82.4 100.4 81.9C99.4001 81.4 98.3001 81.7999 97.8001 82.7999C97.3001 83.7999 97.7 84.9 98.7 85.4C99 85.6 99.3 85.5999 99.6 85.5999ZM104.2 70.2999C105.2 70.2999 106 69.4999 106.1 68.4999C106.2 67.3999 105.4 66.5 104.4 66.4C103.4 66.3 102.4 67.0999 102.3 68.0999C102.2 69.1999 103 70.1 104 70.2C104.1 70.2999 104.1 70.2999 104.2 70.2999ZM101.1 54.7999C101.4 54.7999 101.7 54.6999 101.9 54.5999C102.8 54.0999 103.2 52.9999 102.8 51.9999C102.3 51.0999 101.2 50.6999 100.2 51.0999C99.2 51.5999 98.9001 52.7 99.3001 53.7C99.7001 54.4 100.4 54.7999 101.1 54.7999ZM92.1 41.4999C92.5 41.4999 92.9001 41.3999 93.3001 41.0999C94.1001 40.3999 94.3 39.2 93.6 38.4C92.9 37.6 91.7001 37.3999 90.9001 38.0999C90.1001 38.7999 89.9 39.9999 90.6 40.7999C90.9 41.1999 91.5 41.4999 92.1 41.4999ZM82.2 28.7999C82.6 28.7999 83.0001 28.7 83.3001 28.4C84.2001 27.8 84.4001 26.6 83.8001 25.7C83.2001 24.8 82 24.6 81.1 25.2C80.2 25.8 80 27 80.7 27.9C81 28.6 81.6 28.7999 82.2 28.7999ZM74.2 14.9C74.5 14.9 74.7 14.8 75 14.7C76 14.2 76.4001 13.0999 75.9001 12.0999C75.5001 11.0999 74.3001 10.7 73.4001 11.2C72.4001 11.6 72 12.7999 72.5 13.7999C72.8 14.4999 73.5 14.9 74.2 14.9ZM84.2 112.1C84.8 112.1 85.4001 111.8 85.8001 111.2C86.3001 110.3 86 109.2 85.2 108.6C84.3 108.1 83.2 108.3 82.6 109.2C82.1 110.1 82.3 111.2 83.2 111.8C83.5 112 83.9 112.1 84.2 112.1ZM92.8001 98.4999C93.4001 98.4999 94.0001 98.1999 94.4001 97.5999C95.0001 96.6999 94.7001 95.5999 93.8001 94.9999C92.9001 94.3999 91.8 94.6999 91.2 95.5999C90.6 96.4999 90.9001 97.6 91.8001 98.2C92.1001 98.3999 92.5001 98.4999 92.8001 98.4999ZM100.5 84.4999C101.2 84.4999 101.9 84.1 102.2 83.4C102.6 82.5 102.2 81.3 101.2 80.9C100.3 80.5 99.2 80.9 98.7 81.9C98.3 82.8 98.7 84 99.7 84.4C100.1 84.4 100.3 84.4999 100.5 84.4999ZM104 68.9C105.1 68.9 105.9 67.9999 105.9 66.9999C105.9 65.9999 105 65.1 104 65.2C103 65.2 102.2 66.0999 102.2 67.0999C102.1 68.0999 103 68.9 104 68.9ZM99.2 53.7C99.5 53.7 99.8 53.5999 100.1 53.4999C101 52.9999 101.3 51.9 100.8 50.9C100.3 50 99.2001 49.7 98.3001 50.2C97.4001 50.7 97.1 51.7999 97.6 52.7999C97.9 53.2999 98.6 53.7 99.2 53.7ZM90.3001 40.2999C90.7001 40.2999 91.0001 40.1999 91.4001 39.9999C92.2001 39.3999 92.4001 38.2 91.8001 37.4C91.2001 36.6 90 36.3 89.2 36.9C88.4 37.5 88.2001 38.6999 88.8001 39.4999C89.2001 39.9999 89.8001 40.2999 90.3001 40.2999ZM81.9001 26.7C82.2001 26.7 82.5 26.5999 82.7 26.4999C83.6 25.9999 84 24.8999 83.5 23.9999C83 23.0999 81.9 22.7 81 23.2C80.1 23.7 79.7 24.8 80.2 25.7C80.5 26.3 81.2001 26.7 81.9001 26.7ZM75.6 11.7999C75.8 11.7999 76 11.8 76.2 11.7C77.2 11.4 77.7001 10.2999 77.4001 9.29993C77.1001 8.29993 76 7.79991 75 8.09991C74 8.39991 73.5001 9.49994 73.8001 10.4999C74.1001 11.2999 74.9 11.7999 75.6 11.7999ZM86.2 109.3C86.8 109.3 87.4 109 87.7 108.5C88.3 107.7 88 106.5 87.2 106C86.4 105.4 85.2 105.7 84.7 106.5C84.1 107.3 84.4 108.5 85.2 109C85.5 109.2 85.9 109.3 86.2 109.3ZM95.1 95.9C95.7 95.9 96.3 95.5999 96.7 94.9999C97.2 94.0999 97 92.9999 96.1 92.4999C95.2 91.9999 94.1 92.1999 93.6 93.0999C93.1 93.9999 93.3 95.0999 94.2 95.5999C94.4 95.7999 94.8 95.9 95.1 95.9ZM102.1 81.4C102.9 81.4 103.6 80.8999 103.8 80.0999C104.1 79.0999 103.6 78.0999 102.6 77.7999C101.6 77.4999 100.6 77.9999 100.3 78.9999C100 79.9999 100.5 80.9999 101.5 81.2999C101.7 81.3999 101.9 81.4 102.1 81.4ZM103 65.5999C103.1 65.5999 103.3 65.5999 103.4 65.5999C104.4 65.3999 105 64.4 104.8 63.4C104.6 62.4 103.6 61.7999 102.6 61.9999C101.6 62.1999 101 63.2 101.2 64.2C101.5 65 102.2 65.5999 103 65.5999ZM96.7 50.9C97 50.9 97.3 50.7999 97.6 50.7C98.5 50.2 98.8001 49.1 98.3001 48.2C97.8001 47.2999 96.7001 46.9999 95.8001 47.4999C94.9001 47.9999 94.6 49.0999 95.1 49.9999C95.5 50.4999 96.1 50.9 96.7 50.9ZM88.6 36.9999C88.9 36.9999 89.2 36.8999 89.5 36.7999C90.4 36.2999 90.7 35.1999 90.2 34.2999C89.7 33.3999 88.6 33.0999 87.7 33.5999C86.8 34.0999 86.5 35.1999 87 36.0999C87.3 36.5999 88 36.9999 88.6 36.9999ZM82.2 22.2C82.4 22.2 82.6001 22.1999 82.8001 22.0999C83.7001 21.7999 84.2001 20.6999 83.9001 19.7999C83.6001 18.7999 82.5 18.4 81.6 18.7C80.7 19 80.2 20.0999 80.5 21.0999C80.7 21.7999 81.4 22.2 82.2 22.2ZM89.9001 104.7C90.5001 104.7 91.0001 104.4 91.4001 103.9C92.0001 103.1 91.8 102 91 101.4C90.2 100.8 89.1 101 88.5 101.8C87.9 102.6 88.1001 103.7 88.9001 104.3C89.2001 104.6 89.6001 104.7 89.9001 104.7ZM98.5 91.0999C99.1 91.0999 99.8 90.7999 100.1 90.0999C100.6 89.1999 100.2 88.1 99.4001 87.7C98.5001 87.2 97.5 87.6 97 88.4C96.5 89.3 96.9 90.3999 97.7 90.7999C97.9 91.0999 98.2 91.0999 98.5 91.0999ZM103.5 75.9999C104.4 75.9999 105.2 75.3 105.3 74.4C105.4 73.4 104.7 72.4999 103.7 72.4999C102.7 72.3999 101.9 73.0999 101.8 74.0999C101.7 75.0999 102.4 75.9999 103.4 75.9999C103.4 75.9999 103.4 75.9999 103.5 75.9999ZM100.8 60.2999C101 60.2999 101.2 60.2999 101.4 60.2C102.3 59.7999 102.8 58.8 102.4 57.9C102 57 101 56.5 100.1 56.9C99.2 57.3 98.7 58.2999 99.1 59.2C99.4 59.7999 100.1 60.2999 100.8 60.2999ZM94 45.7C94.3 45.7 94.5001 45.5999 94.8001 45.4999C95.7001 45.0999 96 43.9999 95.6 43.0999C95.2 42.1999 94.1 41.7999 93.2 42.2999C92.3 42.6999 91.9001 43.7999 92.4001 44.7C92.7001 45.2999 93.4 45.7 94 45.7ZM87.8001 30.9C88.0001 30.9 88.2001 30.8999 88.4001 30.7999C89.3001 30.4999 89.8 29.4999 89.5 28.4999C89.2 27.5999 88.2 27.1 87.2 27.4C86.3 27.7 85.8 28.7 86.1 29.7C86.4 30.4 87.1001 30.9 87.8001 30.9ZM83.4001 15.4C83.5001 15.4 83.7001 15.4 83.8001 15.4C84.8001 15.2 85.4 14.1999 85.1 13.2999C84.9 12.2999 83.9 11.7 83 11.9C82 12.1 81.4 13.0999 81.7 13.9999C81.9 14.7999 82.6001 15.4 83.4001 15.4ZM86 111.1C86.5 111.1 87.1001 110.9 87.4001 110.4C88.0001 109.6 87.8 108.5 87 108C86.2 107.4 85.1 107.6 84.6 108.4C84 109.2 84.2 110.3 85 110.8C85.3 111 85.7 111.1 86 111.1ZM95.3001 97.9999C95.9001 97.9999 96.4001 97.7 96.8001 97.2C97.3001 96.3999 97.1001 95.2999 96.3001 94.7999C95.5001 94.2999 94.4001 94.4999 93.9001 95.2999C93.4001 96.0999 93.6001 97.2 94.4001 97.7C94.7001 97.8999 95.0001 97.9999 95.3001 97.9999ZM102.3 83.5999C103 83.5999 103.7 83.1 104 82.4C104.3 81.5 103.7 80.5 102.8 80.2C101.9 79.8999 100.9 80.4 100.6 81.4C100.3 82.3 100.8 83.2999 101.8 83.5999C102 83.5999 102.1 83.5999 102.3 83.5999ZM102.8 67.7C102.9 67.7 103 67.7 103.2 67.7C104.1 67.5 104.7 66.5999 104.5 65.5999C104.3 64.6999 103.4 64.0999 102.4 64.2999C101.5 64.4999 100.9 65.4 101.1 66.4C101.3 67.1 102 67.7 102.8 67.7ZM97.8001 52.4C98.0001 52.4 98.2001 52.3999 98.4001 52.2999C99.3001 51.8999 99.7001 50.8999 99.4001 49.9999C99.1001 49.0999 98 48.6999 97.2 48.9999C96.3 49.3999 95.9 50.3999 96.2 51.2999C96.5 51.9999 97.1001 52.4 97.8001 52.4ZM92.4001 37.2C92.6001 37.2 92.7001 37.1999 92.9001 37.0999C93.8001 36.7999 94.3 35.9 94.1 34.9C93.8 34 92.9001 33.5 91.9001 33.7C91.0001 34 90.5 34.9 90.7 35.9C91 36.8 91.7001 37.2 92.4001 37.2ZM88.5 21.7C88.6 21.7 88.7001 21.7 88.9001 21.7C89.8001 21.5 90.4 20.5999 90.2 19.5999C90 18.6999 89.1 18.1 88.1 18.2C87.2 18.4 86.6001 19.2999 86.8001 20.2999C87.0001 21.0999 87.7 21.7 88.5 21.7ZM84 114.7C84.5 114.7 85.0001 114.5 85.3001 114C85.9001 113.3 85.7 112.2 85 111.6C84.3 111 83.2 111.2 82.6 111.9C82 112.6 82.2001 113.7 82.9001 114.3C83.3001 114.6 83.7 114.7 84 114.7ZM93.7 101.9C94.2 101.9 94.8 101.7 95.1 101.2C95.6 100.4 95.5 99.3999 94.7 98.7999C93.9 98.2999 92.9001 98.5 92.3001 99.2C91.8001 100 92 101 92.7 101.6C93 101.8 93.4 101.9 93.7 101.9ZM101.5 87.9C102.2 87.9 102.8 87.4999 103.1 86.7999C103.4 85.8999 103 84.8999 102.1 84.5999C101.2 84.2999 100.3 84.6999 99.9001 85.5999C99.6001 86.4999 100 87.4999 100.9 87.7999C101.1 87.7999 101.3 87.9 101.5 87.9ZM103.6 72.0999C103.7 72.0999 103.7 72.0999 103.8 72.0999C104.7 71.9999 105.4 71.2 105.3 70.2C105.2 69.2999 104.4 68.6 103.4 68.7C102.5 68.7999 101.8 69.5999 101.9 70.5999C102 71.3999 102.7 72.0999 103.6 72.0999ZM100.2 56.4C100.4 56.4 100.5 56.3999 100.7 56.2999C101.6 56.0999 102.1 55.1 101.9 54.2C101.7 53.2999 100.7 52.7999 99.8001 52.9999C98.9001 53.1999 98.4 54.1999 98.6 55.0999C98.8 55.8999 99.5 56.4 100.2 56.4ZM96.1 40.7999C96.2 40.7999 96.4 40.7999 96.5 40.7999C97.4 40.5999 98.0001 39.6999 97.8001 38.7999C97.6001 37.8999 96.7001 37.2999 95.8001 37.4999C94.9001 37.6999 94.3 38.5999 94.6 39.4999C94.6 40.2999 95.3 40.7999 96.1 40.7999ZM92.9001 24.9999C93.0001 24.9999 93.1 24.9999 93.2 24.9999C94.1 24.7999 94.7 23.9999 94.6 22.9999C94.4 22.0999 93.6 21.4999 92.6 21.5999C91.7 21.7999 91.1 22.5999 91.2 23.5999C91.4 24.4999 92.1001 24.9999 92.9001 24.9999ZM84.6 115.1C85.1 115.1 85.5001 114.9 85.9001 114.5C86.5001 113.8 86.4 112.7 85.7 112.2C85 111.6 84.0001 111.7 83.4001 112.4C82.8001 113.1 82.9 114.2 83.6 114.7C83.8 115 84.2 115.1 84.6 115.1ZM94.4001 102.4C94.9001 102.4 95.4 102.2 95.7 101.7C96.2 101 96.0001 99.9 95.3001 99.4C94.6001 98.9 93.5 98.9999 93 99.7999C92.5 100.5 92.7001 101.6 93.4001 102.1C93.7001 102.3 94.1001 102.4 94.4001 102.4ZM102.1 88.4C102.8 88.4 103.4 87.9999 103.7 87.2999C104 86.3999 103.6 85.5 102.7 85.2C101.9 84.8999 100.9 85.2999 100.6 86.2C100.3 87.1 100.7 87.9999 101.6 88.2999C101.8 88.2999 101.9 88.4 102.1 88.4ZM104.1 72.4999C104.2 72.4999 104.2 72.4999 104.1 72.4999C105.1 72.3999 105.8 71.7 105.7 70.7C105.7 69.7999 104.9 69.0999 104 69.0999C103.1 69.0999 102.4 69.8999 102.5 70.7999C102.6 71.8999 103.3 72.4999 104.1 72.4999ZM102 56.5999C102.1 56.5999 102.2 56.5999 102.3 56.5999C103.2 56.3999 103.8 55.6 103.6 54.7C103.4 53.7999 102.6 53.2 101.7 53.4C100.8 53.6 100.2 54.3999 100.4 55.2999C100.5 55.9999 101.2 56.5999 102 56.5999ZM99.2 40.7999C99.3 40.7999 99.4 40.7999 99.5 40.7999C100.4 40.5999 101 39.8 100.9 38.9C100.7 38 99.9 37.3999 99 37.4999C98.1 37.5999 97.5 38.5 97.6 39.4C97.7 40.2 98.4 40.7999 99.2 40.7999ZM96.8001 24.7999C96.9001 24.7999 96.9 24.7999 97 24.7999C97.9 24.6999 98.5001 23.8 98.4001 22.9C98.3001 22 97.5 21.3999 96.6 21.4999C95.7 21.5999 95.1 22.4 95.2 23.4C95.3 24.2 96.0001 24.7999 96.8001 24.7999ZM95.2 8.79993H95.3001C96.2001 8.69993 96.9001 7.89994 96.8001 6.99994C96.7001 6.09994 95.9 5.39994 95 5.49994C94.1 5.59994 93.4 6.39993 93.5 7.29993C93.6 8.19993 94.3 8.79993 95.2 8.79993ZM88.3001 112C88.8001 112 89.2 111.8 89.5 111.4C90.1 110.7 90.0001 109.7 89.3001 109.1C88.6001 108.5 87.6 108.6 87 109.3C86.4 110 86.5 111 87.2 111.6C87.5 111.8 87.9001 112 88.3001 112ZM97.9001 99.0999C98.4001 99.0999 98.9001 98.8 99.3001 98.4C99.8001 97.7 99.5001 96.7 98.8001 96.2C98.1001 95.7 97.1 96 96.6 96.7C96.1 97.3999 96.4 98.4 97.1 98.9C97.3 99 97.6001 99.0999 97.9001 99.0999ZM104.2 84.4C104.9 84.4 105.6 83.8999 105.8 83.0999C106 82.1999 105.4 81.3999 104.6 81.2C103.7 81 102.9 81.6 102.7 82.4C102.5 83.3 103.1 84.0999 103.9 84.2999C103.9 84.3999 104.1 84.4 104.2 84.4ZM105.3 68.4C106.2 68.4 106.9 67.5999 106.9 66.7999C106.9 65.8999 106.1 65.2 105.3 65.2C104.4 65.2 103.7 66 103.7 66.9C103.7 67.7 104.5 68.4 105.3 68.4ZM104 52.4C104.1 52.4 104.1 52.4 104.2 52.4C105.1 52.3 105.7 51.4999 105.6 50.5999C105.5 49.6999 104.7 49.1 103.8 49.2C102.9 49.2999 102.3 50.0999 102.4 50.9999C102.5 51.6999 103.2 52.4 104 52.4ZM102.3 36.4C102.4 36.4 102.4 36.4 102.5 36.4C103.4 36.3 104 35.4999 103.9 34.5999C103.8 33.6999 103 33.1 102.1 33.2C101.2 33.2999 100.6 34.0999 100.7 34.9999C100.8 35.6999 101.5 36.4 102.3 36.4ZM100.7 20.2999C100.7 20.2999 100.8 20.2999 100.9 20.2999C101.8 20.1999 102.4 19.3999 102.3 18.5999C102.2 17.6999 101.4 17.0999 100.6 17.0999C99.7 17.1999 99.1 18 99.2 18.9C99.2 19.7 99.9 20.2999 100.7 20.2999ZM85.1 117.1C85.5 117.1 86.0001 116.9 86.3001 116.6C86.9001 116 86.8 115 86.2 114.4C85.6 113.8 84.6 113.9 84 114.5C83.4 115.1 83.5 116.1 84.1 116.7C84.4 116.9 84.8 117.1 85.1 117.1ZM95.4001 104.7C95.9001 104.7 96.3 104.5 96.6 104.1C97.1 103.4 97.0001 102.4 96.3001 101.9C95.6001 101.4 94.6 101.5 94.1 102.2C93.6 102.9 93.7001 103.9 94.4001 104.4C94.7001 104.6 95.1001 104.7 95.4001 104.7ZM103.4 90.7999C104 90.7999 104.6 90.3999 104.8 89.7999C105.1 88.9999 104.7 88.0999 103.9 87.7999C103.1 87.4999 102.2 87.8999 101.9 88.7C101.6 89.5 102 90.3999 102.8 90.7C103 90.7999 103.2 90.7999 103.4 90.7999ZM107 75.2C107.8 75.2 108.4 74.5999 108.5 73.7999C108.6 72.8999 108 72.1999 107.2 71.9999C106.3 71.8999 105.6 72.4999 105.4 73.2999C105.3 74.1999 105.9 74.8999 106.7 75.0999C106.9 75.1999 106.9 75.2 107 75.2ZM107.6 59.0999C108.5 59.0999 109.2 58.3999 109.2 57.4999C109.2 56.5999 108.5 55.8999 107.6 55.9999C106.7 55.9999 106.1 56.6999 106.1 57.5999C106.1 58.3999 106.8 59.0999 107.6 59.0999ZM106.9 42.9999H107C107.9 42.8999 108.5 42.1999 108.4 41.2999C108.3 40.3999 107.6 39.7999 106.8 39.7999C105.9 39.8999 105.3 40.5999 105.3 41.4999C105.4 42.3999 106.1 42.9999 106.9 42.9999ZM105.7 26.9999H105.8C106.7 26.8999 107.3 26.1999 107.2 25.2999C107.1 24.3999 106.4 23.8 105.5 23.9C104.6 24 104 24.6999 104.1 25.5999C104.2 26.3999 104.9 26.9999 105.7 26.9999ZM85.6 118.1C86 118.1 86.4 117.9 86.7 117.6C87.3 117 87.2 116 86.6 115.5C86 114.9 85 115 84.5 115.6C83.9 116.2 84 117.2 84.6 117.7C84.8 118 85.2 118.1 85.6 118.1ZM96.1 105.9C96.6 105.9 97.0001 105.7 97.3001 105.3C97.8001 104.6 97.7 103.7 97 103.2C96.3 102.7 95.4001 102.8 94.9001 103.5C94.4001 104.2 94.5 105.1 95.2 105.6C95.4 105.8 95.7 105.9 96.1 105.9ZM104.4 92.2C105 92.2 105.5 91.8999 105.8 91.2999C106.1 90.4999 105.8 89.5999 105 89.2999C104.2 88.9999 103.3 89.2999 103 90.0999C102.7 90.8999 103 91.7999 103.8 92.0999C104 92.1999 104.2 92.2 104.4 92.2ZM109.2 76.9C109.9 76.9 110.5 76.3999 110.7 75.7C110.9 74.8999 110.4 74.1 109.5 73.9C108.7 73.7 107.9 74.1999 107.7 75.0999C107.5 75.8999 108 76.7 108.9 76.9C109 76.9 109.1 76.9 109.2 76.9ZM111 60.9999C111.8 60.9999 112.5 60.3999 112.5 59.4999C112.5 58.6999 111.9 58 111.1 57.9C110.3 57.9 109.6 58.4999 109.5 59.2999C109.5 60.1999 110.1 60.8999 111 60.9999C111 60.8999 111 60.9999 111 60.9999ZM111.1 44.9C112 44.9 112.6 44.1999 112.6 43.2999C112.6 42.4999 111.9 41.7999 111 41.7999C110.2 41.7999 109.5 42.5 109.5 43.4C109.6 44.2 110.3 44.9 111.1 44.9ZM110.3 28.7999H110.4C111.2 28.6999 111.9 28 111.8 27.2C111.7 26.4 111 25.6999 110.2 25.7999C109.4 25.8999 108.7 26.6 108.8 27.4C108.9 28.2 109.5 28.7999 110.3 28.7999ZM89.5 115.6C89.9 115.6 90.3 115.4 90.6 115.1C91.2 114.5 91.1 113.6 90.5 113C89.9 112.4 89.0001 112.5 88.4001 113.1C87.8001 113.7 87.9 114.6 88.5 115.2C88.8 115.5 89.2 115.6 89.5 115.6ZM99.8001 103.4C100.3 103.4 100.7 103.2 101 102.8C101.5 102.1 101.3 101.2 100.7 100.7C100 100.2 99.1 100.4 98.7 101C98.2 101.7 98.4 102.6 99 103.1C99.3 103.3 99.5001 103.4 99.8001 103.4ZM107.7 89.4C108.3 89.4 108.8 89.0999 109.1 88.4999C109.4 87.7999 109.1 86.8999 108.3 86.5999C107.6 86.2999 106.7 86.6 106.4 87.4C106.1 88.1 106.4 88.9999 107.2 89.2999C107.3 89.2999 107.5 89.4 107.7 89.4ZM113 74.2C113.7 74.2 114.3 73.6999 114.4 73.0999C114.6 72.2999 114.1 71.4999 113.3 71.2999C112.5 71.0999 111.7 71.6 111.5 72.4C111.3 73.2 111.8 74 112.6 74.2C112.7 74.2 112.8 74.2 113 74.2ZM115.1 58.2999C115.9 58.2999 116.5 57.7 116.6 56.9C116.7 56.1 116 55.3999 115.2 55.2999C114.4 55.1999 113.7 55.9 113.6 56.7C113.5 57.5 114.2 58.1999 115 58.2999C115.1 58.2999 115.1 58.2999 115.1 58.2999ZM115.5 42.2C116.3 42.2 117 41.5 117 40.7C117 39.9 116.3 39.1999 115.5 39.2999C114.7 39.2999 114 39.9999 114.1 40.7999C114 41.5999 114.7 42.2 115.5 42.2ZM96.4001 110.3C96.8001 110.3 97.2 110.1 97.5 109.8C98 109.2 98.0001 108.3 97.4001 107.8C96.8001 107.3 95.9001 107.3 95.4001 107.9C94.9001 108.5 94.9 109.4 95.5 109.9C95.8 110.2 96.1001 110.3 96.4001 110.3ZM106 97.4C106.5 97.4 106.9 97.2 107.2 96.7C107.6 96 107.4 95.1 106.7 94.7C106 94.2999 105.2 94.5 104.7 95.2C104.3 95.8999 104.5 96.7999 105.2 97.2C105.5 97.3999 105.8 97.4 106 97.4ZM113.7 83.2999C114.2 83.2999 114.8 83 115 82.4C115.3 81.7 115 80.7999 114.3 80.4999C113.6 80.1999 112.7 80.5 112.4 81.2C112.1 81.8999 112.4 82.7999 113.1 83.0999C113.3 83.2999 113.5 83.2999 113.7 83.2999ZM118.2 67.9C118.9 67.9 119.5 67.3999 119.6 66.7C119.7 65.8999 119.2 65.1999 118.5 64.9999C117.7 64.8999 117 65.3999 116.9 66.2C116.8 67 117.3 67.7 118 67.9C118 67.9 118.1 67.9 118.2 67.9ZM119.9 51.9C120.7 51.9 121.3 51.2999 121.3 50.4999C121.3 49.6999 120.7 48.9999 119.9 48.9999C119.1 48.9999 118.5 49.6 118.4 50.4C118.5 51.2 119.1 51.9 119.9 51.9ZM95 114.3C95.4 114.3 95.7 114.2 96 113.9C96.5 113.4 96.5 112.5 96 111.9C95.5 111.4 94.6 111.4 94.1 111.9C93.6 112.4 93.6 113.3 94.1 113.9C94.3 114.2 94.7 114.3 95 114.3ZM105.6 102.2C106 102.2 106.4 102 106.7 101.7C107.2 101.1 107.1 100.2 106.5 99.7999C105.9 99.2999 105 99.3999 104.6 100.1C104.1 100.7 104.2 101.6 104.8 102C105 102.1 105.3 102.2 105.6 102.2ZM114.8 89.0999C115.3 89.0999 115.7 88.9 116 88.4C116.4 87.7 116.2 86.8999 115.5 86.4999C114.9 86.0999 114 86.2999 113.6 86.9999C113.2 87.6999 113.4 88.5 114.1 88.9C114.3 89 114.5 89.0999 114.8 89.0999ZM121.1 74.2999C121.7 74.2999 122.2 73.8999 122.4 73.2999C122.6 72.5999 122.2 71.7999 121.5 71.5999C120.8 71.3999 120 71.7999 119.8 72.4999C119.6 73.1999 120 74 120.7 74.2C120.8 74.2999 121 74.2999 121.1 74.2999ZM124.1 58.4999C124.8 58.4999 125.4 57.9999 125.5 57.2999C125.6 56.4999 125 55.8999 124.3 55.7999C123.5 55.6999 122.9 56.2999 122.8 56.9999C122.7 57.7999 123.3 58.3999 124 58.4999H124.1ZM124.8 42.4999C125.6 42.4999 126.2 41.8999 126.2 41.0999C126.2 40.2999 125.6 39.7 124.8 39.7C124 39.7 123.4 40.2999 123.4 41.0999C123.4 41.8999 124 42.4999 124.8 42.4999ZM95.8001 116.3C96.1001 116.3 96.5 116.2 96.7 115.9C97.2 115.4 97.3001 114.5 96.8001 114C96.3001 113.5 95.5001 113.4 94.9001 113.9C94.4001 114.4 94.3001 115.3 94.8001 115.8C95.1001 116.1 95.4001 116.3 95.8001 116.3ZM106.9 104.7C107.3 104.7 107.6 104.5 107.9 104.2C108.4 103.6 108.3 102.8 107.8 102.3C107.2 101.8 106.4 101.9 105.9 102.4C105.4 102.9 105.5 103.8 106 104.3C106.3 104.6 106.6 104.7 106.9 104.7ZM117.1 92.2999C117.5 92.2999 117.9 92.1 118.2 91.7C118.6 91.1 118.5 90.2999 117.9 89.7999C117.3 89.3999 116.5 89.4999 116 90.0999C115.6 90.6999 115.7 91.4999 116.3 91.9999C116.6 92.1999 116.9 92.2999 117.1 92.2999ZM124.5 78.0999C125 78.0999 125.6 77.7999 125.8 77.2C126.1 76.5 125.7 75.6999 125 75.4999C124.3 75.1999 123.5 75.5999 123.3 76.2999C123 76.9999 123.4 77.7999 124.1 77.9999C124.2 78.0999 124.4 78.0999 124.5 78.0999ZM128.4 62.4999C129 62.4999 129.6 62 129.7 61.4C129.8 60.7 129.3 60 128.6 59.9C127.9 59.8 127.2 60.2999 127.1 60.9999C127 61.6999 127.5 62.3999 128.2 62.4999C128.3 62.4999 128.4 62.4999 128.4 62.4999ZM98.5 116.6C98.8 116.6 99.1001 116.5 99.3001 116.3C99.8001 115.8 99.9001 115 99.4001 114.5C98.9001 114 98.1 113.9 97.6 114.4C97.1 114.9 97 115.7 97.5 116.2C97.8 116.5 98.2 116.6 98.5 116.6ZM110.2 105.6C110.5 105.6 110.9 105.5 111.1 105.2C111.6 104.7 111.6 103.9 111.1 103.4C110.6 102.9 109.8 102.9 109.3 103.4C108.8 103.9 108.8 104.7 109.3 105.2C109.5 105.5 109.9 105.6 110.2 105.6ZM121 93.7999C121.4 93.7999 121.8 93.5999 122 93.2999C122.4 92.6999 122.3 91.8999 121.7 91.4999C121.1 91.0999 120.3 91.1999 119.9 91.7999C119.5 92.3999 119.6 93.1999 120.1 93.5999C120.5 93.6999 120.8 93.7999 121 93.7999ZM128.9 79.7999C129.4 79.7999 129.9 79.4999 130.1 78.9999C130.4 78.2999 130 77.5999 129.4 77.2999C128.7 76.9999 128 77.3999 127.7 77.9999C127.4 78.6999 127.8 79.3999 128.4 79.7C128.5 79.7999 128.7 79.7999 128.9 79.7999ZM133.1 64.4C133.7 64.4 134.3 63.8999 134.4 63.2999C134.5 62.5999 134 61.8999 133.3 61.7999C132.6 61.6999 131.9 62.2 131.8 62.9C131.7 63.6 132.2 64.3 132.9 64.4C133 64.4 133 64.4 133.1 64.4ZM103.2 116C103.5 116 103.8 115.9 104 115.7C104.5 115.3 104.6 114.5 104.2 113.9C103.8 113.4 103 113.3 102.4 113.7C101.9 114.1 101.8 114.9 102.2 115.5C102.4 115.8 102.8 116 103.2 116ZM115.4 105.6C115.7 105.6 116 105.5 116.2 105.3C116.7 104.8 116.8 104.1 116.3 103.5C115.8 103 115.1 102.9 114.5 103.4C114 103.9 113.9 104.6 114.4 105.2C114.7 105.4 115 105.6 115.4 105.6ZM134.1 79.9C134.6 79.9 135.1 79.5999 135.3 79.0999C135.6 78.4999 135.2 77.6999 134.6 77.4999C134 77.1999 133.2 77.6 133 78.2C132.7 78.7999 133.1 79.5999 133.7 79.7999C133.8 79.8999 134 79.9 134.1 79.9ZM138.2 64.4C138.8 64.4 139.3 63.9999 139.4 63.2999C139.5 62.5999 139 62 138.4 61.9C137.7 61.8 137.1 62.3 137 62.9C136.9 63.6 137.4 64.1999 138 64.2999C138.1 64.3999 138.2 64.4 138.2 64.4ZM96.8001 124.1C97.0001 124.1 97.3 124 97.5 123.9C98 123.5 98.2001 122.8 97.8001 122.2C97.4001 121.7 96.7 121.5 96.1 121.9C95.6 122.3 95.4001 123 95.8001 123.6C96.1001 123.9 96.4001 124.1 96.8001 124.1ZM109.8 114.7C110 114.7 110.3 114.6 110.5 114.5C111 114.1 111.1 113.3 110.7 112.8C110.3 112.3 109.6 112.2 109 112.6C108.5 113 108.4 113.8 108.7 114.3C109 114.5 109.4 114.7 109.8 114.7ZM93.4001 113.3C93.7001 113.3 93.9 113.2 94.2 113C94.7 112.6 94.8001 111.8 94.4001 111.3C94.0001 110.8 93.2 110.7 92.7 111.1C92.2 111.5 92.1 112.3 92.5 112.8C92.7 113.2 93.1001 113.3 93.4001 113.3ZM105.5 102.7C105.8 102.7 106.1 102.6 106.3 102.4C106.8 101.9 106.8 101.2 106.3 100.7C105.8 100.2 105.1 100.2 104.6 100.7C104.1 101.2 104.1 101.9 104.6 102.4C104.9 102.6 105.2 102.7 105.5 102.7ZM115.6 90.2999C116 90.2999 116.4 90.1 116.6 89.7C117 89.1 116.8 88.3999 116.2 87.9999C115.6 87.5999 114.9 87.8 114.5 88.4C114.1 89 114.3 89.6999 114.9 90.0999C115.1 90.1999 115.3 90.2999 115.6 90.2999ZM122.7 75.9C123.2 75.9 123.6 75.5999 123.8 75.0999C124 74.4999 123.7 73.7999 123.1 73.4999C122.5 73.2999 121.8 73.6 121.6 74.2C121.4 74.7999 121.7 75.4999 122.3 75.7999C122.4 75.8999 122.6 75.9 122.7 75.9ZM127 60.4C127.6 60.4 128.1 60 128.2 59.4C128.3 58.7 127.9 58.0999 127.2 57.9999C126.6 57.8999 125.9 58.2999 125.8 58.9999C125.7 59.6999 126.1 60.3 126.8 60.4C126.8 60.4 126.9 60.4 127 60.4ZM82.6 107C82.9 107 83.2001 106.9 83.4001 106.7C83.9001 106.2 83.9001 105.5 83.4001 105C82.9001 104.5 82.2 104.5 81.7 105C81.2 105.5 81.2 106.2 81.7 106.7C81.9 106.9 82.3 107 82.6 107ZM93.4001 95.0999C93.8001 95.0999 94.1001 94.8999 94.4001 94.5999C94.8001 94.0999 94.7 93.3 94.2 92.9C93.7 92.5 92.9 92.5999 92.5 93.0999C92.1 93.5999 92.2 94.3999 92.7 94.7999C92.9 94.9999 93.1001 95.0999 93.4001 95.0999ZM101.8 81.4999C102.2 81.4999 102.7 81.2999 102.9 80.7999C103.2 80.1999 103 79.5 102.4 79.2C101.8 78.8999 101.1 79.1 100.8 79.7C100.5 80.2999 100.7 80.9999 101.3 81.2999C101.4 81.3999 101.6 81.4999 101.8 81.4999ZM107.8 66.5999C108.3 66.5999 108.8 66.2999 108.9 65.7999C109.1 65.1999 108.7 64.4999 108.1 64.2999C107.5 64.0999 106.8 64.4999 106.6 65.0999C106.4 65.6999 106.8 66.3999 107.4 66.5999C107.5 66.4999 107.6 66.5999 107.8 66.5999ZM111.5 50.9C112.1 50.9 112.6 50.5 112.7 49.9C112.8 49.2 112.4 48.5999 111.7 48.4999C111.1 48.3999 110.4 48.7999 110.3 49.4999C110.2 50.1999 110.6 50.8 111.3 50.9C111.4 50.9 111.4 50.9 111.5 50.9ZM113.2 34.9C113.8 34.9 114.4 34.4 114.4 33.7C114.4 33 113.9 32.5 113.2 32.4C112.5 32.4 112 32.8999 112 33.5999C111.9 34.2999 112.4 34.9 113.2 34.9C113.1 34.9 113.1 34.9 113.2 34.9ZM79.8001 87.7C80.2001 87.7 80.6001 87.4999 80.8001 87.0999C81.1001 86.4999 81.0001 85.8 80.4001 85.4C79.8001 85.1 79.1001 85.1999 78.8001 85.7999C78.5001 86.3999 78.6 87.0999 79.2 87.4999C79.4 87.5999 79.6001 87.7 79.8001 87.7ZM87 73.2999C87.5 73.2999 87.9 72.9999 88.1 72.5999C88.4 71.9999 88.1 71.2999 87.5 70.9999C86.9 70.6999 86.2001 71 85.9001 71.7C85.6001 72.2999 85.9 72.9999 86.5 73.2999C86.7 73.2999 86.9 73.2999 87 73.2999ZM92.3001 58.0999C92.8001 58.0999 93.3 57.7999 93.5 57.2C93.7 56.6 93.3 55.9 92.7 55.7C92.1 55.5 91.4 55.8999 91.2 56.4999C91 57.0999 91.4 57.7999 92 57.9999C92.1 58.0999 92.2001 58.0999 92.3001 58.0999ZM95.9001 42.4C96.5001 42.4 97 42 97.1 41.4C97.2 40.7 96.8 40.0999 96.1 39.9999C95.4 39.8999 94.8 40.2999 94.7 40.9999C94.6 41.6999 95 42.3 95.7 42.4C95.8 42.4 95.9001 42.4 95.9001 42.4ZM98 26.4999C98.6 26.4999 99.2 26 99.2 25.4C99.3 24.7 98.8 24.1999 98.1 24.0999C97.4 23.9999 96.9001 24.5 96.8001 25.2C96.7001 25.8 97.2 26.3999 98 26.4999C97.9 26.4999 97.9 26.4999 98 26.4999ZM98.4001 10.4C99.1001 10.4 99.6 9.79995 99.6 9.19995C99.6 8.49995 99.0001 7.99994 98.4001 7.99994C97.7001 7.99994 97.2 8.59995 97.2 9.19995C97.2 9.89995 97.7001 10.4 98.4001 10.4ZM65.2 80.7C65.6 80.7 66.1001 80.3999 66.3001 79.9999C66.6001 79.3999 66.4001 78.7 65.8001 78.4C65.2001 78.1 64.5 78.3 64.2 78.9C63.9 79.5 64.1 80.1999 64.7 80.4999C64.8 80.6999 65 80.7 65.2 80.7ZM71.6 65.9C72.1 65.9 72.5 65.5999 72.7 65.0999C72.9 64.4999 72.6 63.7999 72 63.4999C71.4 63.2999 70.7001 63.6 70.4001 64.2C70.2001 64.7999 70.5 65.4999 71.1 65.7999C71.3 65.8999 71.4 65.9 71.6 65.9ZM76.5 50.5999C77 50.5999 77.5 50.2 77.7 49.7C77.9 49.1 77.5001 48.4 76.9001 48.2C76.3001 48 75.6001 48.3999 75.4001 48.9999C75.2001 49.5999 75.6 50.2999 76.2 50.4999C76.3 50.5999 76.4 50.5999 76.5 50.5999ZM80.3001 34.9999C80.9001 34.9999 81.4 34.5999 81.5 33.9999C81.6 33.2999 81.2 32.6999 80.6 32.5999C80 32.4999 79.3 32.8999 79.2 33.4999C79.1 34.1999 79.5 34.8 80.1 34.9C80.1 35 80.2001 34.9999 80.3001 34.9999ZM82.8001 19.0999C83.4001 19.0999 83.9 18.5999 84 17.9999C84.1 17.2999 83.6 16.7 83 16.7C82.3 16.6 81.7 17.1 81.7 17.7C81.6 18.4 82.1 18.9999 82.7 18.9999C82.7 19.0999 82.7001 19.0999 82.8001 19.0999ZM49.8001 74.5999C50.3001 74.5999 50.7001 74.3 50.9001 73.9C51.2001 73.3 50.9001 72.5999 50.3001 72.2999C49.7001 71.9999 49 72.3 48.7 72.9C48.4 73.5 48.7001 74.1999 49.3001 74.4999C49.4001 74.4999 49.6001 74.5999 49.8001 74.5999ZM55.6 59.5999C56.1 59.5999 56.6 59.2999 56.7 58.7999C56.9 58.1999 56.6 57.4999 56 57.2999C55.4 57.0999 54.7 57.3999 54.5 57.9999C54.3 58.5999 54.6 59.2999 55.2 59.4999C55.3 59.4999 55.5 59.5999 55.6 59.5999ZM60.4001 44.2C60.9001 44.2 61.4 43.8999 61.6 43.2999C61.8 42.6999 61.4001 41.9999 60.8001 41.7999C60.2001 41.5999 59.5001 41.9999 59.3001 42.5999C59.1001 43.1999 59.5 43.8999 60.1 44.0999C60.2 44.1999 60.3001 44.2 60.4001 44.2ZM64.3001 28.5999C64.9001 28.5999 65.3 28.1999 65.5 27.5999C65.6 26.9999 65.2 26.3 64.6 26.2C64 26.1 63.3 26.4999 63.2 27.0999C63.1 27.6999 63.5 28.3999 64.1 28.4999C64.2 28.5999 64.3001 28.5999 64.3001 28.5999ZM67.4001 12.7999C68.0001 12.7999 68.5 12.3999 68.6 11.7999C68.7 11.0999 68.3 10.5 67.6 10.4C66.9 10.3 66.3 10.7 66.2 11.4C66.1 12.1 66.5 12.6999 67.2 12.7999C67.3 12.7999 67.4001 12.7999 67.4001 12.7999ZM26.4001 83.9C26.9001 83.9 27.4 83.5999 27.5 83.0999C27.7 82.4999 27.3 81.7999 26.7 81.5999C26.1 81.3999 25.4 81.8 25.2 82.4C25 83 25.4 83.7 26 83.9C26.1 83.9 26.2001 83.9 26.4001 83.9ZM31.4001 68.5999C31.9001 68.5999 32.4 68.2999 32.5 67.7999C32.7 67.1999 32.4 66.4999 31.7 66.2999C31.1 66.0999 30.4 66.3999 30.2 67.0999C30 67.6999 30.3 68.3999 31 68.5999C31.1 68.5999 31.2001 68.5999 31.4001 68.5999ZM36.5 53.2999C37 53.2999 37.5 52.9999 37.6 52.4999C37.8 51.8999 37.5001 51.1999 36.9001 50.9999C36.3001 50.7999 35.6001 51.1 35.4001 51.7C35.2001 52.2999 35.5 53 36.2 53.2C36.3 53.2999 36.4 53.2999 36.5 53.2999ZM41.7 38.0999C42.2 38.0999 42.7001 37.7999 42.8001 37.2999C43.0001 36.6999 42.7 35.9999 42 35.7999C41.4 35.5999 40.7 35.8999 40.5 36.5999C40.3 37.1999 40.6001 37.8999 41.3001 38.0999C41.4001 38.0999 41.6 38.0999 41.7 38.0999ZM46.6 22.7999C47.1 22.7999 47.6 22.5 47.7 21.9C47.9 21.3 47.5001 20.6 46.9001 20.4C46.3001 20.2 45.6001 20.6 45.4001 21.2C45.2001 21.8 45.6 22.5 46.2 22.7C46.4 22.8 46.5 22.7999 46.6 22.7999ZM51 7.29993C51.5 7.29993 52 6.89996 52.2 6.39996C52.4 5.69996 52.0001 5.09996 51.3001 4.89996C50.7001 4.69996 50.0001 5.09993 49.8001 5.79993C49.6001 6.39993 50 7.09993 50.6 7.29993C50.8 7.29993 50.9 7.29993 51 7.29993ZM4.30008 94.7C4.70008 94.7 5.10008 94.4999 5.30008 94.0999C5.70008 93.4999 5.50005 92.8 4.90005 92.4C4.30005 92 3.59998 92.1999 3.19998 92.7999C2.79998 93.3999 3.00001 94.0999 3.60001 94.4999C3.80001 94.6999 4.00008 94.7 4.30008 94.7ZM10.2 79.9999C10.7 79.9999 11.2001 79.5999 11.4001 79.0999C11.6001 78.3999 11.2 77.7999 10.5 77.5999C9.90003 77.3999 9.20001 77.7999 9.10001 78.4999C8.90001 79.1999 9.30003 79.7999 10 79.9999C10 79.9999 10.1 79.9999 10.2 79.9999ZM14.4001 64.4999C14.9001 64.4999 15.4 64.1999 15.5 63.5999C15.7 62.9999 15.3 62.2999 14.7 62.0999C14.1 61.8999 13.4 62.3 13.2 62.9C13 63.5 13.4 64.2 14 64.4C14.2 64.5 14.3001 64.4999 14.4001 64.4999ZM19.2 49.2C19.7 49.2 20.2001 48.9 20.3001 48.4C20.5001 47.8 20.2 47.1 19.5 46.9C18.9 46.7 18.2 47 18 47.7C17.8 48.2999 18.1001 49 18.8001 49.2C19.0001 49.1 19.1 49.2 19.2 49.2ZM24.4001 33.9C24.9001 33.9 25.4 33.5999 25.5 33.0999C25.7 32.4999 25.4001 31.7999 24.8001 31.5999C24.2001 31.3999 23.5001 31.7 23.3001 32.4C23.1001 33 23.4 33.7 24.1 33.9C24.1 33.9 24.2001 33.9 24.4001 33.9ZM29.5 18.7C30 18.7 30.5 18.4 30.6 17.9C30.8 17.3 30.5001 16.6 29.8001 16.4C29.2001 16.2 28.5001 16.5 28.3001 17.2C28.1001 17.8 28.4 18.5 29.1 18.7C29.3 18.7 29.4 18.7 29.5 18.7ZM1.50003 46.2C2.00003 46.2 2.50001 45.9 2.60001 45.4C2.80001 44.8 2.40008 44.1 1.80008 43.9C1.20008 43.7 0.500079 44.1 0.300079 44.7C0.100079 45.2999 0.500006 46 1.10001 46.2C1.30001 46.2 1.40003 46.2 1.50003 46.2ZM6.50003 30.9C7.00003 30.9 7.50001 30.5999 7.60001 30.0999C7.80001 29.4999 7.50005 28.7999 6.90005 28.5999C6.30005 28.3999 5.60005 28.6999 5.40005 29.2999C5.20005 29.8999 5.50001 30.5999 6.10001 30.7999C6.30001 30.8999 6.40003 30.9 6.50003 30.9ZM115.7 102.5C115.8 102.5 115.8 102.5 115.9 102.5C116.1 102.5 116.3 102.3 116.3 102.1C116.3 101.9 116.1 101.7 115.9 101.7C115.7 101.7 115.5 101.9 115.5 102.1C115.4 102.3 115.5 102.4 115.7 102.5ZM114.8 86.4C114.9 86.4 114.9 86.4 115 86.4C115.2 86.4 115.4 86.1999 115.4 85.9999C115.4 85.7999 115.2 85.5999 115 85.5999C114.8 85.5999 114.6 85.7999 114.6 85.9999C114.5 86.1999 114.6 86.3 114.8 86.4ZM113.4 70.4C113.5 70.4 113.5 70.4 113.6 70.4C113.8 70.4 114 70.2 113.9 69.9C113.9 69.7 113.7 69.4999 113.4 69.5999C113.2 69.5999 113 69.7999 113.1 70.0999C113.2 70.1999 113.3 70.3 113.4 70.4ZM110.1 54.7C110.2 54.7 110.3 54.7 110.3 54.7C110.5 54.6 110.6 54.4 110.6 54.2C110.5 54 110.3 53.9 110.1 53.9C109.9 53.9 109.8 54.2 109.8 54.4C109.8 54.5 109.9 54.6 110.1 54.7ZM105.9 39.2C106 39.2 106.1 39.2 106.1 39.2C106.3 39.1 106.4 38.9 106.4 38.7C106.3 38.5 106.1 38.4 105.9 38.4C105.7 38.5 105.6 38.7 105.6 38.9C105.7 39 105.8 39.1 105.9 39.2ZM102.1 23.4999C102.2 23.4999 102.2 23.4999 102.3 23.4999C102.5 23.4999 102.7 23.1999 102.6 22.9999C102.6 22.7999 102.3 22.6 102.1 22.7C101.9 22.7 101.7 23 101.8 23.2C101.9 23.4 102 23.4999 102.1 23.4999ZM100 7.59991C100 7.59991 100.1 7.59991 100.2 7.59991C100.4 7.59991 100.6 7.39995 100.6 7.19995C100.6 6.99995 100.4 6.79993 100.2 6.79993C100 6.79993 99.8001 6.99995 99.8001 7.19995C99.8001 7.39995 99.9 7.59991 100 7.59991ZM109.3 112.8C109.4 112.8 109.4 112.8 109.5 112.8C109.8 112.8 110 112.6 110 112.3C110 112 109.8 111.8 109.5 111.8C109.2 111.8 109 112 109 112.3C109 112.6 109.1 112.7 109.3 112.8ZM109 96.7C109.1 96.7 109.1 96.7 109.2 96.7C109.5 96.7 109.7 96.5 109.7 96.2C109.7 95.8999 109.5 95.7 109.2 95.7C108.9 95.7 108.7 95.8999 108.7 96.2C108.7 96.5 108.8 96.7 109 96.7ZM108.7 80.5999C108.8 80.5999 108.8 80.5999 108.9 80.5999C109.2 80.5999 109.4 80.3999 109.4 80.0999C109.4 79.7999 109.2 79.5999 108.9 79.5999C108.6 79.5999 108.4 79.7999 108.4 80.0999C108.4 80.3999 108.5 80.5999 108.7 80.5999ZM106.9 64.7C107 64.7 107.1 64.7 107.2 64.7C107.5 64.7 107.6 64.3999 107.6 64.0999C107.5 63.7999 107.3 63.7 107 63.7C106.7 63.7999 106.6 63.9999 106.6 64.2999C106.6 64.4999 106.7 64.6 106.9 64.7ZM103.3 48.9999C103.4 48.9999 103.5 48.9999 103.6 48.9999C103.9 48.8999 104 48.7 104 48.4C103.9 48.1 103.7 47.9999 103.4 48.0999C103.1 48.1999 103 48.4 103 48.7C103.1 48.9 103.2 48.9999 103.3 48.9999ZM99.3001 33.4999C99.4001 33.4999 99.5 33.4999 99.6 33.4999C99.9 33.3999 100 33.2 100 32.9C99.9 32.6 99.7001 32.4999 99.4001 32.4999C99.1001 32.5999 99 32.7999 99 33.0999C99 33.2999 99.1001 33.3999 99.3001 33.4999ZM96 17.7999C96.1 17.7999 96.2 17.7999 96.2 17.7999C96.5 17.7999 96.7 17.5 96.6 17.2C96.6 16.9 96.3 16.6999 96 16.7999C95.7 16.7999 95.5 17.1 95.6 17.4C95.7 17.6 95.8 17.6999 96 17.7999ZM102.1 121.9C102.2 121.9 102.2 121.9 102.3 121.9C102.6 121.9 102.9 121.7 102.9 121.3C102.9 121 102.7 120.7 102.3 120.7C102 120.7 101.7 120.9 101.7 121.3C101.7 121.6 101.9 121.8 102.1 121.9ZM102.5 105.8C102.6 105.8 102.6 105.8 102.7 105.8C103 105.8 103.3 105.6 103.3 105.2C103.3 104.9 103.1 104.6 102.7 104.6C102.4 104.6 102.1 104.9 102.1 105.2C102.1 105.5 102.3 105.7 102.5 105.8ZM102.7 89.7C102.8 89.7 102.8 89.7 102.9 89.7C103.2 89.7 103.5 89.3999 103.5 89.0999C103.5 88.7999 103.2 88.4999 102.9 88.4999C102.6 88.4999 102.3 88.7999 102.3 89.0999C102.3 89.3999 102.5 89.6 102.7 89.7ZM102.6 73.5999C102.7 73.5999 102.8 73.5999 102.8 73.5999C103.1 73.5999 103.4 73.2999 103.3 72.9999C103.3 72.6999 103 72.3999 102.7 72.4999C102.4 72.4999 102.1 72.7999 102.2 73.0999C102.2 73.3999 102.4 73.5999 102.6 73.5999ZM100.1 57.7999C100.2 57.7999 100.3 57.7999 100.4 57.7999C100.7 57.6999 100.9 57.3999 100.8 57.0999C100.7 56.7999 100.4 56.5999 100.1 56.5999C99.8 56.6999 99.6 56.9999 99.7 57.2999C99.8 57.4999 100 57.6999 100.1 57.7999ZM96.4001 42.0999C96.5001 42.0999 96.6 42.1999 96.7 42.0999C97 41.9999 97.2 41.7 97.1 41.4C97 41.1 96.7001 40.8999 96.4001 40.9999C96.1001 41.0999 95.9 41.4 96 41.7C96.1 41.9 96.2001 42.0999 96.4001 42.0999ZM92.5 26.4999C92.6 26.4999 92.7001 26.5999 92.8001 26.4999C93.1001 26.3999 93.3 26.0999 93.2 25.7999C93.1 25.4999 92.8 25.3 92.5 25.4C92.2 25.5 92 25.7999 92.1 26.0999C92.2 26.2999 92.4 26.4999 92.5 26.4999ZM90.1 10.7C90.2 10.7 90.3001 10.7 90.4001 10.7C90.7001 10.7 91.0001 10.3999 90.9001 10.0999C90.9001 9.79991 90.6001 9.49991 90.3001 9.59991C90.0001 9.59991 89.7001 9.89995 89.8001 10.2C89.7001 10.4 89.9 10.6 90.1 10.7ZM95.4001 113.6C95.5001 113.6 95.5 113.6 95.6 113.6C96 113.6 96.3001 113.3 96.3001 113C96.3001 112.6 96 112.3 95.7 112.3C95.3 112.3 95 112.6 95 112.9C94.9 113.2 95.1001 113.5 95.4001 113.6ZM96.2 97.4999C96.3 97.4999 96.3001 97.4999 96.4001 97.4999C96.8001 97.4999 97.1 97.2 97.1 96.9C97.1 96.5 96.8 96.2 96.5 96.2C96.1 96.2 95.8001 96.4999 95.8001 96.7999C95.8001 97.0999 96 97.3999 96.2 97.4999ZM97 81.4C97.1 81.4 97.1 81.4 97.2 81.4C97.6 81.4 97.9001 81.0999 97.9001 80.7999C97.9001 80.3999 97.6001 80.0999 97.3001 80.0999C96.9001 80.0999 96.6 80.3999 96.6 80.7C96.6 81.1 96.8 81.3 97 81.4ZM96.1 65.4C96.2 65.4 96.3001 65.5 96.4001 65.4C96.8001 65.3 97 64.9999 97 64.5999C96.9 64.1999 96.6 63.9999 96.2 63.9999C95.8 64.0999 95.6 64.3999 95.6 64.7999C95.7 65.0999 95.9 65.3 96.1 65.4ZM93.1 49.5999C93.2 49.5999 93.4 49.6999 93.5 49.5999C93.9 49.4999 94.1 49.1999 94 48.7999C93.9 48.3999 93.5 48.1999 93.2 48.2999C92.8 48.3999 92.6 48.6999 92.7 49.0999C92.7 49.3999 92.9 49.5999 93.1 49.5999ZM89.2 34.0999C89.3 34.0999 89.5 34.1999 89.6 34.0999C90 33.9999 90.2 33.5999 90.1 33.2999C90 32.8999 89.7001 32.6999 89.3001 32.7999C88.9001 32.8999 88.7001 33.2999 88.8001 33.5999C88.8001 33.7999 89 33.9999 89.2 34.0999ZM85.9001 18.2999C86.0001 18.2999 86.1 18.3999 86.2 18.2999C86.6 18.1999 86.8001 17.8999 86.8001 17.4999C86.7001 17.0999 86.4 16.9 86 16.9C85.6 17 85.4001 17.3 85.4001 17.7C85.5001 18.1 85.7001 18.1999 85.9001 18.2999ZM87.7 120C87.8 120 87.8001 120 87.9001 120C88.3001 120 88.7 119.7 88.7 119.3C88.7 118.9 88.4 118.5 88 118.5C87.6 118.5 87.2 118.8 87.2 119.2C87.2 119.6 87.4 119.9 87.7 120ZM89.2 104C89.3 104 89.3001 104 89.4001 104C89.8001 104 90.2 103.7 90.2 103.3C90.2 102.9 89.9 102.5 89.5 102.5C89.1 102.5 88.7 102.8 88.7 103.2C88.7 103.6 88.9 103.9 89.2 104ZM90.7 87.9999C90.8 87.9999 90.8001 87.9999 90.9001 87.9999C91.3001 87.9999 91.7 87.6999 91.7 87.2999C91.7 86.8999 91.4 86.4999 91 86.4999C90.6 86.4999 90.2 86.7999 90.2 87.2C90.1 87.6 90.3 87.8999 90.7 87.9999ZM91.3001 71.9C91.4001 71.9 91.5 71.9 91.6 71.9C92 71.9 92.3001 71.4999 92.3001 71.0999C92.3001 70.6999 91.9 70.4 91.5 70.4C91.1 70.4 90.8001 70.7999 90.8001 71.2C90.8001 71.6 91.0001 71.8 91.3001 71.9ZM89.3001 55.9999C89.4001 55.9999 89.6 56.0999 89.7 55.9999C90.1 55.8999 90.4001 55.4999 90.3001 55.0999C90.2001 54.6999 89.8001 54.3999 89.4001 54.4999C89.0001 54.5999 88.7001 55 88.8001 55.4C88.8001 55.7 89.0001 55.8999 89.3001 55.9999ZM85.6 40.4C85.7 40.5 85.9 40.5 86.1 40.4C86.5 40.3 86.8 39.8999 86.6 39.4999C86.5 39.0999 86.1 38.7999 85.7 38.9999C85.3 39.0999 85.1 39.5 85.2 39.9C85.2 40.1 85.4 40.3 85.6 40.4ZM81.9001 24.7C82.0001 24.7 82.2001 24.8 82.3001 24.7C82.7001 24.6 83.0001 24.1999 82.9001 23.7999C82.8001 23.3999 82.4 23.1 82 23.2C81.6 23.3 81.3001 23.6999 81.4001 24.0999C81.5001 24.3999 81.7001 24.7 81.9001 24.7ZM81.8001 109.3C81.9001 109.3 81.9 109.3 82 109.3C82.5 109.4 82.9001 109 82.9001 108.6C83.0001 108.1 82.6 107.7 82.2 107.6C81.7 107.5 81.3 107.9 81.2 108.3C81.2 108.8 81.5001 109.2 81.8001 109.3ZM83.9001 93.4C84.0001 93.4 84 93.4 84.1 93.4C84.6 93.5 85 93.1 85 92.7C85.1 92.2 84.7001 91.7999 84.3001 91.7999C83.8001 91.6999 83.4001 92.0999 83.4001 92.4999C83.3001 92.8999 83.6001 93.2 83.9001 93.4ZM85.8001 77.4C85.9001 77.4 86 77.3999 86.1 77.4999C86.6 77.4999 87 77.2 87 76.7C87 76.2 86.7 75.7999 86.2 75.7999C85.7 75.7999 85.3001 76.0999 85.3001 76.5999C85.2001 76.8999 85.4001 77.3 85.8001 77.4ZM84.9001 61.4C85.0001 61.4 85.2001 61.5 85.3001 61.4C85.8001 61.3 86.1 60.9 86 60.4C85.9 59.9 85.5 59.6 85 59.7C84.5 59.7999 84.2001 60.2 84.3001 60.7C84.4001 61 84.6001 61.3 84.9001 61.4ZM81.8001 45.5999C82.0001 45.6999 82.1001 45.6999 82.3001 45.5999C82.8001 45.4999 83.0001 44.9999 82.9001 44.5999C82.8001 44.0999 82.3001 43.8999 81.9001 43.9999C81.4001 44.0999 81.2001 44.5999 81.3001 44.9999C81.3001 45.2999 81.5001 45.4999 81.8001 45.5999ZM77.9001 29.9999C78.1001 30.0999 78.2001 30.0999 78.4001 29.9999C78.9001 29.8999 79.1 29.3999 79 28.9999C78.9 28.4999 78.4 28.3 78 28.4C77.5 28.5 77.3001 29 77.4001 29.4C77.4001 29.7 77.7001 29.8999 77.9001 29.9999ZM75 14.2C75.1 14.2 75.3001 14.2999 75.4001 14.2999C75.9001 14.1999 76.2 13.7999 76.1 13.2999C76.1 12.7999 75.6 12.4999 75.2 12.5999C74.7 12.6999 74.4 13.0999 74.5 13.4999C74.5 13.7999 74.7 14.1 75 14.2ZM77 97.5999C77.1 97.5999 77.1 97.5999 77.2 97.5999C77.7 97.6999 78.2001 97.2999 78.3001 96.7999C78.4001 96.2999 78.1 95.7999 77.5 95.7C77 95.6 76.5001 95.9999 76.4001 96.4999C76.3001 96.9999 76.5 97.3999 77 97.5999ZM79.7 81.7C79.8 81.7 79.8001 81.7 79.9001 81.7C80.4001 81.7999 80.9 81.4 81 80.9C81.1 80.4 80.7 79.9 80.2 79.9C79.7 79.8 79.2 80.2 79.1 80.7C79 81.2 79.3 81.6 79.7 81.7ZM80.1 65.7C80.2 65.7 80.4 65.7999 80.5 65.7999C81 65.7999 81.4001 65.2999 81.4001 64.7999C81.4001 64.2999 80.9001 63.9 80.4001 63.9C79.9001 63.9 79.5 64.4 79.5 64.9C79.5 65.3 79.7 65.6 80.1 65.7ZM77.6 49.7999C77.8 49.8999 77.9 49.8999 78.1 49.7999C78.6 49.6999 78.9001 49.2 78.8001 48.7C78.7001 48.2 78.2 47.8999 77.7 47.9999C77.2 48.0999 76.9 48.5999 77 49.0999C77.1 49.4999 77.3 49.6999 77.6 49.7999ZM73.8001 34.2C74.0001 34.2999 74.2001 34.2999 74.4001 34.2C74.9001 34.1 75.2 33.5999 75.1 33.0999C75 32.5999 74.5 32.3 74 32.4C73.5 32.5 73.2001 32.9999 73.3001 33.4999C73.3001 33.8999 73.5001 34.1 73.8001 34.2ZM70.4001 18.4999C70.5001 18.5999 70.7001 18.5999 70.9001 18.4999C71.4001 18.3999 71.8 17.9 71.7 17.4C71.6 16.9 71.1 16.4999 70.6 16.5999C70.1 16.6999 69.7001 17.2 69.8001 17.7C69.9001 18.1 70.1001 18.3999 70.4001 18.4999ZM68.9001 2.49994C69.0001 2.49994 69.1 2.59991 69.2 2.59991C69.7 2.59991 70.1 2.19991 70.1 1.59991C70.1 1.09991 69.7 0.699951 69.1 0.699951C68.6 0.699951 68.2 1.09995 68.2 1.69995C68.3 2.09995 68.6001 2.39994 68.9001 2.49994ZM73.3001 85.0999H73.4001C74.0001 85.1999 74.5 84.8999 74.6 84.2999C74.7 83.6999 74.4001 83.1999 73.8001 83.0999C73.2001 82.9999 72.7 83.3 72.6 83.9C72.5 84.4 72.8001 84.8999 73.3001 85.0999ZM74.9001 69.0999C75.0001 69.0999 75.1001 69.2 75.3001 69.2C75.9001 69.2 76.3001 68.7 76.3001 68.2C76.3001 67.6 75.8001 67.2 75.3001 67.2C74.7001 67.2 74.3001 67.7 74.3001 68.2C74.2001 68.6 74.5001 68.8999 74.9001 69.0999ZM73.2 53.0999C73.4 53.1999 73.6 53.1999 73.7 53.0999C74.3 52.9999 74.6 52.4 74.5 51.9C74.4 51.3 73.9001 50.9999 73.3001 51.0999C72.7001 51.1999 72.4 51.7999 72.5 52.2999C72.6 52.6999 72.9 52.9999 73.2 53.0999ZM69.5 37.4999C69.7 37.5999 69.9 37.5999 70.1 37.4999C70.6 37.3999 71.0001 36.7999 70.8001 36.2C70.7001 35.6 70.1 35.2999 69.6 35.4999C69.1 35.5999 68.7001 36.1999 68.9001 36.7999C68.9001 37.0999 69.2 37.3999 69.5 37.4999ZM65.8001 21.9C66.0001 22 66.2001 22 66.3001 21.9C66.9001 21.8 67.2 21.2 67.1 20.7C67 20.1 66.5001 19.8 65.9001 19.9C65.3001 20 65 20.4999 65.1 21.0999C65.2 21.4999 65.5001 21.8 65.8001 21.9ZM63.8001 5.89996C63.9001 5.89996 64.1 5.99994 64.2 5.99994C64.8 5.99994 65.2 5.49996 65.2 4.89996C65.2 4.29996 64.7 3.89996 64.1 3.89996C63.5 3.89996 63.1 4.39994 63.1 4.99994C63.1 5.49994 63.4001 5.79996 63.8001 5.89996ZM66.8001 87.4999H66.9001C67.5001 87.6999 68.1001 87.2999 68.3001 86.7C68.5001 86.1 68.1 85.4999 67.5 85.2999C66.9 85.0999 66.3 85.4999 66.1 86.0999C66 86.6999 66.3001 87.2999 66.8001 87.4999ZM69.5 71.5999C69.6 71.5999 69.7001 71.7 69.8001 71.7C70.4001 71.7 70.9 71.1999 71 70.5999C71 69.9999 70.6001 69.5 69.9001 69.4C69.3001 69.4 68.8 69.7999 68.7 70.4999C68.8 70.9999 69.1 71.4999 69.5 71.5999ZM68.5 55.5999C68.7 55.6999 68.9 55.6999 69.1 55.5999C69.7 55.4999 70.1 54.8999 70 54.2999C69.9 53.6999 69.3 53.3 68.7 53.4C68.1 53.5 67.7001 54.1 67.8001 54.7C67.9001 55.2 68.1 55.4999 68.5 55.5999ZM65 39.9C65.2 40 65.4 40 65.7 39.9C66.3 39.7 66.6 39.0999 66.5 38.4999C66.3 37.8999 65.7 37.5 65.1 37.7C64.5 37.9 64.2001 38.4999 64.3001 39.0999C64.4001 39.4999 64.6 39.8 65 39.9ZM61 24.4C61.2 24.5 61.4 24.5 61.6 24.4C62.2 24.3 62.6001 23.6999 62.4001 23.0999C62.3001 22.4999 61.7 22.1 61.1 22.2C60.5 22.3 60.1001 22.8999 60.3001 23.4999C60.4001 23.8999 60.7 24.2 61 24.4ZM58.6 8.49994C58.8 8.59994 58.9 8.59991 59.1 8.59991C59.7 8.49991 60.2 7.99996 60.1 7.39996C60 6.79996 59.5001 6.29996 58.9001 6.39996C58.3001 6.49996 57.8001 6.99991 57.9001 7.59991C57.9001 7.99991 58.2 8.39994 58.6 8.49994ZM64 73.4C64.1 73.4 64.2001 73.4999 64.3001 73.4999C65.0001 73.5999 65.6 73.1 65.6 72.4C65.7 71.7 65.2 71.0999 64.5 71.0999C63.8 70.9999 63.3 71.5 63.2 72.2C63.2 72.7 63.5 73.2 64 73.4ZM63.6 57.2999C63.8 57.3999 64 57.4 64.2 57.4C64.9 57.3 65.3 56.6999 65.2 55.9999C65.1 55.2999 64.5001 54.8999 63.8001 54.9999C63.1001 55.0999 62.7001 55.7 62.8001 56.4C62.9001 56.8 63.2 57.1999 63.6 57.2999ZM60.3001 41.5999C60.5001 41.6999 60.8 41.6999 61 41.5999C61.6 41.3999 62.0001 40.7999 61.8001 40.0999C61.6001 39.4999 61.0001 39.0999 60.3001 39.2999C59.7001 39.4999 59.3 40.0999 59.5 40.7999C59.6 41.1999 59.9001 41.4999 60.3001 41.5999ZM56.1 26.0999C56.3 26.1999 56.6001 26.1999 56.8001 26.0999C57.4001 25.8999 57.8 25.2999 57.7 24.5999C57.5 23.9999 56.9001 23.6 56.3001 23.7C55.7001 23.9 55.3001 24.5 55.4001 25.2C55.5001 25.6 55.8 25.9999 56.1 26.0999ZM53.3001 10.2999C53.5001 10.3999 53.7001 10.4 53.9001 10.4C54.6001 10.3 55 9.69991 55 9.09991C54.9 8.39991 54.3 7.99994 53.7 7.99994C53 8.09994 52.6 8.69993 52.6 9.29993C52.6 9.79993 52.9001 10.0999 53.3001 10.2999ZM58.6 74.4C58.7 74.4 58.8001 74.3999 58.9001 74.4999C59.6001 74.5999 60.3001 74.1 60.4001 73.4C60.5001 72.7 60.0001 72 59.3001 71.9C58.6001 71.8 57.9001 72.2999 57.8001 72.9999C57.6001 73.5999 58 74.1 58.6 74.4ZM58.7 58.2999C58.9 58.3999 59.1001 58.4 59.3001 58.4C60.0001 58.3 60.5001 57.6999 60.4001 56.9999C60.3001 56.2999 59.7 55.8 59 55.9C58.3 56 57.8001 56.5999 57.9001 57.2999C57.9001 57.7999 58.2 58.1999 58.7 58.2999ZM55.4001 42.5999C55.6001 42.6999 55.9 42.6999 56.2 42.5999C56.9 42.3999 57.3 41.6999 57.1 40.9999C56.9 40.2999 56.2 39.8999 55.5 40.0999C54.8 40.2999 54.4 41 54.6 41.7C54.7 42.2 55.0001 42.4999 55.4001 42.5999ZM51.1 27.0999C51.3 27.1999 51.6001 27.1999 51.9001 27.0999C52.6001 26.8999 53.0001 26.1999 52.8001 25.4999C52.6001 24.7999 51.9 24.3999 51.2 24.5999C50.5 24.7999 50.1001 25.5 50.3001 26.2C50.4001 26.7 50.7 26.9999 51.1 27.0999ZM48 11.4C48.2 11.5 48.4 11.4999 48.6 11.4999C49.3 11.3999 49.8 10.7999 49.7 9.99994C49.6 9.29994 49.0001 8.79996 48.3001 8.89996C47.6001 8.99996 47.1 9.69996 47.2 10.4C47.2 10.8 47.5 11.2 48 11.4ZM53.2 74.7C53.3 74.7 53.4001 74.6999 53.4001 74.7999C54.1001 74.8999 54.9 74.3999 55 73.7C55.1 72.8999 54.6001 72.1999 53.9001 72.0999C53.1001 71.9999 52.4001 72.5 52.3001 73.2C52.2001 73.7999 52.5 74.5 53.2 74.7ZM53.6 58.7C53.8 58.7999 54 58.7999 54.2 58.7999C55 58.6999 55.5001 57.9999 55.4001 57.2999C55.3001 56.4999 54.6001 55.9999 53.9001 56.0999C53.1001 56.1999 52.6 56.8999 52.7 57.5999C52.8 58.0999 53.2 58.5 53.6 58.7ZM50.3001 42.9999C50.6001 43.0999 50.9 43.0999 51.2 42.9999C51.9 42.7999 52.4 41.9999 52.2 41.2999C52 40.5999 51.2 40.0999 50.5 40.2999C49.8 40.4999 49.3 41.2999 49.5 41.9999C49.6 42.4999 49.9001 42.8999 50.3001 42.9999ZM45.8001 27.5999C46.1001 27.6999 46.3 27.6999 46.6 27.5999C47.3 27.3999 47.8 26.6 47.6 25.9C47.4 25.2 46.6001 24.7 45.9001 24.9C45.2001 25.1 44.7001 25.8999 44.9001 26.5999C45.1001 27.0999 45.4001 27.3999 45.8001 27.5999ZM42.5 11.9C42.7 12 42.9 11.9999 43.2 11.9999C44 11.8999 44.5001 11.2 44.4001 10.4C44.3001 9.59996 43.6001 9.09995 42.8001 9.19995C42.0001 9.29995 41.5 9.99993 41.6 10.7999C41.7 11.2999 42 11.7 42.5 11.9ZM47.9001 74.4999C48.0001 74.4999 48 74.4999 48.1 74.5999C48.9 74.7999 49.7001 74.2 49.8001 73.4C50.0001 72.6 49.4 71.7999 48.7 71.7C47.9 71.5 47.1 72.1 47 72.9C46.9 73.5 47.3001 74.1999 47.9001 74.4999ZM48.6 58.4999C48.8 58.5999 49.0001 58.5999 49.3001 58.5999C50.1001 58.4999 50.7 57.7999 50.6 56.9999C50.5 56.1999 49.8 55.6 49 55.7C48.2 55.7999 47.6 56.4999 47.7 57.2999C47.7 57.7999 48.1 58.2999 48.6 58.4999ZM45 42.7999C45.3 42.8999 45.6001 42.8999 45.9001 42.7999C46.7001 42.5999 47.1001 41.6999 46.9001 40.9999C46.7001 40.1999 45.9 39.7999 45.1 39.9999C44.3 40.1999 43.9 41.0999 44.1 41.7999C44.3 42.2999 44.6 42.5999 45 42.7999ZM40.4001 27.4C40.7001 27.5 41.0001 27.5 41.3001 27.4C42.1001 27.2 42.5001 26.3999 42.3001 25.5999C42.1001 24.7999 41.3 24.3999 40.5 24.5999C39.7 24.7999 39.3 25.6 39.5 26.4C39.6 26.9 40.0001 27.3 40.4001 27.4ZM36.8001 11.7999C37.0001 11.8999 37.3 11.9 37.5 11.9C38.3 11.8 38.9 11 38.7 10.2C38.6 9.39995 37.8 8.89994 37 8.99994C36.2 9.09994 35.7001 9.89995 35.8001 10.7C36.0001 11.2 36.3001 11.5999 36.8001 11.7999ZM42.9001 73.7C43.0001 73.7 43 73.7999 43.1 73.7999C43.9 73.9999 44.8001 73.3999 44.9001 72.5999C45.1001 71.7999 44.5 70.8999 43.7 70.7C42.9 70.5 42.0001 71.1 41.8001 71.9C41.7001 72.7 42.1001 73.5 42.9001 73.7ZM43.4001 57.7C43.6001 57.7999 43.9 57.7999 44.2 57.7999C45 57.6999 45.6 56.8999 45.5 55.9999C45.4 55.0999 44.6 54.5 43.7 54.7C42.8 54.7999 42.3001 55.5999 42.4001 56.4999C42.5001 57.0999 42.9001 57.6 43.4001 57.7ZM39.6 42.2C39.9 42.2999 40.3 42.2999 40.6 42.2C41.4 41.9 41.9 41.1 41.6 40.2C41.3 39.4 40.5 38.9 39.6 39.2C38.8 39.5 38.3 40.2999 38.6 41.2C38.8 41.6 39.2 42 39.6 42.2ZM34.7 26.9C35 27 35.4 27 35.7 26.9C36.5 26.6 37.0001 25.8 36.8001 24.9C36.6001 24.1 35.7001 23.6 34.9001 23.9C34.1001 24.1 33.6001 24.9999 33.9001 25.7999C33.9001 26.2999 34.3 26.7 34.7 26.9ZM31.9001 87.2999C32.6001 87.5999 33.5001 87.2999 33.9001 86.5999C34.4001 85.7999 34.1001 84.7999 33.4001 84.2999C32.6001 83.7999 31.6 84.1 31.1 84.9C30.6 85.7 30.9 86.7 31.6 87.2C31.7 87.2999 31.8001 87.2999 31.9001 87.2999ZM38 72.4999C38.1 72.4999 38.2 72.5999 38.2 72.5999C39.1 72.7999 40 72.1999 40.1 71.2999C40.3 70.3999 39.7001 69.4999 38.8001 69.2999C37.9001 69.0999 37.0001 69.6999 36.8001 70.5999C36.8001 71.4999 37.2 72.2999 38 72.4999ZM38.2 56.5999C38.5 56.6999 38.8 56.7 39 56.7C39.9 56.5 40.5001 55.6999 40.3001 54.7999C40.1001 53.8999 39.3001 53.2999 38.4001 53.4999C37.5001 53.5999 36.9 54.5 37.1 55.4C37.2 55.9 37.7 56.3999 38.2 56.5999ZM34 41.0999C34.3 41.1999 34.7 41.1999 35.1 41.0999C36 40.7999 36.4 39.8999 36.1 38.9999C35.8 38.0999 34.9 37.6999 34 37.9999C33.1 38.2999 32.7 39.1999 33 40.0999C33.1 40.5999 33.5 40.8999 34 41.0999ZM28.8001 25.9C29.1001 26 29.5001 26 29.9001 25.9C30.8001 25.6 31.2 24.6999 31 23.7999C30.7 22.8999 29.8001 22.5 28.9001 22.7C28.0001 23 27.5001 23.8999 27.8001 24.7999C28.0001 25.2999 28.3001 25.7 28.8001 25.9ZM27.2 85.7999C28 86.0999 28.8001 85.7999 29.3001 85.0999C29.8001 84.2999 29.6001 83.2 28.8001 82.7C28.0001 82.2 26.9001 82.3999 26.4001 83.2999C25.9001 84.0999 26.1001 85.2 26.9001 85.7C27.0001 85.7 27.1 85.6999 27.2 85.7999ZM33.2 70.9C33.3 70.9 33.4 70.9999 33.5 70.9999C34.4 71.1999 35.4 70.4999 35.5 69.5999C35.7 68.6999 35.1 67.6999 34.1 67.5999C33.2 67.3999 32.2 68.0999 32.1 68.9999C32 69.7999 32.4 70.6 33.2 70.9ZM32.8001 54.9999C33.1001 55.0999 33.4001 55.0999 33.8001 55.0999C34.7001 54.8999 35.3 53.9999 35.1 52.9999C34.9 52.0999 34 51.5 33 51.7C32.1 51.9 31.5 52.7999 31.7 53.7999C31.8 54.2999 32.3001 54.7999 32.8001 54.9999ZM28.1 39.5999C28.5 39.6999 28.9001 39.7999 29.3001 39.5999C30.2001 39.2999 30.7001 38.3 30.3001 37.4C30.0001 36.5 29 36 28.1 36.4C27.2 36.7 26.7 37.6999 27.1 38.5999C27.2 39.0999 27.6 39.4999 28.1 39.5999ZM22.9001 83.9C23.7001 84.2 24.6 83.8999 25.1 83.0999C25.6 82.1999 25.4 81.0999 24.5 80.5999C23.6 80.0999 22.5 80.2999 22 81.2C21.5 82.1 21.7 83.2 22.6 83.7C22.7 83.7999 22.8001 83.8 22.9001 83.9ZM28.6 68.9C28.7 68.9 28.9 68.9999 29 68.9999C30 69.0999 30.9 68.4 31.1 67.4C31.2 66.4 30.5 65.4999 29.5 65.2999C28.5 65.1999 27.6001 65.9 27.4001 66.9C27.3001 67.8 27.8 68.7 28.6 68.9ZM27.2 52.9999C27.5 53.0999 27.9001 53.1999 28.3001 53.0999C29.3001 52.7999 29.9 51.8 29.6 50.9C29.3 49.9 28.3001 49.2999 27.4001 49.5999C26.4001 49.8999 25.8 50.8999 26.1 51.7999C26.3 52.3999 26.7 52.7999 27.2 52.9999ZM21.9001 37.9C22.3001 38.1 22.8 38.1 23.2 37.9C24.1 37.5 24.6 36.4999 24.2 35.4999C23.8 34.5999 22.8001 34.0999 21.8001 34.4999C20.9001 34.8999 20.4001 35.9 20.8001 36.9C21.1001 37.4 21.4001 37.7 21.9001 37.9ZM8.80008 94.0999C9.50008 94.3999 10.3001 94.1999 10.8001 93.5999C11.5001 92.7999 11.5001 91.6 10.8001 90.9C10.1001 90.2 8.80001 90.2 8.10001 90.9C7.40001 91.7 7.40001 92.8999 8.10001 93.5999C8.30001 93.8999 8.50008 93.9999 8.80008 94.0999ZM18.9001 81.7C19.7001 82 20.7 81.7 21.2 80.9C21.7 80 21.5 78.7999 20.6 78.2999C19.7 77.6999 18.5 77.9999 18 78.9999C17.5 79.8999 17.7 81.0999 18.6 81.5999C18.7 81.5999 18.8001 81.6 18.9001 81.7ZM23.9001 66.4999C24.1001 66.5999 24.3 66.5999 24.5 66.5999C25.6 66.6999 26.5 65.8999 26.5 64.7999C26.6 63.6999 25.8 62.7999 24.7 62.7999C23.6 62.6999 22.7 63.4999 22.7 64.5999C22.6 65.4999 23.1001 66.2999 23.9001 66.4999ZM21.4001 50.7999C21.8001 50.8999 22.2 50.9999 22.7 50.7999C23.7 50.4999 24.3001 49.4 23.9001 48.4C23.6001 47.4 22.5 46.7999 21.5 47.2C20.5 47.5 19.9001 48.5999 20.3001 49.5999C20.4001 50.0999 20.9001 50.5999 21.4001 50.7999ZM15.4001 35.9C15.8001 36.1 16.4001 36.1 16.8001 35.9C17.8001 35.5 18.2001 34.3 17.8001 33.4C17.4001 32.4 16.3001 32 15.3001 32.4C14.3001 32.8 13.9001 34 14.3001 34.9C14.6001 35.3 15.0001 35.7 15.4001 35.9ZM5.10001 91.7C5.80001 92 6.59998 91.7999 7.19998 91.2999C7.99998 90.4999 8.00008 89.2999 7.30008 88.4999C6.50008 87.6999 5.30003 87.7 4.50003 88.4C3.70003 89.2 3.70005 90.3999 4.40005 91.2C4.60005 91.5 4.80001 91.6 5.10001 91.7ZM15.2 79.2999C16.1 79.5999 17.2 79.3 17.6 78.4C18.1 77.4 17.8001 76.2 16.8001 75.7C15.8001 75.2 14.6 75.4999 14.1 76.4999C13.6 77.4999 13.9001 78.7 14.9001 79.2C15.0001 79.2 15.1 79.1999 15.2 79.2999ZM19 63.7999C19.2 63.8999 19.5001 63.9 19.8001 63.9C20.9001 63.9 21.8 62.8999 21.7 61.7999C21.7 60.6999 20.7 59.8 19.6 59.9C18.5 59.9 17.6 60.8999 17.7 61.9999C17.7 62.8999 18.2 63.5999 19 63.7999ZM15.2 48.2999C15.6 48.4999 16.2 48.4999 16.6 48.2999C17.6 47.8999 18.1 46.7 17.7 45.7C17.3 44.7 16.1 44.1999 15.1 44.5999C14.1 44.9999 13.6 46.2 14 47.2C14.2 47.7 14.7 48.0999 15.2 48.2999ZM8.60001 33.7C9.10001 33.9 9.60001 33.8999 10.1 33.5999C11.1 33.0999 11.5 31.9 11.1 30.9C10.6 29.9 9.40005 29.5 8.40005 29.9C7.40005 30.4 7.00005 31.5999 7.40005 32.5999C7.70005 33.0999 8.10001 33.5 8.60001 33.7ZM4.19998 92.9999C4.89998 93.2999 5.69998 93.0999 6.19998 92.5999C6.99998 91.8999 7.00008 90.5999 6.30008 89.7999C5.60008 88.9999 4.30003 89 3.50003 89.7C2.70003 90.3999 2.70005 91.6999 3.40005 92.4999C3.70005 92.6999 3.99998 92.8999 4.19998 92.9999ZM14.3001 80.4999C15.2001 80.7999 16.2 80.4999 16.7 79.5999C17.2 78.5999 16.9001 77.5 15.9001 76.9C14.9001 76.4 13.8 76.7 13.2 77.7C12.7 78.7 13 79.8 14 80.4C14.1 80.5 14.2001 80.4999 14.3001 80.4999ZM17.7 64.9999C17.9 65.0999 18.2 65.0999 18.5 65.0999C19.6 64.9999 20.4001 64.0999 20.3001 62.9999C20.2001 61.8999 19.3 61.1 18.2 61.2C17.1 61.2999 16.3001 62.1999 16.4001 63.2999C16.5001 64.0999 17 64.7999 17.7 64.9999ZM14 49.4999C14.4 49.6999 14.9001 49.6999 15.4001 49.4999C16.4001 49.0999 16.9 47.9999 16.6 46.9999C16.2 45.9999 15.1 45.4999 14.1 45.7999C13.1 46.1999 12.6001 47.2999 12.9001 48.2999C13.0001 48.8999 13.5 49.2999 14 49.4999ZM8.10001 34.5999C8.50001 34.7999 9.00003 34.7999 9.50003 34.5999C10.5 34.1999 11 33.0999 10.6 32.0999C10.2 31.0999 9.10001 30.5999 8.10001 30.9999C7.10001 31.3999 6.60003 32.4999 7.00003 33.4999C7.10003 33.9999 7.60001 34.3999 8.10001 34.5999ZM4.40005 93.4C5.10005 93.6 5.80005 93.4999 6.40005 92.9999C7.20005 92.2999 7.20003 91.0999 6.50003 90.2999C5.80003 89.4999 4.60008 89.5 3.80008 90.2C3.00008 90.8999 2.99998 92.2 3.69998 92.9C3.89998 93.2 4.10005 93.3 4.40005 93.4ZM14 80.7C14.9 81 16.0001 80.6 16.4001 79.7C16.9001 78.7 16.4 77.5999 15.5 77.0999C14.5 76.6999 13.4 77.0999 13 77.9999C12.5 78.9999 13.0001 80.0999 13.9001 80.5999C13.9001 80.5999 14 80.6 14 80.7ZM16.5 64.9999C16.8 65.0999 17.1001 65.0999 17.4001 65.0999C18.5001 64.9999 19.2 63.9999 19.1 62.9999C19 61.8999 18 61.1999 17 61.2999C15.9 61.3999 15.2001 62.4 15.3001 63.4C15.3001 64.1 15.8 64.6999 16.5 64.9999ZM12.7 49.4C13.1 49.5 13.5 49.6 14 49.4C15 49.1 15.6 47.9999 15.2 46.9999C14.9 45.9999 13.8001 45.4999 12.8001 45.7999C11.8001 46.0999 11.2 47.2 11.6 48.2C11.7 48.7999 12.1 49.2 12.7 49.4ZM7.80008 34.0999C8.20008 34.1999 8.60003 34.2999 9.00003 34.2C10 33.9 10.6001 32.8999 10.4001 31.7999C10.1001 30.7999 9.10001 30.2 8.10001 30.4C7.10001 30.7 6.49998 31.6999 6.69998 32.7999C6.79998 33.3999 7.20008 33.8999 7.80008 34.0999ZM5.69998 92.5999C6.39998 92.8999 7.19998 92.6999 7.69998 92.0999C8.39998 91.3999 8.40001 90.1999 7.60001 89.4999C6.90001 88.7999 5.70003 88.7999 5.00003 89.5999C4.30003 90.2999 4.30001 91.4999 5.10001 92.2999C5.20001 92.3999 5.39998 92.5999 5.69998 92.5999ZM14.3001 79.2C15.3001 79.5 16.4 78.9999 16.7 77.9999C17 76.9999 16.5 75.9999 15.5 75.5999C14.5 75.2999 13.5 75.7999 13.1 76.7999C12.8 77.7999 13.3001 78.8999 14.3001 79.2ZM15.1 63.2999C15.4 63.3999 15.7 63.4 16 63.4C17 63.2 17.7 62.2999 17.6 61.2C17.4 60.2 16.5 59.5 15.5 59.7C14.5 59.9 13.8 60.7999 14 61.7999C14 62.5999 14.5 63.0999 15.1 63.2999ZM11.5 47.7C11.8 47.7999 12.2 47.9 12.6 47.7C13.6 47.4 14.2001 46.4 13.9001 45.4C13.6001 44.4 12.6 43.7999 11.6 44.0999C10.6 44.3999 10.0001 45.4 10.3001 46.4C10.5001 47 10.9 47.5 11.5 47.7ZM8.30008 31.9C8.60008 32 8.89998 31.9999 9.19998 31.9999C10.2 31.8999 11.0001 30.9 10.8001 29.9C10.7001 28.9 9.69998 28.0999 8.69998 28.2999C7.69998 28.3999 6.90001 29.4 7.10001 30.4C7.20001 31.1 7.60008 31.7 8.30008 31.9ZM8.19998 90.2999C8.89998 90.5999 9.80008 90.3999 10.3001 89.7C10.9001 88.8999 10.8 87.7999 10 87.0999C9.20003 86.4999 8.10005 86.6 7.40005 87.4C6.80005 88.2 6.89998 89.2999 7.69998 89.9999C7.79998 90.1999 7.99998 90.2999 8.19998 90.2999ZM14.6 75.7999C14.7 75.7999 14.9 75.9 15 75.9C16 76 16.9 75.2999 17.1 74.2999C17.2 73.2999 16.5 72.3999 15.5 72.2C14.5 72.1 13.6 72.7999 13.5 73.7999C13.3 74.6999 13.8 75.4999 14.6 75.7999ZM13.7 59.7999C14 59.8999 14.3 59.9 14.6 59.9C15.6 59.7 16.3 58.7999 16.1 57.7999C15.9 56.7999 15 56.0999 14 56.2999C13 56.4999 12.3 57.4 12.5 58.4C12.7 59.1 13.2 59.5999 13.7 59.7999ZM11 43.9999C11.3 44.0999 11.6001 44.0999 11.9001 44.0999C12.9001 43.9999 13.6 42.9999 13.5 41.9999C13.4 40.9999 12.4001 40.3 11.4001 40.4C10.4001 40.5 9.70008 41.4999 9.80008 42.4999C9.90008 43.1999 10.4 43.6999 11 43.9999ZM11.4001 85.7C12.3001 86 13.2 85.5999 13.6 84.7999C14 83.8999 13.7001 82.8 12.8001 82.4C11.9001 82 10.9001 82.3999 10.4001 83.2C10.0001 84.1 10.3 85.1999 11.2 85.5999C11.3 85.6999 11.3001 85.7 11.4001 85.7ZM14.3001 69.9999C14.5001 70.0999 14.7 70.0999 15 70.0999C16 70.0999 16.8001 69.2999 16.8001 68.2999C16.8001 67.2999 16 66.4999 15 66.5999C14 66.5999 13.2001 67.4 13.3001 68.4C13.1001 69.2 13.6001 69.7999 14.3001 69.9999ZM13 53.9999C13.2 54.0999 13.5001 54.0999 13.8001 54.0999C14.8001 53.9999 15.5001 53.0999 15.4001 52.0999C15.3001 51.0999 14.4 50.3999 13.5 50.4999C12.5 50.5999 11.8001 51.4999 11.9001 52.4999C12.0001 53.1999 12.4 53.7999 13 53.9999ZM12.4001 37.9999C12.6001 38.0999 12.8 38.0999 13 38.0999C14 38.0999 14.8001 37.3 14.8001 36.4C14.8001 35.4 14 34.5999 13.1 34.5999C12.1 34.5999 11.3001 35.4 11.3001 36.4C11.2001 37 11.7001 37.6999 12.4001 37.9999ZM7.60001 92.4C8.30001 92.7 9.10001 92.3999 9.60001 91.7999C10.2 90.9999 10.0001 89.9 9.30008 89.4C8.50008 88.8 7.50005 88.9999 6.90005 89.7999C6.30005 90.5999 6.49998 91.7 7.19998 92.2C7.29998 92.2999 7.50001 92.4 7.60001 92.4ZM13.6 77.7C13.7 77.7 13.8 77.7999 14 77.7999C14.9 77.8999 15.8 77.2999 16 76.2999C16.1 75.2999 15.5 74.4999 14.5 74.2999C13.6 74.1999 12.7 74.7999 12.5 75.7999C12.4 76.5999 12.8 77.3999 13.6 77.7ZM14.3001 61.5999C14.5001 61.6999 14.7001 61.7 14.9001 61.7C15.9001 61.7 16.6 60.9 16.6 59.9C16.6 58.9 15.8001 58.2 14.8001 58.2C13.8001 58.2 13.1 58.9999 13.1 59.9999C13.1 60.7999 13.6001 61.3999 14.3001 61.5999ZM14.5 45.5999C14.7 45.6999 14.8 45.7 15 45.7C16 45.7999 16.8001 44.9999 16.8001 44.0999C16.9001 43.0999 16.1 42.2999 15.2 42.2999C14.2 42.1999 13.4001 43 13.4001 43.9C13.3001 44.6 13.8 45.2999 14.5 45.5999ZM16.2 29.5999C16.3 29.5999 16.4 29.7 16.5 29.7C17.4 29.8 18.3 29.2 18.5 28.2C18.6 27.2 18 26.4 17 26.2C16.1 26.1 15.2 26.7 15 27.7C15 28.5 15.5 29.2999 16.2 29.5999ZM5.40005 96.2C6.00005 96.3999 6.80008 96.2999 7.30008 95.7C7.90008 95 7.89998 93.8999 7.19998 93.2999C6.49998 92.6999 5.40008 92.6999 4.80008 93.4999C4.20008 94.1999 4.20005 95.3 4.90005 95.9C5.00005 96 5.20005 96.1 5.40005 96.2ZM12.8001 82.0999C12.9001 82.0999 12.9 82.1 13 82.2C13.9 82.3999 14.8 81.8999 15.1 80.9999C15.3 80.0999 14.8001 79.2 13.9001 78.9C13.0001 78.7 12.1001 79.1999 11.8001 80.0999C11.5001 80.8999 12.0001 81.7999 12.8001 82.0999ZM15.2 66.2C15.3 66.2999 15.5 66.2999 15.7 66.2999C16.6 66.3999 17.4 65.7 17.5 64.7C17.6 63.7999 16.9 62.9 16 62.9C15.1 62.8 14.3 63.4999 14.2 64.4999C14 65.1999 14.5 65.8999 15.2 66.2ZM16.7 50.2C16.8 50.2 16.9 50.2999 17.1 50.2999C18 50.3999 18.9 49.7999 19 48.7999C19.1 47.8999 18.5 47 17.5 46.9C16.6 46.8 15.7 47.5 15.6 48.4C15.5 49.2 16 49.9 16.7 50.2ZM19.2 34.2999C19.3 34.2999 19.4 34.4 19.5 34.4C20.4 34.6 21.3 33.9999 21.5 32.9999C21.7 32.0999 21.1 31.1999 20.2 30.9999C19.3 30.7999 18.4 31.4 18.2 32.4C17.9 33.2 18.4 33.9999 19.2 34.2999ZM13.2 82.7C14.2 83 15.1001 82.4999 15.3001 81.5999C15.6001 80.6999 15.1 79.7999 14.2 79.4999C13.3 79.1999 12.4 79.6999 12.1 80.5999C11.9 81.4999 12.4 82.3999 13.2 82.7ZM16.7 66.9999C16.8 66.9999 16.9 67.0999 17 67.0999C17.9 67.2999 18.7001 66.6999 18.9001 65.7999C19.1001 64.8999 18.5 64 17.6 63.9C16.7 63.7 15.9 64.3999 15.7 65.2999C15.5 65.9999 16 66.7999 16.7 66.9999ZM19.6 51.2C19.7 51.2 19.8001 51.2999 19.9001 51.2999C20.8001 51.4999 21.7001 50.8999 21.8001 49.9999C22.0001 49.0999 21.4 48.1999 20.5 48.0999C19.6 47.8999 18.7 48.5 18.6 49.4C18.4 50.1 18.9 50.9 19.6 51.2ZM23 35.4999C23.1 35.4999 23.1 35.5999 23.2 35.5999C24.1 35.7999 25 35.2 25.2 34.4C25.4 33.5 24.9 32.6 24 32.4C23.1 32.2 22.2 32.6999 22 33.5999C21.7 34.3999 22.2 35.1999 23 35.4999ZM27 19.9H27.1C28 20.1 28.9 19.6 29.1 18.7C29.3 17.8 28.8 16.9 28 16.7C27.1 16.5 26.2 16.9999 26 17.7999C25.7 18.6999 26.2 19.6 27 19.9ZM9.10001 93.9C9.80001 94.2 10.6 93.8999 11 93.2999C11.5 92.4999 11.3 91.5999 10.5 91.0999C9.80003 90.5999 8.80008 90.7999 8.30008 91.5999C7.80008 92.3999 8.00008 93.2999 8.80008 93.7999C8.90008 93.7999 9.00001 93.8 9.10001 93.9ZM15.7 79.2C15.7 79.2 15.8 79.2 15.7 79.2C16.6 79.5 17.5001 79.1 17.8001 78.2C18.1001 77.3999 17.6001 76.3999 16.8001 76.2C16.0001 75.8999 15.1001 76.3999 14.8001 77.2C14.5001 78 14.9 78.8999 15.7 79.2ZM20.1 63.7999C20.2 63.7999 20.2001 63.7999 20.3001 63.7999C21.2001 63.9999 22 63.4999 22.2 62.5999C22.4 61.6999 21.9 60.8999 21 60.5999C20.1 60.3999 19.3 60.8999 19 61.7999C18.9 62.6999 19.3 63.4999 20.1 63.7999ZM24 48.2C24.1 48.2 24.1 48.1999 24.2 48.2999C25.1 48.4999 25.9 47.9999 26.2 47.0999C26.4 46.1999 25.9 45.3999 25 45.0999C24.1 44.8999 23.3 45.3999 23 46.2999C22.8 47.0999 23.3 47.9 24 48.2ZM28.1 32.5999H28.2C29.1 32.7999 29.9 32.2999 30.2 31.4999C30.4 30.5999 29.9 29.7999 29.1 29.4999C28.2 29.2999 27.4 29.7999 27.1 30.5999C26.9 31.4999 27.3 32.2999 28.1 32.5999ZM32.6 17.0999C33.5 17.3999 34.4 16.8999 34.7 16.0999C35 15.1999 34.5 14.3999 33.7 14.0999C32.9 13.7999 32 14.3 31.7 15.2C31.3 16 31.8 16.7999 32.6 17.0999ZM14.9001 86.2C15.6001 86.5 16.4001 86.1999 16.8001 85.4999C17.2001 84.6999 16.9 83.8 16.2 83.4C15.4 83 14.5 83.2999 14.1 83.9999C13.7 84.7999 14 85.6999 14.7 86.0999C14.8 86.0999 14.9001 86.2 14.9001 86.2ZM21.1 71.2999C21.1 71.3999 21.1 71.3999 21.1 71.2999C21.9 71.5999 22.8 71.1999 23.1 70.2999C23.4 69.4999 23 68.5999 22.1 68.2999C21.3 67.9999 20.4 68.4999 20.1 69.2999C19.9 70.1999 20.3 71.0999 21.1 71.2999ZM26 55.9999C26 55.9999 26.1 55.9999 26 55.9999C26.9 56.2999 27.8 55.7999 28 54.9999C28.2 54.1999 27.8 53.2999 27 53.0999C26.2 52.8999 25.3 53.2999 25.1 54.2C24.8 54.9 25.2 55.6999 26 55.9999ZM30.5 40.5999H30.6C31.4 40.7999 32.3 40.3999 32.5 39.4999C32.7 38.6999 32.3001 37.7999 31.4001 37.5999C30.6001 37.3999 29.7 37.7999 29.5 38.7C29.3 39.5 29.7 40.2999 30.5 40.5999ZM34.9001 25.0999H35C35.8 25.2999 36.7001 24.8999 36.9001 23.9999C37.1001 23.1999 36.7001 22.2999 35.8001 22.0999C35.0001 21.8999 34.1001 22.3 33.9001 23.2C33.7001 24 34.2001 24.7999 34.9001 25.0999ZM39.6 9.69995C40.5 9.99995 41.4 9.49995 41.6 8.69995C41.8 7.89995 41.4 6.99995 40.6 6.69995C39.8 6.39995 38.9 6.89995 38.6 7.69995C38.4 8.59995 38.8 9.39995 39.6 9.69995ZM16.4001 88.5999C17.0001 88.7999 17.8 88.5999 18.2 87.9999C18.7 87.2999 18.5001 86.4 17.8001 85.9C17.1001 85.4 16.2 85.7 15.7 86.4C15.3 87.1 15.4 87.9999 16.1 88.4999C16.2 88.4999 16.3001 88.4999 16.4001 88.5999ZM23.7 74.2999C24.5 74.5999 25.3 74.1999 25.6 73.4999C25.9 72.6999 25.6001 71.7999 24.8001 71.4999C24.0001 71.1999 23.1001 71.4999 22.8001 72.2999C22.5001 72.9999 22.9 73.8999 23.7 74.2999C23.6 74.1999 23.7 74.2999 23.7 74.2999ZM29.4001 59.2C30.2001 59.5 31.1001 59.0999 31.4001 58.2999C31.7001 57.4999 31.2 56.6 30.5 56.4C29.7 56.1 28.9 56.6 28.6 57.4C28.2 58.1 28.6001 58.9 29.4001 59.2ZM34.2 43.9C34.2 43.9 34.3 43.9 34.2 43.9C35.1 44.2 35.9 43.7 36.2 42.9C36.4 42.1 36 41.1999 35.2 40.9999C34.4 40.7999 33.6001 41.1999 33.3001 41.9999C33.1001 42.7999 33.5 43.6 34.2 43.9ZM38.7 28.4H38.8001C39.6001 28.6 40.4 28.2 40.7 27.4C40.9 26.6 40.5 25.7999 39.7 25.4999C38.9 25.2999 38.1001 25.6999 37.8001 26.4999C37.5001 27.2999 37.9 28.1 38.7 28.4ZM43 12.9H43.1C43.9 13.1 44.7 12.5999 45 11.7999C45.2 10.9999 44.8 10.2 44 9.89996C43.2 9.69996 42.4 10.1999 42.1 10.9999C41.9 11.7999 42.3 12.6 43 12.9ZM20.9001 87.4C21.5001 87.6 22.3 87.3999 22.6 86.7999C23.1 86.0999 22.9 85.1999 22.2 84.7999C21.5 84.3999 20.6 84.5 20.2 85.2C19.8 85.8999 19.9 86.7999 20.6 87.2C20.7 87.2999 20.8001 87.3 20.9001 87.4ZM28.5 73.2C29.2 73.5 30.0001 73.1 30.3001 72.4C30.6001 71.7 30.3 70.7999 29.6 70.4999C28.9 70.1999 28 70.5 27.7 71.2C27.3 71.8999 27.6 72.7999 28.5 73.2C28.4 73.2 28.4 73.2 28.5 73.2ZM34.4001 58.2C35.2001 58.5 36.0001 58.0999 36.3001 57.2999C36.6001 56.4999 36.2001 55.7 35.4001 55.4C34.6001 55.1 33.8 55.4999 33.5 56.2999C33.2 57.0999 33.6001 57.9 34.4001 58.2ZM39.2 42.9H39.3001C40.1001 43.1 40.9 42.7 41.1 41.9C41.3 41.1 40.9 40.2999 40.1 40.0999C39.3 39.8999 38.5001 40.2999 38.3001 41.0999C38.1001 41.7999 38.5 42.6 39.2 42.9ZM43.5 27.4C43.6 27.4 43.6 27.4 43.7 27.4C44.5 27.6 45.3 27.0999 45.5 26.2999C45.7 25.4999 45.2001 24.6999 44.4001 24.4999C43.6001 24.2999 42.8 24.7999 42.6 25.5999C42.4 26.3999 42.8 27.1 43.5 27.4ZM47.3001 11.7C47.4001 11.7 47.4 11.6999 47.5 11.7999C48.3 11.9999 49.1001 11.5 49.3001 10.7C49.5001 9.89995 49 9.09996 48.2 8.89996C47.4 8.69996 46.6001 9.19994 46.4001 9.99994C46.2001 10.6999 46.6001 11.5 47.3001 11.7ZM18.4001 96.0999C18.9001 96.2999 19.5001 96.2 19.9001 95.7C20.4001 95.1 20.4001 94.2 19.9001 93.7C19.3001 93.2 18.4001 93.2 17.9001 93.7C17.4001 94.2999 17.4001 95.2 17.9001 95.7C18.0001 96 18.2001 96.0999 18.4001 96.0999ZM28 83.2999C28.6 83.4999 29.4 83.2999 29.7 82.7C30.1 82 29.9 81.1 29.2 80.7C28.5 80.2999 27.7001 80.5 27.3001 81.2C26.9001 81.8999 27.1001 82.7999 27.8001 83.2C27.8001 83.2 27.9 83.1999 28 83.2999ZM35.2 68.9C35.9 69.2 36.7 68.7999 37 68.0999C37.3 67.3999 37.0001 66.5 36.3001 66.2C35.6001 65.8999 34.7001 66.1999 34.4001 66.9999C34.0001 67.6999 34.4 68.6 35.2 68.9C35.1 68.9 35.1 68.9 35.2 68.9ZM40.7 53.7999C40.8 53.7999 40.8 53.7999 40.7 53.7999C41.5 54.0999 42.3 53.6 42.6 52.9C42.8 52.1 42.4 51.2999 41.7 51.0999C41 50.8999 40.2001 51.2999 39.9001 51.9999C39.6001 52.7999 40 53.4999 40.7 53.7999ZM45.1 38.2999H45.2C46 38.4999 46.7001 37.9999 46.9001 37.2999C47.1001 36.4999 46.6001 35.7999 45.9001 35.5999C45.1001 35.3999 44.4 35.8999 44.2 36.5999C44.1 37.2999 44.5 38.0999 45.1 38.2999ZM48.7 22.5999C48.8 22.5999 48.8001 22.7 48.9001 22.7C49.7001 22.9 50.4 22.2999 50.6 21.5999C50.8 20.7999 50.2 20.1 49.5 19.9C48.7 19.8 48.0001 20.2999 47.8001 20.9999C47.6001 21.6999 48 22.3999 48.7 22.5999ZM51.5 6.79993C51.6 6.79993 51.7001 6.89996 51.8001 6.89996C52.6001 6.99996 53.3001 6.49995 53.4001 5.69995C53.5001 4.89995 53 4.19991 52.2 4.09991C51.4 3.99991 50.7 4.49993 50.6 5.29993C50.5 5.89993 50.9 6.59993 51.5 6.79993ZM28.4001 90.2999C29.0001 90.4999 29.6 90.2999 30 89.7999C30.5 89.1999 30.3 88.3 29.7 87.9C29.1 87.4 28.2001 87.6 27.8001 88.2C27.3001 88.7999 27.5 89.6999 28.1 90.0999C28.2 90.1999 28.3001 90.1999 28.4001 90.2999ZM36.8001 76.4999C37.5001 76.6999 38.2 76.4999 38.5 75.7999C38.8 75.0999 38.6001 74.3 37.9001 73.9C37.2001 73.6 36.4 73.7999 36 74.4999C35.7 75.1999 35.9 76 36.6 76.4C36.7 76.5 36.7001 76.4999 36.8001 76.4999ZM43 61.7C43.7 62 44.5001 61.6 44.8001 60.9C45.1001 60.2 44.7 59.3999 44 59.0999C43.3 58.8999 42.5 59.2 42.2 59.9C41.9 60.7 42.3 61.5 43 61.7ZM47.6 46.2999H47.7C48.4 46.4999 49.2001 45.9999 49.4001 45.2999C49.6001 44.5999 49.1001 43.7999 48.4001 43.5999C47.7001 43.3999 46.9 43.8999 46.7 44.5999C46.6 45.3999 47 46.0999 47.6 46.2999ZM50.9001 30.5999C51.0001 30.5999 51.1 30.7 51.2 30.7C52 30.8 52.7001 30.2999 52.8001 29.5999C52.9001 28.7999 52.4 28.0999 51.7 27.9999C50.9 27.8999 50.2 28.3999 50.1 29.0999C49.9 29.6999 50.3001 30.2999 50.9001 30.5999ZM53.1 14.5999C53.2 14.5999 53.3001 14.7 53.4001 14.7C54.2001 14.8 54.8001 14.1999 54.9001 13.4999C55.0001 12.6999 54.4 12.0999 53.7 11.9999C52.9 11.8999 52.3 12.5 52.2 13.2C52.1 13.8 52.5 14.3999 53.1 14.5999ZM39.4001 81.7999C40.0001 81.9999 40.7 81.7999 41 81.2C41.4 80.6 41.1 79.7 40.5 79.4C39.9 79 39 79.3 38.7 79.9C38.3 80.5 38.6 81.3999 39.2 81.7C39.3 81.7 39.4001 81.7999 39.4001 81.7999ZM46.1 67.2C46.8 67.5 47.6001 67.1 47.8001 66.4C48.1001 65.7 47.7 64.8999 47 64.7C46.3 64.4 45.5001 64.7999 45.3001 65.4999C45.0001 66.0999 45.4 66.8999 46.1 67.2ZM50.7 51.7999C50.8 51.7999 50.8001 51.7999 50.9001 51.7999C51.6001 51.9999 52.3 51.4999 52.5 50.7999C52.7 50.0999 52.2 49.4 51.5 49.2C50.8 49 50.1001 49.5 49.9001 50.2C49.7001 50.9 50.1 51.4999 50.7 51.7999ZM53.7 35.9999C53.8 35.9999 53.9 36.0999 54 36.0999C54.7 36.1999 55.4 35.7 55.5 34.9C55.6 34.2 55.1001 33.5 54.4001 33.4C53.7001 33.3 53.0001 33.7999 52.9001 34.5999C52.7001 35.1999 53.1 35.6999 53.7 35.9999ZM55.1 19.9C55.2 19.9 55.4 19.9999 55.5 19.9999C56.2 19.9999 56.9001 19.5 56.9001 18.7C56.9001 18 56.4 17.2999 55.6 17.2999C54.9 17.2999 54.2 17.7999 54.2 18.5999C54.2 19.1999 54.6 19.7 55.1 19.9ZM55.4001 3.89996C55.6001 3.99996 55.7001 3.99994 55.9001 3.99994C56.6001 3.99994 57.2 3.39991 57.2 2.59991C57.2 1.89991 56.6001 1.29993 55.8001 1.29993C55.1001 1.29993 54.5 1.89995 54.5 2.69995C54.5 3.19995 54.9001 3.69996 55.4001 3.89996ZM49.9001 70.5999C50.6001 70.8999 51.3 70.4999 51.6 69.7999C51.8 69.0999 51.5001 68.3999 50.8001 68.0999C50.1001 67.8999 49.4 68.2 49.1 68.9C48.9 69.6 49.3001 70.2999 49.9001 70.5999ZM54.3001 55.0999C54.4001 55.0999 54.4 55.1 54.5 55.2C55.2 55.2999 55.9 54.9 56 54.2C56.1 53.5 55.7 52.7999 55 52.7C54.3 52.6 53.6 53 53.5 53.7C53.4 54.2 53.7001 54.8999 54.3001 55.0999ZM56.6 39.2C56.7 39.2 56.8001 39.2999 56.9001 39.2999C57.6001 39.3999 58.2001 38.7999 58.3001 38.0999C58.4001 37.3999 57.8 36.7999 57.1 36.7C56.4 36.6 55.8 37.2 55.7 37.9C55.7 38.5 56.1 39 56.6 39.2ZM57.2 23.0999C57.3 23.1999 57.5 23.2 57.7 23.2C58.4 23.2 59 22.6 59 21.9C59 21.2 58.4 20.5999 57.7 20.5999C57 20.5999 56.4001 21.2 56.4001 21.9C56.3001 22.5 56.7 22.8999 57.2 23.0999ZM56.3001 7.09991C56.5001 7.19991 56.7001 7.19995 56.9001 7.19995C57.6001 7.09995 58.1 6.49993 58.1 5.79993C58 5.09993 57.4 4.59991 56.7 4.59991C56 4.69991 55.5 5.29994 55.5 5.99994C55.5 6.49994 55.8001 6.89991 56.3001 7.09991ZM54.4001 72.2C55.1001 72.3999 55.8 72.1 56 71.4C56.2 70.8 55.9 69.9999 55.2 69.7999C54.5 69.5999 53.8 69.8999 53.6 70.5999C53.4 71.2999 53.8001 72 54.4001 72.2ZM58.1 56.5999C58.2 56.5999 58.3001 56.6 58.3001 56.7C59.0001 56.7999 59.6 56.2999 59.7 55.5999C59.8 54.8999 59.3 54.2999 58.7 54.2C58 54.1 57.4001 54.6 57.3001 55.2C57.2001 55.7999 57.6 56.3999 58.1 56.5999ZM59.4001 40.5999C59.5001 40.5999 59.7001 40.7 59.8001 40.7C60.5001 40.7 61 40.1999 61.1 39.4999C61.1 38.7999 60.6001 38.2 59.9001 38.2C59.2001 38.2 58.6 38.7 58.6 39.4C58.6 39.9 58.9001 40.3999 59.4001 40.5999ZM58.8001 24.4999C59.0001 24.5999 59.2001 24.5999 59.4001 24.5999C60.1001 24.4999 60.6 23.9 60.5 23.2C60.4 22.5 59.8 21.9999 59.1 22.0999C58.4 22.1999 57.9 22.7999 58 23.4999C58 23.8999 58.4001 24.2999 58.8001 24.4999ZM56.6 8.59991C56.8 8.69991 57.0001 8.69995 57.3001 8.69995C58.0001 8.59995 58.4001 7.89995 58.3001 7.19995C58.2001 6.49995 57.5001 6.09995 56.9001 6.19995C56.2001 6.29995 55.8001 6.99995 55.9001 7.69995C55.9001 8.09995 56.2 8.39991 56.6 8.59991ZM59.1 72.2H59.2C59.8 72.3999 60.5 71.9999 60.7 71.2999C60.9 70.6999 60.5001 69.9999 59.8001 69.7999C59.2001 69.5999 58.5001 70 58.3001 70.7C58.2001 71.3999 58.6 72 59.1 72.2ZM61.7 56.4C61.8 56.4 61.9 56.4999 62 56.4999C62.7 56.4999 63.2001 56 63.3001 55.4C63.4001 54.7 62.8 54.1999 62.2 54.0999C61.5 54.0999 61.0001 54.6 60.9001 55.2C60.9001 55.7 61.2 56.2 61.7 56.4ZM61.7 40.2999C61.8 40.3999 62 40.4 62.2 40.4C62.9 40.3 63.4001 39.7999 63.3001 39.0999C63.2001 38.3999 62.7 37.8999 62 37.9999C61.3 37.9999 60.8001 38.5999 60.9001 39.2999C60.9001 39.6999 61.2 40.0999 61.7 40.2999ZM59.6 24.4C59.8 24.5 60 24.4999 60.2 24.4999C60.9 24.3999 61.3 23.6999 61.2 23.0999C61.1 22.3999 60.5001 21.9999 59.8001 22.0999C59.1001 22.1999 58.7001 22.8999 58.8001 23.4999C58.9001 23.8999 59.2 24.2 59.6 24.4ZM56 8.69995C56.2 8.79995 56.5 8.79995 56.7 8.69995C57.3 8.49995 57.7 7.89995 57.5 7.19995C57.3 6.59995 56.7 6.19996 56 6.39996C55.4 6.59996 55 7.19996 55.2 7.89996C55.4 8.29996 55.7 8.59995 56 8.69995ZM38.8001 79.2999C39.3001 79.4999 39.9 79.2999 40.2 78.7999C40.5 78.1999 40.3001 77.5 39.8001 77.2C39.2001 76.8999 38.5 77.0999 38.2 77.5999C37.9 78.1999 38.1 78.8999 38.6 79.2C38.7 79.2999 38.7001 79.2999 38.8001 79.2999ZM45.8001 64.7999C46.4001 64.9999 47.1001 64.6999 47.3001 64.0999C47.5001 63.4999 47.2 62.7999 46.6 62.4999C46 62.2999 45.3 62.6 45 63.2C44.8 63.9 45.1001 64.5999 45.8001 64.7999ZM50.3001 49.4C50.4001 49.4 50.4 49.4 50.5 49.4C51.1 49.5 51.8001 49.0999 51.9001 48.4999C52.0001 47.7999 51.6 47.1999 51 47.0999C50.4 46.9999 49.7 47.3999 49.6 47.9999C49.4 48.5999 49.8001 49.2 50.3001 49.4ZM52.3001 33.4999C52.4001 33.4999 52.5 33.5999 52.7 33.5999C53.4 33.5999 53.9 33.1 54 32.4C54 31.7 53.5001 31.1999 52.9001 31.0999C52.2001 31.0999 51.7 31.6 51.6 32.2C51.5 32.7999 51.9001 33.2999 52.3001 33.4999ZM52.1 17.4C52.3 17.5 52.4 17.4999 52.6 17.4999C53.3 17.3999 53.8 16.9 53.7 16.2C53.6 15.5 53.1001 14.9999 52.4001 15.0999C51.7001 15.1999 51.2001 15.7 51.3001 16.4C51.3001 16.9 51.6 17.3 52.1 17.4ZM7.90005 90.2999C8.30005 90.4999 8.80001 90.3999 9.10001 90.0999C9.60001 89.5999 9.59998 88.9 9.19998 88.4C8.69998 87.9 8.00003 87.8999 7.50003 88.2999C7.00003 88.7999 7.00005 89.4999 7.40005 89.9999C7.50005 90.0999 7.70005 90.1999 7.90005 90.2999ZM18.7 78.4C19.2 78.6 19.7 78.3999 20.1 77.9999C20.5 77.4999 20.4001 76.6999 19.9001 76.2999C19.4001 75.8999 18.6 75.9999 18.2 76.4999C17.8 76.9999 17.9001 77.7999 18.4001 78.2C18.4001 78.2999 18.5 78.3 18.7 78.4ZM27.6 64.9999C28.1 65.1999 28.8 64.9999 29.1 64.4999C29.4 63.8999 29.2 63.2 28.7 62.9C28.1 62.6 27.4 62.7999 27.1 63.2999C26.8 63.8999 27 64.6 27.5 64.9C27.5 65 27.5 64.9999 27.6 64.9999ZM34.7 50.5999C35.3 50.7999 36 50.5 36.2 49.9C36.5 49.3 36.2 48.5999 35.6 48.2999C35 47.9999 34.3 48.2999 34 48.9999C33.8 49.5999 34.1 50.2999 34.7 50.5999ZM39.9001 35.4H40C40.6 35.6 41.3 35.1999 41.5 34.4999C41.7 33.8999 41.3 33.1999 40.7 32.9999C40.1 32.7999 39.4 33.2 39.2 33.9C39 34.5 39.4001 35.2 39.9001 35.4ZM42.9001 19.5999C43.0001 19.5999 43.1 19.7 43.2 19.7C43.9 19.8 44.5 19.2999 44.5 18.5999C44.6 17.8999 44.1001 17.2999 43.4001 17.2999C42.7001 17.1999 42.1 17.7 42.1 18.4C42.1 18.9 42.4001 19.3999 42.9001 19.5999ZM7.10001 65.0999C7.60001 65.2999 8.20003 65.1 8.50003 64.7C8.90003 64.2 8.79998 63.3999 8.19998 62.9999C7.69998 62.5999 6.90003 62.6999 6.50003 63.2999C6.10003 63.7999 6.19998 64.5999 6.69998 64.9999C6.89998 64.9999 7.00001 64.9999 7.10001 65.0999ZM16 51.5999C16.5 51.7999 17.1001 51.5999 17.4001 51.0999C17.7001 50.4999 17.6 49.8 17 49.4C16.4 49.1 15.7001 49.2999 15.4001 49.7999C15.1001 50.3999 15.3001 51.0999 15.8001 51.4999C15.8001 51.5999 15.9 51.5999 16 51.5999ZM23.4001 37.4C24.0001 37.6 24.6001 37.3999 24.9001 36.7999C25.2001 36.1999 24.9001 35.5 24.3001 35.2C23.7001 34.9 23 35.1999 22.7 35.7999C22.5 36.3999 22.8001 37.1 23.4001 37.4ZM29.4001 22.4999C30.1001 22.6999 30.7 22.3999 31 21.7999C31.2 21.1999 30.9 20.4999 30.2 20.2999C29.6 20.0999 28.9 20.3999 28.7 21.0999C28.5 21.5999 28.8001 22.1999 29.4001 22.4999ZM3.90005 39.2C4.40005 39.4 5.00008 39.2 5.30008 38.7C5.60008 38.1 5.50005 37.3999 4.90005 36.9999C4.30005 36.6999 3.59998 36.8 3.19998 37.4C2.89998 38 3.00001 38.6999 3.60001 39.0999C3.70001 39.0999 3.80005 39.2 3.90005 39.2Z" fill="#00FFFF"/>
</svg>
