<svg width="149" height="150" viewBox="0 0 149 150" fill="none" xmlns="http://www.w3.org/2000/svg">
<path d="M13.8999 53C13.7999 52.8 13.8999 52.6 14.0999 52.5C14.2999 52.4 14.4999 52.5 14.5999 52.7C14.6999 52.9 14.5999 53.1 14.3999 53.2H14.2999C14.0999 53.3 13.8999 53.2 13.8999 53ZM8.3999 38.3C8.4999 38.3 8.49991 38.3 8.59991 38.3C8.79991 38.2 8.8999 38 8.7999 37.8C8.6999 37.6 8.4999 37.4999 8.2999 37.5999C8.0999 37.6999 7.99991 37.8999 8.09991 38.0999C8.09991 38.1999 8.1999 38.3 8.3999 38.3ZM5.2999 50.5C5.3999 50.5 5.39991 50.5 5.49991 50.5C5.79991 50.4 5.8999 50.1 5.7999 49.9C5.6999 49.6 5.39992 49.4999 5.19992 49.5999C4.89992 49.6999 4.7999 50 4.8999 50.2C4.8999 50.4 5.0999 50.5 5.2999 50.5ZM90.1999 124C90.3999 124.1 90.5999 124 90.7999 123.9C90.9999 123.7 90.9999 123.3 90.7999 123.1C90.5999 122.9 90.1999 122.9 89.9999 123.1C89.7999 123.3 89.7999 123.7 89.9999 123.9C90.0999 123.9 90.0999 124 90.1999 124ZM102.2 113.4C102.4 113.5 102.6 113.4 102.8 113.3C103.1 113.1 103.1 112.7 102.9 112.5C102.7 112.2 102.3 112.2 102.1 112.4C101.8 112.6 101.8 113 102 113.2C102 113.3 102.1 113.4 102.2 113.4ZM115.5 104.6C115.7 104.7 115.8 104.6 116 104.6C116.3 104.4 116.4 104.1 116.2 103.8C116 103.5 115.7 103.4 115.4 103.6C115.1 103.8 115 104.1 115.2 104.4C115.3 104.5 115.4 104.6 115.5 104.6ZM129.9 97.5999C130 97.6999 130.2 97.5999 130.3 97.5999C130.6 97.4999 130.7 97.1 130.6 96.8C130.5 96.5 130.1 96.4 129.8 96.5C129.5 96.6 129.4 97 129.5 97.3C129.7 97.4 129.8 97.4999 129.9 97.5999ZM72.2999 106.2C72.4999 106.3 72.6999 106.2 72.7999 106.1C72.9999 105.9 72.9999 105.6 72.8999 105.3C72.6999 105.1 72.3999 105.1 72.0999 105.3C71.8999 105.5 71.8999 105.8 72.0999 106.1C72.1999 106.1 72.2999 106.1 72.2999 106.2ZM85.1999 96.5999C85.2999 96.6999 85.4999 96.6 85.6999 96.5C85.8999 96.3 85.9999 96 85.8999 95.8C85.6999 95.5 85.3999 95.4999 85.1999 95.5999C84.9999 95.7999 84.8999 96.1 84.9999 96.3C84.9999 96.5 85.0999 96.5999 85.1999 96.5999ZM99.1999 88.9C99.2999 89 99.4999 88.9 99.5999 88.9C99.8999 88.8 99.9999 88.5 99.8999 88.2C99.7999 87.9 99.4999 87.8 99.1999 87.9C98.8999 88 98.7999 88.3999 98.8999 88.5999C98.9999 88.7999 99.0999 88.9 99.1999 88.9ZM114 82.8C114.1 82.8 114.2 82.8 114.4 82.8C114.7 82.7 114.8 82.3999 114.7 82.0999C114.6 81.7999 114.3 81.7 114 81.8C113.7 81.9 113.6 82.2 113.7 82.5C113.7 82.6 113.8 82.7 114 82.8ZM129.3 78C129.4 78 129.5 78 129.6 78C129.9 77.9 130.1 77.6 130 77.3C129.9 77 129.6 76.8 129.3 76.9C129 77 128.8 77.2999 128.9 77.5999C129 77.7999 129.1 77.9 129.3 78ZM70.3999 79.5C70.4999 79.5 70.6999 79.5 70.7999 79.5C70.9999 79.4 71.0999 79.1 70.9999 78.8C70.8999 78.6 70.5999 78.4999 70.2999 78.5999C70.0999 78.6999 69.9999 79 70.0999 79.3C70.1999 79.4 70.2999 79.5 70.3999 79.5ZM84.9999 73C85.0999 73 85.1999 73 85.2999 73C85.4999 72.9 85.6999 72.6 85.5999 72.4C85.4999 72.1 85.1999 71.9999 84.9999 72.0999C84.6999 72.1999 84.5999 72.5 84.6999 72.7C84.7999 72.8 84.8999 72.9 84.9999 73ZM100.2 67.9C100.3 67.9 100.4 67.9 100.5 67.9C100.8 67.8 100.9 67.6 100.8 67.3C100.7 67 100.5 66.9 100.2 67C99.8999 67.1 99.7999 67.2999 99.8999 67.5999C99.8999 67.6999 100.1 67.8 100.2 67.9ZM115.7 63.9C115.8 63.9 115.9 63.9 116 63.9C116.3 63.8 116.4 63.6 116.4 63.3C116.3 63 116.1 62.9 115.8 62.9C115.5 63 115.4 63.2 115.4 63.5C115.5 63.7 115.6 63.9 115.7 63.9ZM131.5 61C131.6 61 131.7 61 131.7 61C132 61 132.2 60.7 132.1 60.4C132.1 60.1 131.8 60 131.5 60C131.2 60 131.1 60.2999 131.1 60.5999C131.2 60.7999 131.3 60.9 131.5 61ZM147.4 58.9C147.5 58.9 147.5 58.9 147.6 58.9C147.9 58.9 148.1 58.6 148 58.4C148 58.1 147.7 57.9 147.5 58C147.2 58 147 58.3 147.1 58.5C147.1 58.7 147.2 58.8 147.4 58.9ZM43.0999 69.4C43.1999 69.4 43.2999 69.4 43.4999 69.4C43.6999 69.3 43.7999 69 43.6999 68.8C43.5999 68.6 43.2999 68.4999 43.0999 68.5999C42.8999 68.6999 42.7999 69 42.8999 69.2C42.8999 69.3 42.9999 69.4 43.0999 69.4ZM57.5999 62.5999C57.6999 62.5999 57.7999 62.5999 57.8999 62.5999C58.0999 62.4999 58.1999 62.3 58.0999 62C57.9999 61.8 57.6999 61.7 57.4999 61.7C57.2999 61.8 57.1999 62.1 57.2999 62.3C57.3999 62.5 57.4999 62.5999 57.5999 62.5999ZM72.6999 57.3C72.7999 57.3 72.8999 57.3 72.9999 57.3C73.1999 57.2 73.3999 57 73.2999 56.7C73.1999 56.5 72.9999 56.3 72.6999 56.4C72.4999 56.5 72.2999 56.7 72.3999 57C72.4999 57.2 72.5999 57.3 72.6999 57.3ZM88.1999 53.2C88.2999 53.2 88.3999 53.2 88.4999 53.2C88.6999 53.1 88.8999 52.9 88.7999 52.7C88.6999 52.5 88.4999 52.3 88.2999 52.4C88.0999 52.4 87.8999 52.7 87.9999 52.9C87.9999 53.1 88.0999 53.2 88.1999 53.2ZM103.9 50.2C104 50.2 104 50.2 104.1 50.2C104.3 50.2 104.5 49.9 104.5 49.7C104.5 49.5 104.2 49.3 104 49.3C103.8 49.3 103.6 49.6 103.6 49.8C103.7 50 103.8 50.1 103.9 50.2ZM119.8 47.9C119.9 47.9 119.9 47.9 120 47.9C120.2 47.9 120.4 47.7 120.4 47.4C120.4 47.2 120.1 47 119.9 47C119.7 47 119.5 47.2 119.5 47.5C119.5 47.7 119.7 47.9 119.8 47.9ZM135.8 46.4C135.9 46.4 135.9 46.4 136 46.4C136.2 46.4 136.4 46.2 136.4 45.9C136.4 45.7 136.2 45.5 135.9 45.5C135.7 45.5 135.5 45.7 135.5 46C135.5 46.2 135.6 46.4 135.8 46.4ZM31.3999 51.8C31.4999 51.8 31.5999 51.8 31.6999 51.8C31.8999 51.7 31.9999 51.5 31.8999 51.3C31.7999 51.1 31.5999 50.9999 31.3999 51.0999C31.1999 51.1999 31.0999 51.3999 31.1999 51.5999C31.1999 51.6999 31.2999 51.8 31.3999 51.8ZM46.4999 46.4C46.5999 46.4 46.6999 46.4 46.7999 46.4C46.9999 46.3 47.0999 46.1 47.0999 45.9C46.9999 45.7 46.7999 45.5999 46.5999 45.5999C46.3999 45.6999 46.2999 45.8999 46.2999 46.0999C46.2999 46.2999 46.3999 46.3 46.4999 46.4ZM61.8999 42.2C61.9999 42.2 62.0999 42.2 62.0999 42.2C62.2999 42.2 62.4999 41.9 62.3999 41.7C62.3999 41.5 62.0999 41.3 61.8999 41.4C61.6999 41.4 61.5999 41.7 61.5999 41.9C61.6999 42.1 61.7999 42.2 61.8999 42.2ZM77.6999 39.0999C77.7999 39.0999 77.7999 39.0999 77.8999 39.0999C78.0999 39.0999 78.2999 38.8999 78.1999 38.5999C78.1999 38.3999 77.9999 38.2 77.6999 38.3C77.4999 38.3 77.2999 38.5 77.3999 38.8C77.3999 38.9 77.4999 38.9999 77.6999 39.0999ZM93.4999 36.8C93.5999 36.8 93.5999 36.8 93.6999 36.8C93.8999 36.8 94.0999 36.6 94.0999 36.4C94.0999 36.2 93.8999 36 93.6999 36C93.4999 36 93.2999 36.2 93.3999 36.4C93.2999 36.6 93.3999 36.8 93.4999 36.8ZM109.5 35.3C109.5 35.3 109.6 35.3 109.7 35.3C109.9 35.3 110.1 35.1 110.1 34.9C110.1 34.7 109.9 34.5 109.7 34.5C109.5 34.5 109.3 34.7 109.3 34.9C109.2 35.1 109.3 35.2 109.5 35.3ZM125.5 34.3C125.5 34.3 125.6 34.3 125.7 34.3C125.9 34.3 126.1 34.1 126.1 33.9C126.1 33.7 125.9 33.5 125.7 33.5C125.5 33.5 125.3 33.7 125.3 33.9C125.2 34.2 125.3 34.3 125.5 34.3ZM141.5 33.9H141.6C141.8 33.9 142 33.7 142 33.5C142 33.3 141.8 33.0999 141.6 33.0999C141.4 33.0999 141.2 33.3 141.2 33.5C141.2 33.7 141.3 33.9 141.5 33.9ZM116.3 99.3C116.4 99.3 116.5 99.3 116.5 99.3C116.7 99.2 116.8 99 116.8 98.8C116.7 98.6 116.5 98.5 116.3 98.5C116.1 98.6 116 98.8 116 99C116.1 99.2 116.2 99.3 116.3 99.3ZM112.5 83.7C112.6 83.7 112.6 83.7 112.7 83.7C112.9 83.7 113.1 83.4 113 83.2C113 83 112.7 82.8 112.5 82.9C112.3 82.9 112.1 83.2 112.2 83.4C112.3 83.6 112.4 83.7 112.5 83.7ZM110.4 67.8C110.4 67.8 110.5 67.8 110.6 67.8C110.8 67.8 111 67.6 111 67.4C111 67.2 110.8 67 110.6 67C110.4 67 110.2 67.2 110.2 67.4C110.2 67.6 110.3 67.8 110.4 67.8ZM110.7 51.8H110.8C111 51.8 111.2 51.7 111.2 51.4C111.2 51.2 111.1 51 110.8 51C110.6 51 110.4 51.1 110.4 51.4C110.4 51.5 110.5 51.7 110.7 51.8ZM113.4 35.9C113.7 36 113.9 35.7999 113.9 35.5999C114 35.3999 113.8 35.1999 113.6 35.0999C113.4 35.0999 113.2 35.2 113.1 35.4C113.1 35.6 113.2 35.8 113.4 35.9ZM113.7 109.2C113.8 109.2 113.9 109.2 114 109.2C114.3 109.1 114.4 108.9 114.4 108.6C114.3 108.3 114.1 108.2 113.8 108.3C113.5 108.4 113.4 108.6 113.4 108.9C113.5 109 113.6 109.2 113.7 109.2ZM109.7 93.7C109.8 93.7 109.9 93.7 110 93.7C110.3 93.6 110.4 93.3999 110.4 93.0999C110.3 92.7999 110.1 92.7 109.8 92.7C109.5 92.8 109.4 93 109.4 93.3C109.4 93.5 109.5 93.6 109.7 93.7ZM106.4 78C106.5 78 106.6 78 106.6 78C106.9 78 107.1 77.7 107 77.4C107 77.1 106.7 76.9 106.4 77C106.1 77 105.9 77.2999 106 77.5999C106.1 77.6999 106.2 77.9 106.4 78ZM105.2 61.9C105.3 61.9 105.3 61.9 105.4 61.9C105.7 61.9 105.9 61.7 105.9 61.4C105.9 61.1 105.7 60.9 105.4 60.9C105.1 60.9 104.9 61.1 104.9 61.4C104.9 61.7 105 61.9 105.2 61.9ZM106.4 45.9C106.8 46 107 45.8 107.1 45.5C107.1 45.2 107 45 106.7 44.9C106.4 44.9 106.2 45 106.1 45.3C106 45.6 106.2 45.8 106.4 45.9ZM109.9 30.2C110.2 30.3 110.5 30.1 110.5 29.9C110.6 29.6 110.4 29.4 110.2 29.3C109.9 29.2 109.7 29.3999 109.6 29.5999C109.5 29.8999 109.6 30.1 109.9 30.2ZM106.8 102.3C106.9 102.3 107 102.4 107.1 102.3C107.4 102.2 107.6 101.9 107.5 101.6C107.4 101.3 107.1 101.1 106.8 101.2C106.5 101.3 106.3 101.6 106.4 101.9C106.4 102.1 106.6 102.3 106.8 102.3ZM102.9 86.7C103 86.7 103.1 86.8 103.2 86.7C103.5 86.6 103.7 86.3 103.6 86C103.5 85.7 103.2 85.4999 102.9 85.5999C102.6 85.6999 102.4 86 102.5 86.3C102.6 86.5 102.8 86.7 102.9 86.7ZM100.5 70.9C100.6 70.9 100.7 70.9 100.8 70.9C101.1 70.9 101.4 70.6 101.3 70.3C101.3 70 101 69.7 100.7 69.8C100.4 69.8 100.1 70.1 100.2 70.4C100.1 70.6 100.3 70.8 100.5 70.9ZM100.3 54.8C100.4 54.8 100.4 54.8 100.5 54.8C100.8 54.8 101.1 54.6 101.1 54.3C101.1 54 100.9 53.7 100.6 53.7C100.3 53.7 99.9999 53.9 99.9999 54.2C99.8999 54.5 100.1 54.7 100.3 54.8ZM102.6 38.9C103 39 103.3 38.8 103.4 38.5C103.5 38.2 103.3 37.9 103 37.8C102.7 37.7 102.4 37.9 102.3 38.2C102.1 38.5 102.3 38.8 102.6 38.9ZM103.5 109.8C103.6 109.8 103.8 109.9 103.9 109.8C104.3 109.7 104.5 109.4 104.4 109C104.3 108.6 103.9 108.4 103.6 108.5C103.2 108.6 103 108.9 103.1 109.3C103.1 109.6 103.3 109.8 103.5 109.8ZM99.5999 94.2C99.6999 94.2 99.8999 94.3 99.9999 94.2C100.4 94.1 100.6 93.7 100.5 93.4C100.4 93 100.1 92.8 99.6999 92.9C99.2999 93 99.0999 93.4 99.1999 93.7C99.1999 94 99.3999 94.2 99.5999 94.2ZM96.2999 78.5C96.3999 78.5 96.4999 78.6 96.5999 78.5C96.9999 78.4 97.1999 78.1 97.1999 77.7C97.0999 77.3 96.7999 77.0999 96.3999 77.0999C95.9999 77.1999 95.7999 77.5 95.7999 77.9C95.8999 78.2 95.9999 78.4 96.2999 78.5ZM94.9999 62.5C95.0999 62.5 95.1999 62.5 95.1999 62.5C95.5999 62.5 95.8999 62.2 95.8999 61.8C95.8999 61.4 95.5999 61.0999 95.1999 61.0999C94.7999 61.0999 94.4999 61.4 94.4999 61.8C94.4999 62.2 94.6999 62.4 94.9999 62.5ZM95.9999 46.5H96.0999C96.4999 46.6 96.7999 46.3 96.7999 45.9C96.8999 45.5 96.5999 45.1999 96.1999 45.0999C95.7999 45.0999 95.4999 45.3 95.4999 45.7C95.5999 46.1 95.7999 46.4 95.9999 46.5ZM99.4999 30.8C99.8999 30.9 100.3 30.7 100.4 30.4C100.5 30 100.3 29.6999 99.8999 29.5999C99.4999 29.4999 99.1999 29.6999 99.0999 30.0999C98.9999 30.2999 99.1999 30.7 99.4999 30.8ZM99.5999 116.2C99.6999 116.2 99.8999 116.3 99.9999 116.2C100.4 116.1 100.7 115.7 100.6 115.3C100.5 114.9 100.1 114.6 99.6999 114.7C99.2999 114.8 98.9999 115.2 99.0999 115.6C99.1999 115.9 99.3999 116.1 99.5999 116.2ZM95.9999 100.6C96.0999 100.7 96.2999 100.7 96.4999 100.6C96.8999 100.5 97.1999 100.1 96.9999 99.7C96.8999 99.3 96.4999 99 96.0999 99.2C95.6999 99.3 95.4999 99.6999 95.5999 100.1C95.5999 100.3 95.7999 100.5 95.9999 100.6ZM92.2999 84.9C92.3999 84.9 92.5999 85 92.6999 84.9C93.0999 84.8 93.3999 84.4 93.2999 84C93.1999 83.6 92.7999 83.3 92.3999 83.4C91.9999 83.5 91.6999 83.9 91.7999 84.3C91.8999 84.6 92.0999 84.8 92.2999 84.9ZM90.0999 69C90.1999 69 90.2999 69.1 90.3999 69C90.7999 69 91.0999 68.6 91.0999 68.2C91.0999 67.8 90.6999 67.5 90.2999 67.5C89.8999 67.5 89.5999 67.9 89.5999 68.3C89.5999 68.7 89.7999 68.9 90.0999 69ZM90.0999 53C90.1999 53 90.1999 52.9999 90.2999 53.0999C90.6999 53.0999 91.0999 52.8 91.0999 52.4C91.0999 52 90.7999 51.5999 90.3999 51.5999C89.9999 51.5999 89.5999 51.9 89.5999 52.3C89.5999 52.5 89.7999 52.8 90.0999 53ZM92.5999 37.0999C92.6999 37.0999 92.6999 37.0999 92.5999 37.0999C93.0999 37.1999 93.4999 36.9999 93.5999 36.5999C93.6999 36.1999 93.3999 35.8 92.9999 35.7C92.5999 35.6 92.1999 35.9 92.0999 36.3C92.0999 36.6 92.2999 36.9999 92.5999 37.0999ZM97.3999 21.7C97.7999 21.8 98.1999 21.6 98.3999 21.3C98.5999 20.9 98.3999 20.5 97.9999 20.3C97.5999 20.1 97.1999 20.3 96.9999 20.7C96.7999 21.1 96.9999 21.6 97.3999 21.7ZM96.0999 137.6C96.1999 137.6 96.2999 137.6 96.3999 137.7C96.8999 137.7 97.2999 137.4 97.2999 136.9C97.2999 136.4 96.9999 136 96.4999 136C95.9999 136 95.5999 136.3 95.5999 136.8C95.5999 137.1 95.7999 137.5 96.0999 137.6ZM95.2999 121.5C95.3999 121.5 95.5999 121.6 95.6999 121.5C96.1999 121.4 96.4999 121 96.3999 120.5C96.2999 120 95.8999 119.7 95.3999 119.8C94.8999 119.9 94.5999 120.3 94.6999 120.8C94.7999 121.2 94.9999 121.4 95.2999 121.5ZM92.1999 105.8C92.3999 105.9 92.4999 105.9 92.6999 105.8C93.1999 105.7 93.3999 105.2 93.2999 104.8C93.1999 104.3 92.6999 104.1 92.2999 104.2C91.7999 104.3 91.5999 104.8 91.6999 105.2C91.6999 105.5 91.8999 105.7 92.1999 105.8ZM88.2999 90.2C88.4999 90.3 88.5999 90.3 88.7999 90.2C89.2999 90.1 89.4999 89.6 89.3999 89.2C89.2999 88.7 88.7999 88.4999 88.3999 88.5999C87.8999 88.6999 87.6999 89.1999 87.7999 89.5999C87.7999 89.8999 87.9999 90.1 88.2999 90.2ZM85.3999 74.4C85.4999 74.4 85.6999 74.5 85.7999 74.5C86.2999 74.4 86.5999 74 86.4999 73.5C86.4999 73 85.9999 72.7 85.5999 72.8C85.0999 72.9 84.7999 73.3 84.8999 73.7C84.8999 74 85.0999 74.3 85.3999 74.4ZM84.5999 58.4C84.6999 58.4 84.7999 58.4 84.8999 58.5C85.3999 58.5 85.7999 58.1 85.7999 57.7C85.7999 57.2 85.3999 56.8 84.9999 56.8C84.4999 56.8 84.0999 57.1999 84.0999 57.5999C84.0999 57.8999 84.2999 58.2 84.5999 58.4ZM86.2999 42.4H86.3999C86.8999 42.5 87.2999 42.2 87.3999 41.7C87.4999 41.2 87.1999 40.8 86.6999 40.7C86.1999 40.6 85.7999 40.9 85.6999 41.4C85.6999 41.8 85.8999 42.2 86.2999 42.4ZM90.2999 26.8C90.3999 26.8 90.3999 26.8 90.2999 26.8C90.7999 27 91.1999 26.7 91.3999 26.3C91.4999 25.9 91.2999 25.4 90.8999 25.2C90.4999 25.1 89.9999 25.3 89.7999 25.7C89.6999 26.2 89.8999 26.7 90.2999 26.8ZM90.0999 141.9C90.1999 141.9 90.1999 141.9 90.2999 141.9C90.7999 142 91.2999 141.6 91.3999 141.1C91.4999 140.6 91.0999 140.1 90.5999 140.1C90.0999 140 89.5999 140.4 89.4999 140.9C89.3999 141.4 89.6999 141.8 90.0999 141.9ZM90.4999 125.9C90.5999 125.9 90.7999 126 90.8999 126C91.3999 126 91.7999 125.5 91.7999 125C91.7999 124.5 91.2999 124.1 90.7999 124.1C90.2999 124.1 89.8999 124.6 89.8999 125.1C89.8999 125.5 90.0999 125.8 90.4999 125.9ZM87.9999 110C88.1999 110.1 88.2999 110.1 88.4999 110C88.9999 109.9 89.2999 109.4 89.1999 108.9C89.0999 108.4 88.5999 108.1 88.0999 108.2C87.5999 108.3 87.2999 108.8 87.3999 109.3C87.4999 109.7 87.6999 109.9 87.9999 110ZM84.1999 94.4C84.3999 94.5 84.5999 94.5 84.7999 94.4C85.2999 94.3 85.5999 93.8 85.4999 93.3C85.3999 92.8 84.8999 92.4999 84.3999 92.5999C83.8999 92.6999 83.5999 93.2 83.6999 93.7C83.6999 94.1 83.8999 94.3 84.1999 94.4ZM80.7999 78.7C80.8999 78.8 81.0999 78.8 81.2999 78.7C81.7999 78.6 82.1999 78.0999 82.0999 77.5999C81.9999 77.0999 81.4999 76.7 80.9999 76.8C80.4999 76.9 80.0999 77.4 80.1999 77.9C80.2999 78.3 80.4999 78.6 80.7999 78.7ZM79.2999 62.7C79.3999 62.7 79.4999 62.8 79.5999 62.8C80.0999 62.8 80.4999 62.4 80.4999 61.8C80.4999 61.3 80.0999 60.9 79.4999 60.9C78.9999 60.9 78.5999 61.3 78.5999 61.9C78.6999 62.3 78.9999 62.6 79.2999 62.7ZM80.2999 46.7C80.3999 46.7 80.3999 46.7 80.4999 46.7C80.9999 46.8 81.4999 46.4 81.4999 45.9C81.5999 45.4 81.1999 44.9 80.6999 44.8C80.1999 44.7 79.6999 45.0999 79.5999 45.5999C79.5999 46.0999 79.8999 46.5 80.2999 46.7ZM83.6999 31C83.6999 31 83.7999 31 83.6999 31C84.2999 31.2 84.7999 30.9 84.8999 30.4C85.0999 29.9 84.7999 29.4 84.2999 29.2C83.7999 29.1 83.2999 29.3 83.0999 29.8C82.9999 30.3 83.2999 30.8 83.6999 31ZM89.2999 15.9C89.7999 16.1 90.2999 15.9 90.4999 15.4C90.6999 14.9 90.4999 14.4 89.9999 14.2C89.4999 14 88.9999 14.2 88.7999 14.7C88.4999 15.1 88.7999 15.7 89.2999 15.9C89.1999 15.9 89.2999 15.9 89.2999 15.9ZM83.6999 145.3H83.7999C84.3999 145.4 84.8999 145.1 84.9999 144.5C85.0999 143.9 84.7999 143.4 84.1999 143.3C83.5999 143.2 83.0999 143.5 82.9999 144.1C82.8999 144.6 83.1999 145.1 83.6999 145.3ZM85.2999 129.3C85.3999 129.3 85.4999 129.4 85.6999 129.4C86.2999 129.4 86.6999 128.9 86.6999 128.4C86.6999 127.8 86.1999 127.4 85.6999 127.4C85.0999 127.4 84.6999 127.9 84.6999 128.4C84.5999 128.8 84.8999 129.1 85.2999 129.3ZM83.5999 113.3C83.7999 113.4 83.9999 113.4 84.0999 113.3C84.6999 113.2 84.9999 112.6 84.8999 112.1C84.7999 111.5 84.2999 111.2 83.6999 111.3C83.0999 111.4 82.7999 112 82.8999 112.5C82.9999 112.9 83.2999 113.2 83.5999 113.3ZM79.8999 97.7C80.0999 97.8 80.2999 97.8 80.4999 97.7C80.9999 97.6 81.3999 97 81.1999 96.4C81.0999 95.8 80.4999 95.5 79.9999 95.7C79.4999 95.8 79.0999 96.4 79.2999 97C79.2999 97.3 79.5999 97.6 79.8999 97.7ZM76.1999 82.0999C76.3999 82.1999 76.5999 82.1999 76.6999 82.0999C77.2999 81.9999 77.5999 81.4 77.4999 80.9C77.3999 80.3 76.8999 79.9999 76.2999 80.0999C75.6999 80.1999 75.3999 80.7 75.4999 81.3C75.5999 81.7 75.7999 81.8999 76.1999 82.0999ZM74.0999 66.0999C74.1999 66.0999 74.3999 66.2 74.4999 66.2C75.0999 66.2 75.4999 65.6999 75.4999 65.0999C75.4999 64.4999 74.9999 64.0999 74.3999 64.0999C73.7999 64.0999 73.3999 64.6 73.3999 65.2C73.4999 65.7 73.7999 65.9999 74.0999 66.0999ZM74.4999 50.0999C74.5999 50.0999 74.6999 50.1 74.7999 50.2C75.3999 50.3 75.8999 49.8 75.8999 49.3C75.9999 48.7 75.4999 48.2 74.9999 48.2C74.3999 48.1 73.8999 48.5999 73.8999 49.0999C73.7999 49.4999 73.9999 49.8999 74.4999 50.0999ZM77.3999 34.3C77.3999 34.3 77.4999 34.3 77.3999 34.3C77.9999 34.5 78.5999 34.0999 78.6999 33.5999C78.7999 32.9999 78.4999 32.5 77.9999 32.3C77.4999 32.2 76.8999 32.5 76.7999 33C76.5999 33.6 76.8999 34.1 77.3999 34.3ZM82.5999 19C83.0999 19.2 83.6999 18.9 83.8999 18.4C84.0999 17.9 83.8999 17.2999 83.2999 17.0999C82.7999 16.8999 82.1999 17.1 81.9999 17.7C81.7999 18.2 81.9999 18.8 82.5999 19C82.4999 19 82.4999 19 82.5999 19ZM77.1999 147.6H77.2999C77.8999 147.8 78.4999 147.4 78.6999 146.8C78.8999 146.2 78.4999 145.6 77.8999 145.4C77.2999 145.2 76.6999 145.6 76.4999 146.2C76.3999 146.9 76.6999 147.4 77.1999 147.6ZM79.8999 131.8C79.9999 131.8 80.0999 131.9 80.1999 131.9C80.7999 131.9 81.2999 131.4 81.3999 130.8C81.3999 130.2 80.9999 129.7 80.2999 129.6C79.6999 129.6 79.1999 130 79.0999 130.7C79.1999 131.2 79.4999 131.7 79.8999 131.8ZM78.8999 115.8C79.0999 115.9 79.2999 115.9 79.4999 115.8C80.0999 115.7 80.4999 115.1 80.3999 114.5C80.2999 113.9 79.6999 113.5 79.0999 113.6C78.4999 113.7 78.0999 114.3 78.1999 114.9C78.1999 115.4 78.4999 115.7 78.8999 115.8ZM75.3999 100.1C75.5999 100.2 75.7999 100.2 76.0999 100.1C76.6999 99.8999 76.9999 99.3 76.8999 98.7C76.6999 98.1 76.0999 97.7 75.4999 97.9C74.8999 98.1 74.5999 98.7 74.6999 99.3C74.7999 99.7 74.9999 99.9999 75.3999 100.1ZM71.3999 84.5999C71.5999 84.6999 71.7999 84.6999 71.9999 84.5999C72.5999 84.4999 72.9999 83.9 72.7999 83.3C72.6999 82.7 72.0999 82.3 71.4999 82.4C70.8999 82.5 70.4999 83.1 70.6999 83.7C70.7999 84.1 71.0999 84.3999 71.3999 84.5999ZM68.9999 68.7C69.1999 68.8 69.2999 68.8 69.4999 68.8C70.0999 68.7 70.5999 68.1999 70.4999 67.5999C70.3999 66.9999 69.8999 66.4999 69.2999 66.5999C68.6999 66.6999 68.1999 67.2 68.2999 67.8C68.2999 68.2 68.5999 68.5 68.9999 68.7ZM68.7999 52.5999C68.8999 52.5999 68.9999 52.7 69.0999 52.7C69.6999 52.7 70.1999 52.3 70.2999 51.7C70.2999 51.1 69.8999 50.6 69.2999 50.5C68.6999 50.5 68.1999 50.9 68.0999 51.5C67.9999 52 68.2999 52.4999 68.7999 52.5999ZM71.2999 36.8H71.3999C71.9999 36.9 72.5999 36.6 72.6999 36C72.7999 35.4 72.4999 34.8 71.8999 34.7C71.2999 34.6 70.6999 34.9 70.5999 35.5C70.4999 36 70.7999 36.6 71.2999 36.8ZM76.0999 21.4C76.6999 21.6 77.2999 21.3 77.4999 20.8C77.6999 20.2 77.3999 19.6 76.8999 19.4C76.2999 19.2 75.6999 19.4999 75.4999 20.0999C75.2999 20.5999 75.4999 21.2 76.0999 21.4ZM70.7999 149.2C70.7999 149.2 70.8999 149.2 70.7999 149.2C71.4999 149.4 72.1999 149.1 72.3999 148.4C72.5999 147.8 72.2999 147.1 71.5999 146.9C70.9999 146.7 70.2999 147.1 70.0999 147.7C69.8999 148.3 70.1999 149 70.7999 149.2ZM74.3999 133.6C74.4999 133.6 74.5999 133.7 74.6999 133.7C75.3999 133.8 75.9999 133.3 75.9999 132.6C76.0999 131.9 75.5999 131.3 74.8999 131.3C74.1999 131.2 73.6999 131.7 73.5999 132.4C73.5999 132.9 73.8999 133.4 74.3999 133.6ZM73.9999 117.5C74.1999 117.6 74.3999 117.6 74.5999 117.6C75.2999 117.5 75.6999 116.9 75.5999 116.2C75.4999 115.5 74.8999 115.1 74.1999 115.2C73.4999 115.3 73.0999 115.9 73.1999 116.6C73.2999 117 73.5999 117.4 73.9999 117.5ZM70.5999 101.8C70.7999 101.9 71.0999 101.9 71.2999 101.8C71.8999 101.6 72.2999 101 72.0999 100.3C71.8999 99.7 71.2999 99.3 70.5999 99.5C69.9999 99.7 69.5999 100.3 69.7999 101C69.9999 101.4 70.2999 101.7 70.5999 101.8ZM66.4999 86.3C66.6999 86.4 66.9999 86.4 67.1999 86.3C67.7999 86.1 68.1999 85.5 68.0999 84.8C67.8999 84.2 67.2999 83.8 66.6999 83.9C66.0999 84.1 65.6999 84.7 65.7999 85.4C65.8999 85.8 66.1999 86.2 66.4999 86.3ZM63.6999 70.5C63.8999 70.6 64.0999 70.5999 64.2999 70.5999C64.9999 70.4999 65.3999 69.9 65.3999 69.3C65.2999 68.6 64.6999 68.2 64.0999 68.2C63.3999 68.3 62.9999 68.9 62.9999 69.5C62.9999 70 63.2999 70.3 63.6999 70.5ZM63.1999 54.4C63.2999 54.4 63.3999 54.5 63.5999 54.5C64.2999 54.5 64.7999 54 64.8999 53.4C64.8999 52.7 64.3999 52.1999 63.7999 52.0999C63.0999 52.0999 62.5999 52.6 62.4999 53.2C62.3999 53.8 62.6999 54.2 63.1999 54.4ZM65.3999 38.5C65.4999 38.5 65.4999 38.4999 65.5999 38.5999C66.1999 38.6999 66.8999 38.3 66.9999 37.7C67.0999 37 66.6999 36.4 66.0999 36.3C65.4999 36.2 64.7999 36.6 64.6999 37.2C64.4999 37.7 64.7999 38.3 65.3999 38.5ZM69.8999 23.0999C70.4999 23.2999 71.1999 23 71.3999 22.4C71.5999 21.8 71.2999 21.1 70.6999 20.9C70.0999 20.7 69.3999 20.9999 69.1999 21.5999C68.9999 22.1999 69.2999 22.8999 69.8999 23.0999ZM68.8999 134.5C68.9999 134.5 69.0999 134.5 69.1999 134.6C69.8999 134.7 70.5999 134.2 70.6999 133.5C70.7999 132.8 70.2999 132.1 69.5999 132C68.8999 131.9 68.1999 132.4 68.0999 133.1C67.9999 133.8 68.3999 134.3 68.8999 134.5ZM65.6999 102.8C65.8999 102.9 66.1999 102.9 66.4999 102.8C67.1999 102.6 67.5999 101.9 67.3999 101.2C67.1999 100.5 66.4999 100.1 65.7999 100.3C65.0999 100.5 64.6999 101.2 64.8999 101.9C65.0999 102.4 65.3999 102.7 65.6999 102.8ZM61.4999 87.3C61.6999 87.4 61.9999 87.4 62.2999 87.3C62.9999 87.1 63.3999 86.4 63.1999 85.7C62.9999 85 62.2999 84.6 61.5999 84.8C60.8999 85 60.4999 85.7 60.6999 86.4C60.7999 86.9 61.0999 87.2 61.4999 87.3ZM58.3999 71.5999C58.5999 71.6999 58.7999 71.7 58.9999 71.7C59.6999 71.6 60.1999 71 60.0999 70.2C59.9999 69.5 59.3999 68.9999 58.6999 69.0999C57.9999 69.1999 57.4999 69.8999 57.5999 70.5999C57.5999 70.9999 57.8999 71.3999 58.3999 71.5999ZM57.5999 55.5C57.6999 55.5 57.8999 55.5999 57.9999 55.5999C58.6999 55.5999 59.2999 55.1 59.2999 54.3C59.2999 53.6 58.7999 53 58.0999 53C57.3999 53 56.7999 53.5 56.7999 54.2C56.6999 54.8 57.0999 55.3 57.5999 55.5ZM59.4999 39.5999C59.5999 39.5999 59.5999 39.6 59.6999 39.7C60.3999 39.8 61.0999 39.4 61.1999 38.7C61.2999 38 60.8999 37.3 60.1999 37.2C59.4999 37.1 58.7999 37.5 58.6999 38.2C58.5999 38.7 58.9999 39.3999 59.4999 39.5999ZM63.8999 24.0999C64.5999 24.2999 65.2999 24 65.5999 23.3C65.7999 22.6 65.4999 21.9 64.7999 21.7C64.0999 21.5 63.3999 21.8 63.1999 22.5C62.8999 23.1 63.2999 23.8999 63.8999 24.0999ZM70.1999 9.29996C70.7999 9.49996 71.4999 9.29998 71.7999 8.69998C72.0999 8.09998 71.7999 7.29997 71.1999 6.99997C70.5999 6.69997 69.7999 6.99994 69.4999 7.59994C69.1999 8.19994 69.3999 8.99996 70.0999 9.29996C70.0999 9.19996 70.0999 9.29996 70.1999 9.29996ZM63.4999 134.9C63.5999 134.9 63.6999 134.9 63.6999 135C64.3999 135.1 65.1999 134.6 65.2999 133.9C65.3999 133.1 64.8999 132.4 64.1999 132.3C63.3999 132.2 62.6999 132.7 62.5999 133.4C62.4999 134 62.8999 134.7 63.4999 134.9ZM60.6999 103.2C60.9999 103.3 61.2999 103.3 61.5999 103.2C62.2999 103 62.7999 102.2 62.5999 101.5C62.3999 100.8 61.5999 100.3 60.8999 100.5C60.1999 100.7 59.6999 101.5 59.8999 102.2C59.9999 102.7 60.2999 103 60.6999 103.2ZM52.8999 72.0999C53.0999 72.1999 53.2999 72.2 53.5999 72.2C54.3999 72.1 54.8999 71.3999 54.7999 70.5999C54.6999 69.7999 53.9999 69.3 53.1999 69.4C52.3999 69.5 51.8999 70.2 51.9999 71C52.0999 71.5 52.3999 71.8999 52.8999 72.0999ZM51.8999 56C51.9999 56.1 52.1999 56.0999 52.2999 56.0999C53.0999 56.0999 53.6999 55.5 53.6999 54.7C53.6999 53.9 53.0999 53.3 52.3999 53.3C51.5999 53.3 50.9999 53.8999 50.9999 54.5999C50.9999 55.2999 51.3999 55.8 51.8999 56ZM53.6999 40.0999C53.7999 40.0999 53.7999 40.1 53.8999 40.2C54.5999 40.3 55.3999 39.8999 55.4999 39.0999C55.6999 38.2999 55.1999 37.6 54.3999 37.5C53.6999 37.4 52.8999 37.7999 52.7999 38.5999C52.6999 39.1999 53.0999 39.7999 53.6999 40.0999ZM57.9999 24.5999C58.6999 24.8999 59.4999 24.5 59.7999 23.8C60.0999 23.1 59.6999 22.3 58.9999 22C58.2999 21.7 57.4999 22.1 57.1999 22.8C56.9999 23.5 57.2999 24.2999 57.9999 24.5999ZM64.1999 9.79996C64.7999 9.99996 65.5999 9.79994 65.8999 9.09994C66.1999 8.39994 65.9999 7.59998 65.2999 7.19998C64.5999 6.89998 63.7999 7.09996 63.3999 7.79996C63.0999 8.49996 63.2999 9.29998 63.9999 9.69998C64.0999 9.69998 64.1999 9.69996 64.1999 9.79996ZM47.1999 72C47.3999 72.1 47.6999 72.0999 47.8999 72.0999C48.6999 71.9999 49.2999 71.2 49.0999 70.4C48.9999 69.6 48.1999 69.1 47.3999 69.2C46.5999 69.3 46.0999 70.1 46.1999 70.9C46.3999 71.4 46.6999 71.8 47.1999 72ZM46.1999 55.9C46.3999 56 46.4999 56 46.6999 56C47.4999 56 48.1999 55.3999 48.1999 54.5999C48.1999 53.7999 47.5999 53.0999 46.7999 53.0999C45.9999 53.0999 45.2999 53.7 45.2999 54.5C45.1999 55.2 45.5999 55.7 46.1999 55.9ZM47.9999 40C48.0999 40 48.1999 39.9999 48.1999 40.0999C48.9999 40.1999 49.7999 39.7 49.8999 38.9C50.0999 38.1 49.4999 37.3 48.6999 37.2C47.8999 37 47.0999 37.6 46.9999 38.4C46.8999 39 47.2999 39.7 47.9999 40ZM52.1999 24.5C52.9999 24.8 53.7999 24.3999 54.0999 23.5999C54.3999 22.7999 53.9999 22 53.1999 21.7C52.3999 21.4 51.5999 21.7999 51.2999 22.5999C51.0999 23.3999 51.4999 24.2 52.1999 24.5ZM58.5999 9.69998C59.2999 9.99998 59.9999 9.69997 60.3999 8.99997C60.7999 8.29997 60.4999 7.39997 59.7999 6.99997C59.0999 6.59997 58.1999 6.89994 57.7999 7.59994C57.3999 8.29994 57.6999 9.19994 58.3999 9.59994C58.4999 9.69994 58.5999 9.69998 58.5999 9.69998ZM41.3999 71.4C41.5999 71.5 41.8999 71.5 42.1999 71.5C43.0999 71.4 43.5999 70.6 43.4999 69.7C43.3999 68.9 42.5999 68.3 41.6999 68.4C40.8999 68.5 40.2999 69.3 40.3999 70.2C40.4999 70.8 40.8999 71.2 41.3999 71.4ZM40.3999 55.4C40.5999 55.5 40.6999 55.5 40.8999 55.5C41.7999 55.5 42.4999 54.8 42.4999 54C42.4999 53.1 41.7999 52.4 40.9999 52.4C40.0999 52.4 39.3999 53.1 39.3999 53.9C39.2999 54.6 39.6999 55.2 40.3999 55.4ZM42.1999 39.5C42.2999 39.5 42.3999 39.4999 42.3999 39.5999C43.1999 39.7999 44.0999 39.2 44.1999 38.4C44.3999 37.6 43.7999 36.6999 42.9999 36.5999C42.1999 36.3999 41.2999 37 41.1999 37.8C40.9999 38.4 41.4999 39.2 42.1999 39.5ZM46.4999 24C47.2999 24.3 48.1999 23.8999 48.4999 23.0999C48.7999 22.2999 48.3999 21.3999 47.5999 21.0999C46.7999 20.7999 45.8999 21.2 45.5999 22C45.2999 22.8 45.6999 23.7 46.4999 24ZM53.1999 9.39999C53.8999 9.69999 54.6999 9.39998 55.0999 8.69998C55.4999 7.99998 55.2999 6.99994 54.4999 6.59994C53.7999 6.19994 52.7999 6.39998 52.3999 7.19998C51.9999 7.89998 52.1999 8.89996 52.9999 9.29996C52.9999 9.29996 53.0999 9.29999 53.1999 9.39999ZM34.3999 54.4C34.5999 54.5 34.6999 54.5 34.8999 54.5C35.7999 54.5 36.5999 53.8 36.5999 52.9C36.5999 52 35.8999 51.2 34.9999 51.2C34.0999 51.2 33.2999 51.9 33.2999 52.8C33.3999 53.6 33.7999 54.2 34.3999 54.4ZM36.3999 38.5C36.4999 38.5 36.5999 38.5999 36.5999 38.5999C37.4999 38.7999 38.3999 38.2 38.4999 37.3C38.6999 36.4 38.0999 35.5 37.1999 35.3C36.2999 35.1 35.3999 35.6999 35.2999 36.5999C35.1999 37.3999 35.5999 38.2 36.3999 38.5ZM40.8999 23.0999C41.6999 23.3999 42.6999 22.9999 42.9999 22.0999C43.2999 21.2999 42.8999 20.3 42.0999 20C41.1999 19.7 40.2999 20.1 39.9999 21C39.5999 21.8 39.9999 22.6999 40.8999 23.0999ZM48.0999 8.69998C48.7999 8.99998 49.5999 8.69997 50.0999 7.99997C50.5999 7.19997 50.3999 6.19998 49.5999 5.69998C48.7999 5.19998 47.7999 5.39998 47.2999 6.19998C46.7999 6.99998 46.9999 7.99997 47.7999 8.49997C47.8999 8.59997 47.9999 8.69998 48.0999 8.69998ZM28.3999 53.0999C28.5999 53.1999 28.6999 53.2 28.8999 53.2C29.8999 53.2 30.6999 52.5 30.6999 51.5C30.6999 50.5 29.9999 49.7 28.9999 49.7C27.9999 49.7 27.1999 50.4 27.1999 51.4C27.2999 52.2 27.7999 52.7999 28.3999 53.0999ZM30.5999 37.2C30.6999 37.2 30.6999 37.2 30.7999 37.3C31.6999 37.5 32.6999 36.9 32.8999 36C33.0999 35.1 32.4999 34.1 31.5999 33.9C30.6999 33.7 29.6999 34.3 29.4999 35.2C29.2999 36 29.7999 36.9 30.5999 37.2ZM35.3999 21.9C36.2999 22.2 37.1999 21.8 37.5999 20.9C37.9999 20 37.5999 18.9999 36.6999 18.5999C35.7999 18.1999 34.7999 18.6 34.3999 19.5C34.0999 20.4 34.4999 21.5 35.3999 21.9C35.3999 21.8 35.3999 21.9 35.3999 21.9ZM43.2999 7.79996C43.9999 8.09996 44.8999 7.79998 45.2999 7.19998C45.8999 6.39998 45.6999 5.29996 44.8999 4.79996C44.0999 4.19996 42.9999 4.39998 42.4999 5.19998C41.8999 5.99998 42.0999 7.09994 42.8999 7.59994C42.9999 7.69994 43.0999 7.79996 43.2999 7.79996ZM22.3999 51.4C22.5999 51.5 22.6999 51.5 22.8999 51.5C23.8999 51.5 24.7999 50.8 24.7999 49.8C24.8999 48.8 24.0999 47.9 23.0999 47.9C22.0999 47.8 21.1999 48.5999 21.1999 49.5999C21.0999 50.3999 21.5999 51.2 22.3999 51.4ZM24.7999 35.5C24.8999 35.5 24.8999 35.4999 24.9999 35.5999C25.9999 35.7999 26.9999 35.2 27.1999 34.3C27.4999 33.3 26.8999 32.2999 25.8999 32.0999C24.8999 31.7999 23.8999 32.5 23.6999 33.4C23.3999 34.3 23.8999 35.2 24.7999 35.5ZM30.1999 20.4C31.0999 20.7 32.0999 20.3 32.4999 19.5C32.8999 18.6 32.5999 17.4999 31.6999 17.0999C30.7999 16.6999 29.6999 17 29.2999 18C28.8999 18.9 29.1999 20 30.0999 20.4C30.0999 20.4 30.0999 20.4 30.1999 20.4ZM38.7999 6.79996C39.4999 7.09996 40.2999 6.89998 40.8999 6.19998C41.4999 5.39998 41.3999 4.29994 40.5999 3.59994C39.7999 2.99994 38.6999 3.09999 37.9999 3.89999C37.3999 4.69999 37.4999 5.79997 38.2999 6.49997C38.3999 6.69997 38.5999 6.79996 38.7999 6.79996ZM16.1999 49.4C16.3999 49.5 16.4999 49.5 16.6999 49.5C17.7999 49.6 18.6999 48.8 18.7999 47.7C18.8999 46.6 18.0999 45.6999 16.9999 45.5999C15.8999 45.4999 14.9999 46.3 14.8999 47.4C14.8999 48.3 15.3999 49.1 16.1999 49.4ZM19.0999 33.5999H19.1999C20.1999 33.8999 21.2999 33.3 21.5999 32.3C21.8999 31.3 21.2999 30.2 20.2999 29.9C19.2999 29.6 18.1999 30.2 17.8999 31.2C17.6999 32.2 18.1999 33.2999 19.0999 33.5999ZM25.2999 18.8C26.1999 19.1 27.1999 18.8 27.5999 17.9C28.0999 17 27.7999 15.8 26.8999 15.3C25.9999 14.8 24.7999 15.1 24.2999 16C23.7999 16.9 24.0999 18.0999 24.9999 18.5999C25.0999 18.6999 25.1999 18.8 25.2999 18.8ZM34.5999 5.69998C35.2999 5.99998 36.0999 5.79998 36.6999 5.19998C37.3999 4.39998 37.3999 3.19997 36.5999 2.49997C35.7999 1.79997 34.5999 1.79994 33.8999 2.59994C33.1999 3.39994 33.1999 4.59996 33.9999 5.29996C34.1999 5.49996 34.3999 5.69998 34.5999 5.69998ZM9.99991 47.2C10.0999 47.3 10.2999 47.3 10.4999 47.3C11.5999 47.4 12.5999 46.6 12.6999 45.5C12.7999 44.4 11.9999 43.4 10.8999 43.3C9.7999 43.2 8.79992 43.9999 8.69992 45.0999C8.59992 45.9999 9.19991 46.9 9.99991 47.2ZM13.5999 31.5C14.6999 31.9 15.7999 31.3 16.1999 30.3C16.5999 29.2 15.9999 28.1 14.9999 27.7C13.9999 27.3 12.7999 27.9 12.4999 28.9C12.0999 30 12.5999 31.1 13.5999 31.5ZM20.6999 17.0999C21.5999 17.3999 22.5999 17.1 23.0999 16.3C23.6999 15.4 23.3999 14.1 22.4999 13.5C21.5999 12.9 20.2999 13.1999 19.6999 14.0999C19.0999 14.9999 19.3999 16.3 20.2999 16.9C20.3999 17 20.4999 17.0999 20.6999 17.0999ZM13.9999 47.4C14.0999 47.4 14.1999 47.5 14.2999 47.5C15.3999 47.7 16.3999 47 16.5999 45.9C16.7999 44.8 16.0999 43.7999 15.0999 43.5999C13.9999 43.3999 12.9999 44.0999 12.7999 45.0999C12.4999 46.0999 13.0999 47.1 13.9999 47.4ZM18.6999 32C19.6999 32.4 20.7999 31.9 21.1999 30.9C21.5999 29.9 21.1999 28.7 20.1999 28.3C19.1999 27.9 18.0999 28.3 17.5999 29.3C17.0999 30.4 17.5999 31.6 18.6999 32C18.5999 32 18.5999 32 18.6999 32ZM26.4999 18C27.2999 18.3 28.2999 18 28.7999 17.3C29.3999 16.4 29.1999 15.1999 28.2999 14.5999C27.3999 13.9999 26.1999 14.1999 25.5999 15.0999C24.9999 15.9999 25.1999 17.2 26.0999 17.8C26.1999 17.9 26.3999 18 26.4999 18ZM37.1999 5.99997C37.8999 6.19997 38.5999 6.09994 39.1999 5.59994C39.9999 4.89994 40.0999 3.59996 39.3999 2.79996C38.6999 1.99996 37.3999 1.89998 36.5999 2.69998C35.7999 3.39998 35.6999 4.69997 36.4999 5.49997C36.5999 5.79997 36.8999 5.89997 37.1999 5.99997ZM18.5999 46.5999H18.6999C19.6999 46.8999 20.7999 46.3 21.0999 45.3C21.3999 44.3 20.7999 43.2 19.7999 42.9C18.7999 42.6 17.6999 43.2 17.3999 44.2C17.1999 45.3 17.6999 46.2999 18.5999 46.5999ZM24.4999 31.7C25.3999 32 26.3999 31.6 26.8999 30.8C27.3999 29.8 26.9999 28.7 26.0999 28.2C25.1999 27.7 23.9999 28.1 23.4999 29C22.9999 29.9 23.3999 31.0999 24.2999 31.5999C24.2999 31.5999 24.3999 31.6 24.4999 31.7ZM33.0999 18.0999C33.8999 18.3999 34.6999 18.2 35.2999 17.5C35.9999 16.7 35.7999 15.5 34.9999 14.8C34.1999 14.1 32.9999 14.2999 32.2999 15.0999C31.5999 15.8999 31.7999 17.1 32.5999 17.8C32.7999 18 32.9999 18.0999 33.0999 18.0999ZM44.3999 6.69998C44.9999 6.89998 45.6999 6.79999 46.2999 6.39999C47.0999 5.69999 47.1999 4.49998 46.5999 3.69998C45.8999 2.89998 44.6999 2.79999 43.8999 3.39999C43.0999 4.09999 42.9999 5.29994 43.5999 6.09994C43.7999 6.39994 43.9999 6.49998 44.3999 6.69998ZM19.7999 60.0999C19.8999 60.0999 19.9999 60.2 20.0999 60.2C21.0999 60.4 22.0999 59.7 22.2999 58.7C22.4999 57.7 21.7999 56.7 20.7999 56.5C19.7999 56.3 18.7999 57 18.5999 58C18.4999 58.9 18.9999 59.7999 19.7999 60.0999ZM24.1999 44.7C25.1999 45.1 26.1999 44.5999 26.5999 43.5999C26.9999 42.5999 26.4999 41.5 25.4999 41.2C24.4999 40.8 23.4999 41.3 23.0999 42.3C22.7999 43.2 23.1999 44.3 24.1999 44.7ZM31.1999 30.2C31.9999 30.5 32.9999 30.2 33.4999 29.4C33.9999 28.5 33.6999 27.4 32.8999 26.8C31.9999 26.3 30.8999 26.6 30.2999 27.5C29.7999 28.4 30.0999 29.4999 30.8999 30.0999C30.9999 30.0999 31.0999 30.2 31.1999 30.2ZM40.6999 17.2C41.3999 17.5 42.1999 17.3 42.6999 16.7C43.3999 15.9 43.2999 14.6999 42.5999 14.0999C41.7999 13.3999 40.6999 13.5 39.9999 14.3C39.2999 15.1 39.3999 16.3 40.0999 16.9C40.2999 17 40.4999 17.1 40.6999 17.2ZM25.2999 56.4H25.3999C26.3999 56.7 27.3999 56.1 27.6999 55.2C27.9999 54.2 27.3999 53.2 26.4999 52.9C25.4999 52.6 24.4999 53.1999 24.1999 54.0999C23.8999 55.0999 24.3999 56.1 25.2999 56.4ZM30.9999 41.4C31.8999 41.7 32.8999 41.3 33.2999 40.5C33.6999 39.6 33.2999 38.4999 32.3999 38.0999C31.4999 37.6999 30.3999 38.1 29.9999 39C29.5999 39.9 29.9999 41 30.8999 41.4C30.8999 41.3 30.9999 41.4 30.9999 41.4ZM38.9999 27.5C39.7999 27.8 40.5999 27.5 41.0999 26.8C41.6999 26 41.4999 24.8 40.6999 24.2C39.8999 23.6 38.6999 23.8 38.1999 24.7C37.5999 25.5 37.7999 26.7 38.5999 27.2C38.7999 27.3 38.8999 27.4 38.9999 27.5ZM49.3999 15.2C49.9999 15.4 50.7999 15.3 51.2999 14.8C51.9999 14.1 51.9999 12.9 51.2999 12.2C50.5999 11.5 49.3999 11.5 48.6999 12.2C47.9999 12.9 47.9999 14.1 48.6999 14.8C48.8999 14.9 49.0999 15.1 49.3999 15.2ZM32.1999 51.0999C33.0999 51.3999 34.0999 50.9999 34.4999 50.0999C34.8999 49.1999 34.3999 48.1 33.4999 47.8C32.5999 47.4 31.4999 47.9 31.1999 48.8C30.7999 49.6 31.1999 50.6999 32.1999 51.0999C32.0999 50.9999 32.1999 51.0999 32.1999 51.0999ZM39.0999 36.5999C39.8999 36.8999 40.7999 36.6 41.2999 35.8C41.7999 34.9 41.4999 33.8 40.5999 33.4C39.6999 32.9 38.6999 33.1999 38.1999 34.0999C37.6999 34.9999 37.9999 36.1 38.8999 36.5C38.9999 36.5 39.0999 36.4999 39.0999 36.5999ZM48.1999 23.3C48.8999 23.6 49.6999 23.4 50.1999 22.8C50.7999 22 50.6999 20.9 49.9999 20.3C49.1999 19.7 48.0999 19.7999 47.4999 20.5999C46.8999 21.3999 46.9999 22.4999 47.6999 23.0999C47.8999 23.1999 48.0999 23.3 48.1999 23.3ZM59.4999 11.9C60.0999 12.1 60.7999 11.9999 61.2999 11.5999C62.0999 10.9999 62.1999 9.79994 61.4999 9.09994C60.8999 8.29994 59.7999 8.19999 58.9999 8.89999C58.1999 9.49999 58.0999 10.7 58.7999 11.4C58.9999 11.6 59.1999 11.8 59.4999 11.9ZM34.3999 58.5999C35.2999 58.8999 36.2999 58.4999 36.5999 57.5999C36.8999 56.6999 36.4999 55.7 35.5999 55.4C34.6999 55.1 33.6999 55.5 33.3999 56.4C33.0999 57.3 33.4999 58.2999 34.3999 58.5999ZM40.7999 43.8C41.5999 44.1 42.5999 43.7 42.9999 42.9C43.3999 42 43.0999 40.9999 42.1999 40.5999C41.2999 40.1999 40.2999 40.5 39.8999 41.4C39.4999 42.3 39.7999 43.3 40.6999 43.7C40.6999 43.8 40.6999 43.8 40.7999 43.8ZM48.9999 30C49.6999 30.3 50.5999 30 50.9999 29.4C51.4999 28.6 51.3999 27.5 50.5999 27C49.7999 26.5 48.6999 26.6 48.1999 27.4C47.6999 28.2 47.7999 29.3 48.5999 29.8C48.6999 29.9 48.7999 29.9 48.9999 30ZM59.1999 17.5999C59.7999 17.7999 60.4999 17.7 60.9999 17.2C61.6999 16.5 61.6999 15.4 60.9999 14.7C60.2999 14 59.1999 14 58.4999 14.7C57.7999 15.4 57.7999 16.5 58.4999 17.2C58.7999 17.4 58.9999 17.4999 59.1999 17.5999ZM71.3999 7.19998C71.8999 7.39998 72.4999 7.29997 72.9999 6.99997C73.7999 6.49997 73.9999 5.39994 73.3999 4.59994C72.8999 3.79994 71.7999 3.59998 70.9999 4.19998C70.1999 4.79998 69.9999 5.79994 70.5999 6.59994C70.7999 6.89994 71.0999 7.09998 71.3999 7.19998ZM37.7999 63.4C38.6999 63.7 39.6999 63.3 39.9999 62.4C40.2999 61.5 39.8999 60.5 38.9999 60.2C38.0999 59.9 37.1999 60.4 36.7999 61.2C36.3999 62.1 36.8999 63.1 37.7999 63.4ZM43.7999 48.5C44.5999 48.8 45.4999 48.3999 45.8999 47.5999C46.2999 46.7999 45.8999 45.7 45.0999 45.3C44.2999 44.9 43.1999 45.2999 42.8999 46.0999C42.4999 46.9999 42.8999 48 43.6999 48.4C43.6999 48.4 43.6999 48.4 43.7999 48.5ZM51.3999 34.3C52.0999 34.6 52.9999 34.2999 53.3999 33.5999C53.8999 32.7999 53.6999 31.8 52.8999 31.3C52.0999 30.8 51.0999 31 50.5999 31.8C50.0999 32.6 50.2999 33.5999 51.0999 34.0999C51.1999 34.1999 51.2999 34.3 51.3999 34.3ZM60.7999 21.3C61.4999 21.5 62.1999 21.4 62.6999 20.8C63.2999 20.1 63.1999 19 62.4999 18.4C61.7999 17.8 60.6999 17.8999 60.0999 18.5999C59.4999 19.2999 59.5999 20.4 60.2999 21C60.4999 21.1 60.5999 21.2 60.7999 21.3ZM72.1999 9.89999C72.6999 10.1 73.3999 9.99994 73.8999 9.59994C74.5999 8.99994 74.6999 7.89998 74.0999 7.19998C73.4999 6.49998 72.3999 6.39997 71.6999 6.99997C70.9999 7.59997 70.8999 8.69999 71.4999 9.39999C71.6999 9.69999 71.8999 9.79999 72.1999 9.89999ZM42.1999 64.7C42.2999 64.7 42.2999 64.7 42.1999 64.7C43.0999 65 43.9999 64.6 44.2999 63.7C44.5999 62.8 44.1999 61.8999 43.2999 61.5999C42.3999 61.2999 41.4999 61.6999 41.1999 62.5999C40.9999 63.4999 41.3999 64.4 42.1999 64.7ZM48.1999 49.8C48.9999 50.1 49.8999 49.7 50.2999 48.9C50.6999 48.1 50.2999 47.1 49.4999 46.7C48.6999 46.3 47.6999 46.7 47.2999 47.5C46.8999 48.3 47.2999 49.3 48.0999 49.7C48.0999 49.8 48.0999 49.8 48.1999 49.8ZM55.4999 35.4C56.1999 35.7 57.0999 35.4 57.4999 34.7C57.9999 33.9 57.6999 32.9 56.8999 32.4C56.0999 31.9 55.0999 32.2 54.6999 33C54.1999 33.8 54.4999 34.8 55.2999 35.3C55.2999 35.4 55.3999 35.4 55.4999 35.4ZM64.2999 22C64.9999 22.2 65.6999 22 66.1999 21.4C66.7999 20.7 66.5999 19.5999 65.8999 19.0999C65.1999 18.4999 64.0999 18.7 63.5999 19.4C62.9999 20.1 63.1999 21.2 63.8999 21.7C63.9999 21.9 64.1999 22 64.2999 22ZM74.9999 9.99997C75.5999 10.2 76.1999 10.0999 76.6999 9.59994C77.3999 8.99994 77.3999 7.89996 76.6999 7.29996C76.0999 6.59996 74.9999 6.59996 74.3999 7.29996C73.6999 7.89996 73.6999 8.99994 74.3999 9.59994C74.4999 9.79994 74.6999 9.89997 74.9999 9.99997ZM47.9999 62C48.8999 62.3 49.7999 61.9 50.0999 61C50.3999 60.2 49.9999 59.2 49.0999 58.9C48.2999 58.6 47.3999 59 47.0999 59.9C46.7999 60.8 47.1999 61.7 47.9999 62ZM53.8999 47.0999C54.6999 47.3999 55.5999 47 55.8999 46.2C56.2999 45.4 55.8999 44.3999 55.0999 44.0999C54.2999 43.6999 53.2999 44.1 52.9999 44.9C52.6999 45.7 52.9999 46.6999 53.8999 47.0999ZM60.9999 32.5999C61.6999 32.8999 62.5999 32.6 62.9999 31.9C63.3999 31.1 63.0999 30.1 62.3999 29.7C61.5999 29.3 60.5999 29.6 60.1999 30.3C59.7999 31.1 60.0999 32.1 60.7999 32.5C60.8999 32.6 60.8999 32.5999 60.9999 32.5999ZM69.3999 18.9C70.0999 19.1 70.7999 18.9 71.2999 18.3C71.7999 17.6 71.5999 16.5999 70.8999 16.0999C70.1999 15.5999 69.1999 15.8 68.6999 16.5C68.1999 17.2 68.3999 18.2 69.0999 18.7C69.1999 18.8 69.2999 18.9 69.3999 18.9ZM49.9999 69.9C50.8999 70.2 51.7999 69.7 51.9999 68.9C52.1999 68.1 51.7999 67.2 50.9999 66.9C50.1999 66.6 49.2999 67.1 48.9999 67.9C48.7999 68.7 49.1999 69.6 49.9999 69.9ZM55.0999 54.5999C55.8999 54.8999 56.7999 54.5 57.0999 53.7C57.3999 52.9 56.9999 52 56.1999 51.7C55.3999 51.4 54.4999 51.8 54.1999 52.7C53.7999 53.4 54.2999 54.2999 55.0999 54.5999ZM60.8999 39.5999C61.6999 39.8999 62.5999 39.5 62.8999 38.7C63.1999 37.9 62.8999 37 62.0999 36.7C61.2999 36.4 60.3999 36.7 60.0999 37.5C59.6999 38.3 59.9999 39.2999 60.8999 39.5999C60.7999 39.5999 60.8999 39.5999 60.8999 39.5999ZM67.5999 25C68.2999 25.3 69.1999 24.9 69.4999 24.2C69.8999 23.4 69.5999 22.4999 68.7999 22.0999C67.9999 21.6999 67.0999 22 66.6999 22.8C66.2999 23.6 66.5999 24.5 67.3999 24.9C67.4999 24.9 67.4999 25 67.5999 25ZM75.2999 10.9C75.9999 11.2 76.7999 10.9 77.1999 10.3C77.6999 9.59996 77.4999 8.59994 76.6999 8.09994C75.9999 7.59994 74.9999 7.89994 74.4999 8.59994C73.9999 9.29994 74.1999 10.3 74.9999 10.8C75.0999 10.8 75.1999 10.9 75.2999 10.9ZM53.3999 73.0999H53.4999C54.2999 73.2999 55.0999 72.8 55.3999 72C55.5999 71.2 55.1999 70.3999 54.3999 70.0999C53.5999 69.8999 52.7999 70.4 52.4999 71.2C52.1999 72 52.6999 72.7999 53.3999 73.0999ZM57.7999 57.5999C57.8999 57.5999 57.8999 57.5999 57.7999 57.5999C58.6999 57.8999 59.4999 57.3999 59.7999 56.5999C59.9999 55.7999 59.5999 54.9 58.7999 54.7C57.9999 54.5 57.1999 54.9 56.8999 55.7C56.6999 56.5 57.0999 57.2999 57.7999 57.5999ZM62.5999 42.2C62.5999 42.3 62.5999 42.3 62.5999 42.2C63.4999 42.5 64.2999 42 64.5999 41.2C64.8999 40.4 64.3999 39.5 63.5999 39.3C62.7999 39 61.9999 39.5 61.6999 40.3C61.3999 41.1 61.7999 42 62.5999 42.2ZM67.7999 27C68.5999 27.3 69.4999 26.8999 69.7999 26.0999C70.0999 25.2999 69.6999 24.4 68.8999 24.2C68.0999 23.9 67.1999 24.2999 66.9999 25.0999C66.5999 25.8999 66.9999 26.7 67.7999 27ZM73.4999 12C74.2999 12.3 75.0999 11.8999 75.3999 11.0999C75.6999 10.2999 75.3999 9.39994 74.5999 9.09994C73.7999 8.79994 72.8999 9.19999 72.5999 9.89999C72.2999 10.8 72.6999 11.6 73.4999 12ZM57.6999 71.9C57.7999 71.9 57.7999 71.9 57.8999 72C58.6999 72.2 59.4999 71.7 59.6999 70.9C59.8999 70.1 59.3999 69.2999 58.5999 69.0999C57.7999 68.8999 56.9999 69.4 56.7999 70.2C56.5999 70.9 56.9999 71.7 57.6999 71.9ZM61.2999 56.2C61.3999 56.2 61.3999 56.2 61.4999 56.3C62.2999 56.5 63.0999 56 63.2999 55.2C63.4999 54.4 62.9999 53.6 62.1999 53.4C61.3999 53.2 60.5999 53.7 60.3999 54.5C60.1999 55.3 60.5999 56 61.2999 56.2ZM64.7999 40.5C64.8999 40.5 64.8999 40.4999 64.9999 40.5999C65.7999 40.7999 66.5999 40.3 66.7999 39.5C66.9999 38.7 66.4999 37.9 65.6999 37.7C64.8999 37.5 64.0999 38 63.8999 38.8C63.6999 39.6 64.0999 40.3 64.7999 40.5ZM68.2999 24.8C68.3999 24.8 68.3999 24.8 68.4999 24.9C69.2999 25.1 70.0999 24.6 70.2999 23.8C70.4999 23 69.9999 22.2 69.1999 22C68.3999 21.8 67.5999 22.2999 67.3999 23.0999C67.2999 23.8999 67.6999 24.6 68.2999 24.8ZM71.6999 9.09994C71.7999 9.09994 71.8999 9.09998 71.8999 9.19998C72.6999 9.29998 73.4999 8.79997 73.5999 7.99997C73.7999 7.19997 73.1999 6.39996 72.3999 6.29996C71.5999 6.09996 70.7999 6.69997 70.6999 7.49997C70.5999 8.19997 70.9999 8.89994 71.6999 9.09994ZM58.9999 82.8C59.0999 82.8 59.0999 82.9 59.1999 82.9C59.9999 83.1 60.6999 82.5 60.8999 81.8C61.0999 81 60.4999 80.2999 59.7999 80.0999C58.9999 79.9999 58.2999 80.5 58.0999 81.2C57.9999 81.9 58.3999 82.6 58.9999 82.8ZM61.8999 67C61.9999 67 62.0999 67.0999 62.1999 67.0999C62.9999 67.1999 63.6999 66.7 63.7999 65.9C63.8999 65.1 63.3999 64.4 62.5999 64.3C61.7999 64.2 61.0999 64.7 60.9999 65.5C60.8999 66.1 61.2999 66.7 61.8999 67ZM64.2999 51.0999C64.3999 51.0999 64.4999 51.2 64.5999 51.2C65.3999 51.3 66.0999 50.7 66.1999 50C66.2999 49.2 65.7999 48.5 64.9999 48.4C64.1999 48.3 63.4999 48.8999 63.3999 49.5999C63.2999 50.1999 63.5999 50.7999 64.2999 51.0999ZM66.0999 35.0999C66.1999 35.0999 66.2999 35.2 66.4999 35.2C67.2999 35.3 67.9999 34.7 68.0999 33.9C68.1999 33.1 67.5999 32.4 66.7999 32.3C65.9999 32.2 65.2999 32.7999 65.1999 33.5999C65.1999 34.2999 65.4999 34.8999 66.0999 35.0999ZM67.5999 19.0999C67.6999 19.0999 67.8999 19.2 67.9999 19.2C68.7999 19.2 69.4999 18.6 69.4999 17.9C69.4999 17.1 68.9999 16.4 68.1999 16.4C67.3999 16.4 66.6999 17 66.6999 17.7C66.5999 18.3 66.9999 18.7999 67.5999 19.0999ZM61.2999 90.8C61.3999 90.8 61.4999 90.9 61.5999 90.9C62.3999 91 63.0999 90.5 63.1999 89.8C63.2999 89 62.7999 88.3 62.0999 88.2C61.2999 88.1 60.5999 88.6 60.4999 89.3C60.2999 89.9 60.6999 90.5 61.2999 90.8ZM63.4999 74.8C63.5999 74.8 63.6999 74.9 63.7999 74.9C64.5999 75 65.1999 74.4 65.2999 73.7C65.3999 72.9 64.7999 72.3 64.0999 72.2C63.2999 72.1 62.6999 72.7 62.5999 73.4C62.4999 74 62.8999 74.6 63.4999 74.8ZM64.7999 58.8C64.8999 58.8 65.0999 58.9 65.1999 58.9C65.9999 58.9 66.5999 58.3999 66.5999 57.5999C66.5999 56.7999 66.0999 56.1999 65.2999 56.0999C64.4999 56.0999 63.8999 56.6 63.7999 57.4C63.8999 58 64.2999 58.6 64.7999 58.8ZM65.2999 42.7C65.4999 42.8 65.5999 42.8 65.7999 42.8C66.5999 42.8 67.1999 42.2 67.1999 41.4C67.1999 40.6 66.5999 40 65.7999 40C64.9999 40 64.3999 40.6 64.3999 41.4C64.3999 42 64.7999 42.5 65.2999 42.7ZM65.0999 26.5999C65.2999 26.6999 65.3999 26.7 65.5999 26.7C66.3999 26.7 66.9999 26 66.8999 25.3C66.8999 24.5 66.1999 23.9 65.4999 24C64.6999 24 64.0999 24.7 64.1999 25.4C64.2999 26 64.5999 26.3999 65.0999 26.5999ZM63.8999 10.5999C64.0999 10.6999 64.2999 10.7 64.4999 10.7C65.2999 10.6 65.7999 9.89998 65.6999 9.19998C65.5999 8.39998 64.8999 7.89997 64.1999 7.99997C63.3999 8.09997 62.8999 8.79997 62.9999 9.49997C63.0999 9.99997 63.3999 10.3999 63.8999 10.5999ZM61.0999 112C61.1999 112 61.1999 112 61.2999 112C61.9999 112.2 62.6999 111.7 62.8999 111C63.0999 110.3 62.5999 109.6 61.8999 109.4C61.1999 109.2 60.4999 109.7 60.2999 110.4C60.0999 111.1 60.4999 111.7 61.0999 112ZM64.0999 96.2C64.1999 96.2 64.2999 96.3 64.3999 96.3C65.0999 96.4 65.7999 95.8999 65.8999 95.0999C65.9999 94.3999 65.4999 93.6999 64.7999 93.5999C64.0999 93.4999 63.3999 94 63.2999 94.8C63.0999 95.4 63.4999 95.9 64.0999 96.2ZM65.4999 80.0999C65.5999 80.0999 65.7999 80.2 65.8999 80.2C66.5999 80.2 67.2999 79.7 67.2999 78.9C67.2999 78.2 66.7999 77.5 65.9999 77.5C65.2999 77.5 64.5999 78 64.5999 78.8C64.5999 79.4 64.9999 79.8999 65.4999 80.0999ZM65.7999 64.0999C65.9999 64.1999 66.0999 64.2 66.2999 64.2C66.9999 64.2 67.5999 63.6 67.5999 62.8C67.5999 62.1 66.9999 61.5 66.1999 61.5C65.4999 61.5 64.8999 62.1 64.8999 62.9C64.8999 63.4 65.2999 63.8999 65.7999 64.0999ZM64.9999 48C65.1999 48.1 65.3999 48.0999 65.5999 48.0999C66.2999 47.9999 66.8999 47.4 66.7999 46.7C66.6999 46 66.0999 45.4 65.3999 45.5C64.6999 45.6 64.0999 46.2 64.1999 46.9C64.1999 47.4 64.4999 47.8 64.9999 48ZM63.2999 32C63.4999 32.1 63.6999 32.0999 63.8999 32.0999C64.5999 31.9999 65.0999 31.2999 64.9999 30.5999C64.8999 29.8999 64.1999 29.4 63.4999 29.5C62.7999 29.6 62.1999 30.3 62.3999 31C62.4999 31.5 62.7999 31.9 63.2999 32ZM60.5999 16.2C60.7999 16.3 61.0999 16.3 61.2999 16.3C61.9999 16.1 62.4999 15.4 62.2999 14.7C62.1999 14 61.3999 13.5 60.6999 13.7C59.9999 13.9 59.4999 14.6 59.6999 15.3C59.8999 15.7 60.1999 16 60.5999 16.2ZM66.9999 99.4C67.0999 99.4 67.1999 99.5 67.2999 99.5C67.9999 99.6 68.5999 99 68.6999 98.3C68.7999 97.6 68.1999 97 67.4999 96.9C66.7999 96.8 66.1999 97.3999 66.0999 98.0999C66.0999 98.5999 66.4999 99.2 66.9999 99.4ZM67.4999 83.3C67.5999 83.4 67.7999 83.4 67.9999 83.4C68.6999 83.4 69.2999 82.7999 69.2999 82.0999C69.2999 81.3999 68.6999 80.8 67.9999 80.8C67.2999 80.8 66.6999 81.3999 66.6999 82.0999C66.6999 82.6999 67.0999 83.1 67.4999 83.3ZM66.5999 67.3C66.7999 67.4 66.9999 67.4 67.1999 67.4C67.8999 67.3 68.3999 66.7 68.3999 66C68.2999 65.3 67.6999 64.8 66.9999 64.8C66.2999 64.9 65.7999 65.5 65.7999 66.2C65.8999 66.7 66.1999 67.1 66.5999 67.3ZM64.4999 51.3C64.6999 51.4 64.8999 51.4 65.1999 51.4C65.8999 51.3 66.3999 50.6 66.2999 49.9C66.1999 49.2 65.4999 48.7 64.7999 48.8C64.0999 48.9 63.5999 49.6 63.6999 50.3C63.7999 50.8 64.0999 51.2 64.4999 51.3ZM61.3999 35.5999C61.5999 35.6999 61.8999 35.6999 62.0999 35.5999C62.7999 35.3999 63.1999 34.8 63.0999 34C62.8999 33.3 62.2999 32.9 61.5999 33C60.8999 33.2 60.4999 33.8999 60.5999 34.5999C60.6999 35.0999 60.9999 35.3999 61.3999 35.5999ZM57.4999 20C57.6999 20.1 57.9999 20.1 58.2999 20C58.9999 19.8 59.3999 19.1 59.1999 18.4C58.9999 17.7 58.2999 17.3 57.5999 17.5C56.8999 17.7 56.4999 18.3999 56.6999 19.0999C56.7999 19.5999 57.0999 19.9 57.4999 20ZM64.7999 132.4C65.4999 132.6 66.1999 132.3 66.3999 131.6C66.5999 131 66.2999 130.2 65.5999 130C64.8999 129.8 64.1999 130.1 63.9999 130.8C63.7999 131.5 64.0999 132.2 64.7999 132.4ZM69.7999 100.8C69.8999 100.8 70.0999 100.9 70.1999 100.9C70.8999 100.9 71.4999 100.4 71.4999 99.7C71.4999 99 70.9999 98.4 70.2999 98.4C69.5999 98.4 68.9999 98.8999 68.9999 99.5999C68.9999 100.1 69.2999 100.6 69.7999 100.8ZM69.1999 84.7C69.3999 84.8 69.5999 84.8 69.7999 84.8C70.4999 84.7 70.9999 84.1 70.8999 83.4C70.7999 82.7 70.1999 82.2 69.4999 82.3C68.7999 82.4 68.2999 83 68.3999 83.7C68.3999 84.1 68.6999 84.5 69.1999 84.7ZM66.9999 68.8C67.1999 68.9 67.3999 68.9 67.6999 68.9C68.3999 68.8 68.7999 68.1 68.6999 67.4C68.5999 66.7 67.8999 66.3 67.2999 66.4C66.5999 66.5 66.1999 67.2 66.2999 67.9C66.2999 68.3 66.5999 68.6 66.9999 68.8ZM63.4999 53.0999C63.6999 53.1999 63.9999 53.1999 64.1999 53.0999C64.8999 52.8999 65.2999 52.1999 65.0999 51.5999C64.8999 50.8999 64.2999 50.5 63.5999 50.7C62.8999 50.9 62.4999 51.6 62.6999 52.2C62.8999 52.6 63.0999 52.9999 63.4999 53.0999ZM59.1999 37.5999C59.4999 37.6999 59.6999 37.6999 59.9999 37.5999C60.6999 37.3999 60.9999 36.7 60.7999 36C60.5999 35.3 59.8999 35 59.1999 35.2C58.4999 35.4 58.1999 36.1 58.3999 36.8C58.4999 37.2 58.7999 37.4999 59.1999 37.5999ZM54.0999 22.4C54.3999 22.5 54.6999 22.5 54.9999 22.4C55.5999 22.2 55.9999 21.5 55.7999 20.8C55.5999 20.1 54.8999 19.8 54.1999 20C53.5999 20.2 53.1999 20.8999 53.3999 21.5999C53.4999 21.9999 53.7999 22.3 54.0999 22.4ZM48.5999 7.29996C48.8999 7.39996 49.1999 7.39996 49.4999 7.29996C50.0999 7.09996 50.4999 6.29998 50.1999 5.69998C49.9999 5.09998 49.1999 4.69997 48.5999 4.99997C47.9999 5.19997 47.5999 5.99994 47.8999 6.59994C47.9999 6.89994 48.2999 7.19996 48.5999 7.29996ZM69.4999 132.4H69.5999C70.1999 132.6 70.8999 132.2 71.0999 131.5C71.2999 130.9 70.8999 130.2 70.1999 130C69.5999 129.8 68.8999 130.2 68.6999 130.9C68.5999 131.6 68.9999 132.2 69.4999 132.4ZM72.0999 116.6C72.1999 116.6 72.2999 116.7 72.3999 116.7C73.0999 116.7 73.5999 116.2 73.6999 115.6C73.7999 114.9 73.1999 114.4 72.5999 114.3C71.8999 114.3 71.3999 114.8 71.2999 115.4C71.2999 115.9 71.5999 116.4 72.0999 116.6ZM72.0999 100.5C72.1999 100.6 72.3999 100.6 72.5999 100.6C73.2999 100.5 73.7999 100 73.6999 99.3C73.5999 98.6 73.0999 98.1 72.3999 98.2C71.6999 98.2 71.1999 98.8 71.2999 99.5C71.2999 99.9 71.5999 100.3 72.0999 100.5ZM69.9999 84.5C70.1999 84.6 70.3999 84.5999 70.5999 84.5999C71.2999 84.4999 71.6999 83.8 71.5999 83.2C71.4999 82.5 70.8999 82.1 70.1999 82.2C69.4999 82.3 69.0999 82.9999 69.1999 83.5999C69.2999 84.0999 69.5999 84.4 69.9999 84.5ZM66.3999 68.9C66.5999 69 66.8999 69 67.0999 68.9C67.6999 68.7 68.0999 68.1 67.8999 67.4C67.6999 66.8 67.0999 66.3999 66.3999 66.5999C65.7999 66.7999 65.3999 67.3999 65.5999 68.0999C65.7999 68.4999 66.0999 68.8 66.3999 68.9ZM61.6999 53.5C61.8999 53.6 62.1999 53.6 62.4999 53.5C63.0999 53.3 63.4999 52.6 63.1999 52C62.9999 51.4 62.2999 51 61.6999 51.3C61.0999 51.5 60.6999 52.2 60.9999 52.8C61.0999 53.2 61.3999 53.4 61.6999 53.5ZM56.1999 38.5C56.4999 38.6 56.7999 38.6 57.0999 38.5C57.6999 38.3 57.9999 37.6 57.7999 36.9C57.5999 36.3 56.8999 36 56.1999 36.2C55.5999 36.4 55.2999 37.1 55.4999 37.8C55.5999 38.1 55.8999 38.3 56.1999 38.5ZM50.2999 23.5C50.5999 23.6 50.8999 23.6 51.1999 23.5C51.7999 23.2 52.0999 22.5 51.7999 21.9C51.5999 21.3 50.7999 21 50.1999 21.2C49.5999 21.5 49.2999 22.2 49.5999 22.8C49.6999 23.2 49.8999 23.4 50.2999 23.5ZM44.0999 8.69998C44.3999 8.79998 44.6999 8.79998 44.9999 8.69998C45.5999 8.39998 45.8999 7.69994 45.5999 7.09994C45.2999 6.49994 44.5999 6.19997 43.9999 6.49997C43.3999 6.79997 43.0999 7.49994 43.3999 8.09994C43.4999 8.39994 43.7999 8.59998 44.0999 8.69998ZM60.6999 109.6C60.7999 109.6 60.7999 109.6 60.8999 109.6C61.4999 109.7 62.1999 109.3 62.2999 108.7C62.3999 108 61.9999 107.4 61.3999 107.3C60.7999 107.2 60.0999 107.6 59.9999 108.2C59.7999 108.8 60.1999 109.4 60.6999 109.6ZM62.6999 93.7C62.7999 93.7 62.8999 93.8 63.0999 93.8C63.7999 93.8 64.2999 93.2999 64.3999 92.5999C64.3999 91.8999 63.8999 91.4 63.2999 91.3C62.5999 91.3 62.0999 91.8 61.9999 92.4C61.8999 93 62.2999 93.5 62.6999 93.7ZM62.3999 77.5999C62.5999 77.6999 62.6999 77.7 62.8999 77.7C63.5999 77.6 64.0999 77.1 63.9999 76.4C63.8999 75.7 63.3999 75.2 62.6999 75.3C61.9999 75.4 61.4999 75.8999 61.5999 76.5999C61.6999 77.0999 61.9999 77.3999 62.3999 77.5999ZM60.2999 61.7C60.4999 61.8 60.6999 61.8 60.8999 61.8C61.5999 61.7 61.9999 61 61.8999 60.4C61.7999 59.7 61.1999 59.3 60.4999 59.4C59.7999 59.5 59.3999 60.2 59.4999 60.8C59.5999 61.2 59.8999 61.5 60.2999 61.7ZM56.5999 46C56.7999 46.1 57.0999 46.1 57.2999 46C57.8999 45.8 58.2999 45.2 58.0999 44.5C57.8999 43.9 57.2999 43.5 56.5999 43.7C55.9999 43.9 55.5999 44.5 55.6999 45.2C55.9999 45.6 56.2999 45.9 56.5999 46ZM51.9999 30.7C52.1999 30.8 52.4999 30.8 52.7999 30.7C53.3999 30.5 53.7999 29.8 53.5999 29.2C53.3999 28.6 52.6999 28.2 52.0999 28.4C51.4999 28.6 51.0999 29.3 51.2999 29.9C51.3999 30.3 51.6999 30.5 51.9999 30.7ZM46.7999 15.5C47.0999 15.6 47.3999 15.6 47.5999 15.5C48.1999 15.3 48.4999 14.6 48.2999 14C48.0999 13.4 47.3999 13 46.7999 13.3C46.1999 13.5 45.8999 14.2 46.0999 14.8C46.1999 15.1 46.4999 15.4 46.7999 15.5ZM53.2999 79.8C53.3999 79.8 53.4999 79.9 53.5999 79.9C54.2999 80 54.8999 79.5 54.8999 78.8C54.9999 78.1 54.4999 77.5 53.7999 77.5C53.0999 77.4 52.4999 77.8999 52.4999 78.5999C52.4999 79.0999 52.7999 79.6 53.2999 79.8ZM53.8999 63.7C53.9999 63.8 54.1999 63.8 54.3999 63.8C55.0999 63.8 55.5999 63.1999 55.5999 62.5999C55.5999 61.8999 54.9999 61.4 54.3999 61.4C53.6999 61.4 53.1999 61.9999 53.1999 62.5999C53.1999 63.0999 53.4999 63.6 53.8999 63.7ZM52.4999 47.7C52.6999 47.8 52.8999 47.8 53.0999 47.8C53.7999 47.7 54.1999 47.1 54.0999 46.4C53.9999 45.7 53.3999 45.3 52.6999 45.4C51.9999 45.5 51.5999 46.1 51.6999 46.8C51.7999 47.2 52.0999 47.6 52.4999 47.7ZM49.5999 31.9C49.7999 32 49.9999 32 50.2999 31.9C50.9999 31.7 51.3999 31.1 51.1999 30.5C51.0999 29.9 50.3999 29.3999 49.7999 29.5999C49.1999 29.6999 48.7999 30.4 48.8999 31C48.8999 31.5 49.1999 31.8 49.5999 31.9ZM45.5999 16.4C45.7999 16.5 46.0999 16.5 46.2999 16.4C46.8999 16.2 47.2999 15.5 47.0999 14.9C46.8999 14.3 46.2999 13.8999 45.5999 14.0999C44.9999 14.2999 44.5999 14.8999 44.7999 15.5999C44.9999 15.9999 45.2999 16.2 45.5999 16.4ZM43.8999 67.0999C43.9999 67.0999 43.9999 67.1 44.0999 67.2C44.7999 67.3 45.3999 66.9 45.4999 66.2C45.5999 65.5 45.1999 64.9 44.4999 64.8C43.7999 64.7 43.1999 65.1 43.0999 65.8C42.9999 66.4 43.3999 66.8999 43.8999 67.0999ZM45.5999 51.0999C45.6999 51.0999 45.7999 51.2 45.9999 51.2C46.6999 51.2 47.1999 50.7 47.1999 50C47.1999 49.3 46.6999 48.8 45.9999 48.8C45.2999 48.8 44.7999 49.3 44.7999 50C44.7999 50.5 45.0999 50.9999 45.5999 51.0999ZM45.0999 35.0999C45.2999 35.1999 45.3999 35.2 45.5999 35.2C46.2999 35.1 46.6999 34.6 46.6999 33.9C46.5999 33.2 46.0999 32.7 45.3999 32.8C44.6999 32.9 44.1999 33.3999 44.2999 34.0999C44.2999 34.4999 44.6999 34.8999 45.0999 35.0999ZM42.9999 19.2C43.1999 19.3 43.3999 19.3 43.5999 19.3C44.2999 19.2 44.6999 18.6 44.5999 17.9C44.4999 17.2 43.8999 16.8 43.1999 16.9C42.4999 17 42.0999 17.6 42.1999 18.3C42.2999 18.7 42.5999 19 42.9999 19.2ZM39.7999 3.39999C39.9999 3.49999 40.2999 3.49999 40.4999 3.39999C41.0999 3.19999 41.5999 2.59999 41.3999 1.89999C41.2999 1.19999 40.5999 0.799968 39.9999 0.999968C39.3999 1.09997 38.9999 1.79997 39.0999 2.49997C39.0999 2.99997 39.3999 3.29999 39.7999 3.39999ZM34.1999 55.5999H34.2999C34.8999 55.7999 35.5999 55.4 35.7999 54.7C35.9999 54.1 35.5999 53.4 34.8999 53.2C34.2999 53 33.5999 53.3999 33.3999 54.0999C33.2999 54.7999 33.6999 55.3999 34.1999 55.5999ZM37.0999 39.8C37.1999 39.8 37.2999 39.9 37.3999 39.9C38.0999 40 38.5999 39.5 38.6999 38.8C38.7999 38.1 38.2999 37.5 37.5999 37.5C36.8999 37.4 36.3999 37.8999 36.2999 38.5999C36.1999 39.0999 36.5999 39.6 37.0999 39.8ZM37.6999 23.7C37.7999 23.8 37.9999 23.8 38.0999 23.8C38.7999 23.8 39.2999 23.1999 39.2999 22.5999C39.2999 21.8999 38.6999 21.4 38.0999 21.4C37.3999 21.4 36.8999 21.9999 36.8999 22.5999C36.8999 23.0999 37.2999 23.6 37.6999 23.7ZM36.5999 7.69998C36.7999 7.79998 36.9999 7.79996 37.1999 7.79996C37.8999 7.69996 38.2999 7.09997 38.2999 6.49997C38.1999 5.79997 37.5999 5.39999 36.9999 5.39999C36.2999 5.49999 35.8999 6.09998 35.8999 6.69998C35.8999 7.19998 36.1999 7.49998 36.5999 7.69998ZM23.9999 45.2C24.5999 45.4 25.2999 45.1 25.5999 44.5C25.7999 43.9 25.4999 43.2 24.8999 43C24.2999 42.8 23.5999 43.1 23.3999 43.7C23.0999 44.3 23.3999 45 23.9999 45.2ZM28.1999 29.7C28.2999 29.7 28.2999 29.7 28.3999 29.8C29.0999 29.9 29.6999 29.5 29.7999 28.8C29.8999 28.1 29.4999 27.5 28.7999 27.4C28.1999 27.3 27.4999 27.7 27.3999 28.4C27.3999 29 27.6999 29.5 28.1999 29.7ZM30.1999 13.8C30.2999 13.8 30.3999 13.9 30.4999 13.9C31.1999 13.9 31.6999 13.4 31.7999 12.8C31.7999 12.1 31.2999 11.6 30.6999 11.5C29.9999 11.5 29.4999 11.9999 29.3999 12.5999C29.3999 13.0999 29.6999 13.6 30.1999 13.8ZM5.2999 49.8C5.7999 50 6.39992 49.8 6.69992 49.3C7.09992 48.7 6.8999 47.9999 6.2999 47.5999C5.6999 47.2999 4.99991 47.4 4.59991 48C4.29991 48.6 4.39991 49.3 4.99991 49.7C5.19991 49.8 5.2999 49.8 5.2999 49.8ZM13.0999 35.7C13.6999 35.9 14.2999 35.6999 14.5999 35.0999C14.8999 34.4999 14.5999 33.8 13.9999 33.5C13.3999 33.2 12.6999 33.4999 12.3999 34.0999C12.1999 34.6999 12.3999 35.4 13.0999 35.7C12.9999 35.7 13.0999 35.7 13.0999 35.7ZM18.7999 20.7C19.4999 20.9 20.1999 20.5 20.3999 19.9C20.5999 19.3 20.1999 18.6 19.5999 18.4C18.9999 18.2 18.2999 18.6 18.0999 19.2C17.8999 19.9 18.1999 20.5 18.7999 20.7ZM76.7999 149C77.1999 149.1 77.6999 149.1 77.9999 148.8C78.4999 148.4 78.5999 147.6 78.0999 147.1C77.6999 146.6 76.8999 146.5 76.3999 147C75.8999 147.4 75.7999 148.2 76.2999 148.7C76.3999 148.8 76.5999 149 76.7999 149ZM89.2999 139C89.6999 139.1 90.0999 139.1 90.3999 138.8C90.8999 138.4 90.9999 137.6 90.5999 137.1C90.1999 136.6 89.3999 136.5 88.8999 136.9C88.3999 137.3 88.2999 138.1 88.6999 138.6C88.8999 138.8 89.0999 138.9 89.2999 139ZM109.3 114.2C109.8 114.4 110.3 114.2 110.7 113.8C111.1 113.3 111 112.5 110.5 112.1C110 111.7 109.2 111.8 108.8 112.3C108.4 112.8 108.5 113.6 109 114C109.1 114.1 109.2 114.1 109.3 114.2ZM119.2 101.5C119.7 101.7 120.2 101.5 120.6 101.1C121 100.6 120.9 99.8 120.4 99.4C119.9 99 119.1 99.0999 118.7 99.5999C118.3 100.1 118.4 100.9 118.9 101.3C119 101.4 119.1 101.4 119.2 101.5ZM129.3 89C129.8 89.2 130.3 88.9999 130.6 88.5999C131 88.0999 130.9 87.3 130.4 86.9C129.9 86.5 129.1 86.5999 128.7 87.0999C128.3 87.5999 128.4 88.4 128.9 88.8C129.1 88.9 129.2 88.9 129.3 89ZM64.0999 142.7C64.4999 142.9 65.0999 142.8 65.3999 142.4C65.8999 141.9 65.7999 141.2 65.3999 140.7C64.8999 140.2 64.1999 140.3 63.6999 140.7C63.1999 141.2 63.2999 141.9 63.6999 142.4C63.8999 142.5 63.9999 142.6 64.0999 142.7ZM75.5999 131.5C75.9999 131.7 76.4999 131.6 76.7999 131.3C77.2999 130.9 77.2999 130.1 76.8999 129.6C76.4999 129.1 75.6999 129.1 75.1999 129.5C74.6999 129.9 74.6999 130.7 75.0999 131.2C75.2999 131.3 75.4999 131.4 75.5999 131.5ZM85.4999 119C85.9999 119.2 86.6999 119 86.9999 118.5C87.2999 117.9 87.0999 117.2 86.5999 116.9C85.9999 116.6 85.2999 116.8 84.9999 117.3C84.6999 117.9 84.8999 118.6 85.3999 118.9C85.2999 119 85.3999 119 85.4999 119ZM94.0999 105.5C94.5999 105.7 95.1999 105.5 95.4999 105.1C95.8999 104.6 95.6999 103.8 95.1999 103.4C94.6999 103 93.8999 103.2 93.4999 103.7C93.0999 104.2 93.2999 105 93.7999 105.4C93.8999 105.4 93.9999 105.4 94.0999 105.5ZM103.6 92.5C104.1 92.7 104.6 92.4999 105 92.0999C105.4 91.5999 105.3 90.8 104.8 90.4C104.3 90 103.5 90.0999 103.1 90.5999C102.7 91.0999 102.8 91.9 103.3 92.3C103.4 92.4 103.5 92.5 103.6 92.5ZM113.7 79.9C114.2 80.1 114.7 79.9 115 79.5C115.4 79 115.3 78.2 114.8 77.8C114.3 77.4 113.5 77.5 113.1 78C112.7 78.5 112.7 79.3 113.3 79.7C113.4 79.8 113.6 79.9 113.7 79.9ZM124 67.5999C124.5 67.7999 125 67.6 125.3 67.2C125.7 66.7 125.7 65.9 125.2 65.5C124.7 65.1 123.9 65.0999 123.5 65.5999C123.1 66.0999 123.1 66.9 123.6 67.3C123.7 67.5 123.9 67.4999 124 67.5999ZM134.3 55.3C134.8 55.5 135.3 55.3 135.6 54.9C136 54.4 136 53.6 135.5 53.2C135 52.8 134.2 52.8 133.8 53.4C133.4 53.9 133.4 54.6999 133.9 55.0999C134.1 55.1999 134.2 55.2 134.3 55.3ZM144.5 42.8C145 43 145.5 42.8 145.9 42.4C146.3 41.9 146.2 41.1 145.7 40.7C145.2 40.3 144.4 40.4 144 40.9C143.6 41.4 143.7 42.1999 144.2 42.5999C144.3 42.6999 144.4 42.8 144.5 42.8ZM70.3999 111.9C70.9999 112.1 71.5999 111.9 71.8999 111.3C72.1999 110.7 71.8999 110 71.2999 109.7C70.6999 109.4 69.9999 109.7 69.6999 110.3C69.3999 110.9 69.6999 111.6 70.2999 111.9C70.3999 111.9 70.3999 111.9 70.3999 111.9ZM78.2999 97.9C78.7999 98.1 79.3999 97.9 79.6999 97.4C80.0999 96.8 79.8999 96.1 79.2999 95.7C78.6999 95.3 77.9999 95.4999 77.5999 96.0999C77.2999 96.6999 77.3999 97.4 77.9999 97.8C78.0999 97.8 78.1999 97.8 78.2999 97.9ZM87.2999 84.5999C87.7999 84.7999 88.3999 84.6 88.6999 84.2C89.0999 83.7 88.9999 82.9 88.3999 82.5C87.8999 82.1 87.0999 82.2 86.6999 82.8C86.2999 83.3 86.3999 84.1 86.9999 84.5C87.0999 84.5 87.1999 84.4999 87.2999 84.5999ZM97.1999 71.9C97.6999 72.1 98.1999 71.9 98.5999 71.5C98.9999 71 98.8999 70.2 98.3999 69.8C97.8999 69.4 97.0999 69.5 96.6999 70C96.2999 70.5 96.3999 71.3 96.8999 71.7C96.9999 71.8 97.0999 71.8 97.1999 71.9ZM107.5 59.5C108 59.7 108.5 59.5 108.8 59.2C109.2 58.7 109.2 57.9 108.7 57.5C108.2 57.1 107.4 57.0999 107 57.5999C106.6 58.0999 106.6 58.9 107.1 59.3C107.3 59.4 107.4 59.5 107.5 59.5ZM118.1 47.4C118.5 47.6 119.1 47.4999 119.4 47.0999C119.8 46.5999 119.8 45.8 119.3 45.4C118.8 45 118 45 117.6 45.5C117.2 46 117.2 46.8 117.7 47.2C117.9 47.3 118 47.4 118.1 47.4ZM128.8 35.4C129.3 35.6 129.8 35.3999 130.1 35.0999C130.5 34.5999 130.5 33.8 130 33.4C129.5 33 128.7 33 128.3 33.5C127.9 34 127.9 34.8 128.4 35.2C128.5 35.3 128.6 35.3 128.8 35.4ZM61.9999 91.5C62.4999 91.7 63.1999 91.5 63.4999 90.9C63.7999 90.3 63.5999 89.6 62.9999 89.3C62.3999 89 61.6999 89.2 61.3999 89.8C61.0999 90.4 61.2999 91.1 61.8999 91.4C61.8999 91.4 61.8999 91.5 61.9999 91.5ZM70.3999 77.8C70.8999 78 71.4999 77.8 71.7999 77.3C72.1999 76.7 71.9999 75.9999 71.4999 75.5999C70.8999 75.1999 70.1999 75.4 69.7999 75.9C69.3999 76.4 69.5999 77.1999 70.0999 77.5999C70.1999 77.6999 70.2999 77.7 70.3999 77.8ZM79.8999 64.8C80.3999 65 80.8999 64.8 81.2999 64.4C81.6999 63.9 81.5999 63.1 81.0999 62.7C80.5999 62.3 79.7999 62.4 79.3999 62.9C78.9999 63.4 79.0999 64.1999 79.5999 64.5999C79.6999 64.6999 79.7999 64.7 79.8999 64.8ZM90.0999 52.4C90.5999 52.6 91.0999 52.3999 91.3999 52.0999C91.7999 51.5999 91.7999 50.8 91.2999 50.4C90.7999 50 89.9999 50 89.5999 50.5C89.1999 51 89.1999 51.8 89.6999 52.2C89.8999 52.3 89.9999 52.3 90.0999 52.4ZM100.8 40.4C101.2 40.6 101.8 40.4999 102.1 40.0999C102.5 39.5999 102.5 38.8 102 38.4C101.5 38 100.7 38 100.3 38.5C99.8999 39 99.8999 39.8 100.4 40.2C100.5 40.2 100.7 40.3 100.8 40.4ZM111.7 28.5999C112.1 28.7999 112.7 28.7 113 28.3C113.5 27.8 113.4 26.9999 113 26.5999C112.5 26.0999 111.8 26.2 111.3 26.7C110.8 27.2 110.9 27.9 111.3 28.4C111.5 28.4 111.6 28.4999 111.7 28.5999ZM52.8999 72.2C53.3999 72.4 53.9999 72.2 54.3999 71.7C54.6999 71.1 54.5999 70.4 53.9999 70C53.3999 69.7 52.6999 69.8 52.3999 70.4C52.0999 71 52.1999 71.6999 52.7999 72.0999C52.7999 72.0999 52.7999 72.2 52.8999 72.2ZM61.8999 58.8C62.3999 59 62.9999 58.8 63.2999 58.4C63.6999 57.9 63.5999 57.1 62.9999 56.7C62.4999 56.3 61.6999 56.4 61.2999 57C60.8999 57.5 60.9999 58.3 61.5999 58.7C61.6999 58.8 61.7999 58.8 61.8999 58.8ZM71.7999 46.2C72.2999 46.4 72.7999 46.2 73.0999 45.8C73.4999 45.3 73.4999 44.4999 72.9999 44.0999C72.4999 43.6999 71.6999 43.7 71.2999 44.2C70.8999 44.7 70.8999 45.5 71.3999 45.9C71.5999 46.1 71.6999 46.2 71.7999 46.2ZM82.3999 34.0999C82.7999 34.2999 83.3999 34.1 83.6999 33.8C84.1999 33.3 84.0999 32.4999 83.5999 32.0999C83.0999 31.5999 82.3999 31.7 81.8999 32.2C81.3999 32.7 81.4999 33.5 81.9999 33.9C82.0999 34 82.2999 34.0999 82.3999 34.0999ZM93.4999 22.4C93.8999 22.6 94.3999 22.4999 94.7999 22.0999C95.2999 21.5999 95.2999 20.9 94.7999 20.4C94.2999 19.9 93.5999 19.9 93.0999 20.4C92.5999 20.9 92.5999 21.5999 93.0999 22.0999C93.1999 22.2999 93.2999 22.4 93.4999 22.4ZM38.0999 68.9C38.5999 69.1 39.2999 68.9 39.5999 68.4C39.8999 67.8 39.6999 67.1 39.1999 66.8C38.5999 66.5 37.8999 66.7 37.5999 67.2C37.2999 67.8 37.4999 68.5 37.9999 68.9C37.9999 68.9 37.9999 68.9 38.0999 68.9ZM46.5999 55.2C47.0999 55.4 47.6999 55.2 47.9999 54.7C48.3999 54.1 48.1999 53.4 47.6999 53C47.0999 52.6 46.3999 52.8 45.9999 53.3C45.5999 53.9 45.7999 54.6 46.2999 55C46.3999 55.2 46.4999 55.2 46.5999 55.2ZM55.8999 42.0999C56.3999 42.2999 56.9999 42.1 57.2999 41.7C57.6999 41.2 57.5999 40.4 57.0999 40C56.5999 39.6 55.7999 39.7 55.3999 40.2C54.9999 40.7 55.0999 41.5 55.5999 41.9C55.6999 42 55.7999 42.0999 55.8999 42.0999ZM65.7999 29.5C66.2999 29.7 66.7999 29.4999 67.0999 29.0999C67.4999 28.5999 67.4999 27.8 66.8999 27.4C66.3999 27 65.5999 26.9999 65.1999 27.5999C64.7999 28.0999 64.7999 28.9 65.3999 29.3C65.5999 29.4 65.6999 29.4 65.7999 29.5ZM76.2999 17.3C76.7999 17.5 77.2999 17.4 77.5999 17C77.9999 16.5 77.9999 15.7 77.4999 15.3C76.9999 14.9 76.1999 14.9 75.7999 15.4C75.3999 15.9 75.3999 16.6999 75.8999 17.0999C75.9999 17.1999 76.1999 17.2 76.2999 17.3ZM27.4999 51.5999C27.9999 51.7999 28.5999 51.5999 28.8999 51.0999C29.1999 50.4999 28.9999 49.8 28.4999 49.4C27.8999 49.1 27.1999 49.3 26.8999 49.8C26.5999 50.4 26.6999 51.1 27.2999 51.4C27.3999 51.5 27.3999 51.5999 27.4999 51.5999ZM36.0999 38C36.5999 38.2 37.1999 37.9999 37.4999 37.5999C37.8999 37.0999 37.6999 36.3 37.1999 35.9C36.6999 35.5 35.8999 35.7 35.4999 36.2C35.0999 36.8 35.2999 37.5 35.7999 37.9C35.9999 38 36.0999 38 36.0999 38ZM45.6999 25.0999C46.1999 25.2999 46.6999 25.1 47.0999 24.7C47.4999 24.2 47.3999 23.4 46.8999 23C46.3999 22.6 45.5999 22.7 45.1999 23.2C44.7999 23.7 44.8999 24.5 45.3999 24.9C45.4999 25 45.5999 25.0999 45.6999 25.0999ZM56.0999 12.8C56.5999 13 57.0999 12.8 57.3999 12.5C57.7999 12 57.7999 11.2 57.2999 10.8C56.7999 10.4 55.9999 10.4 55.5999 10.9C55.1999 11.4 55.1999 12.1999 55.6999 12.5999C55.7999 12.6999 55.8999 12.8 56.0999 12.8ZM8.3999 49.3C8.9999 49.5 9.5999 49.3 9.8999 48.7C10.1999 48.1 9.8999 47.3999 9.2999 47.0999C8.6999 46.7999 7.99992 47.1 7.69992 47.7C7.39992 48.3 7.6999 49 8.2999 49.3C8.2999 49.3 8.2999 49.3 8.3999 49.3ZM16.0999 35.2C16.5999 35.4 17.1999 35.2 17.4999 34.7C17.7999 34.1 17.6999 33.3999 17.0999 33.0999C16.4999 32.7999 15.7999 32.9 15.3999 33.5C15.0999 34.1 15.1999 34.8 15.7999 35.2C15.8999 35.1 15.9999 35.2 16.0999 35.2ZM24.9999 21.8C25.4999 22 26.0999 21.8 26.3999 21.4C26.7999 20.9 26.6999 20.1 26.0999 19.7C25.5999 19.3 24.7999 19.4 24.3999 20C23.9999 20.5 24.0999 21.3 24.6999 21.7C24.7999 21.7 24.8999 21.8 24.9999 21.8ZM34.8999 9.19998C35.3999 9.39998 35.8999 9.19996 36.1999 8.79996C36.5999 8.29996 36.5999 7.49994 36.0999 7.09994C35.5999 6.69994 34.7999 6.69998 34.3999 7.19998C33.9999 7.69998 33.9999 8.49999 34.4999 8.89999C34.6999 8.99999 34.7999 9.09998 34.8999 9.19998ZM3.2999 55.5999C3.3999 55.5999 3.59992 55.7 3.69992 55.7C4.19992 55.7 4.49991 55.2 4.49991 54.7C4.49991 54.2 3.99991 53.9 3.49991 53.9C2.99991 53.9 2.69992 54.4 2.69992 54.9C2.69992 55.2 2.9999 55.3999 3.2999 55.5999ZM1.49991 39.5999C1.59991 39.5999 1.7999 39.6999 1.8999 39.5999C2.3999 39.4999 2.69992 39.0999 2.69992 38.5999C2.59992 38.0999 2.19992 37.8 1.69992 37.8C1.19992 37.9 0.899902 38.3 0.899902 38.8C0.899902 39.2 1.19991 39.4999 1.49991 39.5999ZM10.4999 46.0999C10.5999 46.0999 10.6999 46.1999 10.8999 46.0999C11.3999 46.0999 11.6999 45.6 11.6999 45.2C11.6999 44.7 11.2999 44.4 10.7999 44.4C10.2999 44.4 9.99991 44.9 9.99991 45.3C9.99991 45.7 10.1999 45.9999 10.4999 46.0999ZM18.7999 49.2C18.8999 49.2 18.9999 49.2 19.0999 49.2C19.4999 49.2 19.8999 48.8 19.8999 48.4C19.8999 48 19.4999 47.5999 19.0999 47.5999C18.6999 47.5999 18.2999 48 18.2999 48.4C18.2999 48.8 18.4999 49.1 18.7999 49.2ZM17.6999 33.0999C17.7999 33.0999 17.8999 33.1999 18.0999 33.0999C18.4999 33.0999 18.8999 32.7 18.7999 32.2C18.6999 31.8 18.3999 31.4 17.8999 31.5C17.4999 31.5 17.0999 31.9 17.1999 32.4C17.1999 32.8 17.3999 32.9999 17.6999 33.0999ZM15.6999 17.2C15.7999 17.2 15.9999 17.3 16.0999 17.2C16.4999 17.1 16.7999 16.7 16.7999 16.3C16.6999 15.9 16.2999 15.5999 15.8999 15.5999C15.4999 15.6999 15.1999 16.1 15.1999 16.5C15.1999 16.9 15.3999 17.1 15.6999 17.2ZM26.6999 49C26.7999 49 26.8999 49 26.9999 49C27.3999 49 27.7999 48.7 27.7999 48.2C27.7999 47.8 27.4999 47.4 26.9999 47.4C26.5999 47.4 26.1999 47.7 26.1999 48.2C26.1999 48.6 26.3999 48.9 26.6999 49ZM25.9999 32.9C26.0999 32.9 26.1999 33 26.2999 32.9C26.6999 32.9 26.9999 32.4999 26.9999 32.0999C26.9999 31.6999 26.5999 31.4 26.1999 31.4C25.7999 31.4 25.4999 31.8 25.4999 32.2C25.5999 32.6 25.7999 32.8 25.9999 32.9ZM24.1999 17C24.2999 17 24.3999 17.1 24.5999 17C24.9999 16.9 25.2999 16.4999 25.1999 16.0999C25.0999 15.6999 24.7999 15.4 24.2999 15.5C23.8999 15.6 23.5999 15.9 23.6999 16.4C23.7999 16.6 23.9999 16.9 24.1999 17ZM33.3999 60.9C33.4999 60.9 33.4999 60.9 33.4999 60.9C33.8999 61 34.2999 60.7 34.2999 60.3C34.3999 59.9 34.0999 59.5 33.6999 59.5C33.2999 59.4 32.9999 59.6999 32.8999 60.0999C32.8999 60.4999 33.0999 60.8 33.3999 60.9ZM34.5999 44.9C34.6999 44.9 34.7999 44.9 34.7999 44.9C35.1999 44.9 35.4999 44.6 35.4999 44.2C35.4999 43.8 35.1999 43.5 34.7999 43.5C34.3999 43.5 34.0999 43.8 34.0999 44.2C34.1999 44.5 34.2999 44.8 34.5999 44.9ZM34.0999 28.8C34.1999 28.8 34.2999 28.8 34.3999 28.8C34.7999 28.8 35.0999 28.4 35.0999 28C35.0999 27.6 34.6999 27.3 34.2999 27.3C33.8999 27.3 33.5999 27.6999 33.5999 28.0999C33.6999 28.4999 33.7999 28.7 34.0999 28.8ZM32.1999 12.9C32.2999 12.9 32.3999 13 32.5999 12.9C32.9999 12.8 33.2999 12.4999 33.1999 12.0999C33.0999 11.6999 32.7999 11.4 32.3999 11.5C31.9999 11.6 31.6999 11.9 31.7999 12.3C31.7999 12.6 31.9999 12.8 32.1999 12.9ZM41.3999 55.2H41.4999C41.8999 55.2 42.1999 54.9999 42.2999 54.5999C42.3999 54.1999 42.0999 53.9 41.6999 53.8C41.2999 53.7 40.9999 54 40.8999 54.4C40.9999 54.8 41.0999 55.1 41.3999 55.2ZM42.5999 39.0999C42.6999 39.0999 42.6999 39.0999 42.7999 39.0999C43.1999 39.0999 43.4999 38.8 43.4999 38.4C43.4999 38 43.1999 37.7 42.7999 37.7C42.3999 37.7 42.0999 38 42.0999 38.4C42.1999 38.8 42.3999 38.9999 42.5999 39.0999ZM41.9999 23.0999C42.0999 23.0999 42.1999 23.0999 42.2999 23.0999C42.6999 23.0999 42.8999 22.7 42.8999 22.4C42.8999 22 42.4999 21.8 42.1999 21.8C41.7999 21.8 41.5999 22.2 41.5999 22.5C41.5999 22.8 41.7999 22.9999 41.9999 23.0999ZM39.8999 7.09994C39.9999 7.09994 40.0999 7.19994 40.2999 7.09994C40.6999 6.99994 40.8999 6.69996 40.7999 6.29996C40.6999 5.89996 40.3999 5.69996 39.9999 5.79996C39.5999 5.89996 39.3999 6.19994 39.4999 6.59994C39.4999 6.89994 39.5999 7.09994 39.8999 7.09994ZM46.6999 62.8C47.0999 62.9 47.3999 62.7 47.4999 62.4C47.5999 62.1 47.3999 61.6999 47.0999 61.5999C46.7999 61.4999 46.3999 61.7 46.2999 62C46.1999 62.3 46.3999 62.6 46.6999 62.8ZM49.8999 47H49.9999C50.2999 47 50.6999 46.8 50.6999 46.4C50.6999 46.1 50.4999 45.7 50.1999 45.7C49.8999 45.7 49.4999 45.9 49.4999 46.3C49.4999 46.6 49.5999 46.9 49.8999 47ZM50.6999 30.9C50.7999 30.9 50.7999 30.9 50.8999 30.9C51.1999 30.9 51.4999 30.6 51.4999 30.3C51.4999 30 51.1999 29.7 50.8999 29.7C50.5999 29.7 50.2999 30 50.2999 30.3C50.2999 30.6 50.4999 30.9 50.6999 30.9ZM49.6999 14.9C49.7999 14.9 49.8999 15 49.9999 14.9C50.2999 14.9 50.5999 14.5 50.4999 14.2C50.4999 13.9 50.0999 13.6 49.7999 13.7C49.4999 13.7 49.1999 14.1 49.2999 14.4C49.2999 14.6 49.4999 14.8 49.6999 14.9ZM50.9999 67.8C51.2999 67.9 51.5999 67.8 51.6999 67.5C51.7999 67.2 51.6999 66.9 51.3999 66.7C51.0999 66.6 50.7999 66.7 50.5999 67C50.4999 67.3 50.6999 67.7 50.9999 67.8ZM56.1999 52.7C56.1999 52.7 56.2999 52.7 56.1999 52.7C56.5999 52.8 56.8999 52.6 56.9999 52.3C57.0999 52 56.8999 51.6999 56.5999 51.5999C56.2999 51.4999 55.9999 51.7 55.8999 52C55.7999 52.3 55.8999 52.6 56.1999 52.7ZM58.4999 36.8C58.5999 36.8 58.5999 36.8 58.6999 36.8C58.9999 36.8 59.2999 36.6 59.2999 36.3C59.2999 36 59.0999 35.7 58.7999 35.7C58.4999 35.7 58.1999 35.9 58.1999 36.2C58.1999 36.4 58.2999 36.7 58.4999 36.8ZM58.5999 20.7C58.6999 20.7 58.7999 20.7 58.7999 20.7C59.0999 20.7 59.3999 20.3999 59.2999 20.0999C59.2999 19.7999 58.9999 19.4999 58.6999 19.5999C58.3999 19.5999 58.0999 19.9 58.1999 20.2C58.2999 20.4 58.3999 20.6 58.5999 20.7ZM54.8999 70.8C55.0999 70.9 55.3999 70.7999 55.4999 70.5999C55.6999 70.3999 55.5999 70 55.3999 69.9C55.1999 69.7 54.7999 69.8 54.6999 70C54.4999 70.2 54.5999 70.6 54.7999 70.7C54.7999 70.7 54.7999 70.8 54.8999 70.8ZM61.9999 56.4C62.2999 56.5 62.5999 56.3999 62.6999 56.0999C62.7999 55.7999 62.6999 55.5 62.3999 55.4C62.0999 55.3 61.7999 55.5 61.6999 55.7C61.5999 56 61.6999 56.3 61.9999 56.4ZM65.7999 40.8H65.8999C66.1999 40.8 66.4999 40.6 66.4999 40.3C66.4999 40 66.2999 39.7 66.0999 39.7C65.7999 39.7 65.4999 39.9 65.4999 40.2C65.3999 40.5 65.5999 40.7 65.7999 40.8ZM66.9999 24.8C67.0999 24.8 67.0999 24.8 67.1999 24.8C67.4999 24.8 67.6999 24.6 67.6999 24.3C67.6999 24 67.4999 23.8 67.1999 23.8C66.8999 23.8 66.6999 24 66.6999 24.3C66.5999 24.5 66.7999 24.7 66.9999 24.8ZM65.9999 8.69998C66.0999 8.69998 66.1999 8.69998 66.2999 8.69998C66.5999 8.69998 66.7999 8.39994 66.7999 8.09994C66.7999 7.79994 66.4999 7.59994 66.1999 7.59994C65.8999 7.59994 65.6999 7.89998 65.6999 8.19998C65.6999 8.49998 65.7999 8.59998 65.9999 8.69998ZM58.9999 71.9C59.1999 72 59.3999 71.9 59.4999 71.8C59.6999 71.6 59.6999 71.2999 59.4999 71.0999C59.2999 70.8999 58.9999 70.8999 58.7999 71.0999C58.5999 71.2999 58.5999 71.6 58.7999 71.8C58.8999 71.8 58.9999 71.8 58.9999 71.9ZM67.6999 58.4C67.8999 58.5 68.1999 58.3999 68.2999 58.0999C68.3999 57.7999 68.2999 57.6 68.0999 57.5C67.8999 57.4 67.5999 57.5 67.3999 57.7C67.2999 57.9 67.3999 58.2 67.6999 58.4C67.5999 58.3 67.5999 58.3 67.6999 58.4ZM72.6999 43.0999C72.7999 43.0999 72.7999 43.0999 72.6999 43.0999C72.9999 43.1999 73.2999 43 73.3999 42.7C73.4999 42.4 73.2999 42.1999 72.9999 42.0999C72.6999 41.9999 72.4999 42.2 72.3999 42.5C72.3999 42.8 72.4999 42.9999 72.6999 43.0999ZM74.9999 27.2H75.0999C75.3999 27.2 75.5999 27 75.5999 26.7C75.5999 26.4 75.3999 26.2 75.0999 26.2C74.7999 26.2 74.5999 26.4 74.5999 26.7C74.5999 26.9 74.7999 27.1 74.9999 27.2ZM74.7999 11.0999C74.8999 11.0999 74.8999 11.0999 74.9999 11.0999C75.2999 11.0999 75.4999 10.7999 75.3999 10.5999C75.3999 10.2999 75.0999 10.1 74.8999 10.2C74.5999 10.2 74.3999 10.5 74.3999 10.7C74.4999 10.9 74.5999 11.0999 74.7999 11.0999ZM63.7999 71.5C63.9999 71.6 64.0999 71.5 64.2999 71.4C64.4999 71.2 64.4999 70.9 64.2999 70.8C64.0999 70.6 63.7999 70.6 63.6999 70.8C63.4999 71 63.4999 71.2 63.6999 71.4C63.6999 71.5 63.6999 71.5 63.7999 71.5ZM73.5999 58.8C73.7999 58.9 73.9999 58.7999 74.0999 58.5999C74.1999 58.3999 74.0999 58.1 73.8999 58C73.6999 57.9 73.3999 58 73.2999 58.2C73.1999 58.4 73.2999 58.7 73.5999 58.8C73.4999 58.8 73.4999 58.8 73.5999 58.8ZM79.6999 44C79.9999 44.1 80.1999 43.9 80.2999 43.7C80.3999 43.5 80.1999 43.2 79.9999 43.2C79.7999 43.1 79.4999 43.3 79.4999 43.5C79.3999 43.7 79.4999 43.9 79.6999 44ZM82.7999 28.2H82.8999C83.0999 28.2 83.3999 28.1 83.3999 27.8C83.3999 27.6 83.1999 27.3 82.9999 27.3C82.7999 27.3 82.4999 27.5 82.4999 27.7C82.4999 28 82.5999 28.1 82.7999 28.2ZM55.3999 78.2C55.4999 78.2 55.5999 78.2 55.6999 78.2C55.8999 78.1 55.9999 77.9 55.9999 77.7C55.8999 77.5 55.6999 77.4 55.4999 77.5C55.2999 77.6 55.1999 77.8 55.2999 78C55.1999 78.1 55.2999 78.2 55.3999 78.2ZM69.1999 70.3C69.2999 70.4 69.4999 70.3 69.5999 70.2C69.7999 70.1 69.7999 69.7999 69.5999 69.5999C69.4999 69.3999 69.1999 69.4 68.9999 69.5C68.7999 69.6 68.7999 69.8999 68.8999 70.0999C69.0999 70.1999 69.1999 70.3 69.1999 70.3ZM79.7999 58.2C79.9999 58.3 80.1999 58.2 80.2999 58C80.3999 57.8 80.3999 57.6 80.1999 57.4C79.9999 57.3 79.7999 57.3 79.5999 57.5C79.4999 57.8 79.4999 58.1 79.7999 58.2C79.6999 58.2 79.7999 58.2 79.7999 58.2ZM86.7999 43.8C86.9999 43.9 87.1999 43.7999 87.2999 43.5999C87.3999 43.3999 87.2999 43.1999 87.0999 43.0999C86.8999 42.9999 86.6999 43.1 86.5999 43.3C86.3999 43.5 86.5999 43.7 86.7999 43.8ZM90.0999 33.5999C90.0999 33.5999 90.1999 33.5999 90.0999 33.5999C90.3999 33.6999 90.5999 33.5 90.5999 33.3C90.5999 33.1 90.4999 32.9 90.2999 32.8C90.0999 32.8 89.8999 32.8999 89.7999 33.0999C89.7999 33.2999 89.9999 33.4999 90.0999 33.5999Z" fill="#00FFFF"/>
</svg>
