<svg width="15" height="12" viewBox="0 0 15 12" fill="none" xmlns="http://www.w3.org/2000/svg">
<path d="M6.39989 9.79995C6.19989 9.59995 6.29984 9.19997 6.59984 9.09997C6.79984 8.89997 7.19985 8.99995 7.29985 9.29995C7.49985 9.49995 7.39984 9.89997 7.09984 9.99997C6.99984 10.1 6.89985 10.1 6.79985 10.1C6.59985 9.99997 6.49989 9.99995 6.39989 9.79995ZM7.79985 5.19998C7.89985 5.19998 8.09988 5.19997 8.19988 5.09997C8.79988 4.89997 9.19987 4.19997 8.99987 3.59997C8.79987 2.99997 8.09987 2.59995 7.49987 2.79995C6.89987 2.99995 6.49988 3.69995 6.69988 4.29995C6.79988 4.89995 7.29985 5.19998 7.79985 5.19998ZM8.19988 5.29995C8.29988 5.29995 8.49984 5.29998 8.59984 5.19998C9.19984 4.99998 9.59985 4.29998 9.29985 3.69998C9.09985 3.09998 8.39985 2.79997 7.79985 2.99997C7.19985 3.19997 6.79984 3.89997 7.09984 4.49997C7.19984 4.99997 7.69988 5.29995 8.19988 5.29995ZM9.09984 6.89996C9.19984 6.89996 9.39987 6.89995 9.49987 6.79995C10.0999 6.59995 10.3999 5.89998 10.1999 5.19998C9.99988 4.59998 9.29984 4.29997 8.59984 4.49997C7.99984 4.69997 7.69989 5.39997 7.89989 6.09997C8.09989 6.59997 8.59984 6.89996 9.09984 6.89996ZM10.4999 9.99997C10.6999 9.99997 10.7999 9.99996 10.9999 9.89996C11.5999 9.69996 11.8998 8.89995 11.5998 8.29995C11.3998 7.69995 10.5999 7.39997 9.99987 7.59997C9.39987 7.89997 9.09989 8.59998 9.39989 9.19998C9.59989 9.69998 9.99987 9.99997 10.4999 9.99997ZM8.49987 6.29995C8.59987 6.29995 8.79989 6.29998 8.89989 6.19998C9.49989 5.99998 9.79984 5.29997 9.59984 4.59997C9.39984 3.99997 8.69987 3.69996 7.99987 3.89996C7.39987 4.09996 7.09985 4.79997 7.29985 5.49997C7.59985 5.99997 7.99987 6.29995 8.49987 6.29995ZM8.09984 10.8C8.19984 10.8 8.39987 10.8 8.49987 10.7C9.09987 10.5 9.39988 9.79997 9.19988 9.09997C8.99988 8.49997 8.29988 8.19996 7.69988 8.39996C7.09988 8.59996 6.79987 9.29997 6.99987 9.99997C7.19987 10.5 7.59984 10.8 8.09984 10.8ZM4.99987 8.69998C5.09987 8.69998 5.19989 8.69998 5.39989 8.69998C5.99989 8.49998 6.39988 7.79998 6.19988 7.19998C5.99988 6.59998 5.29988 6.19996 4.69988 6.39996C4.09988 6.59996 3.69989 7.29996 3.89989 7.89996C3.99989 8.39996 4.49987 8.69998 4.99987 8.69998ZM1.59984 8.89996C1.69984 8.89996 1.79989 8.89996 1.89989 8.89996C2.49989 8.79996 2.99985 8.09997 2.79985 7.49997C2.69985 6.79997 1.99989 6.39997 1.39989 6.59997C0.799891 6.69997 0.299867 7.39997 0.499867 7.99997C0.499867 8.49997 0.999842 8.89996 1.59984 8.89996ZM8.19988 11.5C8.39988 11.6 8.69985 11.5 8.79985 11.3C8.89985 11.1 8.89984 10.8 8.59984 10.6C8.39984 10.5 8.09989 10.5 7.89989 10.8C7.79989 11 7.89988 11.3 8.19988 11.5ZM11.2999 10.6C11.5999 10.7 11.8999 10.6 11.9999 10.3C12.0999 9.99995 11.9999 9.69997 11.6999 9.49997C11.3999 9.39997 11.0999 9.49995 10.8999 9.79995C10.7999 10.1 10.9999 10.4 11.2999 10.6ZM13.2999 8.59997C13.2999 8.59997 13.3999 8.59997 13.2999 8.59997C13.7999 8.69997 14.0999 8.49997 14.1999 8.09997C14.2999 7.69997 13.9999 7.39995 13.6999 7.29995C13.2999 7.19995 12.9999 7.49995 12.8999 7.79995C12.7999 8.19995 12.9999 8.49997 13.2999 8.59997ZM13.5998 5.69998C13.6998 5.69998 13.7999 5.69998 13.7999 5.69998C14.1999 5.69998 14.5998 5.39997 14.5998 4.99997C14.5998 4.59997 14.2999 4.19998 13.8999 4.19998C13.4999 4.19998 13.0998 4.49996 13.0998 4.89996C13.0998 5.29996 13.2998 5.59998 13.5998 5.69998ZM11.9999 2.29995C12.0999 2.29995 12.2999 2.39995 12.3999 2.29995C12.8999 2.19995 13.1998 1.79995 13.0998 1.29995C12.9998 0.799953 12.5998 0.499972 12.0998 0.599972C11.5998 0.699972 11.2999 1.09997 11.3999 1.59997C11.4999 1.89997 11.6999 2.19995 11.9999 2.29995ZM8.89989 10.4C9.09989 10.5 9.29987 10.5 9.49987 10.4C9.99987 10.2 10.3999 9.69997 10.1999 9.09997C10.0999 8.49997 9.49987 8.19996 8.99987 8.39996C8.39987 8.49996 8.09985 9.09998 8.29985 9.69998C8.39985 9.99998 8.59989 10.3 8.89989 10.4ZM4.29985 6.49997C4.59985 6.59997 4.89984 6.59997 5.09984 6.49997C5.69984 6.29997 5.89988 5.59997 5.69988 4.99997C5.49988 4.39997 4.79988 4.19996 4.19988 4.39996C3.59988 4.59996 3.39984 5.29996 3.59984 5.89996C3.79984 6.19996 3.99985 6.39997 4.29985 6.49997Z" fill="#00FFFF"/>
</svg>
