<svg width="26" height="34" viewBox="0 0 26 34" fill="none" xmlns="http://www.w3.org/2000/svg">
<path d="M9.6 16C9.4 15.8 9.4 15.4 9.6 15.2C9.8 15 10.2 15 10.4 15.2C10.6 15.4 10.6 15.8 10.4 16C10.3 16.1 10.2 16.1 10 16.1C9.80002 16.1 9.7 16.1 9.6 16ZM9.80001 31.1C10.4 31.1 10.8 30.7 10.9 30.1C11 29.5 10.5 28.9 9.90005 28.9C9.30005 28.8 8.70004 29.3 8.70004 29.9C8.60004 30.5 9.10003 31.1 9.70004 31.1C9.70004 31.1 9.70001 31.1 9.80001 31.1ZM10.4 15.1C11.1 15.1 11.5 14.5 11.5 13.9C11.5 13.3 10.9 12.8 10.3 12.8C9.70001 12.8 9.20004 13.4 9.20004 14C9.30004 14.6 9.80005 15.1 10.4 15.1ZM21.3 3.39997C21.5 3.49997 21.8 3.49997 22 3.49997C22.7 3.39997 23.2 2.59997 23.1 1.89997C23 1.09997 22.3 0.59996 21.5 0.79996C20.7 0.89996 20.3 1.69997 20.4 2.39997C20.5 2.79997 20.8 3.19997 21.3 3.39997ZM14.9 13.3C15.2 13.4 15.5 13.4 15.8 13.3C16.6 13.1 17 12.3 16.8 11.5C16.6 10.7 15.8 10.3 15 10.5C14.2 10.7 13.8 11.5 14 12.3C14.1 12.8 14.4 13.1 14.9 13.3ZM6.90005 10.1C7.20005 10.2 7.50005 10.2 7.90005 10.1C8.70005 9.89998 9.20002 8.99998 9.00002 8.19998C8.80002 7.39998 7.9 6.89998 7.1 7.09998C6.3 7.29998 5.80002 8.19997 6.00002 8.99997C6.10002 9.59997 6.40005 9.89998 6.90005 10.1ZM4.00002 33.1C4.40002 33.3 4.90001 33.3 5.30001 33.1C6.20001 32.7 6.60004 31.7 6.20004 30.8C5.80003 29.9 4.80005 29.5 3.90005 29.9C3.00005 30.3 2.60002 31.3 3.00002 32.2C3.20002 32.7 3.50002 33 4.00002 33.1ZM17.9 8.09998C18.4 8.29998 18.9 8.29997 19.4 7.99997C20.4 7.49997 20.7 6.39997 20.3 5.39997C19.8 4.49997 18.7 4.09997 17.7 4.49997C16.8 4.99997 16.4 6.09998 16.8 7.09998C17.1 7.59998 17.5 7.89998 17.9 8.09998ZM3.00002 20.7C3.50002 20.9 4.1 20.9 4.6 20.6C5.6 20.1 5.90002 18.9 5.50002 18C5.00002 17 3.80005 16.7 2.90005 17.2C1.90005 17.7 1.60002 18.9 2.00002 19.8C2.10002 20.2 2.50002 20.5 3.00002 20.7ZM9.1 26.2C9.5 26.4 10 26.4 10.5 26.2C11.5 25.8 11.9 24.7 11.5 23.7C11.1 22.7 10 22.3 9.1 22.7C8.1 23.1 7.7 24.2 8.1 25.2C8.3 25.6 8.7 26 9.1 26.2ZM11.2 9.49997C11.5 9.59997 11.8 9.59998 12.1 9.59998C13.1 9.39998 13.7 8.49997 13.5 7.49997C13.3 6.49997 12.4 5.89998 11.4 6.09998C10.4 6.29998 9.80002 7.19998 10 8.19998C10.1 8.79998 10.6 9.29997 11.2 9.49997ZM1.80001 12.3C2.00001 12.4 2.3 12.4 2.6 12.4C3.6 12.3 4.2 11.4 4.1 10.5C4 9.49997 3.20004 8.79997 2.20004 8.99997C1.20004 9.09997 0.600035 9.99997 0.700035 10.9C0.700035 11.5 1.20001 12.1 1.80001 12.3ZM15.8 28.4C16 28.5 16.1 28.5 16.3 28.5C17.2 28.5 18 27.8 18 26.9C18 26 17.3 25.2 16.4 25.2C15.5 25.2 14.7 25.9 14.7 26.8C14.7 27.6 15.2 28.2 15.8 28.4ZM13.1 5.49997C13.4 5.59997 13.8 5.59997 14.1 5.39997C14.7 5.09997 15 4.29998 14.7 3.69998C14.4 3.09998 13.6 2.79998 13 3.09998C12.4 3.39998 12.1 4.19996 12.4 4.79996C12.6 5.09996 12.8 5.39997 13.1 5.49997ZM23.8 14.8C24.1 14.9 24.4 14.9 24.7 14.7C25.2 14.4 25.4 13.7 25.1 13.2C24.8 12.7 24.1 12.5 23.6 12.8C23.1 13.1 22.9 13.8 23.2 14.3C23.4 14.6 23.6 14.8 23.8 14.8ZM11.3 19.1C11.9 19.1 12.4 18.7 12.5 18.1C12.6 17.4 12.2 16.8 11.6 16.7C11 16.6 10.3 17 10.2 17.6C10.1 18.3 10.5 18.9 11.1 19C11.2 19.1 11.3 19.1 11.3 19.1ZM19.3 31.4C19.6 31.5 19.9 31.5 20.2 31.4C21 31.2 21.4 30.4 21.2 29.6C21 28.8 20.2 28.4 19.4 28.6C18.6 28.8 18.2 29.6 18.4 30.4C18.6 30.9 18.9 31.3 19.3 31.4Z" fill="#00FFFF"/>
</svg>
