<svg width="57" height="60" viewBox="0 0 57 60" fill="none" xmlns="http://www.w3.org/2000/svg">
<path d="M47.6001 9.19995C47.4001 8.99995 47.5001 8.69993 47.7001 8.49993C47.9001 8.29993 48.2001 8.39994 48.4002 8.59994C48.6002 8.79994 48.5001 9.09992 48.3001 9.29992C48.2001 9.39992 48.1001 9.39993 48.0001 9.39993C47.8001 9.39993 47.7001 9.29995 47.6001 9.19995ZM46.7001 25.9999C46.8001 25.9999 46.9001 25.9999 47.0001 25.8999C47.2001 25.6999 47.2001 25.4999 47.1001 25.2999C46.9001 25.0999 46.7001 25.0999 46.5001 25.1999C46.3001 25.3999 46.3002 25.5999 46.4002 25.7999C46.4002 25.9999 46.6001 25.9999 46.7001 25.9999ZM36.7001 13.3999C36.8001 13.3999 36.9001 13.3999 37.0001 13.2999C37.2001 13.0999 37.2001 12.8999 37.1001 12.6999C36.9001 12.4999 36.7001 12.4999 36.5001 12.5999C36.3001 12.7999 36.3002 12.9999 36.4002 13.1999C36.5001 13.3999 36.6001 13.3999 36.7001 13.3999ZM46.9002 40.6999C47.0001 40.6999 47.1001 40.6999 47.2001 40.5999C47.4001 40.3999 47.4001 40.1999 47.2001 39.9999C47.0001 39.7999 46.8001 39.7999 46.6001 39.9999C46.4001 40.1999 46.4001 40.3999 46.6001 40.5999C46.7001 40.5999 46.8002 40.6999 46.9002 40.6999ZM36.0001 28.7999C36.1001 28.7999 36.2001 28.7999 36.3001 28.6999C36.5001 28.5999 36.5001 28.2999 36.3001 28.0999C36.2001 27.8999 35.9001 27.8999 35.7001 28.0999C35.5001 28.1999 35.5001 28.4999 35.7001 28.6999C35.8001 28.7999 35.9001 28.7999 36.0001 28.7999ZM25.4001 16.7999C25.5001 16.7999 25.6001 16.7999 25.7001 16.6999C25.9001 16.4999 25.9001 16.2999 25.7001 16.0999C25.6001 15.8999 25.3001 15.8999 25.1001 16.0999C24.9001 16.1999 24.9001 16.4999 25.1001 16.6999C25.2001 16.6999 25.3001 16.7999 25.4001 16.7999ZM14.9001 4.59994C15.0001 4.59994 15.1001 4.59993 15.2001 4.49993C15.4001 4.39993 15.4001 4.09993 15.2001 3.89993C15.0001 3.69993 14.8001 3.69993 14.6001 3.89993C14.4001 3.99993 14.4001 4.29993 14.6001 4.49993C14.7001 4.59993 14.8001 4.59994 14.9001 4.59994ZM53.5001 5.19995C53.6001 5.19995 53.7001 5.19995 53.8001 5.19995C54.4001 4.99995 54.8001 4.39995 54.6001 3.69995C54.4001 3.09995 53.8001 2.69993 53.1001 2.89993C52.5001 3.09993 52.1001 3.69993 52.3001 4.39993C52.5001 4.79993 53.0001 5.19995 53.5001 5.19995ZM51.7001 53.6999C52.3001 53.6999 52.9002 53.1999 52.9002 52.5999C52.9002 51.8999 52.5001 51.3999 51.8001 51.2999C51.1001 51.2999 50.6001 51.7999 50.5001 52.3999C50.5001 53.0999 51.0001 53.6999 51.7001 53.6999ZM50.9002 21.5999H51.0001C51.7001 21.4999 52.1001 20.8999 52.1001 20.2999C52.0001 19.5999 51.4001 19.1999 50.8001 19.1999C50.1001 19.2999 49.7001 19.8999 49.7001 20.4999C49.8001 21.0999 50.3002 21.5999 50.9002 21.5999ZM48.6001 5.59994C48.7001 5.59994 48.7001 5.59994 48.8001 5.59994C49.4001 5.49994 49.9001 4.89995 49.8001 4.19995C49.7001 3.49995 49.1002 3.09995 48.4002 3.19995C47.7001 3.29995 47.3002 3.89994 47.4002 4.59994C47.6002 5.19994 48.1001 5.59994 48.6001 5.59994ZM38.9002 56.2999C39.5001 56.2999 40.0001 55.8999 40.1001 55.2999C40.2001 54.5999 39.8001 53.9999 39.2001 53.8999C38.5001 53.7999 37.9001 54.1999 37.8001 54.7999C37.7001 55.4999 38.1001 56.0999 38.7001 56.1999C38.7001 56.2999 38.8002 56.2999 38.9002 56.2999ZM41.4002 40.3999C42.0001 40.3999 42.5001 39.8999 42.6001 39.2999C42.7001 38.5999 42.2001 37.9999 41.5001 37.9999C40.8001 37.8999 40.2001 38.3999 40.2001 39.0999C40.1001 39.7999 40.6001 40.3999 41.3001 40.3999C41.4001 40.3999 41.4002 40.3999 41.4002 40.3999ZM42.5001 24.2999C43.1001 24.2999 43.7001 23.7999 43.7001 23.0999C43.7001 22.3999 43.2001 21.8999 42.5001 21.8999C41.8001 21.8999 41.3001 22.3999 41.3001 23.0999C41.3001 23.7999 41.8001 24.2999 42.5001 24.2999ZM42.3001 8.29992C42.3001 8.29992 42.4001 8.29992 42.3001 8.29992C43.0001 8.29992 43.5001 7.69993 43.5001 6.99993C43.5001 6.29993 42.9001 5.79992 42.2001 5.79992C41.5001 5.79992 41.0001 6.39994 41.1001 7.09994C41.1001 7.79994 41.7001 8.29992 42.3001 8.29992ZM23.8001 58.4999C24.3001 58.4999 24.8001 58.1999 24.9001 57.6999C25.1001 57.0999 24.8001 56.3999 24.2001 56.1999C23.6001 55.9999 22.9001 56.2999 22.7001 56.8999C22.5001 57.4999 22.8001 58.1999 23.4001 58.3999C23.6001 58.4999 23.7001 58.4999 23.8001 58.4999ZM28.5001 43.0999C29.0001 43.0999 29.5001 42.6999 29.7001 42.1999C29.9001 41.5999 29.5001 40.8999 28.8001 40.6999C28.2001 40.4999 27.5001 40.8999 27.3001 41.5999C27.1001 42.1999 27.5001 42.8999 28.2001 43.0999C28.3001 43.0999 28.4001 43.0999 28.5001 43.0999ZM31.8001 27.3999C32.4001 27.3999 32.9001 26.9999 33.0001 26.3999C33.1001 25.6999 32.7001 25.0999 32.0001 24.9999C31.3001 24.8999 30.7001 25.2999 30.6001 25.9999C30.5001 26.6999 30.9001 27.2999 31.6001 27.3999C31.6001 27.2999 31.7001 27.3999 31.8001 27.3999ZM33.7001 11.3999C34.3001 11.3999 34.8002 10.8999 34.9002 10.2999C34.9002 9.59992 34.5001 9.09993 33.8001 8.99993C33.1001 8.89993 32.6001 9.39994 32.5001 10.0999C32.5001 10.6999 33.0001 11.2999 33.7001 11.3999ZM12.4001 47.8999C12.9001 47.8999 13.3001 47.5999 13.5001 47.1999C13.7001 46.5999 13.5001 45.8999 12.8001 45.5999C12.2001 45.3999 11.5001 45.5999 11.2001 46.2999C10.9001 46.8999 11.2001 47.5999 11.9001 47.8999C12.1001 47.7999 12.2001 47.8999 12.4001 47.8999ZM17.8001 32.6999C18.3001 32.6999 18.8001 32.3999 18.9001 31.8999C19.1001 31.2999 18.8001 30.5999 18.1001 30.3999C17.5001 30.1999 16.8001 30.4999 16.6001 31.1999C16.4001 31.7999 16.7001 32.4999 17.4001 32.6999C17.6001 32.6999 17.7001 32.6999 17.8001 32.6999ZM22.1001 17.1999C22.6001 17.1999 23.1001 16.7999 23.3001 16.2999C23.5001 15.5999 23.1001 14.9999 22.4001 14.7999C21.8001 14.6999 21.1001 15.0999 21.0001 15.6999C20.8001 16.3999 21.2001 16.9999 21.9001 17.1999C21.9001 17.1999 22.0001 17.1999 22.1001 17.1999ZM6.90015 23.7999C7.40015 23.7999 7.80012 23.4999 8.00012 22.9999C8.20012 22.3999 7.90011 21.6999 7.30011 21.3999C6.70011 21.1999 6.00014 21.4999 5.70014 22.0999C5.50014 22.6999 5.80015 23.3999 6.40015 23.6999C6.60015 23.7999 6.80015 23.7999 6.90015 23.7999ZM12.2001 8.59994C12.7001 8.59994 13.2001 8.29992 13.3001 7.79992C13.5001 7.19992 13.1001 6.49992 12.5001 6.29992C11.9001 6.09992 11.2001 6.49994 11.0001 7.09994C10.8001 7.69994 11.2001 8.39994 11.8001 8.59994C11.9001 8.59994 12.1001 8.59994 12.2001 8.59994ZM8.20014 42.1999C8.40014 42.2999 8.5001 42.1999 8.6001 42.0999C8.8001 41.8999 8.7001 41.6999 8.6001 41.4999C8.4001 41.2999 8.20012 41.3999 8.00012 41.4999C7.80012 41.6999 7.90012 41.8999 8.00012 42.0999C8.10012 42.1999 8.10014 42.1999 8.20014 42.1999ZM19.1001 30.3999C19.2001 30.4999 19.4001 30.3999 19.5001 30.2999C19.6001 30.0999 19.6001 29.8999 19.5001 29.6999C19.3001 29.5999 19.1001 29.5999 18.9001 29.6999C18.8001 29.8999 18.8001 30.0999 18.9001 30.2999C19.0001 30.2999 19.0001 30.2999 19.1001 30.3999ZM29.7001 18.2999C29.9001 18.3999 30.0001 18.2999 30.1001 18.1999C30.2001 17.9999 30.2001 17.7999 30.1001 17.5999C29.9001 17.4999 29.7001 17.4999 29.5001 17.5999C29.4001 17.7999 29.4001 17.9999 29.5001 18.1999C29.6001 18.2999 29.7001 18.2999 29.7001 18.2999ZM39.9002 5.79992C40.1002 5.89992 40.2001 5.79995 40.4002 5.69995C40.5001 5.49995 40.5001 5.29994 40.3001 5.09994C40.1001 4.99994 39.9001 4.99995 39.7001 5.19995C39.6001 5.39995 39.6001 5.59992 39.8001 5.79992C39.8001 5.79992 39.8002 5.79992 39.9002 5.79992ZM9.6001 40.2999C9.8001 40.3999 10.0001 40.2999 10.1001 40.1999C10.3001 39.9999 10.3001 39.6999 10.1001 39.4999C9.9001 39.2999 9.60015 39.2999 9.40015 39.4999C9.20015 39.6999 9.20015 39.9999 9.40015 40.1999C9.50015 40.1999 9.5001 40.1999 9.6001 40.2999ZM21.6001 29.4999C21.8001 29.5999 22.0001 29.4999 22.1001 29.3999C22.3001 29.1999 22.3001 28.8999 22.1001 28.6999C21.9001 28.4999 21.6001 28.4999 21.4001 28.6999C21.2001 28.8999 21.2001 29.1999 21.4001 29.3999C21.4001 29.3999 21.5001 29.4999 21.6001 29.4999ZM33.1001 18.2999C33.3001 18.3999 33.5001 18.2999 33.6001 18.1999C33.8001 17.9999 33.8001 17.6999 33.6001 17.4999C33.4001 17.2999 33.1002 17.2999 32.9002 17.4999C32.7001 17.6999 32.7001 17.9999 32.9002 18.1999C33.0001 18.2999 33.0001 18.2999 33.1001 18.2999ZM43.1001 5.69995C43.3001 5.79995 43.5001 5.69993 43.7001 5.49993C43.8001 5.29993 43.8001 4.99992 43.6001 4.79992C43.4001 4.59992 43.1002 4.69993 42.9002 4.89993C42.7001 5.09993 42.8001 5.39994 43.0001 5.59994C43.0001 5.69994 43.0001 5.69995 43.1001 5.69995ZM12.9001 38.8999C13.1001 38.9999 13.3001 38.8999 13.4001 38.7999C13.7001 38.5999 13.7001 38.1999 13.5001 37.9999C13.3001 37.6999 13.0001 37.6999 12.7001 37.8999C12.4001 38.0999 12.4001 38.3999 12.6001 38.6999C12.7001 38.7999 12.7001 38.7999 12.9001 38.8999ZM25.7001 29.2999C25.9001 29.3999 26.1001 29.2999 26.3001 29.1999C26.6001 28.9999 26.6001 28.5999 26.4001 28.3999C26.2001 28.1999 25.8001 28.0999 25.6001 28.2999C25.3001 28.4999 25.3001 28.8999 25.5001 29.0999C25.5001 29.1999 25.6001 29.1999 25.7001 29.2999ZM37.2001 18.0999C37.4001 18.1999 37.7001 18.0999 37.9002 17.8999C38.1002 17.5999 38.0001 17.2999 37.8001 17.0999C37.5001 16.8999 37.2001 16.9999 37.0001 17.1999C36.8001 17.4999 36.8001 17.7999 37.1001 17.9999L37.2001 18.0999ZM46.8001 5.19995C47.0001 5.29995 47.3002 5.19993 47.4002 4.99993C47.6002 4.79993 47.6001 4.39995 47.3001 4.19995C47.1001 3.99995 46.7001 3.99992 46.5001 4.29992C46.3001 4.49992 46.3001 4.89994 46.6001 5.09994C46.7001 5.09994 46.7001 5.09995 46.8001 5.19995ZM3.90015 46.3999C4.10015 46.4999 4.30012 46.4999 4.50012 46.3999C4.80012 46.1999 4.90011 45.7999 4.80011 45.4999C4.60011 45.1999 4.20015 45.0999 3.90015 45.1999C3.60015 45.3999 3.5001 45.7999 3.6001 46.0999C3.7001 46.2999 3.80015 46.3999 3.90015 46.3999ZM17.9001 38.4999C18.1001 38.5999 18.3001 38.5999 18.5001 38.3999C18.8001 38.1999 18.9001 37.7999 18.7001 37.4999C18.5001 37.1999 18.1001 37.0999 17.8001 37.2999C17.5001 37.4999 17.4001 37.8999 17.6001 38.1999C17.6001 38.3999 17.8001 38.4999 17.9001 38.4999ZM31.2001 29.4999C31.4001 29.5999 31.7001 29.4999 31.9001 29.3999C32.2001 29.0999 32.2001 28.6999 31.9001 28.4999C31.7001 28.1999 31.2001 28.1999 31.0001 28.4999C30.7001 28.7999 30.7001 29.1999 31.0001 29.4999C31.0001 29.4999 31.1001 29.4999 31.2001 29.4999ZM41.1001 16.8999C41.4001 16.9999 41.7001 16.8999 41.9002 16.6999C42.1002 16.3999 42.0001 15.9999 41.8001 15.7999C41.5001 15.5999 41.1002 15.6999 40.9002 15.9999C40.7001 16.2999 40.8001 16.6999 41.0001 16.8999C41.0001 16.8999 41.0001 16.8999 41.1001 16.8999ZM51.2001 4.39993C51.5001 4.49993 51.8001 4.39994 52.0001 4.09994C52.2001 3.79994 52.1001 3.39995 51.8001 3.19995C51.5001 2.99995 51.1002 3.09993 50.9002 3.39993C50.7001 3.69993 50.8001 4.09992 51.1001 4.29992C51.1001 4.39992 51.1001 4.39993 51.2001 4.39993ZM10.0001 46.1999C10.2001 46.2999 10.4001 46.2999 10.6001 46.1999C11.0001 45.9999 11.2001 45.5999 11.0001 45.1999C10.8001 44.7999 10.4001 44.5999 10.0001 44.7999C9.60012 44.9999 9.4001 45.3999 9.6001 45.7999C9.6001 45.9999 9.80012 46.0999 10.0001 46.1999ZM24.4001 39.1999C24.6001 39.2999 24.8001 39.2999 25.0001 39.1999C25.4001 38.9999 25.5001 38.4999 25.3001 38.1999C25.1001 37.7999 24.6001 37.6999 24.3001 37.8999C23.9001 38.0999 23.8001 38.5999 24.0001 38.8999C24.1001 38.9999 24.3001 39.1999 24.4001 39.1999ZM36.0001 28.2999C36.3001 28.3999 36.7001 28.2999 36.9002 27.9999C37.1002 27.6999 37.1001 27.1999 36.7001 26.8999C36.4001 26.6999 35.9001 26.6999 35.6001 27.0999C35.4001 27.3999 35.4001 27.8999 35.8001 28.1999C35.9001 28.2999 35.9001 28.2999 36.0001 28.2999ZM46.1001 15.8999C46.4001 15.9999 46.7001 15.8999 46.9002 15.6999C47.2001 15.3999 47.2001 14.8999 46.9002 14.5999C46.6002 14.2999 46.1001 14.2999 45.8001 14.5999C45.5001 14.8999 45.5001 15.3999 45.8001 15.6999C45.9001 15.7999 46.0001 15.7999 46.1001 15.8999ZM54.8001 2.49993C55.2001 2.59993 55.6001 2.39994 55.8001 2.09994C55.9001 1.69994 55.7001 1.29994 55.4002 1.09994C55.0001 0.99994 54.6002 1.19993 54.4002 1.49993C54.2001 1.89993 54.4001 2.29993 54.8001 2.49993ZM2.20014 52.3999C2.40014 52.4999 2.50014 52.4999 2.70014 52.3999C3.20014 52.2999 3.40011 51.7999 3.30011 51.3999C3.20011 50.8999 2.70011 50.6999 2.30011 50.7999C1.90011 50.8999 1.60014 51.3999 1.70014 51.8999C1.80014 52.0999 2.00014 52.2999 2.20014 52.3999ZM17.5001 47.3999C17.7001 47.4999 17.9001 47.4999 18.1001 47.3999C18.5001 47.1999 18.8001 46.6999 18.6001 46.2999C18.4001 45.8999 17.9001 45.5999 17.5001 45.7999C17.1001 45.9999 16.8001 46.4999 17.0001 46.8999C17.1001 47.1999 17.3001 47.3999 17.5001 47.3999ZM31.0001 39.1999C31.3001 39.2999 31.7001 39.1999 31.9001 38.9999C32.2001 38.5999 32.2001 38.0999 31.8001 37.7999C31.4001 37.4999 30.9001 37.4999 30.6001 37.8999C30.3001 38.2999 30.3001 38.7999 30.7001 39.0999C30.8001 39.0999 30.9001 39.1999 31.0001 39.1999ZM40.6001 26.2999C40.9001 26.3999 41.3001 26.2999 41.5001 25.9999C41.8001 25.5999 41.8002 25.0999 41.4002 24.7999C41.0001 24.4999 40.5001 24.5999 40.2001 24.8999C39.9001 25.2999 39.9001 25.7999 40.3001 26.0999C40.5001 26.1999 40.5001 26.2999 40.6001 26.2999ZM51.5001 14.4999C51.9001 14.5999 52.3001 14.4999 52.5001 14.1999C52.8001 13.7999 52.6001 13.2999 52.2001 12.9999C51.8001 12.7999 51.3001 12.8999 51.0001 13.2999C50.8001 13.6999 50.9001 14.1999 51.3001 14.4999C51.3001 14.4999 51.4001 14.4999 51.5001 14.4999ZM10.7001 54.3999C10.9001 54.4999 11.0001 54.4999 11.2001 54.3999C11.7001 54.2999 12.0001 53.7999 11.9001 53.2999C11.8001 52.7999 11.3001 52.4999 10.8001 52.5999C10.3001 52.6999 10.0001 53.1999 10.1001 53.6999C10.1001 53.9999 10.4001 54.2999 10.7001 54.3999ZM25.7001 49.0999C26.0001 49.1999 26.3001 49.1999 26.5001 48.9999C26.9001 48.6999 27.0001 48.0999 26.7001 47.6999C26.4001 47.2999 25.8001 47.1999 25.4001 47.4999C25.0001 47.7999 24.9001 48.3999 25.2001 48.7999C25.4001 48.8999 25.6001 49.0999 25.7001 49.0999ZM36.0001 36.7999C36.4001 36.8999 36.8001 36.7999 37.1001 36.4999C37.4001 36.0999 37.3002 35.4999 36.9002 35.1999C36.5001 34.8999 35.9001 34.9999 35.6001 35.3999C35.3001 35.7999 35.4001 36.3999 35.8001 36.6999C35.8001 36.6999 35.9001 36.7999 36.0001 36.7999ZM47.1001 25.2999C47.4001 25.3999 47.8001 25.2999 48.1001 25.0999C48.5001 24.6999 48.5001 24.0999 48.1001 23.7999C47.7001 23.3999 47.2001 23.3999 46.8001 23.7999C46.4001 24.1999 46.4001 24.7999 46.8001 25.0999C46.9001 25.1999 47.0001 25.2999 47.1001 25.2999ZM54.9002 11.4999H55.0001C55.5001 11.5999 56.0001 11.2999 56.1001 10.7999C56.2001 10.2999 55.9002 9.79995 55.4002 9.69995C54.9002 9.59995 54.4001 9.89993 54.3001 10.3999C54.2001 10.7999 54.4002 11.2999 54.9002 11.4999ZM19.8001 57.2999C20.0001 57.3999 20.2001 57.3999 20.5001 57.2999C21.0001 57.0999 21.3001 56.4999 21.2001 55.9999C21.0001 55.4999 20.5001 55.1999 19.9001 55.2999C19.4001 55.4999 19.1001 55.9999 19.2001 56.5999C19.3001 56.8999 19.5001 57.1999 19.8001 57.2999ZM31.7001 47.0999C32.1001 47.2999 32.6002 47.0999 32.9002 46.6999C33.2001 46.1999 33.1001 45.5999 32.7001 45.2999C32.2001 44.9999 31.6001 45.0999 31.3001 45.4999C31.0001 45.9999 31.1001 46.5999 31.5001 46.8999C31.6001 46.9999 31.6001 47.0999 31.7001 47.0999ZM42.1001 34.8999C42.4001 34.9999 42.7001 34.9999 43.0001 34.7999C43.5001 34.4999 43.6001 33.7999 43.3001 33.3999C43.0001 32.8999 42.4002 32.7999 41.9002 33.0999C41.4002 33.3999 41.3001 34.0999 41.6001 34.4999C41.7001 34.6999 41.9001 34.7999 42.1001 34.8999ZM52.5001 22.9999C53.0001 23.1999 53.6001 22.9999 53.8001 22.4999C54.0001 21.9999 53.8001 21.3999 53.3001 21.0999C52.8001 20.8999 52.2001 21.0999 51.9002 21.5999C51.7001 22.0999 52.0001 22.6999 52.5001 22.9999C52.5001 22.8999 52.5001 22.9999 52.5001 22.9999ZM55.3001 7.29992C55.4001 7.29992 55.5001 7.39993 55.7001 7.39993C56.3001 7.39993 56.7001 6.89992 56.7001 6.29992C56.7001 5.69992 56.2001 5.29992 55.6001 5.29992C55.0001 5.29992 54.6001 5.79993 54.6001 6.39993C54.6001 6.79993 54.9001 7.09992 55.3001 7.29992ZM27.6001 56.9999C28.0001 57.1999 28.5001 56.9999 28.9001 56.6999C29.3001 56.1999 29.2001 55.4999 28.7001 55.0999C28.2001 54.6999 27.5001 54.7999 27.1001 55.2999C26.7001 55.7999 26.8001 56.4999 27.3001 56.8999C27.4001 56.8999 27.5001 56.8999 27.6001 56.9999ZM37.2001 44.0999C37.6001 44.2999 38.1002 44.0999 38.4002 43.7999C38.8002 43.2999 38.8001 42.5999 38.3001 42.1999C37.8001 41.7999 37.1001 41.7999 36.7001 42.2999C36.3001 42.7999 36.3001 43.4999 36.8001 43.8999C37.0001 43.9999 37.1001 43.9999 37.2001 44.0999ZM54.6001 18.6999C54.7001 18.6999 54.8002 18.7999 54.9002 18.7999C55.5001 18.7999 56.0001 18.3999 56.1001 17.7999C56.1001 17.1999 55.7001 16.6999 55.1001 16.5999C54.5001 16.5999 54.0001 16.9999 53.9002 17.5999C53.9002 18.0999 54.2001 18.4999 54.6001 18.6999ZM53.2001 2.69995C53.4001 2.79995 53.6001 2.79995 53.8001 2.69995C54.4001 2.59995 54.8001 1.99993 54.6001 1.39993C54.5001 0.799928 53.9001 0.399934 53.3001 0.499934C52.7001 0.599934 52.3001 1.19992 52.5001 1.79992C52.6001 2.29992 52.9001 2.59995 53.2001 2.69995ZM33.2001 53.5999C33.7001 53.7999 34.2001 53.5999 34.6001 53.1999C35.0001 52.6999 34.9002 51.8999 34.4002 51.4999C33.9002 51.0999 33.1001 51.1999 32.7001 51.6999C32.3001 52.1999 32.4002 52.9999 32.9002 53.3999C33.0001 53.4999 33.1001 53.4999 33.2001 53.5999ZM45.3001 43.2999C45.7001 43.3999 46.1001 43.3999 46.5001 43.0999C47.0001 42.6999 47.1001 41.8999 46.6001 41.3999C46.2001 40.8999 45.4002 40.7999 44.9002 41.2999C44.4002 41.6999 44.3001 42.4999 44.7001 42.9999C45.0001 43.0999 45.1001 43.1999 45.3001 43.2999ZM53.4002 13.7999C53.6002 13.8999 53.8001 13.8999 54.0001 13.8999C54.7001 13.7999 55.1001 13.1999 55.0001 12.4999C54.9001 11.7999 54.3001 11.3999 53.6001 11.4999C52.9001 11.5999 52.5001 12.1999 52.6001 12.8999C52.7001 13.2999 53.0001 13.6999 53.4002 13.7999ZM40.8001 51.8999C41.1001 51.9999 41.5001 51.9999 41.9002 51.7999C42.5001 51.4999 42.7001 50.6999 42.4002 49.9999C42.1002 49.3999 41.3001 49.1999 40.6001 49.4999C40.0001 49.8999 39.7001 50.5999 40.1001 51.2999C40.3001 51.5999 40.6001 51.7999 40.8001 51.8999ZM53.5001 24.5999C53.7001 24.6999 53.9001 24.6999 54.1001 24.6999C54.8001 24.5999 55.3001 23.9999 55.3001 23.2999C55.2001 22.5999 54.6002 22.0999 53.9002 22.0999C53.2001 22.1999 52.7001 22.7999 52.7001 23.4999C52.7001 23.9999 53.0001 24.3999 53.5001 24.5999ZM49.8001 8.99993C50.1001 9.09993 50.4001 9.09993 50.7001 8.99993C51.4001 8.79993 51.7001 7.99992 51.5001 7.29992C51.3001 6.59992 50.5001 6.29993 49.9002 6.49993C49.2001 6.69993 48.9001 7.49995 49.1001 8.19995C49.2001 8.59995 49.5001 8.89993 49.8001 8.99993ZM36.2001 59.7999C36.6001 59.9999 37.1001 59.8999 37.5001 59.5999C38.1001 59.1999 38.3002 58.2999 37.9002 57.6999C37.5001 57.0999 36.6001 56.8999 36.0001 57.2999C35.4001 57.6999 35.2001 58.5999 35.6001 59.1999C35.7001 59.4999 36.0001 59.6999 36.2001 59.7999ZM49.0001 50.3999C49.6001 50.5999 50.2001 50.3999 50.6001 49.8999C51.0001 49.2999 50.9001 48.3999 50.3001 47.9999C49.7001 47.4999 48.8002 47.6999 48.4002 48.2999C48.0001 48.8999 48.1001 49.7999 48.7001 50.1999C48.8001 50.2999 48.9001 50.3999 49.0001 50.3999ZM50.5001 19.3999C50.8001 19.4999 51.1002 19.4999 51.4002 19.3999C52.1002 19.1999 52.5001 18.3999 52.3001 17.6999C52.1001 16.9999 51.3001 16.5999 50.6001 16.7999C49.9001 16.9999 49.5001 17.7999 49.7001 18.4999C49.8001 18.9999 50.1001 19.2999 50.5001 19.3999ZM45.7001 59.5999C46.2001 59.7999 46.8001 59.6999 47.2001 59.2999C47.8001 58.7999 47.9001 57.7999 47.3001 57.1999C46.8001 56.5999 45.8001 56.4999 45.2001 57.0999C44.6001 57.5999 44.5001 58.5999 45.1001 59.1999C45.3001 59.3999 45.5001 59.4999 45.7001 59.5999ZM45.4002 14.5999C45.8002 14.6999 46.2001 14.6999 46.6001 14.4999C47.3001 14.0999 47.6001 13.2999 47.3001 12.4999C46.9001 11.7999 46.1001 11.4999 45.3001 11.7999C44.6001 12.1999 44.3001 12.9999 44.6001 13.7999C44.8001 14.1999 45.0001 14.4999 45.4002 14.5999ZM51.5001 55.5999H51.6001C52.4001 55.7999 53.3001 55.2999 53.5001 54.4999C53.7001 53.6999 53.2001 52.7999 52.4002 52.5999C51.6002 52.3999 50.7001 52.8999 50.5001 53.6999C50.4001 54.4999 50.8001 55.2999 51.5001 55.5999ZM46.4002 24.3999C46.8002 24.4999 47.2001 24.4999 47.6001 24.3999C48.4001 23.9999 48.7001 23.0999 48.4002 22.2999C48.0001 21.4999 47.1001 21.1999 46.3001 21.4999C45.5001 21.8999 45.2001 22.7999 45.5001 23.5999C45.7001 23.9999 46.0001 24.2999 46.4002 24.3999ZM38.7001 10.3999C39.1001 10.5999 39.7001 10.4999 40.1001 10.2999C40.8001 9.79992 41.0001 8.89994 40.6001 8.09994C40.1001 7.39994 39.2001 7.19994 38.5001 7.59994C37.8001 8.09994 37.6001 8.99992 38.0001 9.79992C38.1001 10.0999 38.4001 10.2999 38.7001 10.3999ZM51.7001 49.4999C52.0001 49.5999 52.2001 49.5999 52.5001 49.5999C53.4001 49.4999 54.0001 48.5999 53.9002 47.6999C53.8002 46.7999 52.9001 46.1999 52.0001 46.2999C51.1001 46.3999 50.5001 47.2999 50.6001 48.1999C50.7001 48.7999 51.1001 49.2999 51.7001 49.4999ZM39.9002 19.8999C40.4002 20.0999 40.9001 19.9999 41.3001 19.6999C42.1001 19.1999 42.3001 18.1999 41.8001 17.3999C41.3001 16.5999 40.3001 16.3999 39.5001 16.8999C38.7001 17.3999 38.5001 18.3999 39.0001 19.1999C39.3001 19.4999 39.6002 19.7999 39.9002 19.8999ZM51.6001 59.2999C51.8001 59.3999 52.1001 59.3999 52.3001 59.3999C53.2001 59.2999 54.0001 58.4999 53.9002 57.5999C53.9002 56.5999 53.0001 55.8999 52.1001 55.8999C51.1001 55.8999 50.4002 56.7999 50.4002 57.6999C50.5001 58.4999 51.0001 59.0999 51.6001 59.2999ZM48.1001 43.6999C48.5001 43.7999 48.9001 43.7999 49.3001 43.6999C50.2001 43.3999 50.7001 42.3999 50.3001 41.4999C50.0001 40.5999 49.0001 40.0999 48.1001 40.4999C47.2001 40.7999 46.7001 41.7999 47.1001 42.6999C47.3001 43.1999 47.7001 43.4999 48.1001 43.6999ZM41.1001 29.2999C41.6001 29.4999 42.1001 29.3999 42.6001 29.1999C43.4001 28.6999 43.7001 27.5999 43.2001 26.7999C42.7001 25.9999 41.6001 25.6999 40.8001 26.1999C40.0001 26.6999 39.7001 27.7999 40.2001 28.5999C40.5001 28.8999 40.8001 29.0999 41.1001 29.2999ZM32.2001 15.9999C32.7001 16.1999 33.4001 16.0999 33.8001 15.7999C34.6001 15.1999 34.7001 14.0999 34.2001 13.3999C33.6001 12.5999 32.5001 12.4999 31.8001 13.0999C31.0001 13.6999 30.9001 14.7999 31.4001 15.4999C31.6001 15.6999 31.9001 15.8999 32.2001 15.9999ZM48.8001 53.1999C49.2001 53.2999 49.6001 53.3999 50.0001 53.1999C51.0001 52.8999 51.5001 51.8999 51.2001 50.8999C50.9001 49.8999 49.9002 49.3999 48.9002 49.6999C47.9002 49.9999 47.4001 50.9999 47.7001 51.9999C47.9001 52.5999 48.3001 52.9999 48.8001 53.1999ZM42.3001 38.4999C42.8001 38.6999 43.3001 38.5999 43.8001 38.3999C44.7001 37.8999 45.0001 36.7999 44.5001 35.8999C44.0001 34.9999 42.9001 34.6999 42.0001 35.1999C41.1001 35.6999 40.8001 36.7999 41.3001 37.6999C41.6001 38.0999 41.9001 38.3999 42.3001 38.4999ZM33.6001 25.0999C34.2001 25.2999 34.8001 25.1999 35.3001 24.8999C36.1001 24.2999 36.3001 23.1999 35.7001 22.2999C35.1001 21.4999 34.0001 21.2999 33.2001 21.8999C32.4001 22.4999 32.2001 23.5999 32.8001 24.4999C32.9001 24.7999 33.2001 24.9999 33.6001 25.0999ZM23.6001 12.4999C24.2001 12.6999 24.9001 12.5999 25.4001 12.1999C26.2001 11.4999 26.3001 10.3999 25.6001 9.59994C24.9001 8.79994 23.8001 8.69993 23.0001 9.39993C22.2001 10.0999 22.1001 11.1999 22.8001 11.9999C23.1001 12.2999 23.3001 12.3999 23.6001 12.4999ZM43.4002 47.5999C43.9002 47.7999 44.5001 47.7999 45.0001 47.4999C45.9001 46.9999 46.3001 45.7999 45.8001 44.8999C45.3001 43.9999 44.1001 43.5999 43.2001 44.0999C42.3001 44.5999 41.9002 45.7999 42.4002 46.6999C42.6002 47.1999 43.0001 47.4999 43.4002 47.5999ZM34.9002 34.0999C35.5001 34.2999 36.1001 34.1999 36.7001 33.8999C37.6001 33.2999 37.7001 32.0999 37.1001 31.1999C36.5001 30.2999 35.3002 30.0999 34.4002 30.7999C33.5001 31.3999 33.4001 32.5999 34.0001 33.4999C34.3001 33.6999 34.6002 33.8999 34.9002 34.0999ZM25.0001 21.4999C25.6001 21.6999 26.4001 21.5999 26.9001 21.1999C27.7001 20.4999 27.8001 19.2999 27.1001 18.4999C26.4001 17.6999 25.2001 17.5999 24.4001 18.2999C23.6001 18.9999 23.5001 20.1999 24.2001 20.9999C24.4001 21.1999 24.7001 21.3999 25.0001 21.4999ZM14.4001 9.49993C15.1001 9.69993 15.8001 9.59994 16.4001 9.09994C17.2001 8.39994 17.2001 7.19993 16.5001 6.39993C15.8001 5.59993 14.6001 5.59992 13.8001 6.29992C13.0001 6.99992 13.0001 8.19993 13.7001 8.99993C13.9001 9.19993 14.1001 9.39993 14.4001 9.49993ZM44.5001 56.6999C45.0001 56.8999 45.6001 56.8999 46.1001 56.5999C47.1001 56.0999 47.5001 54.8999 47.0001 53.8999C46.5001 52.8999 45.3001 52.4999 44.3001 52.9999C43.3001 53.4999 42.9002 54.6999 43.4002 55.6999C43.6002 56.1999 44.0001 56.5999 44.5001 56.6999ZM36.3001 42.9999C36.9001 43.1999 37.6001 43.1999 38.1001 42.7999C39.0001 42.1999 39.2001 40.8999 38.6001 39.9999C38.0001 39.0999 36.7001 38.8999 35.8001 39.4999C34.9001 40.0999 34.7001 41.3999 35.3001 42.2999C35.6001 42.5999 35.9001 42.7999 36.3001 42.9999ZM26.5001 30.2999C27.2001 30.4999 27.9001 30.3999 28.5001 29.8999C29.3001 29.1999 29.5001 27.8999 28.7001 27.0999C28.0001 26.2999 26.7001 26.0999 25.9001 26.8999C25.1001 27.5999 25.0001 28.8999 25.7001 29.6999C25.9001 29.9999 26.2001 30.1999 26.5001 30.2999ZM15.8001 18.2999C16.5001 18.5999 17.3001 18.3999 17.9001 17.8999C18.7001 17.0999 18.8001 15.8999 18.0001 15.0999C17.3001 14.2999 16.0001 14.1999 15.2001 14.9999C14.4001 15.7999 14.3001 16.9999 15.1001 17.7999C15.3001 17.9999 15.5001 18.1999 15.8001 18.2999ZM4.80011 6.69995C5.50011 6.99995 6.30015 6.79992 6.90015 6.29992C7.70015 5.49992 7.70012 4.29993 7.00012 3.49993C6.20012 2.69993 5.00014 2.69993 4.20014 3.49993C3.40014 4.29993 3.4001 5.49992 4.1001 6.29992C4.3001 6.39992 4.50011 6.59995 4.80011 6.69995ZM31.6001 49.7999C32.1001 49.9999 32.7001 49.9999 33.2001 49.6999C34.2001 49.1999 34.6001 47.9999 34.1001 47.0999C33.6001 46.0999 32.4001 45.6999 31.5001 46.1999C30.5001 46.6999 30.1001 47.8999 30.6001 48.7999C30.8001 49.2999 31.2001 49.5999 31.6001 49.7999ZM23.5001 35.9999C24.1001 36.1999 24.7001 36.1999 25.3001 35.7999C26.2001 35.1999 26.4001 33.9999 25.8001 33.0999C25.2001 32.1999 24.0001 31.9999 23.1001 32.5999C22.2001 33.1999 22.0001 34.3999 22.6001 35.2999C22.8001 35.5999 23.1001 35.8999 23.5001 35.9999ZM13.9001 23.0999C14.5001 23.2999 15.2001 23.1999 15.8001 22.7999C16.6001 22.0999 16.8001 20.8999 16.1001 19.9999C15.4001 19.0999 14.2001 18.9999 13.4001 19.6999C12.6001 20.3999 12.4001 21.5999 13.1001 22.4999C13.3001 22.7999 13.6001 22.9999 13.9001 23.0999ZM3.70014 10.7999C4.30014 10.9999 5.10014 10.8999 5.70014 10.3999C6.50014 9.69993 6.60015 8.39994 5.90015 7.59994C5.20015 6.79994 4.0001 6.69993 3.1001 7.39993C2.3001 8.09993 2.20015 9.39995 2.90015 10.1999C3.10015 10.4999 3.40014 10.6999 3.70014 10.7999ZM24.7001 57.0999C25.1001 57.1999 25.5001 57.2999 25.9001 57.0999C26.9001 56.7999 27.5001 55.6999 27.2001 54.6999C26.9001 53.6999 25.8001 53.0999 24.8001 53.3999C23.8001 53.6999 23.2001 54.7999 23.5001 55.7999C23.7001 56.4999 24.1001 56.8999 24.7001 57.0999ZM18.6001 42.2999C19.1001 42.4999 19.6001 42.4999 20.1001 42.1999C21.0001 41.6999 21.4001 40.5999 20.9001 39.5999C20.4001 38.6999 19.3001 38.2999 18.3001 38.7999C17.4001 39.2999 17.0001 40.3999 17.5001 41.3999C17.8001 41.7999 18.2001 42.0999 18.6001 42.2999ZM10.5001 28.3999C11.1001 28.5999 11.7001 28.5999 12.2001 28.1999C13.1001 27.5999 13.3001 26.3999 12.7001 25.4999C12.1001 24.5999 10.9001 24.3999 10.1001 24.9999C9.2001 25.5999 9.00012 26.7999 9.50012 27.6999C9.80012 28.0999 10.1001 28.2999 10.5001 28.3999ZM1.30011 15.2999C1.90011 15.4999 2.6001 15.3999 3.1001 14.9999C3.9001 14.3999 4.10012 13.1999 3.50012 12.2999C2.90012 11.3999 1.70011 11.2999 0.800112 11.8999C0.000112116 12.4999 -0.199851 13.6999 0.400149 14.5999C0.600149 14.9999 0.900112 15.1999 1.30011 15.2999ZM11.7001 48.7999C12.1001 48.8999 12.5001 48.9999 13.0001 48.7999C14.0001 48.4999 14.5001 47.3999 14.2001 46.3999C13.9001 45.3999 12.8001 44.8999 11.8001 45.1999C10.8001 45.4999 10.3001 46.5999 10.6001 47.5999C10.7001 48.1999 11.2001 48.5999 11.7001 48.7999ZM5.40015 33.9999C5.90015 34.1999 6.40015 34.1999 6.90015 33.8999C7.80015 33.3999 8.20014 32.2999 7.70014 31.3999C7.20014 30.4999 6.10014 30.0999 5.20014 30.5999C4.30014 31.0999 3.90015 32.1999 4.40015 33.0999C4.60015 33.4999 4.90015 33.8999 5.40015 33.9999ZM2.80011 54.9999C3.10011 55.0999 3.40011 55.1999 3.80011 55.0999C4.80011 54.8999 5.40011 53.8999 5.30011 52.9999C5.10011 51.9999 4.20014 51.3999 3.20014 51.4999C2.20014 51.6999 1.60014 52.6999 1.70014 53.5999C1.70014 54.2999 2.20011 54.7999 2.80011 54.9999Z" fill="#00FFFF"/>
</svg>
