<svg width="106" height="116" viewBox="0 0 106 116" fill="none" xmlns="http://www.w3.org/2000/svg">
<path d="M97.3002 39.9999C96.7002 39.6999 96.5001 38.8999 96.9001 38.3999C97.2001 37.7999 97.9001 37.5999 98.5001 37.8999C99.1001 38.1999 99.3001 38.9999 99.0001 39.4999C98.8001 39.8999 98.4001 40.0999 98.0001 40.0999C97.7001 40.1999 97.5002 40.0999 97.3002 39.9999ZM37.0001 99.8999C37.4001 99.8999 37.7001 99.7 38.0001 99.3999C38.4001 98.8999 38.3001 98.0999 37.8001 97.6999C37.3001 97.2999 36.5001 97.3999 36.1001 97.8999C35.7001 98.3999 35.8001 99.1999 36.3001 99.5999C36.5001 99.7999 36.8001 99.8999 37.0001 99.8999ZM46.9001 87.1999C47.2001 87.1999 47.6001 86.9999 47.8001 86.6999C48.2001 86.1999 48.1001 85.3999 47.6001 84.9999C47.1001 84.5999 46.3001 84.6999 45.9001 85.1999C45.5001 85.6999 45.6001 86.4999 46.1001 86.8999C46.3001 87.0999 46.6001 87.1999 46.9001 87.1999ZM56.9001 74.5999C57.3001 74.5999 57.6002 74.3999 57.8002 74.0999C58.2002 73.5999 58.1001 72.7999 57.6001 72.3999C57.1001 71.9999 56.3001 72.0999 55.9001 72.5999C55.5001 73.0999 55.6001 73.8999 56.1001 74.2999C56.4001 74.5999 56.6001 74.5999 56.9001 74.5999ZM66.6001 61.8999C67.0001 61.8999 67.3001 61.6999 67.6001 61.3999C68.0001 60.8999 67.9001 60.0999 67.4001 59.6999C66.9001 59.2999 66.1001 59.3999 65.7001 59.8999C65.3001 60.3999 65.4001 61.1999 65.9001 61.5999C66.2001 61.7999 66.4001 61.8999 66.6001 61.8999ZM85.0001 35.4999C85.4001 35.4999 85.8001 35.2999 86.0001 34.9999C86.4001 34.3999 86.2001 33.6999 85.6001 33.2999C85.0001 32.8999 84.3001 33.0999 83.9001 33.6999C83.5001 34.2999 83.7002 34.9999 84.3002 35.3999C84.5002 35.3999 84.7001 35.4999 85.0001 35.4999ZM28.6001 103.4C29.0001 103.4 29.4001 103.2 29.6001 102.9C30.0001 102.4 29.8001 101.6 29.3001 101.3C28.8001 100.9 28.1001 101.1 27.7001 101.6C27.4001 102.1 27.5001 102.9 28.0001 103.2C28.2001 103.3 28.4001 103.4 28.6001 103.4ZM37.6001 89.9999C38.0001 89.9999 38.3001 89.7999 38.6001 89.4999C39.0001 88.9999 38.8001 88.1999 38.3001 87.8999C37.8001 87.4999 37.1001 87.6999 36.7001 88.1999C36.3001 88.6999 36.5001 89.3999 37.0001 89.7999C37.1001 89.9999 37.4001 89.9999 37.6001 89.9999ZM46.9001 76.8999C47.3001 76.8999 47.6001 76.6999 47.8001 76.3999C48.2001 75.8999 48.0001 75.1999 47.5001 74.7999C47.0001 74.3999 46.3001 74.5999 45.9001 75.0999C45.5001 75.5999 45.7001 76.2999 46.2001 76.6999C46.4001 76.8999 46.7001 76.8999 46.9001 76.8999ZM56.0001 63.6999C56.4001 63.6999 56.7001 63.4999 57.0001 63.1999C57.4001 62.6999 57.2001 61.8999 56.7001 61.5999C56.2001 61.1999 55.5001 61.3999 55.1001 61.8999C54.7001 62.3999 54.9001 63.1999 55.4001 63.4999C55.5001 63.5999 55.7001 63.6999 56.0001 63.6999ZM64.7001 50.1999C65.1001 50.1999 65.5001 49.9999 65.7001 49.6999C66.0001 49.1999 65.9002 48.3999 65.3002 48.0999C64.8002 47.7999 64.1001 47.8999 63.7001 48.4999C63.4001 48.9999 63.5001 49.7999 64.1001 50.0999C64.3001 50.0999 64.5001 50.1999 64.7001 50.1999ZM72.9001 36.3999C73.3001 36.3999 73.7001 36.1999 73.9001 35.7999C74.2001 35.1999 74.0001 34.4999 73.5001 34.1999C72.9001 33.8999 72.2001 34.0999 71.9001 34.5999C71.6001 35.1999 71.8002 35.8999 72.3002 36.1999C72.5002 36.3999 72.7001 36.3999 72.9001 36.3999ZM29.8001 91.2999C30.2001 91.2999 30.5001 91.0999 30.8001 90.7999C31.1001 90.2999 30.9001 89.5999 30.4001 89.2999C29.9001 88.9999 29.2001 89.1999 28.9001 89.6999C28.6001 90.1999 28.8001 90.8999 29.3001 91.1999C29.4001 91.1999 29.6001 91.2999 29.8001 91.2999ZM38.1001 77.5999C38.5001 77.5999 38.8001 77.3999 39.1001 77.0999C39.4001 76.5999 39.3001 75.8999 38.7001 75.5999C38.2001 75.2999 37.5001 75.3999 37.2001 75.9999C36.9001 76.4999 37.0001 77.1999 37.6001 77.4999C37.8001 77.4999 38.0001 77.5999 38.1001 77.5999ZM46.3001 63.6999C46.7001 63.6999 47.1001 63.4999 47.3001 63.0999C47.6001 62.5999 47.4001 61.8999 46.9001 61.5999C46.4001 61.2999 45.7001 61.4999 45.4001 61.9999C45.1001 62.4999 45.3001 63.1999 45.8001 63.4999C46.0001 63.6999 46.2001 63.6999 46.3001 63.6999ZM54.2001 49.6999C54.6001 49.6999 55.0001 49.4999 55.2001 49.0999C55.5001 48.5999 55.3001 47.8999 54.8001 47.5999C54.3001 47.2999 53.6001 47.4999 53.3001 47.9999C53.0001 48.4999 53.2001 49.1999 53.7001 49.4999C53.9001 49.6999 54.1001 49.6999 54.2001 49.6999ZM61.6001 35.4999C62.0001 35.4999 62.4001 35.2999 62.6001 34.8999C62.9001 34.3999 62.6001 33.6999 62.1001 33.3999C61.5001 33.0999 60.9001 33.3999 60.6001 33.8999C60.3001 34.3999 60.6001 35.0999 61.1001 35.3999C61.3001 35.4999 61.5001 35.4999 61.6001 35.4999ZM22.7001 91.4999C23.1001 91.4999 23.5001 91.2999 23.7001 90.8999C24.0001 90.3999 23.7001 89.6999 23.2001 89.4999C22.7001 89.1999 22.0001 89.4999 21.8001 89.9999C21.5001 90.4999 21.8001 91.1999 22.3001 91.3999C22.4001 91.3999 22.5001 91.4999 22.7001 91.4999ZM29.9001 77.0999C30.3001 77.0999 30.7001 76.8999 30.9001 76.4999C31.2001 75.9999 31.0001 75.2999 30.4001 75.0999C29.9001 74.7999 29.2001 74.9999 29.0001 75.5999C28.7001 76.0999 28.9001 76.7999 29.5001 76.9999C29.6001 77.0999 29.8001 77.0999 29.9001 77.0999ZM37.1001 62.6999C37.5001 62.6999 37.9001 62.4999 38.1001 62.0999C38.4001 61.5999 38.1001 60.8999 37.6001 60.6999C37.1001 60.3999 36.4001 60.6999 36.2001 61.1999C35.9001 61.6999 36.2001 62.3999 36.7001 62.5999C36.8001 62.6999 37.0001 62.6999 37.1001 62.6999ZM44.0001 48.1999C44.4001 48.1999 44.8001 47.9999 45.0001 47.5999C45.2001 47.0999 45.0001 46.3999 44.5001 46.1999C44.0001 45.9999 43.3001 46.1999 43.1001 46.6999C42.9001 47.1999 43.1001 47.8999 43.6001 48.0999C43.7001 48.1999 43.8001 48.1999 44.0001 48.1999ZM50.4001 33.3999C50.8001 33.3999 51.2001 33.1999 51.4001 32.6999C51.6001 32.1999 51.4001 31.4999 50.8001 31.2999C50.3001 31.0999 49.6001 31.2999 49.4001 31.8999C49.2001 32.3999 49.4001 33.0999 50.0001 33.2999C50.1001 33.3999 50.2001 33.3999 50.4001 33.3999ZM21.2001 77.0999C21.6001 77.0999 22.0001 76.8999 22.2001 76.3999C22.4001 75.8999 22.1001 75.2999 21.6001 75.0999C21.1001 74.8999 20.5001 75.1999 20.3001 75.6999C20.1001 76.1999 20.4001 76.7999 20.9001 76.9999C21.0001 77.0999 21.1001 77.0999 21.2001 77.0999ZM26.6001 61.9999C27.0001 61.9999 27.4001 61.6999 27.6001 61.2999C27.8001 60.7999 27.5001 60.1999 27.0001 59.9999C26.5001 59.7999 25.9001 60.0999 25.7001 60.5999C25.5001 61.0999 25.8001 61.6999 26.3001 61.8999C26.4001 61.9999 26.5001 61.9999 26.6001 61.9999ZM31.6001 46.6999C32.0001 46.6999 32.4001 46.3999 32.6001 45.9999C32.8001 45.4999 32.5001 44.8999 31.9001 44.6999C31.4001 44.4999 30.8001 44.7999 30.6001 45.3999C30.4001 45.8999 30.7001 46.4999 31.3001 46.6999C31.4001 46.6999 31.5001 46.6999 31.6001 46.6999ZM35.9001 31.1999C36.3001 31.1999 36.8001 30.8999 36.9001 30.3999C37.0001 29.8999 36.7001 29.2999 36.2001 29.0999C35.7001 28.9999 35.1001 29.2999 35.0001 29.7999C34.9001 30.2999 35.2001 30.8999 35.7001 31.0999C35.7001 31.1999 35.8001 31.1999 35.9001 31.1999ZM39.7001 15.5999C40.2001 15.5999 40.6001 15.2999 40.7001 14.7999C40.8001 14.1999 40.5001 13.6999 39.9001 13.5999C39.3001 13.4999 38.8001 13.7999 38.7001 14.3999C38.6001 14.9999 38.9001 15.4999 39.5001 15.5999C39.6001 15.5999 39.7001 15.5999 39.7001 15.5999ZM13.1001 74.4999C13.5001 74.4999 13.9001 74.1999 14.0001 73.7999C14.1001 73.2999 13.8001 72.6999 13.3001 72.5999C12.8001 72.4999 12.2001 72.7999 12.1001 73.2999C12.0001 73.7999 12.3001 74.3999 12.8001 74.4999C13.0001 74.4999 13.0001 74.4999 13.1001 74.4999ZM17.0001 58.8999C17.4001 58.8999 17.8001 58.5999 18.0001 58.0999C18.1001 57.5999 17.8001 56.9999 17.3001 56.8999C16.8001 56.7999 16.2001 57.0999 16.1001 57.5999C16.0001 58.0999 16.3001 58.6999 16.8001 58.7999C16.9001 58.8999 17.0001 58.8999 17.0001 58.8999ZM20.4001 43.1999C20.9001 43.1999 21.3001 42.8999 21.4001 42.3999C21.5001 41.8999 21.2001 41.2999 20.6001 41.1999C20.1001 41.0999 19.6001 41.3999 19.4001 41.9999C19.3001 42.4999 19.6001 43.0999 20.2001 43.1999C20.3001 43.1999 20.4001 43.1999 20.4001 43.1999ZM23.4001 27.2999C23.9001 27.2999 24.3001 26.9999 24.4001 26.4999C24.5001 25.9999 24.1001 25.4999 23.6001 25.3999C23.1001 25.2999 22.6001 25.6999 22.5001 26.1999C22.4001 26.6999 22.8001 27.1999 23.3001 27.2999C23.3001 27.2999 23.3001 27.2999 23.4001 27.2999ZM25.8001 11.3999C26.3001 11.3999 26.7001 10.9999 26.8001 10.4999C26.9001 9.99992 26.5001 9.49992 26.0001 9.39992C25.5001 9.29992 25.0001 9.69993 24.9001 10.1999C24.8001 10.6999 25.2001 11.1999 25.7001 11.2999C25.7001 11.3999 25.7001 11.3999 25.8001 11.3999ZM6.80011 54.5999C7.30011 54.5999 7.70013 54.2999 7.70013 53.7999C7.80013 53.2999 7.40015 52.7999 6.90015 52.7999C6.40015 52.6999 5.90015 53.0999 5.90015 53.5999C5.80015 54.0999 6.20013 54.5999 6.70013 54.6999C6.70013 54.5999 6.70011 54.5999 6.80011 54.5999ZM8.6001 38.5999C9.1001 38.5999 9.50012 38.1999 9.50012 37.7999C9.50012 37.2999 9.20013 36.7999 8.70013 36.7999C8.20013 36.7999 7.70013 37.0999 7.70013 37.5999C7.70013 38.0999 8.0001 38.4999 8.6001 38.5999ZM35.6001 114.5C35.8001 114.5 36.0001 114.3 36.0001 114.1C36.0001 113.9 35.8001 113.7 35.6001 113.7C35.4001 113.7 35.2001 113.9 35.2001 114.1C35.2001 114.3 35.3001 114.5 35.6001 114.5ZM20.0001 81.6999C20.2001 81.6999 20.4001 81.4999 20.4001 81.2999C20.4001 81.0999 20.3001 80.8999 20.0001 80.7999C19.8001 80.7999 19.6001 80.8999 19.6001 81.1999C19.6001 81.3999 19.8001 81.5999 20.0001 81.6999ZM22.7001 65.7999C22.9001 65.7999 23.1001 65.6999 23.1001 65.4999C23.1001 65.2999 23.0001 65.0999 22.8001 64.9999C22.6001 64.9999 22.4001 65.0999 22.3001 65.2999C22.3001 65.4999 22.4001 65.7999 22.7001 65.7999C22.6001 65.7999 22.7001 65.7999 22.7001 65.7999ZM26.6001 50.1999C26.8001 50.1999 26.9001 50.0999 27.0001 49.8999C27.1001 49.6999 26.9001 49.4999 26.7001 49.3999C26.5001 49.2999 26.3001 49.4999 26.2001 49.6999C26.1001 49.8999 26.3001 50.0999 26.5001 50.1999C26.6001 50.1999 26.6001 50.1999 26.6001 50.1999ZM31.6001 34.8999C31.8001 34.8999 31.9001 34.7999 32.0001 34.5999C32.1001 34.3999 32.0001 34.1999 31.8001 34.0999C31.6001 33.9999 31.4001 34.0999 31.3001 34.2999C31.2001 34.4999 31.3001 34.6999 31.5001 34.7999C31.5001 34.8999 31.5001 34.8999 31.6001 34.8999ZM37.1001 19.7999C37.3001 19.7999 37.4001 19.6999 37.5001 19.5999C37.6001 19.3999 37.5001 19.1999 37.3001 19.0999C37.1001 18.9999 36.9001 19.0999 36.8001 19.2999C36.7001 19.4999 36.8001 19.6999 37.0001 19.7999H37.1001ZM43.1001 4.89992C43.3001 4.89992 43.4001 4.79993 43.5001 4.69993C43.6001 4.49993 43.5001 4.29993 43.3001 4.19993C43.1001 4.09993 42.9001 4.19992 42.8001 4.39992C42.7001 4.59992 42.8001 4.79992 43.0001 4.89992H43.1001ZM16.2001 77.5999C16.4001 77.5999 16.6001 77.3999 16.7001 77.1999C16.7001 76.8999 16.6001 76.6999 16.3001 76.5999C16.0001 76.5999 15.8001 76.6999 15.7001 76.9999C15.7001 77.2999 15.9001 77.5999 16.2001 77.5999ZM19.4001 61.7999C19.6001 61.7999 19.8001 61.5999 19.9001 61.3999C20.0001 61.0999 19.8001 60.8999 19.5001 60.7999C19.2001 60.6999 19.0001 60.8999 18.9001 61.1999C18.8001 61.4999 19.0001 61.6999 19.3001 61.7999C19.3001 61.7999 19.3001 61.7999 19.4001 61.7999ZM23.7001 46.2999C23.9001 46.2999 24.1001 46.1999 24.2001 45.9999C24.3001 45.6999 24.1001 45.4999 23.9001 45.3999C23.6001 45.2999 23.4001 45.4999 23.3001 45.6999C23.2001 45.9999 23.4001 46.1999 23.6001 46.2999C23.6001 46.2999 23.6001 46.2999 23.7001 46.2999ZM29.1001 31.1999C29.3001 31.1999 29.5001 31.0999 29.6001 30.8999C29.7001 30.5999 29.6001 30.3999 29.3001 30.2999C29.0001 30.1999 28.8001 30.2999 28.7001 30.5999C28.6001 30.7999 28.7001 31.0999 29.0001 31.1999H29.1001ZM35.5001 16.3999C35.7001 16.3999 35.9001 16.2999 35.9001 16.0999C36.0001 15.8999 35.9001 15.5999 35.7001 15.3999C35.5001 15.2999 35.2001 15.3999 35.1001 15.5999C35.0001 15.7999 35.1001 16.0999 35.3001 16.2999C35.3001 16.3999 35.4001 16.3999 35.5001 16.3999ZM42.5001 1.99992C42.7001 1.99992 42.8001 1.89993 42.9001 1.69993C43.0001 1.49993 42.9001 1.19992 42.7001 0.999922C42.5001 0.899922 42.2001 0.999934 42.0001 1.19993C41.9001 1.39993 42.0001 1.69992 42.2001 1.89992C42.3001 1.89992 42.4001 1.99992 42.5001 1.99992ZM12.8001 72.2999C13.1001 72.2999 13.3001 72.0999 13.4001 71.7999C13.5001 71.4999 13.3001 71.1999 12.9001 71.0999C12.6001 70.9999 12.3001 71.1999 12.2001 71.5999C12.1001 71.8999 12.3001 72.1999 12.7001 72.2999C12.7001 72.2999 12.7001 72.2999 12.8001 72.2999ZM16.4001 56.6999C16.7001 56.6999 16.9001 56.4999 17.0001 56.2999C17.1001 55.9999 16.9001 55.6999 16.6001 55.5999C16.3001 55.4999 16.0001 55.6999 15.9001 55.9999C15.8001 56.2999 16.0001 56.5999 16.3001 56.6999H16.4001ZM21.5001 41.3999C21.7001 41.3999 21.9001 41.2999 22.0001 40.9999C22.1001 40.6999 22.0001 40.3999 21.7001 40.2999C21.4001 40.1999 21.1001 40.2999 20.9001 40.5999C20.8001 40.8999 20.9001 41.1999 21.2001 41.2999C21.3001 41.3999 21.4001 41.3999 21.5001 41.3999ZM27.8001 26.5999C28.0001 26.5999 28.2001 26.4999 28.3001 26.2999C28.4001 25.9999 28.3001 25.6999 28.0001 25.4999C27.7001 25.3999 27.4001 25.4999 27.2001 25.7999C27.1001 26.0999 27.2001 26.3999 27.5001 26.5999C27.6001 26.5999 27.7001 26.5999 27.8001 26.5999ZM35.2001 12.3999C35.4001 12.3999 35.6001 12.2999 35.7001 12.0999C35.9001 11.7999 35.8001 11.4999 35.5001 11.2999C35.2001 11.0999 34.9001 11.1999 34.7001 11.4999C34.5001 11.7999 34.6001 12.0999 34.9001 12.2999C35.0001 12.2999 35.1001 12.3999 35.2001 12.3999ZM14.2001 50.4999C14.5001 50.4999 14.7001 50.2999 14.8001 50.0999C14.9001 49.7999 14.7001 49.3999 14.4001 49.1999C14.1001 49.0999 13.7001 49.2999 13.6001 49.5999C13.5001 49.8999 13.7001 50.2999 14.0001 50.4999C14.1001 50.4999 14.2001 50.4999 14.2001 50.4999ZM20.4001 35.6999C20.6001 35.6999 20.9001 35.5999 21.0001 35.2999C21.2001 34.9999 21.0001 34.5999 20.7001 34.3999C20.4001 34.1999 20.0001 34.3999 19.8001 34.6999C19.6001 34.9999 19.8001 35.3999 20.1001 35.5999C20.2001 35.5999 20.3001 35.6999 20.4001 35.6999ZM27.9001 21.4999C28.1001 21.4999 28.3001 21.3999 28.5001 21.1999C28.7001 20.8999 28.6001 20.4999 28.3001 20.2999C28.0001 20.0999 27.6001 20.1999 27.4001 20.4999C27.2001 20.7999 27.3001 21.1999 27.6001 21.3999C27.7001 21.3999 27.8001 21.4999 27.9001 21.4999ZM36.8001 7.99992C37.0001 7.99992 37.2001 7.89993 37.3001 7.69993C37.5001 7.39993 37.5001 6.99991 37.1001 6.79991C36.8001 6.59991 36.4001 6.69992 36.2001 6.99992C36.0001 7.29992 36.0001 7.69992 36.3001 7.89992C36.5001 7.99992 36.6001 7.99992 36.8001 7.99992ZM7.50012 58.4999C7.80012 58.4999 8.10013 58.2999 8.20013 57.9999C8.30013 57.5999 8.10013 57.1999 7.70013 56.9999C7.30013 56.8999 6.90013 57.0999 6.70013 57.4999C6.60013 57.8999 6.80013 58.2999 7.20013 58.4999C7.30013 58.4999 7.40012 58.4999 7.50012 58.4999ZM13.4001 43.5999C13.7001 43.5999 14.0001 43.3999 14.1001 43.1999C14.3001 42.7999 14.1001 42.3999 13.7001 42.1999C13.3001 41.9999 12.9001 42.1999 12.7001 42.5999C12.5001 42.9999 12.7001 43.3999 13.1001 43.5999C13.2001 43.5999 13.3001 43.5999 13.4001 43.5999ZM21.0001 29.3999C21.3001 29.3999 21.5001 29.2999 21.6001 28.9999C21.8001 28.5999 21.7001 28.1999 21.4001 27.9999C21.0001 27.7999 20.6001 27.8999 20.4001 28.1999C20.2001 28.5999 20.3001 28.9999 20.6001 29.1999C20.7001 29.3999 20.8001 29.3999 21.0001 29.3999ZM30.1001 16.1999C30.3001 16.1999 30.6001 16.0999 30.7001 15.8999C31.0001 15.5999 30.9001 15.0999 30.6001 14.7999C30.3001 14.4999 29.8001 14.5999 29.5001 14.8999C29.2001 15.1999 29.3001 15.6999 29.6001 15.9999C29.8001 16.1999 29.9001 16.1999 30.1001 16.1999ZM40.7001 4.19993C40.9001 4.19993 41.1001 4.09992 41.2001 3.99992C41.5001 3.69992 41.5001 3.19992 41.2001 2.89992C40.9001 2.59992 40.4001 2.59992 40.1001 2.89992C39.8001 3.19992 39.8001 3.69992 40.1001 3.99992C40.3001 4.09992 40.5001 4.19993 40.7001 4.19993ZM6.80011 50.4999C7.10011 50.4999 7.4001 50.2999 7.6001 49.9999C7.8001 49.5999 7.60013 49.0999 7.20013 48.8999C6.80013 48.6999 6.3001 48.8999 6.1001 49.2999C5.9001 49.6999 6.10012 50.1999 6.50012 50.3999C6.60012 50.4999 6.70011 50.4999 6.80011 50.4999ZM14.4001 36.3999C14.7001 36.3999 15.0001 36.2999 15.1001 35.9999C15.3001 35.5999 15.2001 35.0999 14.8001 34.7999C14.4001 34.5999 13.9001 34.6999 13.6001 35.0999C13.4001 35.4999 13.5001 35.9999 13.9001 36.2999C14.1001 36.3999 14.2001 36.3999 14.4001 36.3999ZM23.7001 23.2999C23.9001 23.2999 24.2001 23.1999 24.4001 22.9999C24.7001 22.5999 24.6001 22.0999 24.3001 21.7999C23.9001 21.4999 23.4001 21.5999 23.1001 21.8999C22.8001 22.2999 22.9001 22.7999 23.2001 23.0999C23.3001 23.2999 23.5001 23.2999 23.7001 23.2999ZM34.7001 11.5999C34.9001 11.5999 35.1001 11.4999 35.3001 11.3999C35.7001 11.0999 35.7001 10.5999 35.4001 10.1999C35.1001 9.89993 34.6001 9.79993 34.2001 10.0999C33.9001 10.3999 33.8001 10.9999 34.1001 11.2999C34.2001 11.4999 34.4001 11.5999 34.7001 11.5999ZM8.20013 42.3999C8.50013 42.3999 8.80012 42.1999 9.00012 41.9999C9.30012 41.5999 9.20013 40.9999 8.70013 40.6999C8.30013 40.3999 7.70015 40.4999 7.40015 40.9999C7.10015 41.3999 7.30013 41.9999 7.70013 42.2999C7.90013 42.3999 8.00013 42.3999 8.20013 42.3999ZM17.8001 29.4999C18.1001 29.4999 18.3001 29.3999 18.5001 29.1999C18.8001 28.7999 18.8001 28.1999 18.4001 27.8999C18.0001 27.5999 17.4001 27.5999 17.1001 27.9999C16.8001 28.3999 16.8001 28.9999 17.2001 29.2999C17.3001 29.3999 17.5001 29.4999 17.8001 29.4999ZM29.0001 18.0999C29.2001 18.0999 29.4001 17.9999 29.6001 17.8999C30.0001 17.5999 30.0001 16.9999 29.7001 16.5999C29.4001 16.1999 28.8001 16.0999 28.4001 16.4999C28.0001 16.7999 28.0001 17.3999 28.3001 17.7999C28.5001 17.9999 28.7001 18.0999 29.0001 18.0999ZM42.1001 8.89992C42.3001 8.89992 42.4001 8.89991 42.6001 8.79991C43.0001 8.49991 43.2001 7.99992 42.9001 7.49992C42.6001 7.09992 42.1001 6.89993 41.6001 7.19993C41.2001 7.49993 41.0001 7.99992 41.3001 8.49992C41.5001 8.79992 41.8001 8.89992 42.1001 8.89992ZM12.2001 34.8999C12.5001 34.8999 12.8001 34.7999 13.0001 34.5999C13.4001 34.1999 13.3001 33.4999 12.9001 33.0999C12.5001 32.6999 11.8001 32.7999 11.5001 33.1999C11.1001 33.5999 11.2001 34.2999 11.6001 34.5999C11.7001 34.8999 12.0001 34.8999 12.2001 34.8999ZM23.7001 23.7999C23.9001 23.7999 24.1001 23.6999 24.3001 23.5999C24.7001 23.1999 24.8001 22.5999 24.5001 22.1999C24.1001 21.7999 23.5001 21.6999 23.1001 21.9999C22.7001 22.3999 22.6001 22.9999 22.9001 23.3999C23.1001 23.6999 23.4001 23.7999 23.7001 23.7999ZM37.3001 15.2999C37.5001 15.2999 37.6001 15.2999 37.8001 15.1999C38.3001 14.8999 38.5001 14.2999 38.2001 13.7999C38.0001 13.2999 37.3001 13.0999 36.8001 13.2999C36.3001 13.5999 36.1001 14.1999 36.3001 14.6999C36.5001 15.0999 36.9001 15.2999 37.3001 15.2999ZM7.1001 39.6999C7.4001 39.6999 7.70015 39.5999 7.90015 39.3999C8.30015 38.8999 8.30015 38.1999 7.90015 37.7999C7.50015 37.3999 6.80011 37.3999 6.30011 37.7999C5.90011 38.2999 5.90011 38.9999 6.30011 39.3999C6.60011 39.5999 6.8001 39.6999 7.1001 39.6999ZM19.0001 28.8999C19.2001 28.8999 19.5001 28.7999 19.7001 28.6999C20.2001 28.2999 20.3001 27.5999 19.9001 27.0999C19.5001 26.5999 18.8001 26.4999 18.3001 26.8999C17.8001 27.2999 17.7001 27.9999 18.1001 28.4999C18.3001 28.7999 18.6001 28.8999 19.0001 28.8999ZM32.8001 20.9999C32.9001 20.9999 33.1001 20.9999 33.2001 20.8999C33.8001 20.6999 34.0001 19.9999 33.8001 19.3999C33.6001 18.7999 32.9001 18.5999 32.3001 18.7999C31.7001 18.9999 31.5001 19.6999 31.7001 20.2999C32.0001 20.6999 32.4001 20.9999 32.8001 20.9999ZM14.7001 33.4999C14.9001 33.4999 15.2001 33.3999 15.4001 33.2999C15.9001 32.8999 16.1001 32.0999 15.7001 31.5999C15.3001 31.0999 14.6001 30.8999 14.0001 31.2999C13.5001 31.6999 13.4001 32.4999 13.7001 32.9999C13.9001 33.3999 14.3001 33.4999 14.7001 33.4999ZM28.8001 26.0999C28.9001 26.0999 29.1001 26.0999 29.2001 25.9999C29.8001 25.7999 30.1001 25.0999 29.9001 24.4999C29.7001 23.8999 29.0001 23.4999 28.4001 23.7999C27.8001 23.9999 27.5001 24.6999 27.7001 25.2999C27.9001 25.7999 28.3001 26.0999 28.8001 26.0999ZM44.1001 21.5999C44.2001 21.5999 44.3001 21.5999 44.4001 21.5999C45.0001 21.3999 45.4001 20.7999 45.2001 20.0999C45.0001 19.4999 44.4001 19.0999 43.7001 19.1999C43.1001 19.3999 42.7001 19.9999 42.9001 20.6999C43.1001 21.1999 43.6001 21.5999 44.1001 21.5999ZM10.8001 37.6999C11.0001 37.6999 11.3001 37.5999 11.5001 37.4999C12.1001 37.0999 12.2001 36.2999 11.9001 35.6999C11.5001 35.0999 10.7001 34.9999 10.1001 35.3999C9.5001 35.7999 9.40011 36.5999 9.80011 37.1999C10.0001 37.4999 10.4001 37.6999 10.8001 37.6999ZM25.2001 30.9999C25.3001 30.9999 25.5001 30.9999 25.6001 30.8999C26.3001 30.6999 26.7001 29.9999 26.5001 29.2999C26.3001 28.5999 25.6001 28.1999 24.9001 28.3999C24.2001 28.5999 23.8001 29.2999 24.0001 29.9999C24.2001 30.5999 24.7001 30.9999 25.2001 30.9999ZM40.8001 27.3999C40.9001 27.3999 41.0001 27.3999 41.0001 27.3999C41.7001 27.2999 42.2001 26.5999 42.0001 25.8999C41.9001 25.1999 41.2001 24.6999 40.5001 24.8999C39.8001 24.9999 39.3001 25.6999 39.5001 26.3999C39.7001 26.9999 40.2001 27.3999 40.8001 27.3999ZM7.40015 41.6999C7.60015 41.6999 7.9001 41.5999 8.1001 41.4999C8.7001 41.0999 8.90012 40.1999 8.50012 39.5999C8.10012 38.9999 7.3001 38.6999 6.6001 39.1999C6.0001 39.5999 5.80013 40.4999 6.20013 41.0999C6.50013 41.3999 6.90015 41.6999 7.40015 41.6999ZM22.1001 35.5999C22.2001 35.5999 22.3001 35.5999 22.4001 35.5999C23.1001 35.3999 23.6001 34.6999 23.4001 33.8999C23.2001 33.1999 22.5001 32.6999 21.7001 32.8999C21.0001 33.0999 20.5001 33.7999 20.7001 34.5999C20.9001 35.0999 21.5001 35.5999 22.1001 35.5999ZM37.9001 32.8999C38.0001 32.8999 38.0001 32.8999 38.1001 32.8999C38.9001 32.7999 39.4001 32.0999 39.3001 31.3999C39.2001 30.5999 38.5001 30.0999 37.8001 30.1999C37.0001 30.2999 36.5001 30.9999 36.6001 31.6999C36.6001 32.3999 37.2001 32.8999 37.9001 32.8999ZM19.4001 39.9999C19.5001 39.9999 19.6001 39.9999 19.7001 39.9999C20.5001 39.7999 21.0001 39.0999 20.9001 38.2999C20.7001 37.4999 20.0001 36.9999 19.2001 37.0999C18.4001 37.2999 17.9001 37.9999 18.0001 38.7999C18.1001 39.4999 18.7001 39.9999 19.4001 39.9999ZM35.3001 38.1999C35.3001 38.1999 35.4001 38.1999 35.3001 38.1999C36.2001 38.0999 36.8001 37.3999 36.8001 36.5999C36.7001 35.7999 36.0001 35.1999 35.2001 35.1999C34.4001 35.2999 33.8001 35.9999 33.8001 36.7999C33.9001 37.5999 34.5001 38.1999 35.3001 38.1999ZM51.3001 36.8999C51.4001 36.8999 51.4001 36.8999 51.5001 36.8999C52.3001 36.7999 52.9001 36.0999 52.8001 35.2999C52.7001 34.4999 52.0001 33.8999 51.2001 33.9999C50.4001 34.0999 49.8001 34.7999 49.9001 35.5999C49.9001 36.3999 50.5001 36.8999 51.3001 36.8999ZM66.8002 33.2999C67.0002 33.2999 67.2002 33.2999 67.3002 33.1999C68.1002 32.8999 68.4001 31.9999 68.1001 31.2999C67.8001 30.4999 67.0001 30.1999 66.2001 30.4999C65.4001 30.7999 65.1001 31.5999 65.4001 32.3999C65.7001 32.8999 66.2002 33.2999 66.8002 33.2999ZM17.0001 44.3999C17.1001 44.3999 17.1001 44.3999 17.2001 44.3999C18.0001 44.2999 18.6001 43.4999 18.5001 42.5999C18.4001 41.6999 17.6001 41.1999 16.7001 41.2999C15.9001 41.3999 15.3001 42.1999 15.4001 43.0999C15.6001 43.7999 16.3001 44.3999 17.0001 44.3999ZM33.0001 43.3999C33.9001 43.3999 34.6001 42.6999 34.6001 41.7999C34.6001 40.8999 33.9001 40.1999 33.0001 40.2999C32.1001 40.2999 31.4001 40.9999 31.5001 41.8999C31.5001 42.6999 32.2001 43.3999 33.0001 43.3999ZM49.0001 42.9999C49.0001 42.9999 49.1001 42.9999 49.0001 42.9999C49.9001 42.9999 50.6001 42.1999 50.6001 41.3999C50.6001 40.4999 49.8001 39.8999 49.0001 39.8999C48.1001 39.8999 47.5001 40.6999 47.5001 41.4999C47.5001 42.3999 48.2001 42.9999 49.0001 42.9999ZM64.8002 40.5999C64.9002 40.5999 65.1001 40.5999 65.2001 40.4999C66.0001 40.2999 66.5002 39.3999 66.3002 38.5999C66.1002 37.7999 65.2001 37.2999 64.4001 37.4999C63.6001 37.6999 63.1002 38.5999 63.3002 39.3999C63.5002 40.1999 64.1002 40.5999 64.8002 40.5999ZM47.0001 48.8999C47.9001 48.8999 48.6001 48.1999 48.6001 47.1999C48.6001 46.2999 47.9001 45.4999 47.0001 45.4999C46.1001 45.4999 45.4001 46.1999 45.4001 47.1999C45.4001 48.1999 46.1001 48.8999 47.0001 48.8999ZM15.0001 48.7999H15.1001C16.0001 48.6999 16.7001 47.8999 16.6001 46.9999C16.5001 46.0999 15.7001 45.3999 14.8001 45.4999C13.9001 45.5999 13.2001 46.3999 13.3001 47.2999C13.5001 48.0999 14.2001 48.7999 15.0001 48.7999ZM31.0001 48.4999C31.9001 48.4999 32.6001 47.7999 32.6001 46.8999C32.6001 45.9999 31.9001 45.1999 31.0001 45.1999C30.1001 45.1999 29.3001 45.8999 29.3001 46.7999C29.3001 47.6999 30.1001 48.4999 31.0001 48.4999ZM62.9001 47.5999C63.0001 47.5999 63.1001 47.5999 63.2001 47.5999C64.1001 47.3999 64.7001 46.5999 64.5001 45.6999C64.3001 44.7999 63.5001 44.1999 62.6001 44.3999C61.7001 44.5999 61.1002 45.3999 61.3002 46.2999C61.5002 47.0999 62.2001 47.5999 62.9001 47.5999ZM75.9001 39.6999C76.5001 39.6999 77.1001 39.2999 77.4001 38.7999C77.8001 37.9999 77.4001 36.9999 76.6001 36.5999C75.8001 36.1999 74.8001 36.5999 74.4001 37.3999C74.0001 38.1999 74.4001 39.1999 75.2001 39.5999C75.4001 39.6999 75.7001 39.6999 75.9001 39.6999ZM45.2001 54.7999C46.1001 54.7999 46.9001 54.0999 46.9001 53.0999C46.9001 52.0999 46.2001 51.2999 45.3001 51.2999C44.3001 51.2999 43.5001 51.9999 43.5001 52.9999C43.5001 53.8999 44.2001 54.6999 45.2001 54.7999ZM61.2001 54.3999C61.3001 54.3999 61.3001 54.3999 61.4001 54.3999C62.4001 54.2999 63.0001 53.3999 62.9001 52.4999C62.8001 51.4999 61.9001 50.8999 61.0001 50.9999C60.0001 51.0999 59.4001 51.9999 59.5001 52.8999C59.6001 53.6999 60.3001 54.3999 61.2001 54.3999ZM29.3001 53.6999C30.2001 53.6999 31.0001 52.9999 31.0001 52.0999C31.1001 51.0999 30.4001 50.2999 29.4001 50.1999C28.4001 50.0999 27.6001 50.8999 27.6001 51.7999C27.5001 52.7999 28.2001 53.5999 29.2001 53.6999C29.2001 53.6999 29.2001 53.6999 29.3001 53.6999ZM13.3001 53.1999C14.3001 53.1999 15.1001 52.3999 15.0001 51.3999C15.0001 50.3999 14.2001 49.6999 13.2001 49.6999C12.2001 49.6999 11.5001 50.4999 11.5001 51.4999C11.6001 52.3999 12.4001 53.1999 13.3001 53.1999ZM80.9001 33.3999C81.7001 33.3999 82.4001 32.8999 82.6001 32.0999C82.9001 31.1999 82.3001 30.1999 81.4001 29.9999C80.5001 29.6999 79.5002 30.2999 79.3002 31.1999C79.0002 32.0999 79.6001 33.0999 80.5001 33.2999C80.6001 33.3999 80.7001 33.3999 80.9001 33.3999ZM59.6001 60.9999H59.7001C60.7001 60.8999 61.5001 60.0999 61.4001 59.0999C61.3001 58.0999 60.5001 57.2999 59.5001 57.3999C58.5001 57.4999 57.7002 58.2999 57.8002 59.2999C57.9002 60.1999 58.7001 60.9999 59.6001 60.9999ZM43.7001 60.5999C44.6001 60.5999 45.4001 59.8999 45.5001 58.8999C45.6001 57.8999 44.9001 56.9999 43.9001 56.8999C42.9001 56.7999 42.0001 57.5999 41.9001 58.5999C41.8001 59.5999 42.5001 60.4999 43.6001 60.5999C43.6001 60.5999 43.6001 60.5999 43.7001 60.5999ZM27.8001 58.7999C28.7001 58.7999 29.5001 58.0999 29.6001 57.1999C29.7001 56.1999 29.0001 55.2999 28.0001 55.1999C27.0001 55.0999 26.1001 55.7999 26.0001 56.7999C25.9001 57.7999 26.6001 58.6999 27.6001 58.7999C27.6001 58.7999 27.7001 58.7999 27.8001 58.7999ZM11.8001 57.6999C12.8001 57.6999 13.6001 56.8999 13.6001 55.8999C13.6001 54.8999 12.8001 54.0999 11.8001 53.9999C10.8001 53.9999 10.0001 54.7999 10.0001 55.7999C10.0001 56.7999 10.8001 57.5999 11.8001 57.6999ZM74.8002 56.8999C75.3002 56.8999 75.8001 56.6999 76.1001 56.2999C76.8001 55.5999 76.8001 54.3999 76.0001 53.6999C75.3001 52.9999 74.1001 52.9999 73.4001 53.7999C72.7001 54.4999 72.7001 55.6999 73.5001 56.3999C73.9001 56.6999 74.4002 56.8999 74.8002 56.8999ZM81.0001 42.1999C81.8001 42.1999 82.5002 41.6999 82.8002 40.8999C83.1002 39.8999 82.5001 38.8999 81.5001 38.5999C80.5001 38.2999 79.5002 38.8999 79.3002 39.8999C79.0002 40.8999 79.6001 41.8999 80.6001 42.1999C80.7001 42.1999 80.9001 42.1999 81.0001 42.1999ZM58.3002 67.3999C59.4002 67.3999 60.2001 66.4999 60.2001 65.4999C60.2001 64.3999 59.3002 63.5999 58.3002 63.5999C57.3002 63.5999 56.4001 64.4999 56.4001 65.4999C56.4001 66.4999 57.2002 67.3999 58.3002 67.3999ZM42.3001 66.2999C43.3001 66.2999 44.1001 65.5999 44.2001 64.5999C44.3001 63.4999 43.6001 62.5999 42.5001 62.4999C41.5001 62.3999 40.5001 63.0999 40.4001 64.1999C40.3001 65.2999 41.0001 66.1999 42.1001 66.2999C42.1001 66.2999 42.2001 66.2999 42.3001 66.2999ZM26.5001 63.9999C27.4001 63.9999 28.3001 63.2999 28.4001 62.3999C28.6001 61.3999 27.8001 60.3999 26.8001 60.1999C25.8001 59.9999 24.8001 60.7999 24.6001 61.7999C24.4001 62.7999 25.2001 63.7999 26.2001 63.9999C26.3001 63.9999 26.4001 63.9999 26.5001 63.9999ZM10.6001 62.1999C11.6001 62.1999 12.4001 61.3999 12.5001 60.3999C12.6001 59.2999 11.8001 58.3999 10.7001 58.3999C9.60013 58.2999 8.70013 59.0999 8.70013 60.1999C8.60013 61.2999 9.40012 62.1999 10.5001 62.1999C10.5001 62.1999 10.5001 62.1999 10.6001 62.1999ZM86.2001 35.4999C86.9001 35.4999 87.6001 35.0999 87.9001 34.3999C88.4001 33.3999 88.0001 32.2999 87.0001 31.7999C86.0001 31.2999 84.9001 31.6999 84.4001 32.6999C83.9001 33.5999 84.3002 34.7999 85.3002 35.2999C85.6002 35.4999 85.9001 35.4999 86.2001 35.4999ZM57.0001 73.6999C58.1001 73.6999 59.0001 72.7999 59.0001 71.7999C59.0001 70.6999 58.2001 69.7999 57.1001 69.6999C56.0001 69.6999 55.1001 70.4999 55.0001 71.5999C54.9001 72.6999 55.8001 73.6999 57.0001 73.6999C56.9001 73.6999 56.9001 73.6999 57.0001 73.6999ZM41.1001 71.9999C42.1001 71.9999 42.9001 71.2999 43.1001 70.2999C43.3001 69.1999 42.5001 68.1999 41.4001 67.9999C40.3001 67.7999 39.3001 68.5999 39.1001 69.6999C38.9001 70.7999 39.7001 71.7999 40.8001 71.9999C40.9001 71.9999 41.0001 71.9999 41.1001 71.9999ZM25.3001 69.2999C26.3001 69.2999 27.1001 68.5999 27.3001 67.5999C27.5001 66.4999 26.8001 65.4999 25.7001 65.2999C24.6001 65.0999 23.6001 65.7999 23.4001 66.8999C23.2001 67.9999 23.9001 68.9999 25.0001 69.1999C25.1001 69.2999 25.2001 69.2999 25.3001 69.2999ZM9.50012 66.8999C10.5001 66.8999 11.4001 66.0999 11.5001 65.0999C11.6001 63.9999 10.8001 62.9999 9.70013 62.8999C8.60013 62.7999 7.60012 63.5999 7.50012 64.6999C7.40012 65.7999 8.20011 66.7999 9.30011 66.8999C9.30011 66.8999 9.40012 66.8999 9.50012 66.8999ZM86.1001 43.9999C86.9001 43.9999 87.7001 43.4999 88.0001 42.6999C88.4001 41.6999 87.9001 40.4999 86.9001 40.0999C85.9001 39.6999 84.7002 40.1999 84.3002 41.1999C83.9002 42.1999 84.4001 43.3999 85.4001 43.7999C85.6001 43.9999 85.9001 43.9999 86.1001 43.9999ZM96.8002 32.5999C97.3002 32.5999 97.8001 32.3999 98.2001 32.0999C99.0001 31.2999 99.0002 30.0999 98.3002 29.2999C97.5002 28.4999 96.3001 28.4999 95.5001 29.1999C94.7001 29.9999 94.7001 31.1999 95.4001 31.9999C95.8001 32.3999 96.3002 32.5999 96.8002 32.5999ZM49.4001 74.4999C50.5001 74.4999 51.4001 73.5999 51.4001 72.4999C51.4001 71.3999 50.5001 70.4999 49.4001 70.5999C48.3001 70.5999 47.4001 71.4999 47.5001 72.5999C47.4001 73.5999 48.3001 74.4999 49.4001 74.4999ZM33.4001 73.2999C34.4001 73.2999 35.2001 72.5999 35.3001 71.5999C35.4001 70.4999 34.7001 69.4999 33.6001 69.3999C32.5001 69.2999 31.6001 69.9999 31.4001 71.0999C31.3001 72.1999 32.0001 73.1999 33.1001 73.2999C33.3001 73.2999 33.3001 73.2999 33.4001 73.2999ZM17.6001 71.0999C18.6001 71.0999 19.4001 70.3999 19.5001 69.3999C19.7001 68.2999 18.9001 67.2999 17.8001 67.1999C16.7001 66.9999 15.7001 67.7999 15.6001 68.8999C15.5001 69.9999 16.2001 70.9999 17.3001 71.0999C17.4001 71.0999 17.5001 71.0999 17.6001 71.0999ZM72.1001 57.7999C73.0001 57.7999 73.8001 57.1999 74.0001 56.2999C74.3001 55.2999 73.6001 54.1999 72.6001 53.8999C71.6001 53.5999 70.5001 54.2999 70.2001 55.2999C69.9001 56.3999 70.5001 57.3999 71.6001 57.6999C71.7001 57.7999 71.9001 57.7999 72.1001 57.7999ZM76.5001 42.3999C77.3001 42.3999 78.0002 41.9999 78.3002 41.1999C78.7002 40.1999 78.3002 38.9999 77.3002 38.5999C76.3002 38.1999 75.2001 38.5999 74.7001 39.5999C74.3001 40.5999 74.7001 41.6999 75.7001 42.1999C76.0001 42.2999 76.3001 42.3999 76.5001 42.3999ZM42.5001 75.2999H42.6001C43.7001 75.1999 44.4001 74.2999 44.4001 73.1999C44.3001 72.0999 43.4001 71.2999 42.4001 71.3999C41.3001 71.4999 40.6001 72.3999 40.6001 73.4999C40.7001 74.4999 41.5001 75.2999 42.5001 75.2999ZM26.6001 74.7999C27.6001 74.7999 28.4001 74.0999 28.5001 73.0999C28.6001 71.9999 27.8001 71.0999 26.8001 70.9999C25.8001 70.8999 24.8001 71.6999 24.7001 72.6999C24.6001 73.7999 25.4001 74.6999 26.4001 74.7999C26.5001 74.7999 26.5001 74.7999 26.6001 74.7999ZM57.5001 70.6999C58.1001 70.6999 58.6001 70.4999 59.0001 69.9999C59.7001 69.1999 59.5001 67.9999 58.7001 67.2999C57.9001 66.5999 56.7001 66.7999 56.0001 67.5999C55.3001 68.3999 55.5002 69.5999 56.3002 70.2999C56.7002 70.4999 57.1001 70.6999 57.5001 70.6999ZM62.7001 55.4999C63.6001 55.4999 64.4001 54.8999 64.6001 53.9999C64.8001 52.9999 64.2001 51.8999 63.1001 51.6999C62.1001 51.4999 61.1002 52.0999 60.8002 53.1999C60.6002 54.1999 61.2002 55.2999 62.3002 55.4999C62.4002 55.4999 62.6001 55.4999 62.7001 55.4999ZM67.3002 40.1999C67.9002 40.1999 68.5001 39.8999 68.9001 39.2999C69.5001 38.3999 69.2002 37.1999 68.3002 36.5999C67.4002 35.9999 66.2001 36.2999 65.7001 37.1999C65.1001 38.0999 65.4002 39.2999 66.3002 39.8999C66.6002 40.0999 67.0002 40.1999 67.3002 40.1999ZM20.7001 76.4999C21.7001 76.4999 22.5001 75.6999 22.6001 74.6999C22.6001 73.6999 21.8001 72.7999 20.8001 72.7999C19.8001 72.7999 18.9001 73.5999 18.9001 74.5999C18.8001 75.5999 19.6001 76.3999 20.7001 76.4999ZM36.7001 75.6999C36.8001 75.6999 36.9001 75.6999 37.0001 75.6999C38.0001 75.4999 38.7001 74.4999 38.5001 73.4999C38.3001 72.4999 37.3001 71.7999 36.3001 71.9999C35.3001 72.1999 34.6001 73.1999 34.8001 74.1999C35.0001 75.0999 35.8001 75.6999 36.7001 75.6999ZM49.7001 67.9999C50.4001 67.9999 51.1001 67.4999 51.4001 66.7999C51.8001 65.7999 51.3001 64.6999 50.4001 64.3999C49.4001 63.9999 48.4001 64.4999 48.0001 65.4999C47.6001 66.4999 48.1001 67.5999 49.0001 67.8999C49.3001 67.9999 49.5001 67.9999 49.7001 67.9999ZM53.3001 52.2999C54.2001 52.2999 55.0001 51.6999 55.1001 50.7999C55.3001 49.7999 54.6001 48.7999 53.6001 48.5999C52.6001 48.3999 51.6001 49.0999 51.4001 50.0999C51.2001 51.0999 51.9001 52.0999 52.9001 52.2999C53.1001 52.2999 53.2001 52.2999 53.3001 52.2999ZM59.3002 37.7999C59.8002 37.7999 60.2001 37.5999 60.6001 37.2999C61.3001 36.5999 61.4001 35.3999 60.6001 34.5999C59.9001 33.8999 58.7001 33.7999 58.0001 34.5999C57.3001 35.2999 57.2001 36.4999 58.0001 37.2999C58.4001 37.6999 58.9002 37.7999 59.3002 37.7999ZM16.1001 78.0999C17.2001 78.0999 18.0001 77.1999 17.9001 76.1999C17.9001 75.1999 17.0001 74.3999 16.0001 74.3999C15.0001 74.3999 14.2001 75.2999 14.2001 76.2999C14.3001 77.2999 15.1001 78.0999 16.1001 78.0999ZM31.8001 75.4999C32.0001 75.4999 32.2001 75.4999 32.4001 75.3999C33.3001 75.0999 33.8001 73.9999 33.5001 73.0999C33.1001 72.1999 32.1001 71.6999 31.2001 71.9999C30.2001 72.2999 29.8001 73.3999 30.1001 74.2999C30.4001 74.9999 31.1001 75.4999 31.8001 75.4999ZM41.3001 63.9999C42.1001 63.9999 42.9001 63.3999 43.1001 62.4999C43.3001 61.4999 42.7001 60.4999 41.7001 60.2999C40.7001 60.0999 39.7001 60.6999 39.5001 61.6999C39.3001 62.6999 39.9001 63.6999 40.9001 63.8999C41.1001 63.9999 41.2001 63.9999 41.3001 63.9999ZM43.9001 48.0999C44.8001 48.0999 45.5001 47.4999 45.7001 46.5999C45.9001 45.5999 45.3001 44.5999 44.3001 44.4999C43.3001 44.2999 42.4001 44.9999 42.2001 45.8999C42.0001 46.8999 42.6001 47.8999 43.6001 47.9999C43.7001 48.0999 43.8001 48.0999 43.9001 48.0999ZM51.4001 34.1999C52.0001 34.1999 52.6001 33.8999 53.0001 33.2999C53.5001 32.3999 53.2001 31.2999 52.4001 30.7999C51.5001 30.2999 50.4001 30.5999 49.9001 31.3999C49.4001 32.2999 49.7001 33.3999 50.5001 33.8999C50.7001 34.0999 51.1001 34.1999 51.4001 34.1999ZM12.8001 79.1999C12.9001 79.1999 13.0001 79.1999 13.1001 79.1999C14.1001 78.9999 14.7001 78.0999 14.6001 77.0999C14.4001 76.0999 13.5001 75.4999 12.6001 75.5999C11.6001 75.7999 11.0001 76.6999 11.1001 77.6999C11.2001 78.5999 12.0001 79.1999 12.8001 79.1999ZM27.6001 73.5999C28.0001 73.5999 28.3001 73.4999 28.7001 73.1999C29.5001 72.5999 29.7001 71.4999 29.1001 70.6999C28.5001 69.8999 27.4001 69.6999 26.6001 70.2999C25.8001 70.8999 25.6001 71.9999 26.2001 72.7999C26.5001 73.2999 27.1001 73.5999 27.6001 73.5999ZM32.3001 58.6999C33.2001 58.6999 34.0001 57.9999 34.1001 57.0999C34.2001 56.0999 33.5001 55.1999 32.5001 55.0999C31.5001 54.9999 30.6001 55.6999 30.5001 56.6999C30.4001 57.6999 31.1001 58.5999 32.1001 58.6999C32.2001 58.6999 32.3001 58.6999 32.3001 58.6999ZM34.9001 42.7999C35.6001 42.7999 36.3001 42.3999 36.6001 41.5999C36.9001 40.6999 36.5001 39.5999 35.6001 39.2999C34.7001 38.9999 33.7001 39.3999 33.3001 40.2999C33.0001 41.1999 33.4001 42.2999 34.3001 42.5999C34.4001 42.7999 34.7001 42.7999 34.9001 42.7999ZM42.0001 28.5999C42.8001 28.5999 43.6001 27.9999 43.7001 27.1999C43.9001 26.1999 43.3001 25.2999 42.3001 25.0999C41.3001 24.8999 40.4001 25.4999 40.2001 26.4999C40.0001 27.4999 40.6001 28.3999 41.6001 28.5999C41.8001 28.5999 41.9001 28.5999 42.0001 28.5999ZM40.5001 12.7999C40.7001 12.7999 40.9001 12.7999 41.1001 12.6999C42.0001 12.3999 42.5001 11.2999 42.1001 10.3999C41.8001 9.49992 40.7001 8.99991 39.8001 9.29991C38.9001 9.59991 38.4001 10.6999 38.7001 11.5999C39.1001 12.3999 39.7001 12.7999 40.5001 12.7999ZM21.5001 67.9999C22.3001 67.9999 23.1001 67.3999 23.2001 66.5999C23.4001 65.6999 22.7001 64.6999 21.8001 64.5999C20.9001 64.3999 20.0001 65.0999 19.8001 65.9999C19.6001 66.8999 20.2001 67.8999 21.2001 67.9999C21.3001 67.9999 21.4001 67.9999 21.5001 67.9999ZM22.8001 51.9999C23.7001 51.9999 24.5001 51.2999 24.5001 50.3999C24.6001 49.3999 23.9001 48.5999 22.9001 48.4999C21.9001 48.3999 21.1001 49.0999 21.0001 50.0999C20.9001 51.0999 21.6001 51.8999 22.6001 51.9999C22.8001 51.9999 22.8001 51.9999 22.8001 51.9999ZM27.7001 36.8999C28.3001 36.8999 29.0001 36.4999 29.3001 35.8999C29.7001 34.9999 29.4001 33.9999 28.5001 33.5999C27.6001 33.1999 26.6001 33.4999 26.2001 34.3999C25.8001 35.2999 26.1001 36.2999 27.0001 36.6999C27.2001 36.7999 27.4001 36.8999 27.7001 36.8999ZM30.1001 21.1999C30.2001 21.1999 30.3001 21.1999 30.3001 21.1999C31.3001 21.0999 31.9001 20.1999 31.8001 19.1999C31.7001 18.2999 30.8001 17.5999 29.9001 17.6999C28.9001 17.7999 28.3001 18.6999 28.4001 19.6999C28.5001 20.5999 29.3001 21.1999 30.1001 21.1999ZM24.8001 6.09993C25.1001 6.09993 25.4001 5.99992 25.6001 5.89992C26.4001 5.39992 26.7001 4.39992 26.3001 3.49992C25.8001 2.69992 24.8001 2.29991 23.9001 2.79991C23.1001 3.29991 22.8001 4.29993 23.2001 5.19993C23.6001 5.79993 24.2001 6.09993 24.8001 6.09993ZM12.4001 59.7999C13.3001 59.7999 14.1001 59.0999 14.1001 58.0999C14.1001 57.1999 13.4001 56.3999 12.5001 56.3999C11.6001 56.3999 10.8001 57.0999 10.8001 58.0999C10.7001 58.9999 11.5001 59.7999 12.4001 59.7999ZM13.5001 43.6999C14.2001 43.6999 14.9001 43.1999 15.1001 42.4999C15.3001 41.5999 14.8001 40.6999 13.9001 40.3999C13.0001 40.1999 12.1001 40.6999 11.8001 41.5999C11.6001 42.4999 12.1001 43.3999 13.0001 43.6999C13.2001 43.6999 13.4001 43.6999 13.5001 43.6999ZM18.2001 28.4999C19.1001 28.4999 19.8001 27.7999 19.9001 26.8999C20.0001 25.9999 19.2001 25.1999 18.3001 25.0999C17.4001 24.9999 16.6001 25.7999 16.5001 26.6999C16.5001 27.5999 17.2001 28.4999 18.2001 28.4999ZM2.6001 65.8999C3.5001 65.8999 4.20013 65.1999 4.20013 64.2999C4.20013 63.3999 3.5001 62.5999 2.6001 62.5999C1.7001 62.5999 1.00012 63.2999 1.00012 64.1999C0.900122 65.1999 1.7001 65.8999 2.6001 65.8999ZM2.30011 49.7999C3.20011 49.7999 3.90015 49.0999 3.90015 48.1999C3.90015 47.2999 3.20011 46.4999 2.30011 46.4999C1.40011 46.4999 0.600098 47.1999 0.600098 48.0999C0.700098 49.0999 1.40011 49.7999 2.30011 49.7999ZM40.4001 112.5C40.8001 112.7 41.3001 112.6 41.6001 112.2C42.1001 111.7 42.1001 111 41.6001 110.5C41.1001 110 40.4001 110 39.9001 110.5C39.4001 111 39.4001 111.7 39.9001 112.2C40.1001 112.3 40.3001 112.4 40.4001 112.5ZM29.6001 98.1999C30.0001 98.3999 30.5001 98.2999 30.8001 97.9999C31.3001 97.5999 31.3001 96.7999 30.9001 96.2999C30.5001 95.7999 29.7001 95.7999 29.2001 96.1999C28.7001 96.5999 28.7001 97.3999 29.1001 97.8999C29.3001 97.9999 29.5001 98.0999 29.6001 98.1999ZM41.8001 87.6999C42.2001 87.7999 42.6001 87.7999 43.0001 87.4999C43.5001 87.0999 43.6001 86.2999 43.2001 85.7999C42.8001 85.2999 42.0001 85.1999 41.5001 85.5999C41.0001 85.9999 40.9001 86.7999 41.3001 87.2999C41.4001 87.4999 41.6001 87.5999 41.8001 87.6999ZM54.3001 77.5999C54.7001 77.6999 55.1001 77.6999 55.5001 77.3999C56.0001 76.9999 56.1001 76.1999 55.7001 75.6999C55.3001 75.1999 54.5001 75.0999 54.0001 75.4999C53.5001 75.8999 53.4001 76.6999 53.8001 77.1999C53.9001 77.3999 54.1001 77.5999 54.3001 77.5999ZM103.9 36.8999C104.3 37.0999 104.8 36.9999 105.2 36.5999C105.7 36.0999 105.7 35.3999 105.2 34.8999C104.7 34.3999 104 34.3999 103.5 34.8999C103 35.3999 103 36.0999 103.5 36.5999C103.6 36.6999 103.8 36.7999 103.9 36.8999ZM18.1001 84.6999C18.5001 84.7999 18.9001 84.7999 19.3001 84.4999C19.8001 84.0999 19.9001 83.2999 19.4001 82.7999C19.0001 82.2999 18.2001 82.1999 17.7001 82.6999C17.2001 83.0999 17.1001 83.8999 17.5001 84.3999C17.8001 84.4999 17.9001 84.5999 18.1001 84.6999ZM30.6001 74.5999C31.0001 74.6999 31.4001 74.6999 31.7001 74.3999C32.2001 73.9999 32.3001 73.1999 31.9001 72.6999C31.5001 72.1999 30.7001 72.0999 30.2001 72.4999C29.7001 72.8999 29.6001 73.6999 30.0001 74.1999C30.2001 74.3999 30.4001 74.4999 30.6001 74.5999ZM43.5001 64.9999C43.9001 65.0999 44.3001 65.0999 44.6001 64.7999C45.1001 64.3999 45.3001 63.5999 44.9001 63.0999C44.5001 62.5999 43.8001 62.3999 43.2001 62.7999C42.7001 63.1999 42.5001 63.8999 42.9001 64.4999C43.1001 64.7999 43.3001 64.8999 43.5001 64.9999ZM56.6001 55.6999C57.0001 55.7999 57.4001 55.7999 57.7001 55.5999C58.3001 55.1999 58.4001 54.4999 58.0001 53.8999C57.6001 53.3999 56.9002 53.1999 56.3002 53.5999C55.8002 53.9999 55.6001 54.6999 56.0001 55.2999C56.2001 55.4999 56.4001 55.5999 56.6001 55.6999ZM69.8002 46.4999C70.2002 46.5999 70.6001 46.5999 70.9001 46.2999C71.4001 45.8999 71.6001 45.1999 71.2001 44.5999C70.8001 44.0999 70.1001 43.8999 69.5001 44.2999C69.0001 44.6999 68.8001 45.4999 69.2001 45.9999C69.3001 46.2999 69.5002 46.3999 69.8002 46.4999ZM82.5001 36.7999C82.9001 36.8999 83.3001 36.8999 83.7001 36.5999C84.2001 36.1999 84.3001 35.3999 83.9001 34.8999C83.5001 34.3999 82.7001 34.2999 82.2001 34.6999C81.7001 35.0999 81.6001 35.8999 82.0001 36.3999C82.2001 36.5999 82.3001 36.6999 82.5001 36.7999ZM18.7001 62.0999C19.1001 62.1999 19.5001 62.1999 19.8001 61.8999C20.3001 61.4999 20.4001 60.7999 20.1001 60.1999C19.7001 59.6999 19.0001 59.4999 18.4001 59.8999C17.9001 60.2999 17.7001 61.0999 18.1001 61.5999C18.3001 61.8999 18.5001 62.0999 18.7001 62.0999ZM31.8001 52.8999C32.1001 52.9999 32.6001 52.9999 32.9001 52.7999C33.4001 52.3999 33.6001 51.6999 33.2001 51.0999C32.8001 50.5999 32.1001 50.3999 31.5001 50.7999C31.0001 51.1999 30.8001 51.8999 31.2001 52.4999C31.4001 52.5999 31.6001 52.7999 31.8001 52.8999ZM45.2001 43.9999C45.5001 44.0999 45.9001 44.0999 46.3001 43.8999C46.9001 43.4999 47.0001 42.7999 46.7001 42.1999C46.3001 41.5999 45.6001 41.4999 45.0001 41.7999C44.4001 42.1999 44.3001 42.8999 44.6001 43.4999C44.8001 43.7999 45.0001 43.9999 45.2001 43.9999ZM58.7001 35.2999C59.0001 35.3999 59.5002 35.3999 59.8002 35.1999C60.4002 34.7999 60.5001 34.0999 60.1001 33.4999C59.7001 32.8999 59.0001 32.7999 58.4001 33.1999C57.8001 33.5999 57.7001 34.2999 58.1001 34.8999C58.3001 35.0999 58.5001 35.1999 58.7001 35.2999ZM6.1001 50.0999C6.5001 50.1999 6.90013 50.1999 7.20013 49.9999C7.70013 49.5999 7.90012 48.8999 7.50012 48.2999C7.10012 47.6999 6.40011 47.5999 5.80011 47.9999C5.20011 48.3999 5.10012 49.0999 5.50012 49.6999C5.60012 49.8999 5.8001 50.0999 6.1001 50.0999ZM19.4001 41.1999C19.7001 41.2999 20.1001 41.2999 20.5001 41.0999C21.1001 40.6999 21.2001 39.9999 20.9001 39.3999C20.5001 38.7999 19.8001 38.6999 19.2001 38.9999C18.6001 39.3999 18.5001 40.0999 18.8001 40.6999C19.0001 40.9999 19.2001 41.0999 19.4001 41.1999ZM33.1001 32.7999C33.4001 32.8999 33.8001 32.8999 34.1001 32.6999C34.7001 32.3999 34.9001 31.5999 34.5001 30.9999C34.2001 30.3999 33.4001 30.1999 32.9001 30.5999C32.3001 30.8999 32.1001 31.6999 32.5001 32.2999C32.6001 32.4999 32.8001 32.6999 33.1001 32.7999ZM10.3001 41.5999C10.7001 41.6999 11.1001 41.6999 11.4001 41.3999C11.9001 40.9999 12.0001 40.2999 11.6001 39.7999C11.2001 39.2999 10.5001 39.1999 10.0001 39.5999C9.50012 39.9999 9.40011 40.6999 9.80011 41.1999C9.90011 41.3999 10.1001 41.4999 10.3001 41.5999ZM23.4001 32.1999C23.7001 32.2999 24.1001 32.2999 24.5001 32.0999C25.0001 31.6999 25.2001 30.9999 24.8001 30.4999C24.4001 29.9999 23.7001 29.7999 23.2001 30.1999C22.7001 30.5999 22.5001 31.2999 22.9001 31.7999C23.0001 31.9999 23.2001 32.0999 23.4001 32.1999ZM36.7001 23.1999C37.0001 23.2999 37.4001 23.2999 37.8001 23.0999C38.3001 22.6999 38.5001 21.9999 38.1001 21.4999C37.7001 20.9999 37.0001 20.7999 36.5001 21.1999C36.0001 21.5999 35.8001 22.2999 36.2001 22.7999C36.2001 22.8999 36.4001 23.0999 36.7001 23.1999ZM15.6001 30.6999C16.0001 30.7999 16.4001 30.7999 16.7001 30.4999C17.2001 30.0999 17.3001 29.3999 16.9001 28.8999C16.5001 28.3999 15.8001 28.2999 15.3001 28.6999C14.8001 29.0999 14.7001 29.7999 15.1001 30.2999C15.3001 30.4999 15.5001 30.5999 15.6001 30.6999ZM28.2001 20.6999C28.6001 20.7999 29.0001 20.7999 29.3001 20.4999C29.8001 20.0999 29.9001 19.3999 29.5001 18.8999C29.1001 18.3999 28.4001 18.2999 27.9001 18.6999C27.4001 19.0999 27.3001 19.7999 27.7001 20.2999C27.9001 20.4999 28.1001 20.6999 28.2001 20.6999ZM40.7001 10.5999C41.1001 10.6999 41.5001 10.6999 41.8001 10.3999C42.3001 9.99992 42.3001 9.29991 42.0001 8.79991C41.6001 8.29991 40.9001 8.29993 40.4001 8.59993C39.9001 8.99993 39.8001 9.69993 40.2001 10.1999C40.4001 10.3999 40.6001 10.5999 40.7001 10.5999ZM20.7001 17.3999C21.1001 17.4999 21.5001 17.4999 21.8001 17.1999C22.2001 16.7999 22.3001 16.0999 21.9001 15.6999C21.5001 15.2999 20.8001 15.1999 20.4001 15.5999C20.0001 15.9999 19.9001 16.6999 20.3001 17.0999C20.4001 17.2999 20.5001 17.3999 20.7001 17.3999ZM32.4001 6.49992C32.8001 6.59992 33.2001 6.59991 33.5001 6.29991C33.9001 5.89991 33.9001 5.19991 33.5001 4.79991C33.1001 4.39991 32.4001 4.29991 32.0001 4.79991C31.6001 5.19991 31.6001 5.89991 32.0001 6.29991C32.2001 6.29991 32.3001 6.39992 32.4001 6.49992ZM26.7001 7.29991C27.1001 7.39991 27.6001 7.29992 27.8001 6.99992C28.2001 6.59992 28.1001 5.89993 27.7001 5.59993C27.3001 5.19993 26.6001 5.29993 26.3001 5.69993C25.9001 6.09993 26.0001 6.79993 26.4001 7.09993C26.5001 7.19993 26.6001 7.19991 26.7001 7.29991ZM36.5001 115.9C36.6001 115.9 36.8001 116 36.9001 115.9C37.2001 115.8 37.4001 115.5 37.3001 115.2C37.2001 114.9 36.9001 114.7 36.6001 114.8C36.3001 114.9 36.1001 115.2 36.2001 115.5C36.2001 115.7 36.3001 115.9 36.5001 115.9ZM30.4001 101.1C30.5001 101.2 30.7001 101.1 30.9001 101.1C31.2001 100.9 31.3001 100.6 31.2001 100.3C31.1001 99.9999 30.7001 99.8999 30.4001 100.1C30.1001 100.2 30.0001 100.6 30.2001 100.9C30.1001 101 30.2001 101.1 30.4001 101.1ZM21.8001 87.6999C22.0001 87.7999 22.2001 87.6999 22.4001 87.5999C22.7001 87.3999 22.7001 86.9999 22.5001 86.7999C22.3001 86.4999 21.9001 86.4999 21.7001 86.6999C21.4001 86.8999 21.4001 87.2999 21.6001 87.4999C21.6001 87.5999 21.7001 87.5999 21.8001 87.6999ZM10.9001 75.8999C11.1001 75.9999 11.4001 75.8999 11.5001 75.6999C11.7001 75.4999 11.7001 75.0999 11.5001 74.8999C11.3001 74.6999 10.9001 74.6999 10.7001 74.8999C10.5001 75.0999 10.5001 75.4999 10.7001 75.6999C10.8001 75.8999 10.9001 75.8999 10.9001 75.8999ZM41.1001 104.6C41.2001 104.6 41.4001 104.6 41.5001 104.6C41.8001 104.5 41.9001 104.2 41.8001 103.9C41.7001 103.6 41.4001 103.5 41.1001 103.6C40.8001 103.7 40.7001 104 40.8001 104.3C40.9001 104.5 41.0001 104.6 41.1001 104.6ZM33.2001 90.7999C33.4001 90.8999 33.6001 90.7999 33.7001 90.6999C33.9001 90.4999 34.0001 90.1999 33.8001 89.8999C33.6001 89.6999 33.3001 89.5999 33.1001 89.7999C32.9001 89.9999 32.8001 90.2999 33.0001 90.4999C33.0001 90.6999 33.1001 90.6999 33.2001 90.7999ZM22.8001 78.6999C23.0001 78.7999 23.2001 78.6999 23.4001 78.5999C23.6001 78.3999 23.6001 77.9999 23.4001 77.7999C23.2001 77.5999 22.9001 77.5999 22.6001 77.7999C22.4001 77.9999 22.4001 78.2999 22.6001 78.5999C22.6001 78.5999 22.7001 78.6999 22.8001 78.6999ZM10.4001 68.4999C10.6001 68.5999 10.9001 68.4999 11.0001 68.2999C11.2001 68.0999 11.1001 67.6999 10.9001 67.5999C10.7001 67.3999 10.3001 67.4999 10.2001 67.6999C10.0001 67.8999 10.1001 68.2999 10.3001 68.3999C10.3001 68.4999 10.4001 68.4999 10.4001 68.4999ZM43.7001 92.5999C43.8001 92.6999 44.0001 92.5999 44.1001 92.4999C44.3001 92.2999 44.4001 91.9999 44.2001 91.7999C44.1001 91.5999 43.8001 91.4999 43.5001 91.6999C43.3001 91.7999 43.2001 92.1999 43.4001 92.3999C43.6001 92.4999 43.7001 92.4999 43.7001 92.5999ZM33.7001 80.1999C33.9001 80.2999 34.1001 80.1999 34.2001 80.0999C34.4001 79.8999 34.4001 79.5999 34.2001 79.3999C34.0001 79.1999 33.7001 79.1999 33.5001 79.3999C33.3001 79.5999 33.3001 79.8999 33.5001 80.0999C33.6001 80.0999 33.6001 80.1999 33.7001 80.1999ZM21.5001 69.8999C21.7001 69.9999 21.9001 69.8999 22.1001 69.6999C22.3001 69.4999 22.2001 69.1999 22.0001 68.9999C21.8001 68.7999 21.5001 68.8999 21.3001 69.0999C21.2001 69.2999 21.2001 69.5999 21.4001 69.7999C21.4001 69.7999 21.4001 69.8999 21.5001 69.8999ZM7.90015 61.3999C8.10015 61.4999 8.40012 61.3999 8.50012 61.1999C8.60012 60.9999 8.50011 60.6999 8.30011 60.4999C8.10011 60.3999 7.8001 60.4999 7.6001 60.6999C7.5001 60.8999 7.60015 61.1999 7.90015 61.3999ZM43.8001 80.5999C44.0001 80.6999 44.1001 80.5999 44.3001 80.4999C44.5001 80.2999 44.5001 79.9999 44.3001 79.8999C44.1001 79.6999 43.8001 79.6999 43.7001 79.8999C43.5001 80.0999 43.5001 80.3999 43.7001 80.4999C43.7001 80.4999 43.7001 80.4999 43.8001 80.5999ZM31.7001 70.0999C31.9001 70.1999 32.1001 70.0999 32.2001 69.8999C32.4001 69.6999 32.3001 69.3999 32.1001 69.2999C31.9001 69.1999 31.6001 69.1999 31.5001 69.3999C31.4001 69.5999 31.4001 69.8999 31.6001 69.9999C31.6001 70.0999 31.7001 70.0999 31.7001 70.0999ZM18.1001 61.6999C18.3001 61.7999 18.5001 61.6999 18.7001 61.4999C18.8001 61.2999 18.7001 60.9999 18.5001 60.8999C18.3001 60.7999 18.0001 60.8999 17.9001 61.0999C17.8001 61.2999 17.8001 61.5999 18.1001 61.6999ZM3.70013 54.6999C3.90013 54.7999 4.20011 54.6999 4.30011 54.4999C4.40011 54.2999 4.3001 53.9999 4.1001 53.8999C3.9001 53.7999 3.60012 53.8999 3.50012 54.0999C3.40012 54.2999 3.50013 54.5999 3.70013 54.6999ZM53.2001 80.0999C53.3001 80.1999 53.5001 80.0999 53.6001 79.9999C53.8001 79.7999 53.8001 79.5999 53.6001 79.3999C53.4001 79.1999 53.2001 79.1999 53.0001 79.3999C52.8001 79.5999 52.8001 79.7999 53.0001 79.9999C53.0001 79.9999 53.1001 79.9999 53.2001 80.0999ZM41.1001 69.5999C41.3001 69.6999 41.5001 69.5999 41.6001 69.4999C41.7001 69.2999 41.7001 69.0999 41.5001 68.8999C41.3001 68.7999 41.1001 68.7999 40.9001 68.9999C40.8001 69.1999 40.8001 69.3999 41.1001 69.5999C41.0001 69.5999 41.1001 69.5999 41.1001 69.5999ZM27.4001 61.1999C27.6001 61.2999 27.8001 61.1999 27.9001 60.9999C28.0001 60.7999 27.9001 60.5999 27.7001 60.4999C27.5001 60.3999 27.3001 60.4999 27.2001 60.6999C27.1001 60.8999 27.2001 61.0999 27.4001 61.1999ZM13.0001 54.4999C13.2001 54.5999 13.4001 54.4999 13.5001 54.2999C13.6001 54.0999 13.5001 53.8999 13.3001 53.7999C13.1001 53.6999 12.9001 53.7999 12.8001 53.9999C12.6001 54.0999 12.7001 54.3999 13.0001 54.4999C12.9001 54.4999 12.9001 54.4999 13.0001 54.4999Z" fill="#00FFFF"/>
</svg>
