<svg xmlns="http://www.w3.org/2000/svg" width="152" height="59" fill="none" viewBox="0 0 152 59">
    <path fill="#0FF" fill-rule="evenodd" d="M141.681 58.014h-11.306l.898-5.192h-.18c-2.691 3.85-7.358 6.178-13.01 6.178-9.961 0-15.883-6.894-15.883-16.384 0-13.071 8.883-23.726 21.177-23.726 5.652 0 9.869 2.329 11.933 5.91h.18L139.706 0H152l-10.319 58.014zM125.26 28.738c-6.55 0-10.767 5.461-10.767 12.177 0 4.566 2.782 8.057 7.896 8.057 6.192 0 10.857-5.64 10.857-12.177 0-4.654-3.05-8.057-7.986-8.057zM98.791 14.414c-3.858 0-6.73-2.596-6.73-6.177 0-4.12 3.23-7.341 7.268-7.341 3.769 0 6.55 2.685 6.55 6.176.09 3.94-2.871 7.342-7.088 7.342zm-2.244 43.6H84.255l6.56-37.273-20.558 37.273H57.874l-2.87-23.993h-.18L42.35 58.014H30.059l-3.937-28.918h-7.817L15.523 44.05c-.09.716-.18 1.52-.18 2.058 0 2.507 1.526 3.312 4.038 3.312 1.257 0 2.422-.267 3.41-.447l-1.167 8.864c-1.436.626-4.396 1.164-6.73 1.164-7.357 0-11.933-2.955-11.933-9.312 0-1.253.179-2.954.448-4.386l2.96-16.206H0l1.704-9.31h6.102L9.6 9.668h12.024L19.83 19.785H37.685l1.885 24.442h.269l11.844-24.441h12.383l2.333 24.441h.269l11.754-24.441H103.366l-6.819 38.228z" clip-rule="evenodd"/>
</svg>
