<svg xmlns="http://www.w3.org/2000/svg" width="110" height="37" fill="none" viewBox="0 0 110 37">
    <path fill="#0FF" d="M10.469 19.492V3.766c0-.2.158-.358.355-.358h12.321c.092 0 .184.04.25.106L24.669 4.8a.363.363 0 0 0 .499 0l1.878-1.896a.371.371 0 0 0 0-.504L24.774.106a.357.357 0 0 0-.25-.106H7.448a.355.355 0 0 0-.355.358V22.17c0 .318.38.477.604.252l2.667-2.692a.312.312 0 0 0 .105-.238zM29.424 5.304L27.546 7.2a.371.371 0 0 0 0 .504l1.143 1.153c.065.067.105.16.105.252v14.254c0 .093-.04.186-.105.252l-5.307 5.357a.357.357 0 0 1-.25.106H6.029a.357.357 0 0 0-.25.106l-2.666 2.692c-.223.226-.066.61.25.61h21.161c.092 0 .184-.04.25-.106l.276-.278 7.001-7.068a.364.364 0 0 0 .105-.252V7.704a.364.364 0 0 0-.105-.252l-2.128-2.148a.363.363 0 0 0-.499 0z"/>
    <path fill="#0FF" d="M10.47 25.3h12.36c.197 0 .355-.16.355-.359V22.25a.355.355 0 0 0-.355-.358h-9.694a.357.357 0 0 0-.25.106l-2.666 2.691c-.224.226-.066.61.25.61zM3.363 26.653V.386a.378.378 0 0 0-.368-.371H.368A.378.378 0 0 0 0 .386v28.933c0 .331.394.49.63.265l2.628-2.652a.43.43 0 0 0 .105-.279z"/>
    <path fill="#fff" d="M44.163.013h4.006c1.708 0 3.126.332 4.23 1.008 1.103.663 1.904 1.538 2.417 2.599.499 1.06.762 2.2.762 3.408 0 1.299-.303 2.453-.907 3.434a6.048 6.048 0 0 1-2.456 2.294c-1.025.53-2.155.795-3.376.795h-4.663V.013h-.014zm4.216 10.966c1.38 0 2.457-.358 3.258-1.06.801-.717 1.208-1.738 1.208-3.077 0-1.074-.223-1.936-.67-2.572-.446-.637-.958-1.074-1.55-1.326-.59-.24-1.142-.372-1.668-.372h-2.154v8.407h1.576zM57.81 1.737a1.42 1.42 0 0 1 .972-.371c.355 0 .67.12.946.371.276.252.42.557.42.928s-.144.676-.42.915a1.356 1.356 0 0 1-.946.371c-.367 0-.696-.119-.972-.37a1.153 1.153 0 0 1-.433-.916 1.22 1.22 0 0 1 .433-.928zm2.18 3.779v8.035h-2.548V5.516h2.549zM71.091 5.516v8.035c0 .756-.21 1.446-.643 2.069-.434.623-1.012 1.1-1.747 1.458a5.587 5.587 0 0 1-2.391.53c-.657 0-1.235-.079-1.72-.238-.487-.159-.894-.331-1.183-.53a11.252 11.252 0 0 1-1.064-.81l1.497-1.763c.368.345.723.61 1.09.81.355.198.815.29 1.354.29.643 0 1.182-.158 1.628-.49.434-.331.657-.782.657-1.352v-1.14c-.25.41-.617.755-1.116 1.007-.5.252-1.117.385-1.852.385-.723 0-1.38-.186-1.997-.557a4.062 4.062 0 0 1-1.471-1.552 4.348 4.348 0 0 1-.552-2.174c0-.809.197-1.551.578-2.228a4.238 4.238 0 0 1 1.51-1.578 3.734 3.734 0 0 1 1.984-.57c.657 0 1.235.093 1.747.292.512.186.893.437 1.17.742l.196-.623h2.325v-.013zm-2.561 4.946V8.499c-.17-.397-.447-.702-.854-.941-.394-.239-.854-.345-1.353-.345a2.16 2.16 0 0 0-1.563.623c-.42.411-.644.942-.644 1.578 0 .637.21 1.18.644 1.605.42.437.946.65 1.563.65 1.025.013 1.76-.398 2.207-1.207zM73.573 1.737a1.42 1.42 0 0 1 .972-.371c.355 0 .67.12.946.371.276.252.42.557.42.928s-.144.676-.42.915a1.356 1.356 0 0 1-.946.371c-.367 0-.696-.119-.972-.37a1.153 1.153 0 0 1-.433-.916c0-.371.144-.676.433-.928zm2.18 3.779v8.035h-2.547V5.516h2.548zM80.996 1.976v3.5h1.931V7.48h-1.931v6.072h-2.548V7.48h-1.235V5.476h1.235v-3.5h2.548zM92.975 5.516v8.035h-2.548v-.994c-.762.809-1.656 1.22-2.667 1.22-1.182 0-2.141-.358-2.877-1.061-.735-.716-1.103-1.763-1.103-3.169 0-.888.184-1.658.538-2.334.355-.663.841-1.193 1.432-1.551a3.55 3.55 0 0 1 1.918-.557c.71 0 1.261.106 1.681.318a3.39 3.39 0 0 1 1.09.915l.158-.822h2.378zm-2.548 4.946V8.499a1.838 1.838 0 0 0-.762-.941c-.355-.239-.775-.345-1.261-.345-.565 0-1.038.212-1.432.623-.394.412-.591.942-.591 1.578 0 .411.092.796.289 1.154.197.345.446.623.775.822.328.199.67.292 1.05.292.88 0 1.524-.411 1.932-1.22zM97.626.026v13.525h-2.549V.026h2.549zM46.803 19.04v10.966h6.305v2.573h-8.945V19.04h2.64zM63.55 24.544v8.035h-2.547v-.995c-.762.81-1.656 1.22-2.667 1.22-1.182 0-2.141-.358-2.877-1.06-.735-.716-1.103-1.764-1.103-3.17 0-.888.184-1.657.538-2.333.355-.663.841-1.194 1.432-1.552a3.55 3.55 0 0 1 1.918-.557c.71 0 1.261.106 1.681.319a3.39 3.39 0 0 1 1.09.915l.158-.822h2.378zm-2.547 4.945v-1.962a1.838 1.838 0 0 0-.762-.942c-.355-.238-.775-.344-1.261-.344-.565 0-1.038.212-1.432.623-.394.411-.591.941-.591 1.578 0 .41.092.795.289 1.153.197.345.446.624.775.823.328.198.67.291 1.05.291.88 0 1.524-.398 1.932-1.22zM76.778 24.543l-3.586 8.513-2.548-5.33-2.338 5.33-3.626-8.513h2.483l1.471 3.408 1.117-2.48-.42-.914h2.167l1.497 3.553 1.314-3.553h2.47v-.014zM86.749 24.543L81.613 36.45h-2.457l1.918-4.282-3.678-7.611h2.864l2.101 4.747 2.115-4.747h2.273v-.014zM93.12 30.086l1.13 1.91a6.353 6.353 0 0 1-1.38.583 4.826 4.826 0 0 1-1.38.225c-.945 0-1.76-.185-2.456-.543a3.71 3.71 0 0 1-1.563-1.525c-.355-.65-.525-1.406-.525-2.254 0-.783.197-1.512.604-2.175a4.364 4.364 0 0 1 1.668-1.578 4.755 4.755 0 0 1 2.312-.583c1.143 0 2.076.331 2.811 1.007.736.677 1.209 1.645 1.432 2.891l-5.832 1.883c.394.45.92.676 1.59.676.511.013 1.037-.159 1.589-.517zm-3.153-3.328c-.341.398-.512.915-.512 1.578v.159l3.494-1.194c-.25-.755-.801-1.14-1.629-1.14-.565 0-1.011.199-1.353.597zM100.45 25.233c.381-.345.775-.61 1.182-.796.407-.185.722-.291.946-.291l-.132 2.572c-.079-.013-.171-.013-.315-.013-.512 0-.959.132-1.353.41-.394.266-.683.61-.893 1.035-.21.424-.316.862-.316 1.3v3.142h-2.535v-8.035h2.299l.197 1.843a4.14 4.14 0 0 1 .92-1.167zM104.746 32.406c-.565-.238-1.051-.557-1.419-.98l1.051-1.42c.709.663 1.366.995 1.983.995.329 0 .591-.053.789-.16.197-.105.302-.265.302-.463a.611.611 0 0 0-.342-.557 3.394 3.394 0 0 0-.775-.319c-.289-.08-.473-.145-.578-.159-.696-.225-1.208-.543-1.55-.98a2.381 2.381 0 0 1-.512-1.5c0-.424.118-.848.341-1.259.224-.411.578-.742 1.051-1.008.473-.265 1.064-.397 1.774-.397.656 0 1.208.066 1.681.198.46.133.906.359 1.327.663l-.972 1.486a3.623 3.623 0 0 0-.815-.491c-.302-.133-.565-.199-.814-.199-.289 0-.526.066-.71.186-.184.119-.275.265-.275.437a.6.6 0 0 0 .315.584c.223.132.578.265 1.051.397.078.027.144.053.223.08.079.027.158.053.25.08 1.247.41 1.878 1.18 1.878 2.28 0 .517-.131.981-.381 1.419-.25.424-.644.782-1.156 1.034-.512.265-1.143.398-1.891.398-.644 0-1.262-.12-1.826-.345z"/>
</svg>
