<svg xmlns="http://www.w3.org/2000/svg" width="477" height="218" fill="none" viewBox="0 0 477 218">
    <path fill="#0FF" d="M192.08 164.085a69.282 69.282 0 0 0 32.563-32.267 69.305 69.305 0 0 0-19.006-84.417 69.259 69.259 0 0 0-43.247-15.19c-1.776 0-3.556.07-5.34.21a69.256 69.256 0 0 0-51.201 28.99 69.294 69.294 0 0 0-10.447 57.915 69.29 69.29 0 0 0 37.844 45.06 69.26 69.26 0 0 0 58.834-.301zm-92.096-55.056a62.854 62.854 0 0 1 6.524-36.287 62.834 62.834 0 0 1 25.749-26.38 62.81 62.81 0 0 1 70.152 6.741 62.848 62.848 0 0 1-1.335 97.907 62.826 62.826 0 0 1-34.415 13.203 59.282 59.282 0 0 1-4.304.151 62.817 62.817 0 0 1-41.684-15.828 62.849 62.849 0 0 1-20.687-39.507z"/>
    <path fill="#0FF" d="M195.803 96.729a.792.792 0 1 0 .838.79.81.81 0 0 0-.524-.737.817.817 0 0 0-.314-.053z"/>
    <path fill="#0FF" d="M217.641 94.261a55.533 55.533 0 0 0-13.414-29.488c-9.308 9.158-18.417 18.445-27.666 27.638v18.271c9.214 9.232 18.436 18.452 27.666 27.661a55.781 55.781 0 0 0 13.414-44.082zm-23.711 22.716l1.303-16.466h1.164l1.384 16.42-3.851.046zm13.589-16.548c-2.455-.349-7.213-1.164-9.505-1.396-.396 0-.791-.5-1.047-.862a1.377 1.377 0 0 1-1.164.617 1.047 1.047 0 0 1-.267 0c-1.059 1.013-6.166 5.819-8.028 7.599-.256.245-.395.268-.5.198-.105-.07.07-.779.244-.989 1.548-1.815 4.654-5.283 6.05-6.982.372-.296.84-.445 1.315-.42a1.254 1.254 0 0 1-.175-.616 1.17 1.17 0 0 1 .338-.838c-.396-1.361-2.327-7.948-3.002-10.322-.093-.338 0-.466.07-.512.07-.047.686.454.791.698.907 2.165 2.548 6.424 3.49 8.414a1.71 1.71 0 0 1-.267 1.28 1.37 1.37 0 0 1 1.256.861c1.454.36 8.516 2.083 11.041 2.723.349.093.442.198.43.314-.011.117-.791.28-1.07.233zm1.896-5.074a3.341 3.341 0 0 1-1 .14h-.512a13.498 13.498 0 0 1-2.594-.594l-.373-.116a20.75 20.75 0 0 0-2.722-.698 3.63 3.63 0 0 0-1.385 0 1.884 1.884 0 0 0-1.163.803l-.244-.477c.3-.538.783-.95 1.361-1.164a3.874 3.874 0 0 1 1.268-.198h.233c.971.08 1.928.28 2.85.594l.535.163c.764.256 1.541.473 2.327.651a3.72 3.72 0 0 0 1.373 0 1.59 1.59 0 0 0 1.163-.814l.279.419a2.247 2.247 0 0 1-1.396 1.291zm0-2.06a3.341 3.341 0 0 1-1 .14h-.5a15.34 15.34 0 0 1-2.606-.593l-.373-.117a17.64 17.64 0 0 0-2.722-.698 3.618 3.618 0 0 0-1.385 0c-.474.106-.89.389-1.163.791l-.244-.465c.3-.538.783-.95 1.361-1.164a3.578 3.578 0 0 1 1.268-.198h.233c.971.084 1.928.287 2.85.606l.547.162c.764.254 1.54.468 2.327.64.452.097.92.097 1.372 0a1.557 1.557 0 0 0 1.164-.814l.279.419a2.221 2.221 0 0 1-1.408 1.291zm0-2.07a3.341 3.341 0 0 1-1 .139 3.506 3.506 0 0 1-.5 0 13.121 13.121 0 0 1-2.595-.594l-.395-.116a19.363 19.363 0 0 0-2.711-.698 3.63 3.63 0 0 0-1.385 0 1.884 1.884 0 0 0-1.163.803l-.244-.478c.3-.537.783-.95 1.361-1.163a3.874 3.874 0 0 1 1.268-.198h.233c.971.076 1.929.276 2.85.593l.547.175c.768.233 1.547.477 2.327.64.453.09.919.09 1.372 0a1.584 1.584 0 0 0 1.164-.815l.279.408a2.198 2.198 0 0 1-1.408 1.303zM120.529 64.726a55.669 55.669 0 0 0 0 73.571 7755.562 7755.562 0 0 0 27.654-27.662v-18.27c-9.237-9.194-18.382-18.492-27.654-27.639zm-2.327 43.651c.175.64.326 1.28.477 1.921.093.372 0 .628-.302.686-.303.058-.489-.093-.582-.465-.163-.664-.338-1.327-.489-1.99v-.059l-2.129.524c.186.675.349 1.362.524 2.048.081.361 0 .617-.326.675-.326.058-.477-.116-.559-.454-.174-.686-.349-1.373-.511-2.059l-.326.081a.581.581 0 0 1-.698-.419l-.698-2.921a.593.593 0 0 1 .43-.698l4.479-1.164a.58.58 0 0 1 .698.431l.698 2.909a.595.595 0 0 1-.43.698h-.268l.012.256zm19.301-5.318a10.558 10.558 0 0 1-1.535 4.677 10.554 10.554 0 0 1-3.491 3.469 9.531 9.531 0 0 1-4.654 1.315 5.557 5.557 0 0 1-4.967-2.735 3.92 3.92 0 0 1-.489-3.095c.163-1.024 1.012-2.898 4.34-5.819a14.64 14.64 0 0 0-3.491 2.037 9.537 9.537 0 0 0-2.082 3.363 4.941 4.941 0 0 1-1.164-4.829c1.071-2.863 3.374-2.665 4.654-3.282a5.16 5.16 0 0 0 2.734-4.655s-.209-.943.582 0a9.843 9.843 0 0 1 1.757 9.903c-1.42 3.375-4.038 4.469-5.818 4.271-.128 2.223 2.653 3.049 4.189 2.956a7.797 7.797 0 0 0 3.49-1.164 9.712 9.712 0 0 0 4.095-6.866 9.967 9.967 0 0 0-3.688-8.914 9.77 9.77 0 0 0-12.134-.29c-5.143 3.56-3.816 10.17-3.816 10.17l-1.827.361c-.058-.279-1.722-7.087 3.863-11.51a12.27 12.27 0 0 1 7.457-2.815 11.957 11.957 0 0 1 7.609 2.653 11.635 11.635 0 0 1 4.409 10.799h-.023zM165.019 93.098a2.325 2.325 0 0 1-4.602.489 2.332 2.332 0 0 1 .94-2.397 2.327 2.327 0 0 1 1.277-.42 2.386 2.386 0 0 1 2.385 2.328zM169.858 109.506c-2.036-2.595-5.433-7.203-5.759-7.622 1.164-1.094 3.747-3.491 4.782-4.492 1.036-1 0-1.094-.372-1.094h-11.774c-.396 0-1.571 0-.372 1.094 1.198 1.094 3.618 3.398 4.781 4.492-.325.419-3.723 5.027-5.759 7.622-.57.722-.244 1.234.547.92 3.153-1.246 5.817-2.689 6.69-2.956.861.267 3.548 1.71 6.701 2.956.791.314 1.117-.198.535-.92zM158.411 60.386V56.73h-3.793v2.886c-3.385 4.655-3.874 14.035-3.874 14.035h4.514s0-8.635 1.361-13.267h1.792zM166.368 59.466c-3.491 4.655-3.979 14.186-3.979 14.186h4.502s0-8.635 1.373-13.267h1.896v-3.654h-3.792v2.735zM164.287 56.731h-3.735v2.619c-3.607 4.562-4.118 14.36-4.118 14.36h4.514s0-8.635 1.361-13.266h2.036l-.058-3.713z"/>
    <path fill="#0FF" d="M162.378 45.723a52.69 52.69 0 0 0-6.05.349 55.684 55.684 0 0 0-29.958 12.894c-.268.267-.977.628-.477 1L153.21 87.28h18.312a4873.105 4873.105 0 0 0 27.596-27.685 55.73 55.73 0 0 0-36.74-13.871zm-13.531 29.232l2.874-18.224v-1.49h20.243v1.514l-2.746 18.165-20.371.035zm27.352 0h-5.433l2.583-18.224V55.22h-.093 2.966l-.023 19.736zM266.015 81.716l-5.41-17.711h-.14c.194 3.6.291 5.997.291 7.192V81.67h-4.27V59.199h6.446l5.328 17.223h.093l5.654-17.223h6.492v22.517h-4.444v-10.66-1.733c0-.652.081-2.409.209-5.248h-.139l-5.817 17.641h-4.293zM282.129 64.493h5.142l3.246 9.694c.303.972.494 1.976.57 2.991h.093c.107-1.019.33-2.022.663-2.99l3.188-9.695h5.038l-7.283 19.435a8.45 8.45 0 0 1-2.862 4.026 7.177 7.177 0 0 1-4.34 1.35 10.94 10.94 0 0 1-2.385-.268v-3.724c.608.134 1.228.2 1.85.198a3.293 3.293 0 0 0 2.176-.768 4.828 4.828 0 0 0 1.466-2.327l.267-.838-6.829-17.084zM272.029 97.287a6.89 6.89 0 0 1-2.268 5.563 9.726 9.726 0 0 1-6.457 1.885h-2.048v8.006h-4.781V90.258h7.201a9.561 9.561 0 0 1 6.236 1.77 6.42 6.42 0 0 1 2.117 5.26zm-10.773 3.573h1.571a5.22 5.22 0 0 0 3.292-.873 3.035 3.035 0 0 0 1.094-2.537 3.113 3.113 0 0 0-.919-2.479 4.258 4.258 0 0 0-2.874-.803h-2.164v6.692zM290.307 104.141a9.308 9.308 0 0 1-2.223 6.575 8.037 8.037 0 0 1-6.177 2.328 8.685 8.685 0 0 1-4.375-1.082 7.322 7.322 0 0 1-2.908-3.119 10.553 10.553 0 0 1-1.012-4.748 9.207 9.207 0 0 1 2.198-6.564 8.074 8.074 0 0 1 6.19-2.327 8.792 8.792 0 0 1 4.374 1.07 7.268 7.268 0 0 1 2.909 3.096 10.48 10.48 0 0 1 1.024 4.771zm-11.914 0a7.248 7.248 0 0 0 .838 3.864 3.485 3.485 0 0 0 4.232.963 3.489 3.489 0 0 0 1.213-.963 7.383 7.383 0 0 0 .826-3.875 7.073 7.073 0 0 0-.838-3.841 3.493 3.493 0 0 0-4.222-.957c-.47.225-.884.552-1.211.957a7.093 7.093 0 0 0-.838 3.852zM307.071 112.776l-1.326-6.016-1.78-7.61h-.105l-3.153 13.626h-5.049l-4.898-17.223h4.653l1.99 7.634c.314 1.362.64 3.247.965 5.644h.094c.103-1.243.281-2.479.535-3.7l.244-1.315 2.129-8.263h5.177l2.013 8.263c0 .221.105.558.198 1 .093.443.174.908.256 1.409.081.5.151.989.221 1.466.058.385.097.774.116 1.164h.116c.094-.73.256-1.742.489-3.038.233-1.291.407-2.153.512-2.606l2.059-7.635h4.654l-4.956 17.224-5.154-.024zM326.454 113.091a8.913 8.913 0 0 1-6.504-2.328 8.715 8.715 0 0 1-2.327-6.505 9.55 9.55 0 0 1 2.164-6.691 8.795 8.795 0 0 1 11.634-.291 7.894 7.894 0 0 1 2.025 5.748v2.328h-11.099a4.493 4.493 0 0 0 1.163 3.13 4.157 4.157 0 0 0 3.107 1.164c.989.005 1.977-.1 2.943-.314a14.788 14.788 0 0 0 2.943-1.106v3.631c-.832.42-1.716.729-2.629.919a16.916 16.916 0 0 1-3.42.315zm-.698-14.512a2.963 2.963 0 0 0-2.327.943 4.385 4.385 0 0 0-.977 2.688h6.596a3.984 3.984 0 0 0-.907-2.688 3.115 3.115 0 0 0-2.385-.943zM345.639 95.239a7.638 7.638 0 0 1 1.594.14l-.36 4.398a5.297 5.297 0 0 0-1.385-.15 4.978 4.978 0 0 0-3.49 1.163 4.186 4.186 0 0 0-1.256 3.235v8.763h-4.654V95.553h3.56l.698 2.898h.221a6.394 6.394 0 0 1 2.164-2.328 5.301 5.301 0 0 1 2.908-.884zM261.175 143.848h-4.654v-22.53h12.914v3.91h-8.213v5.819h7.643v3.945h-7.643l-.047 8.856zM283.094 143.848l-.907-2.328h-.128a6.888 6.888 0 0 1-2.444 2.072 7.66 7.66 0 0 1-3.269.582 5.242 5.242 0 0 1-3.897-1.42 5.402 5.402 0 0 1-1.431-4.038 4.54 4.54 0 0 1 1.919-4.038 11.043 11.043 0 0 1 5.817-1.443l2.99-.094v-.756a2.326 2.326 0 0 0-2.675-2.618 12.173 12.173 0 0 0-4.863 1.256l-1.548-3.176a13.955 13.955 0 0 1 6.562-1.583 8.144 8.144 0 0 1 5.317 1.513 5.564 5.564 0 0 1 1.849 4.585v11.486h-3.292zm-1.384-7.983h-1.815a5.815 5.815 0 0 0-3.049.744 2.336 2.336 0 0 0-1 2.06c0 1.327.776 1.99 2.327 1.99a3.601 3.601 0 0 0 2.617-.943 3.282 3.282 0 0 0 .978-2.49l-.058-1.361zM299.556 126.299a7.607 7.607 0 0 1 1.593.139l-.36 4.399a5.297 5.297 0 0 0-1.385-.151 4.975 4.975 0 0 0-3.49 1.164 4.196 4.196 0 0 0-1.256 3.235v8.774h-4.654v-17.223h3.56l.698 2.886h.221a6.604 6.604 0 0 1 2.164-2.327 5.335 5.335 0 0 1 2.909-.896zM318.426 143.848h-4.654v-10.02a5.118 5.118 0 0 0-.617-2.793 2.185 2.185 0 0 0-1.966-.931 2.846 2.846 0 0 0-2.617 1.327 8.64 8.64 0 0 0-.815 4.352v8.146h-4.653v-17.223h3.583l.628 2.199h.268a4.842 4.842 0 0 1 2.001-1.862 6.55 6.55 0 0 1 3.001-.663c2.583 0 4.328.842 5.236 2.525h.419a4.649 4.649 0 0 1 2.036-1.862 6.858 6.858 0 0 1 3.048-.663 6.026 6.026 0 0 1 4.432 1.501 6.598 6.598 0 0 1 1.501 4.818v11.23h-4.712v-10.101a5.013 5.013 0 0 0-.628-2.793 2.185 2.185 0 0 0-1.966-.931 2.887 2.887 0 0 0-2.571 1.234 6.847 6.847 0 0 0-.861 3.91l-.093 8.6zM165.589 126.24l-3.642.012-2.408 4.189 3.711-.011 2.339-4.19zM162.691 131.524h-3.711l-2.734 4.562h3.77l2.675-4.562zM160.702 137.214l-2.827 5.028h3.839l2.781-5.028h-3.793zM161.215 136.086h3.781l2.629-4.562h-3.723l-2.687 4.562zM168.172 130.43l2.292-4.201-3.665.012-2.338 4.189h3.711zM155.723 137.214l-2.897 5.028h3.839l2.839-5.028h-3.781zM162.924 142.242h3.851l2.71-5.028h-3.792l-2.769 5.028zM169.381 130.43h3.711l2.234-4.201h-3.665l-2.28 4.201zM166.205 136.086h3.781l2.571-4.562h-3.734l-2.618 4.562z"/>
    <path fill="#0FF" d="M171.778 115.069H153.57a31401.582 31401.582 0 0 0-27.689 27.662 55.661 55.661 0 0 0 73.597 0 9382.125 9382.125 0 0 1-27.7-27.662zm-14.753 9.31l.768 2.222a6.71 6.71 0 0 0-1.733-.081l.965-2.141zm-3.49.349l1.769 1.908a6.886 6.886 0 0 0-1.78.629l.011-2.537zm0 3.828a5.272 5.272 0 0 1 2.001-.849c.226-.049.456-.08.687-.093a5.275 5.275 0 0 1 1.698.139l-5.084 9.252a5.55 5.55 0 0 1-1.163-1.699l-.175-.442a5.386 5.386 0 0 1-.291-2.188.655.655 0 0 1 0-.14c.06-.686.254-1.354.57-1.966a.932.932 0 0 1 .082-.14 5.26 5.26 0 0 1 .256-.431 5.452 5.452 0 0 1 1.454-1.466l-.035.023zm-1.221-.442a6.778 6.778 0 0 0-1.164 1.304l-1.07-2.095 2.234.791zm-1.536 1.978a6.725 6.725 0 0 0-.57 1.641l-1.827-1.466 2.397-.175zm-.698 3.259c.028.578.134 1.149.314 1.699l-2.327-.466 2.013-1.233zm.663 2.595c.242.483.538.936.884 1.35l-2.14.477 1.256-1.827zm20.174 11.637h-14.38l.733-1.571h4.735l.547-1.164h3.234l-.558 1.164h6.363l-.674 1.571zm-2.897-3.375a.196.196 0 0 1-.07.07h-16.055a.183.183 0 0 1-.128-.037.188.188 0 0 1-.07-.114l-.268-1.234a.16.16 0 0 1 0-.069l9.843-17.142a.181.181 0 0 1 .072-.078.184.184 0 0 1 .102-.027h14.729a.165.165 0 0 1 0 .07v1.571c.022.17.022.342 0 .512l-8.155 16.478z"/>
</svg>
