<?xml version="1.0" encoding="UTF-8" standalone="no"?>
<!-- Created with Inkscape (http://www.inkscape.org/) -->

<svg
   xmlns:dc="http://purl.org/dc/elements/1.1/"
   xmlns:cc="http://creativecommons.org/ns#"
   xmlns:rdf="http://www.w3.org/1999/02/22-rdf-syntax-ns#"
   xmlns:svg="http://www.w3.org/2000/svg"
   xmlns="http://www.w3.org/2000/svg"
   xmlns:sodipodi="http://sodipodi.sourceforge.net/DTD/sodipodi-0.dtd"
   xmlns:inkscape="http://www.inkscape.org/namespaces/inkscape"
   width="67.246941mm"
   height="36.666786mm"
   viewBox="0 0 67.24694 36.666787"
   version="1.1"
   id="svg8"
   inkscape:version="0.92.4 (5da689c313, 2019-01-14)"
   sodipodi:docname="drawing.svg">
  <defs
     id="defs2" />
  <sodipodi:namedview
     id="base"
     pagecolor="#ffffff"
     bordercolor="#666666"
     borderopacity="1.0"
     inkscape:pageopacity="0.0"
     inkscape:pageshadow="2"
     inkscape:zoom="0.35"
     inkscape:cx="-28.276471"
     inkscape:cy="-192.3396"
     inkscape:document-units="mm"
     inkscape:current-layer="layer1"
     showgrid="false"
     fit-margin-top="0"
     fit-margin-left="0"
     fit-margin-right="0"
     fit-margin-bottom="0"
     inkscape:window-width="1920"
     inkscape:window-height="1017"
     inkscape:window-x="-8"
     inkscape:window-y="-8"
     inkscape:window-maximized="1" />
  <metadata
     id="metadata5">
    <rdf:RDF>
      <cc:Work
         rdf:about="">
        <dc:format>image/svg+xml</dc:format>
        <dc:type
           rdf:resource="http://purl.org/dc/dcmitype/StillImage" />
        <dc:title></dc:title>
      </cc:Work>
    </rdf:RDF>
  </metadata>
  <g
     inkscape:label="Layer 1"
     inkscape:groupmode="layer"
     id="layer1"
     transform="translate(-113.31482,-61.276699)">
    <g
       style="fill:none"
       id="g24"
       transform="matrix(0.26458333,0,0,0.26458333,43.504066,178.35343)">
      <path
         id="path10"
         d="m 114.314,17.69 c 1.891,0 3.782,0.061 5.612,0 1.22,-0.061 1.525,0.366 1.403,1.464 -0.061,1.22 -0.122,2.44 0,3.66 0.061,1.159 -0.305,1.647 -1.464,1.403 -1.464,-0.244 -1.952,0.183 -1.525,1.769 0.61,2.44 0.122,4.819 -1.281,6.832 -0.671,0.976 -0.427,1.464 0.244,2.257 6.039,6.588 2.928,17.202 -5.612,19.52 -4.941,1.342 -10.126,-0.732 -12.932,-5.185 -2.684,-4.27 -2.38,-10.065 0.915,-13.786 1.098,-1.22 1.159,-1.952 0.366,-3.416 -3.477,-6.344 1.098,-14.213 8.296,-14.518 2.013,-0.061 4.026,0 5.978,0 z m 64.172,2.379 c 4.392,-3.782 9.882,-2.806 12.383,-0.244 0.549,0.549 0.854,1.769 1.525,1.647 0.61,-0.061 1.037,-1.159 1.647,-1.708 2.745,-2.562 6.039,-2.806 9.394,-1.708 3.599,1.159 5.185,4.087 5.368,7.625 0.244,4.941 0.122,9.943 0.183,14.945 0,0.793 -0.366,0.915 -1.037,0.915 -1.403,0 -2.867,-0.061 -4.27,0 -1.037,0.061 -1.281,-0.305 -1.281,-1.281 0.061,-3.843 0,-7.747 0,-11.59 0,-0.671 -0.061,-1.281 -0.244,-1.952 -0.732,-2.074 -2.684,-3.477 -4.636,-3.172 -2.013,0.305 -3.721,2.257 -3.721,4.392 a 406.69,406.69 0 0 0 0,12.2 c 0,1.159 -0.305,1.525 -1.464,1.403 -1.342,-0.122 -2.623,-0.061 -3.965,0 -0.976,0.061 -1.22,-0.305 -1.22,-1.22 0.061,-3.904 0,-7.808 0,-11.712 0,-0.854 -0.122,-1.708 -0.488,-2.501 -0.915,-1.83 -2.806,-2.867 -4.636,-2.501 -1.891,0.427 -3.416,2.257 -3.477,4.331 0,4.087 -0.061,8.113 0,12.2 0,1.098 -0.244,1.525 -1.464,1.464 -1.342,-0.122 -2.745,-0.061 -4.087,0 -0.732,0 -1.098,-0.122 -1.098,-0.976 V 19.154 c 0,-0.732 0.305,-0.976 0.976,-0.976 1.281,0 2.562,0.061 3.782,0 1.342,-0.183 2.501,-0.244 1.83,1.891 z m -138.47,4.636 c 0,-5.124 0.061,-10.248 0,-15.372 0,-1.098 0.244,-1.525 1.403,-1.464 1.342,0.122 2.745,0.06 4.087,0 0.854,-0.061 1.16,0.305 1.098,1.159 -0.06,2.562 0,5.185 -0.06,7.747 0,0.976 0.243,1.28 1.28,1.28 4.636,-0.06 9.272,0 13.847,-0.06 1.16,0 1.464,0.305 1.464,1.464 -0.06,6.832 -0.06,13.725 0,20.557 0,1.159 -0.305,1.464 -1.464,1.464 -6.649,0 -13.42,0 -20.19,0.06 -1.282,0 -1.526,-0.426 -1.465,-1.585 0.061,-5.063 0,-10.187 0,-15.25 z M 231.799,39.71 c -6.283,3.966 -11.834,3.478 -16.043,-1.22 -4.148,-4.696 -4.331,-12.016 -0.366,-16.835 3.66,-4.392 10.004,-6.344 16.287,-2.135 -0.122,-1.525 0.793,-1.525 1.83,-1.464 1.525,0.122 3.66,-0.671 4.514,0.366 0.793,0.915 0.244,2.928 0.244,4.453 v 17.202 c 0,1.098 -0.183,1.586 -1.403,1.464 -1.098,-0.122 -2.257,-0.061 -3.355,0 -1.159,0.06 -2.074,-0.061 -1.708,-1.83 z M 132.186,20.13 c 2.806,-2.684 5.917,-3.294 9.272,-2.379 3.538,0.976 5.917,4.026 6.161,8.357 0.244,4.819 0.122,9.638 0.122,14.457 0,0.671 -0.244,0.915 -0.915,0.854 a 52.727,52.727 0 0 0 -4.392,0 c -1.037,0.061 -1.281,-0.305 -1.281,-1.281 0.061,-3.965 0,-7.93 0,-11.895 0,-2.44 -1.159,-4.148 -3.111,-4.697 -2.013,-0.549 -4.209,0.488 -5.429,2.501 -0.427,0.671 -0.488,1.403 -0.488,2.196 0,3.965 -0.061,7.93 0,11.895 0,0.976 -0.244,1.342 -1.281,1.281 a 49.84,49.84 0 0 0 -4.27,0 c -0.793,0 -1.037,-0.244 -1.037,-1.037 V 8.845 c 0,-0.793 0.244,-1.098 1.037,-1.037 a 49.84,49.84 0 0 0 4.27,0 c 1.037,-0.061 1.281,0.305 1.281,1.281 0,3.599 0.061,7.137 0.061,11.041 z m 117.67,-0.122 c 2.623,-2.44 5.551,-3.05 8.662,-2.379 3.538,0.732 5.917,3.477 6.588,7.503 0.549,3.416 0.183,6.893 0.305,10.37 0.061,1.586 -0.061,3.172 0,4.697 0.061,1.037 -0.366,1.342 -1.342,1.281 -1.22,-0.061 -2.44,-0.122 -3.66,0 -1.22,0.122 -1.647,-0.244 -1.647,-1.586 0.061,-4.026 0.061,-8.052 0,-12.017 -0.122,-3.416 -3.172,-5.368 -6.039,-3.965 -1.769,0.854 -2.928,2.257 -2.928,4.453 0.061,3.904 0,7.808 0.061,11.712 0,1.159 -0.366,1.525 -1.464,1.403 -1.342,-0.122 -2.623,-0.061 -3.965,0 -0.976,0.061 -1.159,-0.366 -1.159,-1.22 0,-7.015 0.061,-14.03 0,-21.045 0,-0.976 0.366,-1.22 1.22,-1.159 1.159,0.061 2.318,0.061 3.477,0 1.342,-0.061 2.379,0 1.891,1.952 z m -97.723,2.257 c 0,-3.416 0.061,-6.832 -0.061,-10.187 -0.061,-1.22 0.366,-1.525 1.464,-1.403 0.915,0.061 1.83,0 2.745,0 2.379,0 2.379,0 2.379,2.44 0,1.281 0.061,2.562 0,3.782 -0.061,0.854 0.305,1.159 1.159,1.098 1.952,-0.061 3.965,0 5.917,-0.061 0.976,-0.061 1.342,0.305 1.281,1.281 a 45.661,45.661 0 0 0 0,4.087 c 0.061,0.976 -0.244,1.342 -1.281,1.342 -1.952,-0.061 -3.965,0 -5.917,-0.061 -0.854,0 -1.159,0.244 -1.159,1.098 0.061,2.013 0,4.087 0,6.1 0.061,2.623 2.135,3.965 4.514,2.745 0.671,-0.305 0.976,-0.183 1.464,0.244 1.098,1.037 2.196,2.135 3.355,3.111 0.732,0.61 0.61,1.037 -0.061,1.525 -3.111,2.44 -6.527,3.111 -10.126,1.464 -3.599,-1.647 -5.49,-4.575 -5.612,-8.54 -0.122,-3.233 -0.061,-6.649 -0.061,-10.065 z M 74.48,20.435 c 2.074,-2.196 4.148,-2.989 6.527,-2.867 1.281,0.061 1.952,0.488 1.83,1.952 -0.122,1.342 -0.06,2.745 0,4.087 0,0.854 -0.183,0.976 -1.037,0.793 -2.013,-0.488 -3.904,-0.183 -5.49,1.342 -1.037,0.976 -1.586,2.135 -1.586,3.66 0.061,3.599 -0.06,7.198 0.061,10.797 0,1.037 -0.305,1.403 -1.342,1.342 -1.342,-0.122 -2.745,-0.061 -4.087,0 -0.854,0.061 -1.159,-0.244 -1.159,-1.098 v -21.35 c 0,-0.854 0.366,-1.037 1.098,-1.037 1.098,0.061 2.257,0 3.355,0 1.098,0.061 2.745,-0.427 1.83,2.379 z m 19.095,9.333 c 0,3.416 -0.061,6.832 0.06,10.187 0.062,1.342 -0.426,1.647 -1.646,1.586 -1.342,-0.122 -2.623,-0.061 -3.965,0 -0.793,0 -1.098,-0.183 -1.098,-1.037 V 19.032 c 0,-0.732 0.244,-0.976 0.976,-0.976 1.464,0.061 2.928,0.061 4.392,0 1.037,-0.061 1.28,0.366 1.28,1.342 v 10.37 z M 90.401,7.625 c 3.172,0 5.124,3.355 3.66,6.16 -0.305,0.55 -0.671,0.794 -1.342,0.794 -1.647,0 -3.233,-0.061 -4.88,0 -0.854,0.06 -1.22,-0.427 -1.403,-1.098 -1.22,-3.416 1.342,-6.344 3.965,-5.856 z"
         inkscape:connector-curvature="0"
         style="fill:none" />
      <path
         id="path12"
         d="m 114.375,43.127 c 0,3.111 -2.44,5.673 -5.551,5.673 -3.111,0.061 -5.673,-2.501 -5.734,-5.673 0,-3.111 2.501,-5.673 5.551,-5.673 3.233,-0.061 5.734,2.44 5.734,5.673 z m -5.551,-19.642 c 2.196,0 4.026,1.891 4.026,4.148 a 4.114,4.114 0 0 1 -4.148,4.148 c -2.196,-0.061 -4.026,-1.891 -4.026,-4.148 0,-2.318 1.891,-4.209 4.148,-4.148 z m -52.155,6.283 c 0,1.342 -0.061,2.623 0,3.965 0.06,0.976 -0.305,1.22 -1.22,1.22 a 158.877,158.877 0 0 0 -7.625,0 c -0.916,0 -1.22,-0.244 -1.22,-1.22 a 171.84,171.84 0 0 0 0,-7.93 c 0,-0.915 0.304,-1.098 1.159,-1.098 2.562,0.061 5.184,0.061 7.747,0 1.037,0 1.22,0.366 1.159,1.281 z m 175.192,0 c 0,3.538 -2.867,6.527 -6.283,6.527 -3.477,0 -6.283,-2.989 -6.344,-6.649 0,-3.66 2.867,-6.588 6.344,-6.588 3.599,0.061 6.283,2.989 6.283,6.71 z"
         inkscape:connector-curvature="0"
         style="fill:none" />
    </g>
    <g
       style="fill:none"
       id="g46"
       transform="matrix(0.26458333,0,0,0.26458333,28.524992,154.92896)">
      <path
         id="path26"
         d="m 122.527,63.792 c -0.345,15.264 -6.135,28.282 -17.742,38.678 -1.844,1.642 -3.831,3.111 -5.905,4.464 -0.518,0.346 -0.518,0.346 -0.26,0.922 a 293.653,293.653 0 0 0 2.478,5.242 c 0.201,0.403 0.23,0.748 0.086,1.18 -0.518,1.527 -1.008,3.053 -1.526,4.58 -0.144,0.403 -0.115,0.72 0.057,1.123 1.383,2.851 2.765,5.731 4.148,8.582 0.317,0.634 0.518,1.267 0.432,1.987 -0.058,0.519 -0.259,0.98 -0.634,1.325 -0.633,0.605 -1.44,0.72 -2.218,0.346 -0.633,-0.317 -1.065,-0.864 -1.353,-1.527 a 1187.687,1187.687 0 0 0 -4.954,-10.483 c -1.325,-2.822 -2.679,-5.673 -4.004,-8.496 -0.23,-0.518 -0.26,-0.518 -0.749,-0.317 a 51.21,51.21 0 0 1 -11.262,3.197 c -4.119,0.663 -8.237,0.807 -12.385,0.49 a 50.158,50.158 0 0 1 -11.29,-2.16 1.108,1.108 0 0 0 -0.807,0.029 c -1.296,0.489 -2.65,0.748 -4.061,0.691 -0.432,-0.029 -0.663,0.115 -0.836,0.518 -2.131,4.579 -4.291,9.13 -6.423,13.68 -0.46,0.951 -0.893,1.93 -1.354,2.88 -0.172,0.346 -0.374,0.691 -0.662,0.979 -0.72,0.778 -1.613,0.98 -2.448,0.548 -0.807,-0.404 -1.296,-1.383 -1.152,-2.333 0.057,-0.49 0.23,-0.922 0.46,-1.383 1.383,-2.851 2.737,-5.673 4.12,-8.524 0.201,-0.404 0.259,-0.749 0.086,-1.181 -0.519,-1.498 -0.98,-3.024 -1.498,-4.522 -0.144,-0.432 -0.144,-0.806 0.058,-1.238 0.46,-0.864 0.835,-1.786 1.267,-2.679 0.144,-0.316 0.144,-0.518 -0.087,-0.806 a 10.436,10.436 0 0 1 -2.217,-4.262 c -0.087,-0.346 -0.317,-0.548 -0.576,-0.749 A 51.59,51.59 0 0 1 26.786,90.778 51.646,51.646 0 0 1 19.874,73.066 c -0.605,-3.255 -0.95,-6.51 -0.893,-9.821 0.173,-13.277 4.666,-24.912 13.624,-34.733 7.23,-7.92 16.158,-13.075 26.642,-15.494 2.91,-0.663 5.847,-1.037 8.814,-1.21 7.69,-0.403 15.093,0.835 22.207,3.773 10.859,4.493 19.269,11.837 25.202,21.974 3.198,5.415 5.243,11.261 6.28,17.453 0.316,1.987 0.547,3.974 0.604,5.962 0.087,0.892 0.116,1.728 0.173,2.822 z m 123.362,30.01 c 0.26,-0.23 0.288,-0.461 0.346,-0.663 0.864,-2.477 1.815,-4.925 2.765,-7.373 0.259,-0.69 0.115,-0.662 0.922,-0.662 h 1.584 c 0.259,0 0.403,0.086 0.374,0.374 v 16.445 c 0,0.605 0,0.605 -0.605,0.605 -0.547,0 -1.094,-0.029 -1.67,0 -0.375,0.029 -0.49,-0.144 -0.461,-0.49 0.029,-0.201 0,-0.403 0,-0.633 v -8.007 c 0,-0.23 0.029,-0.49 -0.058,-0.748 -0.201,0.172 -0.23,0.403 -0.288,0.604 -0.576,1.67 -1.209,3.341 -1.843,4.983 -0.144,0.374 -0.317,0.518 -0.749,0.518 -1.094,-0.029 -1.066,0 -1.498,-1.037 a 142.352,142.352 0 0 1 -1.67,-4.521 c -0.058,-0.202 -0.087,-0.403 -0.259,-0.576 -0.173,0.144 -0.087,0.345 -0.087,0.49 v 8.84 c 0,0.605 0,0.605 -0.605,0.605 -0.547,0 -1.094,-0.029 -1.67,0 -0.346,0 -0.461,-0.115 -0.432,-0.432 v -0.346 -15.84 -0.288 c 0,-0.518 0,-0.518 0.547,-0.518 h 1.44 c 0.605,0 0.634,0 0.835,0.576 a 316.239,316.239 0 0 1 2.765,7.373 c 0.116,0.201 0.231,0.432 0.317,0.72 z m 1.99,-30.182 c 0.288,-0.807 0.576,-1.585 0.864,-2.391 0.72,-1.93 1.469,-3.83 2.189,-5.731 0.144,-0.404 0.345,-0.519 0.749,-0.519 0.547,0.029 1.094,0.029 1.67,0 0.288,0 0.432,0.058 0.403,0.374 v 16.244 c 0,0.806 0.116,0.749 -0.72,0.749 h -1.382 c -0.576,0 -0.576,0 -0.605,-0.634 v -4.147 -4.637 c 0,-0.115 0.058,-0.288 -0.086,-0.432 -0.144,0.144 -0.173,0.346 -0.231,0.518 -0.576,1.7 -1.238,3.37 -1.872,5.04 -0.144,0.346 -0.288,0.49 -0.691,0.49 -1.124,-0.029 -1.124,0 -1.527,-1.066 -0.576,-1.526 -1.123,-3.052 -1.699,-4.608 -0.058,-0.172 -0.087,-0.345 -0.317,-0.576 v 9.678 c 0,0.23 -0.086,0.345 -0.317,0.345 h -2.074 c -0.23,0 -0.345,-0.087 -0.317,-0.317 V 71.597 55.699 55.498 c 0,-0.519 0,-0.519 0.548,-0.519 h 1.526 c 0.576,0 0.605,0 0.778,0.547 l 2.679,7.171 c 0.115,0.288 0.23,0.605 0.345,0.893 -0.029,0.03 0.029,0.03 0.087,0.03 z m 30.932,-1.268 c -0.144,0.374 -0.086,0.634 -0.086,0.864 v 8.611 c 0,0.519 0,0.519 -0.49,0.519 h -1.872 c -0.259,0 -0.403,-0.087 -0.374,-0.375 V 71.568 55.757 55.411 c -0.029,-0.317 0.086,-0.46 0.432,-0.46 a 14.53,14.53 0 0 0 1.584,0 c 0.317,0 0.489,0.115 0.605,0.403 l 1.382,3.456 c 0.749,1.9 1.556,3.772 2.247,5.73 0.029,0.116 0.057,0.26 0.259,0.346 0,-0.23 0.029,-0.46 0.029,-0.662 v -8.438 -0.49 c -0.029,-0.26 0.115,-0.374 0.374,-0.374 h 2.017 c 0.23,0 0.345,0.115 0.316,0.345 V 71.77 c 0,0.518 0,0.518 -0.547,0.518 -0.432,0 -0.864,-0.029 -1.325,0 -0.403,0.029 -0.605,-0.115 -0.749,-0.49 l -2.074,-5.184 c -0.576,-1.324 -1.123,-2.736 -1.728,-4.262 z M 267.693,32.371 v 9.591 c 0,0.23 -0.087,0.345 -0.317,0.345 h -2.074 c -0.288,0 -0.374,-0.144 -0.346,-0.374 V 41.53 25.718 25.315 c -0.028,-0.259 0.087,-0.374 0.346,-0.374 0.605,0 1.21,0.029 1.786,0 0.345,0 0.403,0.23 0.489,0.46 0.778,1.901 1.527,3.802 2.305,5.703 0.489,1.267 0.979,2.506 1.497,3.83 0.231,-0.172 0.116,-0.403 0.116,-0.576 v -8.553 -0.49 c 0,-0.23 0.057,-0.345 0.316,-0.345 h 2.074 c 0.202,0 0.288,0.086 0.288,0.288 v 16.646 c 0.058,0.374 -0.144,0.49 -0.489,0.46 a 11.08,11.08 0 0 0 -1.383,0 c -0.432,0.03 -0.605,-0.172 -0.749,-0.518 -1.152,-2.908 -2.304,-5.817 -3.485,-8.726 a 6.986,6.986 0 0 0 -0.288,-0.691 c 0,-0.087 -0.029,-0.087 -0.086,-0.058 z m -115.325,2.563 c 0.144,-0.345 0.115,-0.576 0.115,-0.806 v -8.352 -0.547 c 0,-0.23 0.086,-0.346 0.317,-0.346 h 2.016 c 0.231,0 0.346,0.087 0.346,0.317 v 16.3 c 0,0.778 0.115,0.778 -0.778,0.778 -0.346,0 -0.691,-0.028 -1.037,0 -0.461,0.058 -0.633,-0.144 -0.806,-0.547 -1.124,-2.88 -2.305,-5.76 -3.457,-8.669 a 1.988,1.988 0 0 0 -0.403,-0.72 c 0,0.202 -0.029,0.432 -0.029,0.634 v 8.64 c 0,0.634 0,0.634 -0.633,0.662 h -1.729 c -0.259,0 -0.374,-0.115 -0.374,-0.374 V 41.501 25.69 25.488 c 0,-0.576 0,-0.576 0.547,-0.576 0.461,0 0.922,0.029 1.383,0 0.374,-0.029 0.576,0.115 0.72,0.46 0.806,2.046 1.642,4.09 2.477,6.164 0.403,1.066 0.835,2.189 1.325,3.398 z m 16.877,-0.086 v -0.691 -8.496 -0.547 c 0,-0.173 0.087,-0.26 0.259,-0.26 h 2.132 c 0.173,0 0.259,0.087 0.259,0.26 v 16.761 c 0.029,0.26 -0.115,0.375 -0.374,0.375 -0.49,0 -0.98,-0.03 -1.441,0 -0.403,0.028 -0.604,-0.116 -0.748,-0.49 -0.605,-1.555 -1.268,-3.11 -1.873,-4.666 -0.576,-1.44 -1.123,-2.88 -1.699,-4.29 -0.058,-0.145 -0.058,-0.375 -0.346,-0.49 v 9.504 c 0.029,0.316 -0.086,0.46 -0.432,0.46 -0.633,-0.028 -1.238,0 -1.872,0 -0.288,0 -0.432,-0.086 -0.432,-0.374 V 41.501 25.69 25.344 c -0.029,-0.317 0.086,-0.46 0.432,-0.432 a 14.53,14.53 0 0 0 1.584,0 c 0.317,0 0.49,0.115 0.605,0.403 l 1.988,4.925 c 0.576,1.44 1.18,2.851 1.67,4.32 0.058,0.086 0.086,0.23 0.288,0.288 z m 63.915,67.651 h -2.506 c -0.231,0 -0.317,-0.173 -0.375,-0.345 a 30.553,30.553 0 0 1 -0.461,-1.527 c -0.518,-1.613 -1.008,-3.254 -1.526,-4.867 -0.058,-0.173 -0.058,-0.403 -0.259,-0.46 -0.346,-0.058 -0.692,-0.087 -1.008,0 -0.144,0.028 -0.116,0.23 -0.116,0.374 v 6.278 c 0,0.49 0,0.518 -0.489,0.518 h -1.873 c -0.259,0 -0.403,-0.086 -0.374,-0.374 v -0.403 -15.869 c 0,-0.72 -0.144,-0.778 0.72,-0.749 1.325,0.029 2.679,-0.086 4.004,0.058 1.987,0.201 3.226,1.296 3.629,3.225 a 9.046,9.046 0 0 1 -0.058,3.83 c -0.23,0.951 -0.691,1.758 -1.526,2.305 -0.288,0.201 -0.317,0.374 -0.202,0.691 0.749,2.189 1.44,4.349 2.16,6.538 0.087,0.23 0.144,0.46 0.26,0.777 z M 135.403,63.648 v -7.805 -0.49 c -0.029,-0.259 0.086,-0.403 0.345,-0.374 h 4.09 c 0.548,0 1.095,0.058 1.642,0.202 0.864,0.259 1.469,0.835 1.786,1.67 0.259,0.663 0.374,1.325 0.403,2.016 0.058,3.053 0.058,6.135 0,9.187 0,0.548 -0.115,1.095 -0.259,1.642 -0.461,1.584 -1.498,2.42 -3.111,2.592 -1.152,0.115 -2.304,0.029 -3.456,0.029 -0.461,0 -1.008,0.201 -1.325,-0.115 -0.259,-0.288 -0.087,-0.836 -0.087,-1.268 -0.028,-2.39 -0.028,-4.838 -0.028,-7.286 z m 81.136,30.154 v 4.29 c 0,0.634 -0.057,1.297 -0.23,1.902 -0.375,1.411 -1.296,2.246 -2.708,2.534 a 6.446,6.446 0 0 1 -2.678,-0.029 c -1.498,-0.317 -2.333,-1.267 -2.65,-2.736 a 5.854,5.854 0 0 1 -0.144,-1.238 V 89.28 c 0,-0.605 0.115,-1.18 0.288,-1.757 0.403,-1.296 1.267,-2.131 2.592,-2.448 a 6.562,6.562 0 0 1 3.082,0.058 c 1.095,0.288 1.786,1.008 2.16,2.045 0.202,0.576 0.317,1.21 0.317,1.814 -0.029,1.642 -0.029,3.226 -0.029,4.81 z M 179.472,33.696 v -4.55 c 0,-0.634 0.086,-1.239 0.259,-1.844 0.432,-1.41 1.412,-2.246 2.852,-2.505 a 6.354,6.354 0 0 1 2.333,0 c 1.613,0.288 2.563,1.267 2.851,2.966 0.087,0.519 0.144,1.037 0.144,1.584 v 8.439 c 0,0.748 -0.086,1.526 -0.345,2.246 -0.404,1.18 -1.21,1.93 -2.42,2.218 a 5.865,5.865 0 0 1 -2.995,0 c -1.584,-0.404 -2.506,-1.584 -2.65,-3.37 -0.058,-0.72 -0.029,-1.44 -0.029,-2.131 z m 69.529,0 v -4.55 c 0,-0.634 0.087,-1.239 0.26,-1.844 0.432,-1.41 1.411,-2.246 2.851,-2.505 a 6.354,6.354 0 0 1 2.333,0 c 1.613,0.288 2.563,1.267 2.852,2.966 a 9.57,9.57 0 0 1 0.144,1.584 v 8.439 c 0,0.748 -0.087,1.526 -0.346,2.246 -0.403,1.21 -1.239,1.958 -2.477,2.246 a 6.33,6.33 0 0 1 -2.938,0 c -1.584,-0.403 -2.506,-1.584 -2.65,-3.37 -0.057,-0.604 -0.029,-1.238 -0.029,-1.871 z m -38.567,30.067 v -4.752 c 0,-0.547 0.115,-1.037 0.259,-1.555 0.403,-1.354 1.325,-2.189 2.679,-2.477 0.893,-0.201 1.786,-0.173 2.678,0.029 1.556,0.345 2.449,1.353 2.679,3.024 0.087,0.576 0.115,1.152 0.115,1.728 v 8.093 c 0,0.69 -0.057,1.382 -0.259,2.044 -0.432,1.527 -1.44,2.42 -3.024,2.621 -0.576,0.058 -1.152,0.087 -1.728,0.03 -2.132,-0.231 -3.313,-1.47 -3.428,-3.63 -0.057,-0.979 -0.029,-1.93 -0.029,-2.909 0.029,-0.777 0.029,-1.497 0.058,-2.246 z m 8.411,-21.484 h -2.333 c -0.259,0 -0.345,-0.116 -0.403,-0.375 -0.173,-0.922 -0.374,-1.843 -0.518,-2.794 -0.058,-0.374 -0.202,-0.49 -0.576,-0.49 a 28.48,28.48 0 0 1 -2.218,0 c -0.375,0 -0.519,0.087 -0.576,0.49 -0.115,0.893 -0.317,1.757 -0.461,2.65 -0.086,0.49 -0.115,0.49 -0.605,0.49 h -1.786 c -0.432,0 -0.432,-0.03 -0.345,-0.432 0.403,-2.074 0.835,-4.148 1.238,-6.221 0.663,-3.34 1.354,-6.682 2.016,-10.023 0.029,-0.115 0.058,-0.23 0.058,-0.345 0.029,-0.317 0.202,-0.403 0.518,-0.403 0.692,0.029 1.383,0 2.074,0 0.519,0 0.519,0 0.634,0.518 0.346,1.67 0.662,3.34 1.008,5.011 l 2.247,11.146 c 0.028,0.26 0.115,0.49 0.028,0.778 z m -44.933,60.22 h -2.448 c -0.259,0 -0.259,-0.201 -0.288,-0.403 -0.173,-0.893 -0.346,-1.814 -0.519,-2.707 -0.086,-0.519 -0.086,-0.519 -0.605,-0.519 h -2.217 c -0.317,0 -0.49,0.087 -0.548,0.432 -0.144,0.922 -0.345,1.844 -0.489,2.794 -0.058,0.317 -0.173,0.432 -0.49,0.403 -0.634,-0.029 -1.238,0 -1.872,0 -0.461,0 -0.49,-0.029 -0.403,-0.461 0.23,-1.18 0.461,-2.332 0.72,-3.513 0.864,-4.234 1.699,-8.467 2.563,-12.73 0.029,-0.115 0.058,-0.23 0.058,-0.345 0.029,-0.288 0.201,-0.375 0.461,-0.375 0.691,0.029 1.382,0 2.073,0 0.548,0 0.548,0 0.663,0.547 0.288,1.412 0.576,2.794 0.864,4.205 0.806,4.003 1.613,8.035 2.419,12.039 0.058,0.201 0.116,0.374 0.058,0.633 z m 20.652,-77.616 h 2.564 c 0.288,0 0.346,0.144 0.374,0.375 0.173,1.008 0.346,2.044 0.519,3.052 0.461,2.967 0.921,5.904 1.382,8.87 0,0.058 0.029,0.145 0.058,0.26 0.259,-0.605 0.259,-1.18 0.346,-1.757 0.489,-3.427 1.065,-6.854 1.67,-10.281 0.087,-0.519 0.087,-0.519 0.605,-0.519 h 2.333 c -0.144,0.864 -0.288,1.642 -0.432,2.42 l -2.765,14.428 c -0.115,0.547 -0.115,0.547 -0.663,0.547 -0.748,0 -1.469,-0.028 -2.217,0 -0.375,0 -0.519,-0.144 -0.576,-0.49 -0.634,-3.455 -1.297,-6.911 -1.93,-10.367 -0.375,-2.045 -0.778,-4.119 -1.152,-6.163 a 1.144,1.144 0 0 1 -0.116,-0.375 z m -29.408,30.125 h 2.593 c 0.288,0 0.316,0.23 0.345,0.432 0.115,0.663 0.202,1.325 0.317,1.987 0.576,3.37 1.094,6.71 1.555,10.11 0.26,-0.174 0.202,-0.404 0.231,-0.635 0.518,-3.83 1.181,-7.632 1.814,-11.462 0.029,-0.26 0.116,-0.432 0.432,-0.432 h 2.477 c 0,0.691 -0.201,1.296 -0.316,1.93 -0.951,4.982 -1.901,9.936 -2.852,14.918 -0.115,0.547 -0.115,0.547 -0.662,0.547 -0.749,0 -1.469,-0.029 -2.218,0 -0.375,0 -0.519,-0.144 -0.576,-0.49 -0.403,-2.246 -0.836,-4.463 -1.268,-6.71 -0.576,-3.081 -1.152,-6.163 -1.728,-9.216 -0.029,-0.317 -0.086,-0.633 -0.144,-0.979 z m -29.755,38.765 v -8.007 c 0,-0.633 0,-0.662 0.634,-0.633 1.267,0 2.535,-0.03 3.802,0.057 2.419,0.173 3.629,1.325 3.946,3.716 0.173,1.21 0.144,2.447 -0.115,3.657 -0.403,1.987 -1.815,3.197 -3.86,3.312 -0.432,0.029 -0.864,0.029 -1.325,0 -0.317,0 -0.403,0.115 -0.403,0.403 v 5.732 c 0,0.547 0,0.547 -0.518,0.547 h -1.671 c -0.518,0 -0.547,0 -0.547,-0.519 V 98.87 c 0.057,-1.757 0.057,-3.427 0.057,-5.097 z M 284.111,37.7 c 0.086,0.518 0.144,0.92 0.288,1.324 0.23,0.605 0.662,0.835 1.267,0.864 0.749,0.029 1.21,-0.23 1.469,-0.806 0.087,-0.23 0.173,-0.49 0.173,-0.72 0,-0.548 0.029,-1.095 0,-1.67 -0.029,-0.75 -0.346,-1.326 -1.037,-1.671 -0.403,-0.202 -0.778,-0.375 -1.181,-0.576 -0.691,-0.317 -1.354,-0.663 -1.958,-1.152 -0.864,-0.691 -1.383,-1.555 -1.498,-2.679 -0.115,-1.008 -0.087,-2.016 0.173,-3.024 0.461,-1.699 1.728,-2.736 3.485,-2.85 0.691,-0.058 1.382,-0.058 2.045,0.143 1.584,0.461 2.736,1.93 2.736,3.6 0,0.26 -0.086,0.375 -0.345,0.432 -0.778,0.173 -1.527,0.346 -2.334,0.519 -0.144,-0.375 -0.086,-0.75 -0.201,-1.066 -0.259,-0.749 -0.663,-1.066 -1.411,-1.066 -0.663,0 -1.153,0.346 -1.383,1.037 -0.202,0.663 -0.173,1.325 -0.086,1.987 0.057,0.432 0.374,0.72 0.72,0.98 0.46,0.345 0.979,0.576 1.526,0.806 0.634,0.26 1.239,0.518 1.786,0.893 0.95,0.662 1.469,1.555 1.613,2.678 0.173,1.296 0.173,2.563 -0.144,3.83 -0.403,1.642 -1.44,2.564 -3.111,2.823 -0.95,0.144 -1.872,0.115 -2.794,-0.202 a 3.703,3.703 0 0 1 -2.506,-3.686 c 0,-0.144 0.029,-0.26 0.202,-0.288 a 93.759,93.759 0 0 0 2.506,-0.46 z m -57.633,25.977 v -7.892 -0.547 c 0,-0.172 0.086,-0.259 0.259,-0.259 h 3.658 c 0.634,0 1.296,0.058 1.901,0.26 1.124,0.374 1.872,1.123 2.247,2.246 0.489,1.41 0.461,2.85 0.288,4.29 a 6.254,6.254 0 0 1 -0.288,1.268 c -0.605,1.67 -1.872,2.448 -3.572,2.592 -0.432,0.029 -0.864,0 -1.325,0.029 -0.489,0 -0.489,0 -0.489,0.518 v 5.674 c 0,0.49 -0.029,0.49 -0.519,0.49 -0.576,0 -1.152,-0.03 -1.728,0 -0.374,0 -0.461,-0.116 -0.461,-0.49 0.029,-1.872 0,-3.744 0,-5.587 0.029,-0.836 0.029,-1.7 0.029,-2.592 z m -75.061,0.029 v -8.093 c 0,-0.605 0,-0.605 0.577,-0.634 h 6.567 c 0.576,0 0.576,0 0.604,0.605 v 1.526 c 0,0.288 -0.086,0.404 -0.403,0.404 h -4.003 c -0.634,0 -0.605,-0.03 -0.605,0.604 v 3.658 c 0,0.345 0.086,0.49 0.461,0.46 1.123,-0.028 2.246,0 3.398,0 0.49,0 0.49,0 0.49,0.49 0,0.547 -0.029,1.095 0,1.67 0.029,0.375 -0.144,0.462 -0.49,0.462 -1.123,-0.03 -2.246,0 -3.398,0 -0.461,0 -0.49,0 -0.49,0.49 v 4.002 c 0,0.461 0,0.461 0.518,0.49 h 3.86 c 0.691,0 0.634,-0.029 0.634,0.662 0,0.49 -0.029,0.98 0,1.44 0.028,0.317 -0.116,0.461 -0.432,0.432 -0.864,-0.028 -1.7,0 -2.564,0 h -4.061 c -0.663,0 -0.691,0 -0.691,-0.662 0.028,-2.678 0.028,-5.357 0.028,-8.007 z m 34.218,-8.698 h 3.37 c 0.489,0 0.489,0.029 0.489,0.49 v 1.526 c 0,0.49 0,0.49 -0.489,0.49 h -4.004 c -0.518,0 -0.518,0 -0.518,0.547 v 3.657 c 0,0.519 0,0.519 0.547,0.519 h 3.312 c 0.519,0 0.519,0 0.519,0.547 v 1.44 c 0,0.605 0,0.605 -0.576,0.605 h -3.169 c -0.605,0 -0.605,0 -0.633,0.576 v 3.945 c 0,0.346 0.086,0.49 0.46,0.49 1.325,-0.029 2.679,0 4.004,0 0.547,0 0.547,0 0.576,0.576 v 1.526 c 0,0.317 -0.086,0.461 -0.432,0.461 h -6.913 c -0.288,0 -0.432,-0.115 -0.403,-0.403 V 71.654 55.786 c 0,-0.807 -0.057,-0.75 0.749,-0.75 1.037,-0.028 2.074,-0.028 3.111,-0.028 z m 75.78,8.669 v -7.892 -0.547 c 0,-0.172 0.086,-0.259 0.259,-0.259 h 6.769 c 0.72,0 0.691,-0.057 0.691,0.663 0,0.49 -0.029,0.979 0,1.44 0.029,0.345 -0.115,0.431 -0.461,0.431 -1.209,-0.028 -2.448,0 -3.658,0 h -0.489 c -0.346,-0.028 -0.432,0.116 -0.432,0.433 0.029,0.979 0,1.93 0,2.908 0,0.317 0.029,0.634 0,0.98 -0.029,0.345 0.144,0.431 0.432,0.431 h 3.312 c 0.634,0 0.634,0 0.634,0.634 v 1.44 c 0,0.49 0,0.49 -0.49,0.519 h -3.37 c -0.489,0 -0.489,0 -0.518,0.49 v 1.67 c 0,0.806 0.029,1.612 0,2.419 0,0.345 0.115,0.432 0.432,0.432 h 4.003 c 0.576,0 0.576,0 0.576,0.547 v 1.526 c 0,0.317 -0.057,0.461 -0.432,0.461 h -6.912 c -0.375,0 -0.404,-0.173 -0.404,-0.46 v -3.745 c 0.058,-1.526 0.058,-3.024 0.058,-4.521 z M 193.613,93.773 V 85.91 85.42 c 0,-0.23 0.115,-0.316 0.346,-0.316 h 6.855 c 0.547,0 0.576,0 0.576,0.576 0,0.518 -0.029,1.008 0,1.526 0.029,0.346 -0.115,0.49 -0.461,0.461 -1.238,-0.029 -2.477,0 -3.715,0 -0.922,0 -0.807,-0.115 -0.807,0.778 v 3.312 c 0,0.691 -0.029,0.605 0.634,0.605 h 3.168 c 0.519,0 0.519,0 0.519,0.547 v 1.382 c 0,0.691 0,0.691 -0.663,0.691 h -2.909 c -0.864,0 -0.778,-0.115 -0.778,0.75 v 6.134 c 0,0.633 0,0.633 -0.662,0.633 h -1.527 c -0.547,0 -0.547,0 -0.547,-0.576 v -2.361 c -0.029,-1.93 -0.029,-3.86 -0.029,-5.79 z m -12.068,1.267 v -6.826 c 0,-0.547 0,-0.547 -0.576,-0.576 h -1.872 c -0.259,0 -0.374,-0.086 -0.374,-0.374 v -1.872 c 0,-0.23 0.115,-0.346 0.345,-0.317 h 7.316 c 0.663,0 0.663,0 0.663,0.634 v 1.526 c 0,0.288 -0.087,0.403 -0.404,0.403 h -2.016 c -0.345,0 -0.432,0.115 -0.432,0.432 0.029,1.095 0,2.16 0,3.255 v 10.713 c 0.029,0.346 -0.086,0.49 -0.461,0.49 -0.576,-0.029 -1.152,0 -1.728,0 -0.489,0 -0.489,0 -0.518,-0.49 v -2.62 c 0.057,-1.47 0.057,-2.91 0.057,-4.378 z m 47.64,-60.25 v 6.826 c 0,0.634 0,0.662 -0.634,0.662 h -1.671 c -0.288,0 -0.432,-0.086 -0.403,-0.403 v -0.49 -13.247 c 0,-0.836 0.087,-0.75 -0.72,-0.75 h -1.67 c -0.288,0 -0.432,-0.057 -0.404,-0.374 0.029,-0.576 0.029,-1.152 0,-1.728 0,-0.345 0.116,-0.432 0.432,-0.432 1.095,0.03 2.218,0 3.313,0 h 3.946 c 0.633,0 0.633,0 0.633,0.663 v 1.526 c 0,0.288 -0.115,0.346 -0.374,0.346 h -2.074 c -0.259,0 -0.374,0.086 -0.374,0.345 z m 65.266,30.211 v -6.566 -0.547 c 0,-0.26 -0.115,-0.346 -0.374,-0.346 h -2.016 c -0.317,0 -0.461,-0.086 -0.432,-0.432 0.028,-0.547 0.028,-1.094 0,-1.67 0,-0.317 0.086,-0.46 0.432,-0.46 0.518,0.028 1.008,0 1.526,0 h 5.818 c 0.577,0 0.577,0 0.577,0.546 v 1.383 c 0,0.576 0,0.576 -0.634,0.576 -0.576,0 -1.152,0.029 -1.728,0 -0.375,-0.03 -0.49,0.144 -0.461,0.49 0.029,0.489 0,0.978 0,1.44 V 72 c 0,0.23 -0.058,0.346 -0.317,0.346 h -2.074 c -0.23,0 -0.345,-0.087 -0.317,-0.317 V 71.338 65 Z M 150.87,93.802 v -8.093 c 0,-0.605 0,-0.605 0.605,-0.605 h 1.728 c 0.259,0 0.403,0.086 0.374,0.374 v 13.536 c 0,0.98 0,0.98 0.951,0.98 h 3.399 c 0.489,0 0.489,0 0.518,0.489 v 1.527 c 0,0.518 0,0.547 -0.547,0.547 h -5.53 c -0.461,0 -1.066,0.201 -1.383,-0.115 -0.288,-0.288 -0.086,-0.893 -0.086,-1.325 -0.058,-2.477 -0.029,-4.896 -0.029,-7.315 z M 196.435,63.706 V 55.9 55.41 c -0.029,-0.288 0.057,-0.432 0.374,-0.432 h 2.017 c 0.23,0 0.345,0.087 0.316,0.317 v 13.997 c 0,0.49 0,0.49 0.49,0.49 h 4.004 c 0.23,0 0.345,0.057 0.345,0.316 v 1.93 c 0,0.201 -0.086,0.288 -0.288,0.288 h -6.509 c -0.807,0 -0.749,0.057 -0.749,-0.72 V 63.705 Z M 138.168,33.552 v 8.439 c 0,0.201 -0.086,0.287 -0.288,0.287 h -2.131 c -0.202,0 -0.288,-0.115 -0.288,-0.316 V 41.616 25.805 c 0,-1.095 -0.087,-0.893 0.922,-0.922 h 1.036 c 0.836,0 0.749,-0.086 0.749,0.72 z m 103.144,0.086 v 8.353 c 0,0.201 -0.086,0.287 -0.288,0.287 h -2.074 c -0.23,0 -0.346,-0.115 -0.317,-0.345 V 41.53 25.66 c 0,-0.863 -0.086,-0.748 0.778,-0.777 h 1.584 c 0.231,0 0.346,0.087 0.317,0.317 z"
         inkscape:connector-curvature="0"
         style="fill:none" />
      <path
         id="path28"
         d="m 90.903,91.382 c -0.518,-1.094 -1.037,-2.188 -1.555,-3.254 -2.593,-5.53 -5.156,-11.06 -7.777,-16.56 -0.173,-0.374 -0.202,-0.662 0.058,-1.066 4.349,-6.883 1.497,-15.84 -6.05,-18.95 -0.517,-0.202 -0.517,-0.202 -0.517,-0.806 v -12.99 c 0,-1.871 -1.124,-3.484 -2.823,-4.118 -2.765,-1.008 -5.617,0.893 -5.818,3.888 -0.03,0.288 0,0.548 0,0.836 v 12.153 c 0,0.807 0,0.778 -0.692,1.095 -4.407,2.016 -7.085,5.414 -7.776,10.252 -0.461,3.284 0.316,6.308 2.189,9.044 0.259,0.403 0.288,0.69 0.086,1.123 a 5377.027,5377.027 0 0 0 -8.699,18.576 c -0.374,0.806 -0.892,0.95 -1.612,0.403 a 34.449,34.449 0 0 1 -9.131,-10.426 34.407,34.407 0 0 1 -4.061,-11.52 34.057,34.057 0 0 1 -0.23,-9.216 c 0.979,-8.553 4.637,-15.753 10.916,-21.6 4.925,-4.579 10.714,-7.401 17.339,-8.61 2.535,-0.462 5.07,-0.634 7.633,-0.49 7.719,0.403 14.603,3.052 20.536,8.035 6.28,5.299 10.312,12.01 11.723,20.102 2.016,11.664 -1.152,21.86 -9.332,30.47 -1.181,1.239 -2.477,2.333 -3.83,3.37 -0.174,0.058 -0.289,0.202 -0.577,0.26 z"
         inkscape:connector-curvature="0"
         style="fill:none" />
      <path
         id="path30"
         d="M 25.72,63.734 C 25.69,47.145 34.533,32.227 48.503,24.221 a 44.46,44.46 0 0 1 15.61,-5.444 c 2.852,-0.431 5.733,-0.633 8.613,-0.49 10.916,0.52 20.508,4.379 28.601,11.723 6.942,6.278 11.464,14.025 13.653,23.126 a 42.727,42.727 0 0 1 1.123,12.672 c -0.691,11.29 -4.954,21.053 -12.788,29.232 l -0.432,0.432 c -0.893,0.806 -2.161,0.806 -2.996,0 -0.835,-0.835 -0.864,-2.102 -0.058,-2.995 0.749,-0.807 1.527,-1.584 2.247,-2.448 4.81,-5.674 7.863,-12.183 9.188,-19.498 0.547,-3.053 0.72,-6.134 0.547,-9.216 C 110.947,45.85 101.788,32.918 88.683,26.582 84.794,24.71 80.704,23.472 76.441,22.925 c -3.053,-0.404 -6.106,-0.519 -9.159,-0.23 -8.67,0.806 -16.36,4.003 -22.984,9.676 -6.74,5.789 -11.147,13.046 -13.25,21.686 -0.98,4.004 -1.238,8.036 -1.008,12.125 0.144,2.621 0.605,5.213 1.267,7.748 0.202,0.72 0.144,1.41 -0.345,2.015 -0.547,0.663 -1.268,0.922 -2.103,0.75 -0.835,-0.145 -1.354,-0.663 -1.613,-1.44 A 29.082,29.082 0 0 1 26.44,71.769 c -0.461,-2.707 -0.778,-5.5 -0.72,-8.035 z"
         inkscape:connector-curvature="0"
         style="fill:none" />
      <path
         id="path32"
         d="m 83.499,95.5 c -0.605,0.346 -1.239,0.52 -1.872,0.72 a 34.5,34.5 0 0 1 -9.188,1.7 C 68.464,98.122 64.604,97.603 60.774,96.509 60.37,96.394 59.996,96.221 59.794,95.818 59.708,95.674 59.622,95.53 59.506,95.443 58.959,94.953 58.988,94.522 59.305,93.83 a 3084.767,3084.767 0 0 0 8.064,-17.05 c 0.058,-0.114 0.116,-0.258 0.173,-0.374 0.087,-0.259 0.26,-0.316 0.547,-0.259 0.72,0.144 1.44,0.26 2.19,0.288 1.18,0.058 2.333,-0.086 3.485,-0.345 0.576,-0.144 0.605,-0.144 0.864,0.432 1.641,3.484 3.283,6.94 4.925,10.425 1.267,2.707 2.535,5.415 3.83,8.122 a 0.75,0.75 0 0 0 0.116,0.432 z m -22.726,12.126 c 0.26,-0.605 0.605,-1.181 0.836,-1.815 0.201,-0.576 0.403,-1.123 0.49,-1.728 0.057,-0.374 0.23,-0.461 0.547,-0.374 0.864,0.173 1.728,0.317 2.592,0.432 2.823,0.374 5.645,0.461 8.468,0.288 a 40.944,40.944 0 0 0 10.83,-2.247 c 0.49,-0.172 0.95,-0.345 1.411,-0.547 0.26,-0.115 0.403,-0.086 0.547,0.202 0.49,1.065 0.98,2.131 1.498,3.168 0.144,0.288 0.058,0.403 -0.201,0.518 -0.922,0.317 -1.815,0.691 -2.708,1.008 a 44.026,44.026 0 0 1 -11.06,2.189 c -4.263,0.317 -8.468,0 -12.616,-0.864 -0.23,-0.058 -0.432,-0.086 -0.634,-0.23 z M 40.611,97.171 C 40.323,97.085 40.208,96.912 40.064,96.768 A 45.752,45.752 0 0 1 31.855,86.602 c -0.26,-0.461 -0.518,-0.922 -0.49,-1.47 0.03,-0.95 0.577,-1.727 1.498,-2.015 0.864,-0.288 1.786,0.029 2.333,0.749 0.173,0.23 0.317,0.518 0.461,0.749 a 41.311,41.311 0 0 0 6.884,8.61 c 0.086,0.087 0.173,0.173 0.26,0.231 0.2,0.173 0.23,0.317 0.028,0.49 a 11.912,11.912 0 0 0 -2.218,3.225 z m 5.848,5.213 c -0.058,-1.958 1.526,-4.291 4.32,-4.291 2.39,0 4.292,1.958 4.292,4.32 0,2.361 -1.959,4.32 -4.32,4.291 -2.392,0 -4.321,-1.93 -4.292,-4.32 z M 70.654,67.795 a 4.291,4.291 0 0 1 -4.205,-4.406 c 0.057,-2.333 2.045,-4.263 4.378,-4.205 2.419,0.058 4.262,1.958 4.234,4.378 -0.03,2.448 -2.017,4.29 -4.407,4.233 z m 156.255,22.378 c 0,-0.691 0.029,-1.383 0,-2.074 -0.028,-0.374 0.144,-0.49 0.49,-0.46 0.259,0.028 0.518,0 0.749,0 0.95,0.057 1.498,0.46 1.757,1.353 0.23,0.778 0.202,1.584 0,2.39 -0.202,0.75 -0.663,1.181 -1.44,1.268 -0.058,0 -0.144,0.028 -0.202,0.028 -1.325,0.144 -1.325,0.144 -1.325,-1.18 -0.029,-0.404 -0.029,-0.864 -0.029,-1.325 z M 138.137,63.677 v -5.645 c 0,-0.49 0,-0.49 0.49,-0.49 0.317,0 0.634,-0.029 0.979,0 0.72,0.058 1.152,0.432 1.325,1.123 0.087,0.404 0.116,0.807 0.116,1.239 v 7.603 c 0,0.403 -0.029,0.778 -0.116,1.152 -0.144,0.749 -0.576,1.152 -1.325,1.18 -0.46,0.03 -1.008,0.203 -1.353,-0.057 -0.317,-0.259 -0.116,-0.806 -0.116,-1.238 -0.028,-1.642 0,-3.254 0,-4.867 z m 72.701,30.211 v -4.349 c 0,-0.432 0.058,-0.864 0.259,-1.267 0.288,-0.576 0.778,-0.806 1.411,-0.749 0.605,0.029 0.951,0.346 1.153,0.922 0.115,0.374 0.144,0.777 0.144,1.152 v 8.41 c 0,0.46 -0.029,0.921 -0.231,1.353 -0.259,0.576 -0.72,0.778 -1.325,0.778 -0.576,0 -1.008,-0.26 -1.238,-0.807 -0.144,-0.317 -0.173,-0.662 -0.173,-1.008 0.029,-1.497 0,-2.966 0,-4.435 z M 185.173,33.58 v 4.206 c 0,0.345 0,0.69 -0.115,1.008 -0.26,0.777 -0.692,1.065 -1.498,1.036 -0.72,-0.028 -1.124,-0.374 -1.325,-1.18 a 3.813,3.813 0 0 1 -0.087,-0.807 v -8.265 c 0,-0.461 0.029,-0.922 0.202,-1.354 0.23,-0.662 0.72,-1.008 1.411,-0.98 0.692,0.03 1.037,0.318 1.297,1.038 0.115,0.345 0.115,0.662 0.115,1.008 z m 69.531,0 v 4.206 c 0,0.345 0,0.69 -0.115,1.008 -0.259,0.777 -0.691,1.065 -1.498,1.036 -0.72,-0.028 -1.123,-0.374 -1.325,-1.18 a 3.812,3.812 0 0 1 -0.086,-0.807 v -8.265 c 0,-0.461 0.028,-0.922 0.201,-1.354 0.231,-0.662 0.72,-1.008 1.412,-0.98 0.691,0.03 1.037,0.318 1.296,1.038 0.115,0.345 0.115,0.662 0.115,1.008 z m -38.568,30.126 v 4.29 c 0,0.462 -0.058,0.922 -0.288,1.326 -0.26,0.518 -0.692,0.69 -1.268,0.69 -0.547,0 -0.979,-0.2 -1.238,-0.72 -0.173,-0.345 -0.231,-0.748 -0.231,-1.123 v -8.553 c 0,-0.46 0.058,-0.922 0.231,-1.354 0.259,-0.605 0.749,-0.892 1.44,-0.864 0.634,0.03 0.979,0.288 1.21,0.95 0.115,0.346 0.144,0.72 0.144,1.095 z m -1.093,-27.62 h -2.275 c 0.374,-2.361 0.72,-4.665 1.094,-6.998 0.231,0.346 1.095,5.587 1.181,6.998 z m -45.997,53.223 c 0.374,2.333 0.72,4.665 1.094,7.027 h -2.304 c 0.374,-2.362 0.72,-4.694 1.094,-7.027 0.029,-0.029 0.058,-0.029 0.116,0 z m -30.907,1.123 v -2.333 c 0,-0.317 0.086,-0.46 0.432,-0.432 0.23,0.029 0.461,0 0.691,0 1.066,0.029 1.613,0.432 1.872,1.469 0.231,0.95 0.231,1.9 -0.057,2.851 -0.231,0.778 -0.778,1.181 -1.556,1.239 -0.317,0.028 -0.633,0 -0.95,0.028 -0.317,0.03 -0.404,-0.115 -0.404,-0.403 -0.028,-0.835 -0.028,-1.613 -0.028,-2.419 z m 91.047,-30.125 v -2.333 c 0,-0.316 0.086,-0.46 0.432,-0.432 0.432,0.03 0.864,-0.028 1.296,0.087 0.547,0.144 0.95,0.46 1.123,1.008 0.403,1.123 0.403,2.246 0.029,3.37 -0.231,0.662 -0.691,1.007 -1.383,1.094 -0.374,0.029 -0.72,0.029 -1.094,0.057 -0.288,0.03 -0.403,-0.115 -0.403,-0.403 0.028,-0.835 0,-1.641 0,-2.448 z"
         inkscape:connector-curvature="0"
         style="fill:none" />
    </g>
    <g
       style="fill:none"
       id="g71"
       transform="matrix(0.26458333,0,0,0.26458333,88.689697,52.754205)">
      <path
         id="path48"
         d="M 192.08,164.085 A 69.282,69.282 0 0 0 224.643,131.818 69.305,69.305 0 0 0 205.637,47.401 69.259,69.259 0 0 0 162.39,32.211 c -1.776,0 -3.556,0.07 -5.34,0.21 a 69.256,69.256 0 0 0 -51.201,28.99 69.294,69.294 0 0 0 -10.447,57.915 69.29,69.29 0 0 0 37.844,45.06 69.26,69.26 0 0 0 58.834,-0.301 z M 99.984,109.029 a 62.854,62.854 0 0 1 6.524,-36.287 62.834,62.834 0 0 1 25.749,-26.38 62.81,62.81 0 0 1 70.152,6.741 62.848,62.848 0 0 1 -1.335,97.907 62.826,62.826 0 0 1 -34.415,13.203 59.282,59.282 0 0 1 -4.304,0.151 62.817,62.817 0 0 1 -41.684,-15.828 62.849,62.849 0 0 1 -20.687,-39.507 z"
         inkscape:connector-curvature="0"
         style="fill:#c4c4c4" />
      <path
         id="path50"
         d="m 195.803,96.729 a 0.792,0.792 0 1 0 0.838,0.79 0.81,0.81 0 0 0 -0.524,-0.737 0.817,0.817 0 0 0 -0.314,-0.053 z"
         inkscape:connector-curvature="0"
         style="fill:#c4c4c4" />
      <path
         id="path52"
         d="M 217.641,94.261 A 55.533,55.533 0 0 0 204.227,64.773 c -9.308,9.158 -18.417,18.445 -27.666,27.638 v 18.271 c 9.214,9.232 18.436,18.452 27.666,27.661 a 55.781,55.781 0 0 0 13.414,-44.082 z m -23.711,22.716 1.303,-16.466 h 1.164 l 1.384,16.42 z m 13.589,-16.548 c -2.455,-0.349 -7.213,-1.164 -9.505,-1.396 -0.396,0 -0.791,-0.5 -1.047,-0.862 a 1.377,1.377 0 0 1 -1.164,0.617 1.047,1.047 0 0 1 -0.267,0 c -1.059,1.013 -6.166,5.819 -8.028,7.599 -0.256,0.245 -0.395,0.268 -0.5,0.198 -0.105,-0.07 0.07,-0.779 0.244,-0.989 1.548,-1.815 4.654,-5.283 6.05,-6.982 0.372,-0.296 0.84,-0.445 1.315,-0.42 a 1.254,1.254 0 0 1 -0.175,-0.616 1.17,1.17 0 0 1 0.338,-0.838 c -0.396,-1.361 -2.327,-7.948 -3.002,-10.322 -0.093,-0.338 0,-0.466 0.07,-0.512 0.07,-0.047 0.686,0.454 0.791,0.698 0.907,2.165 2.548,6.424 3.49,8.414 a 1.71,1.71 0 0 1 -0.267,1.28 1.37,1.37 0 0 1 1.256,0.861 c 1.454,0.36 8.516,2.083 11.041,2.723 0.349,0.093 0.442,0.198 0.43,0.314 -0.011,0.117 -0.791,0.28 -1.07,0.233 z m 1.896,-5.074 a 3.341,3.341 0 0 1 -1,0.14 h -0.512 a 13.498,13.498 0 0 1 -2.594,-0.594 l -0.373,-0.116 a 20.75,20.75 0 0 0 -2.722,-0.698 3.63,3.63 0 0 0 -1.385,0 1.884,1.884 0 0 0 -1.163,0.803 l -0.244,-0.477 c 0.3,-0.538 0.783,-0.95 1.361,-1.164 a 3.874,3.874 0 0 1 1.268,-0.198 h 0.233 c 0.971,0.08 1.928,0.28 2.85,0.594 l 0.535,0.163 c 0.764,0.256 1.541,0.473 2.327,0.651 a 3.72,3.72 0 0 0 1.373,0 1.59,1.59 0 0 0 1.163,-0.814 l 0.279,0.419 a 2.247,2.247 0 0 1 -1.396,1.291 z m 0,-2.06 a 3.341,3.341 0 0 1 -1,0.14 h -0.5 a 15.34,15.34 0 0 1 -2.606,-0.593 l -0.373,-0.117 a 17.64,17.64 0 0 0 -2.722,-0.698 3.618,3.618 0 0 0 -1.385,0 c -0.474,0.106 -0.89,0.389 -1.163,0.791 l -0.244,-0.465 c 0.3,-0.538 0.783,-0.95 1.361,-1.164 a 3.578,3.578 0 0 1 1.268,-0.198 h 0.233 c 0.971,0.084 1.928,0.287 2.85,0.606 l 0.547,0.162 c 0.764,0.254 1.54,0.468 2.327,0.64 0.452,0.097 0.92,0.097 1.372,0 a 1.557,1.557 0 0 0 1.164,-0.814 l 0.279,0.419 a 2.221,2.221 0 0 1 -1.408,1.291 z m 0,-2.07 a 3.341,3.341 0 0 1 -1,0.139 3.506,3.506 0 0 1 -0.5,0 13.121,13.121 0 0 1 -2.595,-0.594 l -0.395,-0.116 a 19.363,19.363 0 0 0 -2.711,-0.698 3.63,3.63 0 0 0 -1.385,0 1.884,1.884 0 0 0 -1.163,0.803 l -0.244,-0.478 c 0.3,-0.537 0.783,-0.95 1.361,-1.163 a 3.874,3.874 0 0 1 1.268,-0.198 h 0.233 c 0.971,0.076 1.929,0.276 2.85,0.593 l 0.547,0.175 c 0.768,0.233 1.547,0.477 2.327,0.64 0.453,0.09 0.919,0.09 1.372,0 a 1.584,1.584 0 0 0 1.164,-0.815 l 0.279,0.408 a 2.198,2.198 0 0 1 -1.408,1.303 z M 120.529,64.726 a 55.669,55.669 0 0 0 0,73.571 7755.562,7755.562 0 0 0 27.654,-27.662 V 92.365 C 138.946,83.171 129.801,73.873 120.529,64.726 Z m -2.327,43.651 c 0.175,0.64 0.326,1.28 0.477,1.921 0.093,0.372 0,0.628 -0.302,0.686 -0.303,0.058 -0.489,-0.093 -0.582,-0.465 -0.163,-0.664 -0.338,-1.327 -0.489,-1.99 v -0.059 l -2.129,0.524 c 0.186,0.675 0.349,1.362 0.524,2.048 0.081,0.361 0,0.617 -0.326,0.675 -0.326,0.058 -0.477,-0.116 -0.559,-0.454 -0.174,-0.686 -0.349,-1.373 -0.511,-2.059 l -0.326,0.081 a 0.581,0.581 0 0 1 -0.698,-0.419 l -0.698,-2.921 a 0.593,0.593 0 0 1 0.43,-0.698 l 4.479,-1.164 a 0.58,0.58 0 0 1 0.698,0.431 l 0.698,2.909 a 0.595,0.595 0 0 1 -0.43,0.698 h -0.268 z m 19.301,-5.318 a 10.558,10.558 0 0 1 -1.535,4.677 10.554,10.554 0 0 1 -3.491,3.469 9.531,9.531 0 0 1 -4.654,1.315 5.557,5.557 0 0 1 -4.967,-2.735 3.92,3.92 0 0 1 -0.489,-3.095 c 0.163,-1.024 1.012,-2.898 4.34,-5.819 a 14.64,14.64 0 0 0 -3.491,2.037 9.537,9.537 0 0 0 -2.082,3.363 4.941,4.941 0 0 1 -1.164,-4.829 c 1.071,-2.863 3.374,-2.665 4.654,-3.282 a 5.16,5.16 0 0 0 2.734,-4.655 c 0,0 -0.209,-0.943 0.582,0 a 9.843,9.843 0 0 1 1.757,9.903 c -1.42,3.375 -4.038,4.469 -5.818,4.271 -0.128,2.223 2.653,3.049 4.189,2.956 a 7.797,7.797 0 0 0 3.49,-1.164 9.712,9.712 0 0 0 4.095,-6.866 9.967,9.967 0 0 0 -3.688,-8.914 9.77,9.77 0 0 0 -12.134,-0.29 c -5.143,3.56 -3.816,10.17 -3.816,10.17 l -1.827,0.361 c -0.058,-0.279 -1.722,-7.087 3.863,-11.51 a 12.27,12.27 0 0 1 7.457,-2.815 11.957,11.957 0 0 1 7.609,2.653 11.635,11.635 0 0 1 4.409,10.799 z m 27.516,-9.961 a 2.325,2.325 0 0 1 -4.602,0.489 2.332,2.332 0 0 1 0.94,-2.397 2.327,2.327 0 0 1 1.277,-0.42 2.386,2.386 0 0 1 2.385,2.328 z m 4.839,16.408 c -2.036,-2.595 -5.433,-7.203 -5.759,-7.622 1.164,-1.094 3.747,-3.491 4.782,-4.492 1.036,-1 0,-1.094 -0.372,-1.094 h -11.774 c -0.396,0 -1.571,0 -0.372,1.094 1.198,1.094 3.618,3.398 4.781,4.492 -0.325,0.419 -3.723,5.027 -5.759,7.622 -0.57,0.722 -0.244,1.234 0.547,0.92 3.153,-1.246 5.817,-2.689 6.69,-2.956 0.861,0.267 3.548,1.71 6.701,2.956 0.791,0.314 1.117,-0.198 0.535,-0.92 z M 158.411,60.386 V 56.73 h -3.793 v 2.886 c -3.385,4.655 -3.874,14.035 -3.874,14.035 h 4.514 c 0,0 0,-8.635 1.361,-13.267 h 1.792 z m 7.957,-0.92 c -3.491,4.655 -3.979,14.186 -3.979,14.186 h 4.502 c 0,0 0,-8.635 1.373,-13.267 h 1.896 v -3.654 h -3.792 z m -2.081,-2.735 h -3.735 v 2.619 c -3.607,4.562 -4.118,14.36 -4.118,14.36 h 4.514 c 0,0 0,-8.635 1.361,-13.266 h 2.036 z"
         inkscape:connector-curvature="0"
         style="fill:#c4c4c4" />
      <path
         id="path54"
         d="m 162.378,45.723 a 52.69,52.69 0 0 0 -6.05,0.349 55.684,55.684 0 0 0 -29.958,12.894 c -0.268,0.267 -0.977,0.628 -0.477,1 L 153.21,87.28 h 18.312 a 4873.105,4873.105 0 0 0 27.596,-27.685 55.73,55.73 0 0 0 -36.74,-13.871 z m -13.531,29.232 2.874,-18.224 v -1.49 h 20.243 v 1.514 l -2.746,18.165 z m 27.352,0 h -5.433 l 2.583,-18.224 V 55.22 h -0.093 2.966 l -0.023,19.736 z m 89.816,6.761 -5.41,-17.711 h -0.14 c 0.194,3.6 0.291,5.997 0.291,7.192 V 81.67 h -4.27 V 59.199 h 6.446 l 5.328,17.223 h 0.093 l 5.654,-17.223 h 6.492 v 22.517 h -4.444 v -10.66 -1.733 c 0,-0.652 0.081,-2.409 0.209,-5.248 h -0.139 l -5.817,17.641 z m 16.114,-17.223 h 5.142 l 3.246,9.694 c 0.303,0.972 0.494,1.976 0.57,2.991 h 0.093 c 0.107,-1.019 0.33,-2.022 0.663,-2.99 l 3.188,-9.695 h 5.038 l -7.283,19.435 a 8.45,8.45 0 0 1 -2.862,4.026 7.177,7.177 0 0 1 -4.34,1.35 10.94,10.94 0 0 1 -2.385,-0.268 v -3.724 c 0.608,0.134 1.228,0.2 1.85,0.198 a 3.293,3.293 0 0 0 2.176,-0.768 4.828,4.828 0 0 0 1.466,-2.327 l 0.267,-0.838 z m -10.1,32.794 a 6.89,6.89 0 0 1 -2.268,5.563 9.726,9.726 0 0 1 -6.457,1.885 h -2.048 v 8.006 h -4.781 V 90.258 h 7.201 a 9.561,9.561 0 0 1 6.236,1.77 6.42,6.42 0 0 1 2.117,5.26 z m -10.773,3.573 h 1.571 a 5.22,5.22 0 0 0 3.292,-0.873 3.035,3.035 0 0 0 1.094,-2.537 3.113,3.113 0 0 0 -0.919,-2.479 4.258,4.258 0 0 0 -2.874,-0.803 h -2.164 z m 29.051,3.281 a 9.308,9.308 0 0 1 -2.223,6.575 8.037,8.037 0 0 1 -6.177,2.328 8.685,8.685 0 0 1 -4.375,-1.082 7.322,7.322 0 0 1 -2.908,-3.119 10.553,10.553 0 0 1 -1.012,-4.748 9.207,9.207 0 0 1 2.198,-6.564 8.074,8.074 0 0 1 6.19,-2.327 8.792,8.792 0 0 1 4.374,1.07 7.268,7.268 0 0 1 2.909,3.096 10.48,10.48 0 0 1 1.024,4.771 z m -11.914,0 a 7.248,7.248 0 0 0 0.838,3.864 3.485,3.485 0 0 0 4.232,0.963 3.489,3.489 0 0 0 1.213,-0.963 7.383,7.383 0 0 0 0.826,-3.875 7.073,7.073 0 0 0 -0.838,-3.841 3.493,3.493 0 0 0 -4.222,-0.957 c -0.47,0.225 -0.884,0.552 -1.211,0.957 a 7.093,7.093 0 0 0 -0.838,3.852 z m 28.678,8.635 -1.326,-6.016 -1.78,-7.61 h -0.105 l -3.153,13.626 h -5.049 L 290.76,95.553 h 4.653 l 1.99,7.634 c 0.314,1.362 0.64,3.247 0.965,5.644 h 0.094 c 0.103,-1.243 0.281,-2.479 0.535,-3.7 l 0.244,-1.315 2.129,-8.263 h 5.177 l 2.013,8.263 c 0,0.221 0.105,0.558 0.198,1 0.093,0.443 0.174,0.908 0.256,1.409 0.081,0.5 0.151,0.989 0.221,1.466 0.058,0.385 0.097,0.774 0.116,1.164 h 0.116 c 0.094,-0.73 0.256,-1.742 0.489,-3.038 0.233,-1.291 0.407,-2.153 0.512,-2.606 l 2.059,-7.635 h 4.654 l -4.956,17.224 z m 19.383,0.315 a 8.913,8.913 0 0 1 -6.504,-2.328 8.715,8.715 0 0 1 -2.327,-6.505 9.55,9.55 0 0 1 2.164,-6.691 8.795,8.795 0 0 1 11.634,-0.291 7.894,7.894 0 0 1 2.025,5.748 v 2.328 h -11.099 a 4.493,4.493 0 0 0 1.163,3.13 4.157,4.157 0 0 0 3.107,1.164 c 0.989,0.005 1.977,-0.1 2.943,-0.314 a 14.788,14.788 0 0 0 2.943,-1.106 v 3.631 c -0.832,0.42 -1.716,0.729 -2.629,0.919 a 16.916,16.916 0 0 1 -3.42,0.315 z m -0.698,-14.512 a 2.963,2.963 0 0 0 -2.327,0.943 4.385,4.385 0 0 0 -0.977,2.688 h 6.596 a 3.984,3.984 0 0 0 -0.907,-2.688 3.115,3.115 0 0 0 -2.385,-0.943 z m 19.883,-3.34 a 7.638,7.638 0 0 1 1.594,0.14 l -0.36,4.398 a 5.297,5.297 0 0 0 -1.385,-0.15 4.978,4.978 0 0 0 -3.49,1.163 4.186,4.186 0 0 0 -1.256,3.235 v 8.763 h -4.654 V 95.553 h 3.56 l 0.698,2.898 h 0.221 a 6.394,6.394 0 0 1 2.164,-2.328 5.301,5.301 0 0 1 2.908,-0.884 z m -84.464,48.609 h -4.654 v -22.53 h 12.914 v 3.91 h -8.213 v 5.819 h 7.643 v 3.945 h -7.643 z m 21.919,0 -0.907,-2.328 h -0.128 a 6.888,6.888 0 0 1 -2.444,2.072 7.66,7.66 0 0 1 -3.269,0.582 5.242,5.242 0 0 1 -3.897,-1.42 5.402,5.402 0 0 1 -1.431,-4.038 4.54,4.54 0 0 1 1.919,-4.038 11.043,11.043 0 0 1 5.817,-1.443 l 2.99,-0.094 v -0.756 a 2.326,2.326 0 0 0 -2.675,-2.618 12.173,12.173 0 0 0 -4.863,1.256 l -1.548,-3.176 a 13.955,13.955 0 0 1 6.562,-1.583 8.144,8.144 0 0 1 5.317,1.513 5.564,5.564 0 0 1 1.849,4.585 v 11.486 z m -1.384,-7.983 h -1.815 a 5.815,5.815 0 0 0 -3.049,0.744 2.336,2.336 0 0 0 -1,2.06 c 0,1.327 0.776,1.99 2.327,1.99 a 3.601,3.601 0 0 0 2.617,-0.943 3.282,3.282 0 0 0 0.978,-2.49 z m 17.846,-9.566 a 7.607,7.607 0 0 1 1.593,0.139 l -0.36,4.399 a 5.297,5.297 0 0 0 -1.385,-0.151 4.975,4.975 0 0 0 -3.49,1.164 4.196,4.196 0 0 0 -1.256,3.235 v 8.774 h -4.654 v -17.223 h 3.56 l 0.698,2.886 h 0.221 a 6.604,6.604 0 0 1 2.164,-2.327 5.335,5.335 0 0 1 2.909,-0.896 z m 18.87,17.549 h -4.654 v -10.02 a 5.118,5.118 0 0 0 -0.617,-2.793 2.185,2.185 0 0 0 -1.966,-0.931 2.846,2.846 0 0 0 -2.617,1.327 8.64,8.64 0 0 0 -0.815,4.352 v 8.146 h -4.653 v -17.223 h 3.583 l 0.628,2.199 h 0.268 a 4.842,4.842 0 0 1 2.001,-1.862 6.55,6.55 0 0 1 3.001,-0.663 c 2.583,0 4.328,0.842 5.236,2.525 h 0.419 a 4.649,4.649 0 0 1 2.036,-1.862 6.858,6.858 0 0 1 3.048,-0.663 6.026,6.026 0 0 1 4.432,1.501 6.598,6.598 0 0 1 1.501,4.818 v 11.23 h -4.712 v -10.101 a 5.013,5.013 0 0 0 -0.628,-2.793 2.185,2.185 0 0 0 -1.966,-0.931 2.887,2.887 0 0 0 -2.571,1.234 6.847,6.847 0 0 0 -0.861,3.91 z M 153.57,124.704 v 2.537 a 6.91,6.91 0 0 1 1.78,-0.628 z m -1.734,5.703 a 0.917,0.917 0 0 0 -0.081,0.139 5.296,5.296 0 0 0 -0.57,1.967 0.547,0.547 0 0 0 0,0.14 5.35,5.35 0 0 0 0.291,2.187 l 0.174,0.443 a 5.57,5.57 0 0 0 1.164,1.699 l 5.084,-9.252 a 5.254,5.254 0 0 0 -1.699,-0.139 c -0.231,0.013 -0.46,0.044 -0.686,0.093 a 5.25,5.25 0 0 0 -2.001,0.849 5.456,5.456 0 0 0 -1.431,1.443 c -0.082,0.14 -0.163,0.279 -0.245,0.431 z m 5.958,-3.829 -0.768,-2.223 -0.965,2.142 a 6.668,6.668 0 0 1 1.733,0.081 z m -5.492,1.513 -2.21,-0.791 1.07,2.094 a 6.806,6.806 0 0 1 1.14,-1.303 z m -1.569,7.832 -1.256,1.827 2.14,-0.477 a 7.04,7.04 0 0 1 -0.884,-1.35 z m 14.856,-9.683 -3.642,0.012 -2.408,4.189 3.711,-0.011 z m -2.898,5.284 h -3.711 l -2.734,4.562 h 3.77 z m -1.989,5.69 -2.827,5.028 h 3.839 l 2.781,-5.028 z m 0.513,-1.128 h 3.781 l 2.629,-4.562 h -3.723 z m 6.957,-5.656 2.292,-4.201 -3.665,0.012 -2.338,4.189 z m -12.449,6.784 -2.897,5.028 h 3.839 l 2.839,-5.028 z m 7.201,5.028 h 3.851 l 2.71,-5.028 h -3.792 z m 6.457,-11.812 h 3.711 l 2.234,-4.201 h -3.665 z m -3.176,5.656 h 3.781 l 2.571,-4.562 h -3.734 z"
         inkscape:connector-curvature="0"
         style="fill:#c4c4c4" />
      <path
         id="path56"
         d="M 171.778,115.069 H 153.57 a 31401.582,31401.582 0 0 0 -27.689,27.662 55.661,55.661 0 0 0 73.597,0 9382.125,9382.125 0 0 1 -27.7,-27.662 z m -14.753,9.31 0.768,2.222 a 6.71,6.71 0 0 0 -1.733,-0.081 z m -3.49,0.349 1.769,1.908 a 6.886,6.886 0 0 0 -1.78,0.629 z m 0,3.828 a 5.272,5.272 0 0 1 2.001,-0.849 c 0.226,-0.049 0.456,-0.08 0.687,-0.093 a 5.275,5.275 0 0 1 1.698,0.139 l -5.084,9.252 a 5.55,5.55 0 0 1 -1.163,-1.699 l -0.175,-0.442 a 5.386,5.386 0 0 1 -0.291,-2.188 0.655,0.655 0 0 1 0,-0.14 c 0.06,-0.686 0.254,-1.354 0.57,-1.966 a 0.932,0.932 0 0 1 0.082,-0.14 5.26,5.26 0 0 1 0.256,-0.431 5.452,5.452 0 0 1 1.454,-1.466 z m -1.221,-0.442 a 6.778,6.778 0 0 0 -1.164,1.304 l -1.07,-2.095 z m -1.536,1.978 a 6.725,6.725 0 0 0 -0.57,1.641 l -1.827,-1.466 z m -0.698,3.259 c 0.028,0.578 0.134,1.149 0.314,1.699 l -2.327,-0.466 z m 0.663,2.595 c 0.242,0.483 0.538,0.936 0.884,1.35 l -2.14,0.477 z m 20.174,11.637 h -14.38 l 0.733,-1.571 h 4.735 l 0.547,-1.164 h 3.234 l -0.558,1.164 h 6.363 z m -2.897,-3.375 a 0.196,0.196 0 0 1 -0.07,0.07 h -16.055 a 0.183,0.183 0 0 1 -0.128,-0.037 0.188,0.188 0 0 1 -0.07,-0.114 l -0.268,-1.234 a 0.16,0.16 0 0 1 0,-0.069 l 9.843,-17.142 a 0.181,0.181 0 0 1 0.072,-0.078 0.184,0.184 0 0 1 0.102,-0.027 h 14.729 a 0.165,0.165 0 0 1 0,0.07 v 1.571 c 0.022,0.17 0.022,0.342 0,0.512 z"
         inkscape:connector-curvature="0"
         style="fill:#c4c4c4" />
    </g>
  </g>
</svg>
