<?xml version="1.0" encoding="UTF-8" standalone="no"?>
<!-- Created with Inkscape (http://www.inkscape.org/) -->

<svg
   xmlns:dc="http://purl.org/dc/elements/1.1/"
   xmlns:cc="http://creativecommons.org/ns#"
   xmlns:rdf="http://www.w3.org/1999/02/22-rdf-syntax-ns#"
   xmlns:svg="http://www.w3.org/2000/svg"
   xmlns="http://www.w3.org/2000/svg"
   xmlns:sodipodi="http://sodipodi.sourceforge.net/DTD/sodipodi-0.dtd"
   xmlns:inkscape="http://www.inkscape.org/namespaces/inkscape"
   width="9.1041698mm"
   height="9.644062mm"
   viewBox="0 0 9.1041709 9.644062"
   version="1.1"
   id="svg8"
   inkscape:version="0.92.4 (5da689c313, 2019-01-14)"
   sodipodi:docname="drawing.svg">
  <defs
     id="defs2" />
  <sodipodi:namedview
     id="base"
     pagecolor="#ffffff"
     bordercolor="#666666"
     borderopacity="1.0"
     inkscape:pageopacity="0.0"
     inkscape:pageshadow="2"
     inkscape:zoom="3.959798"
     inkscape:cx="34.93914"
     inkscape:cy="-10.372036"
     inkscape:document-units="mm"
     inkscape:current-layer="layer1"
     showgrid="false"
     fit-margin-top="0"
     fit-margin-left="0"
     fit-margin-right="0"
     fit-margin-bottom="0"
     inkscape:window-width="1920"
     inkscape:window-height="1017"
     inkscape:window-x="-8"
     inkscape:window-y="-8"
     inkscape:window-maximized="1" />
  <metadata
     id="metadata5">
    <rdf:RDF>
      <cc:Work
         rdf:about="">
        <dc:format>image/svg+xml</dc:format>
        <dc:type
           rdf:resource="http://purl.org/dc/dcmitype/StillImage" />
        <dc:title></dc:title>
      </cc:Work>
    </rdf:RDF>
  </metadata>
  <g
     inkscape:label="Layer 1"
     inkscape:groupmode="layer"
     id="layer1"
     transform="translate(-83.721726,-223.3863)">
    <g
       style="fill:none"
       id="g27"
       transform="matrix(0.26458333,0,0,0.26458333,83.721726,223.3863)">
      <path
         id="path10"
         d="M 10.469,19.492 V 3.766 c 0,-0.2 0.158,-0.358 0.355,-0.358 h 12.321 c 0.092,0 0.184,0.04 0.25,0.106 L 24.669,4.8 a 0.363,0.363 0 0 0 0.499,0 l 1.878,-1.896 a 0.371,0.371 0 0 0 0,-0.504 L 24.774,0.106 A 0.357,0.357 0 0 0 24.524,0 H 7.448 A 0.355,0.355 0 0 0 7.093,0.358 V 22.17 c 0,0.318 0.38,0.477 0.604,0.252 l 2.667,-2.692 a 0.312,0.312 0 0 0 0.105,-0.238 z M 29.424,5.304 27.546,7.2 a 0.371,0.371 0 0 0 0,0.504 l 1.143,1.153 c 0.065,0.067 0.105,0.16 0.105,0.252 v 14.254 c 0,0.093 -0.04,0.186 -0.105,0.252 l -5.307,5.357 a 0.357,0.357 0 0 1 -0.25,0.106 H 6.029 a 0.357,0.357 0 0 0 -0.25,0.106 l -2.666,2.692 c -0.223,0.226 -0.066,0.61 0.25,0.61 h 21.161 c 0.092,0 0.184,-0.04 0.25,-0.106 l 0.276,-0.278 7.001,-7.068 a 0.364,0.364 0 0 0 0.105,-0.252 V 7.704 A 0.364,0.364 0 0 0 32.051,7.452 L 29.923,5.304 a 0.363,0.363 0 0 0 -0.499,0 z"
         inkscape:connector-curvature="0"
         style="fill:#00ffff" />
      <path
         id="path12"
         d="m 10.47,25.3 h 12.36 c 0.197,0 0.355,-0.16 0.355,-0.359 V 22.25 A 0.355,0.355 0 0 0 22.83,21.892 h -9.694 a 0.357,0.357 0 0 0 -0.25,0.106 l -2.666,2.691 c -0.224,0.226 -0.066,0.61 0.25,0.61 z M 3.363,26.653 V 0.386 A 0.378,0.378 0 0 0 2.995,0.015 H 0.368 A 0.378,0.378 0 0 0 0,0.386 v 28.933 c 0,0.331 0.394,0.49 0.63,0.265 l 2.628,-2.652 a 0.43,0.43 0 0 0 0.105,-0.279 z"
         inkscape:connector-curvature="0"
         style="fill:#00ffff" />
      <path
         id="path14"
         d="m 44.163,0.013 h 4.006 c 1.708,0 3.126,0.332 4.23,1.008 1.103,0.663 1.904,1.538 2.417,2.599 0.499,1.06 0.762,2.2 0.762,3.408 0,1.299 -0.303,2.453 -0.907,3.434 a 6.048,6.048 0 0 1 -2.456,2.294 c -1.025,0.53 -2.155,0.795 -3.376,0.795 H 44.176 V 0.013 h -0.014 z m 4.216,10.966 c 1.38,0 2.457,-0.358 3.258,-1.06 0.801,-0.717 1.208,-1.738 1.208,-3.077 0,-1.074 -0.223,-1.936 -0.67,-2.572 C 51.729,3.633 51.217,3.196 50.625,2.944 50.035,2.704 49.483,2.572 48.957,2.572 h -2.154 v 8.407 z M 57.81,1.737 a 1.42,1.42 0 0 1 0.972,-0.371 c 0.355,0 0.67,0.12 0.946,0.371 0.276,0.252 0.42,0.557 0.42,0.928 0,0.371 -0.144,0.676 -0.42,0.915 a 1.356,1.356 0 0 1 -0.946,0.371 c -0.367,0 -0.696,-0.119 -0.972,-0.37 A 1.153,1.153 0 0 1 57.377,2.665 1.22,1.22 0 0 1 57.81,1.737 Z m 2.18,3.779 v 8.035 H 57.442 V 5.516 h 2.549 z m 11.101,0 v 8.035 c 0,0.756 -0.21,1.446 -0.643,2.069 -0.434,0.623 -1.012,1.1 -1.747,1.458 a 5.587,5.587 0 0 1 -2.391,0.53 c -0.657,0 -1.235,-0.079 -1.72,-0.238 -0.487,-0.159 -0.894,-0.331 -1.183,-0.53 a 11.252,11.252 0 0 1 -1.064,-0.81 l 1.497,-1.763 c 0.368,0.345 0.723,0.61 1.09,0.81 0.355,0.198 0.815,0.29 1.354,0.29 0.643,0 1.182,-0.158 1.628,-0.49 0.434,-0.331 0.657,-0.782 0.657,-1.352 v -1.14 c -0.25,0.41 -0.617,0.755 -1.116,1.007 -0.5,0.252 -1.117,0.385 -1.852,0.385 -0.723,0 -1.38,-0.186 -1.997,-0.557 A 4.062,4.062 0 0 1 62.133,11.668 4.348,4.348 0 0 1 61.581,9.494 c 0,-0.809 0.197,-1.551 0.578,-2.228 a 4.238,4.238 0 0 1 1.51,-1.578 3.734,3.734 0 0 1 1.984,-0.57 c 0.657,0 1.235,0.093 1.747,0.292 0.512,0.186 0.893,0.437 1.17,0.742 l 0.196,-0.623 h 2.325 z M 68.53,10.462 V 8.499 C 68.36,8.102 68.083,7.797 67.676,7.558 67.282,7.319 66.822,7.213 66.323,7.213 A 2.16,2.16 0 0 0 64.76,7.836 c -0.42,0.411 -0.644,0.942 -0.644,1.578 0,0.637 0.21,1.18 0.644,1.605 0.42,0.437 0.946,0.65 1.563,0.65 1.025,0.013 1.76,-0.398 2.207,-1.207 z m 5.043,-8.725 a 1.42,1.42 0 0 1 0.972,-0.371 c 0.355,0 0.67,0.12 0.946,0.371 0.276,0.252 0.42,0.557 0.42,0.928 0,0.371 -0.144,0.676 -0.42,0.915 a 1.356,1.356 0 0 1 -0.946,0.371 c -0.367,0 -0.696,-0.119 -0.972,-0.37 A 1.153,1.153 0 0 1 73.14,2.665 c 0,-0.371 0.144,-0.676 0.433,-0.928 z m 2.18,3.779 v 8.035 H 73.206 V 5.516 h 2.548 z m 5.243,-3.54 v 3.5 h 1.931 V 7.48 h -1.931 v 6.072 H 78.448 V 7.48 H 77.213 V 5.476 h 1.235 v -3.5 z m 11.979,3.54 v 8.035 h -2.548 v -0.994 c -0.762,0.809 -1.656,1.22 -2.667,1.22 -1.182,0 -2.141,-0.358 -2.877,-1.061 C 84.148,12 83.78,10.953 83.78,9.547 83.78,8.659 83.964,7.889 84.318,7.213 84.673,6.55 85.159,6.02 85.75,5.662 a 3.55,3.55 0 0 1 1.918,-0.557 c 0.71,0 1.261,0.106 1.681,0.318 a 3.39,3.39 0 0 1 1.09,0.915 l 0.158,-0.822 z m -2.548,4.946 V 8.499 A 1.838,1.838 0 0 0 89.665,7.558 C 89.31,7.319 88.89,7.213 88.404,7.213 c -0.565,0 -1.038,0.212 -1.432,0.623 -0.394,0.412 -0.591,0.942 -0.591,1.578 0,0.411 0.092,0.796 0.289,1.154 0.197,0.345 0.446,0.623 0.775,0.822 0.328,0.199 0.67,0.292 1.05,0.292 0.88,0 1.524,-0.411 1.932,-1.22 z M 97.626,0.026 V 13.551 H 95.077 V 0.026 Z M 46.803,19.04 v 10.966 h 6.305 v 2.573 H 44.163 V 19.04 Z m 16.747,5.504 v 8.035 h -2.547 v -0.995 c -0.762,0.81 -1.656,1.22 -2.667,1.22 -1.182,0 -2.141,-0.358 -2.877,-1.06 -0.735,-0.716 -1.103,-1.764 -1.103,-3.17 0,-0.888 0.184,-1.657 0.538,-2.333 0.355,-0.663 0.841,-1.194 1.432,-1.552 a 3.55,3.55 0 0 1 1.918,-0.557 c 0.71,0 1.261,0.106 1.681,0.319 a 3.39,3.39 0 0 1 1.09,0.915 l 0.158,-0.822 h 2.378 z m -2.547,4.945 v -1.962 a 1.838,1.838 0 0 0 -0.762,-0.942 c -0.355,-0.238 -0.775,-0.344 -1.261,-0.344 -0.565,0 -1.038,0.212 -1.432,0.623 -0.394,0.411 -0.591,0.941 -0.591,1.578 0,0.41 0.092,0.795 0.289,1.153 0.197,0.345 0.446,0.624 0.775,0.823 0.328,0.198 0.67,0.291 1.05,0.291 0.88,0 1.524,-0.398 1.932,-1.22 z m 15.775,-4.946 -3.586,8.513 -2.548,-5.33 -2.338,5.33 -3.626,-8.513 h 2.483 l 1.471,3.408 1.117,-2.48 -0.42,-0.914 h 2.167 l 1.497,3.553 1.314,-3.553 h 2.47 v -0.014 z m 9.971,0 -5.136,11.907 h -2.457 l 1.918,-4.282 -3.678,-7.611 h 2.864 l 2.101,4.747 2.115,-4.747 h 2.273 z m 6.371,5.543 1.13,1.91 a 6.353,6.353 0 0 1 -1.38,0.583 4.826,4.826 0 0 1 -1.38,0.225 c -0.945,0 -1.76,-0.185 -2.456,-0.543 a 3.71,3.71 0 0 1 -1.563,-1.525 c -0.355,-0.65 -0.525,-1.406 -0.525,-2.254 0,-0.783 0.197,-1.512 0.604,-2.175 a 4.364,4.364 0 0 1 1.668,-1.578 4.755,4.755 0 0 1 2.312,-0.583 c 1.143,0 2.076,0.331 2.811,1.007 0.736,0.677 1.209,1.645 1.432,2.891 l -5.832,1.883 c 0.394,0.45 0.92,0.676 1.59,0.676 0.511,0.013 1.037,-0.159 1.589,-0.517 z m -3.153,-3.328 c -0.341,0.398 -0.512,0.915 -0.512,1.578 v 0.159 l 3.494,-1.194 c -0.25,-0.755 -0.801,-1.14 -1.629,-1.14 -0.565,0 -1.011,0.199 -1.353,0.597 z m 10.483,-1.525 c 0.381,-0.345 0.775,-0.61 1.182,-0.796 0.407,-0.185 0.722,-0.291 0.946,-0.291 l -0.132,2.572 c -0.079,-0.013 -0.171,-0.013 -0.315,-0.013 -0.512,0 -0.959,0.132 -1.353,0.41 -0.394,0.266 -0.683,0.61 -0.893,1.035 -0.21,0.424 -0.316,0.862 -0.316,1.3 v 3.142 h -2.535 v -8.035 h 2.299 L 99.53,26.4 a 4.14,4.14 0 0 1 0.92,-1.167 z m 4.296,7.173 c -0.565,-0.238 -1.051,-0.557 -1.419,-0.98 l 1.051,-1.42 c 0.709,0.663 1.366,0.995 1.983,0.995 0.329,0 0.591,-0.053 0.789,-0.16 0.197,-0.105 0.302,-0.265 0.302,-0.463 a 0.611,0.611 0 0 0 -0.342,-0.557 3.394,3.394 0 0 0 -0.775,-0.319 c -0.289,-0.08 -0.473,-0.145 -0.578,-0.159 -0.696,-0.225 -1.208,-0.543 -1.55,-0.98 a 2.381,2.381 0 0 1 -0.512,-1.5 c 0,-0.424 0.118,-0.848 0.341,-1.259 0.224,-0.411 0.578,-0.742 1.051,-1.008 0.473,-0.265 1.064,-0.397 1.774,-0.397 0.656,0 1.208,0.066 1.681,0.198 0.46,0.133 0.906,0.359 1.327,0.663 l -0.972,1.486 a 3.623,3.623 0 0 0 -0.815,-0.491 c -0.302,-0.133 -0.565,-0.199 -0.814,-0.199 -0.289,0 -0.526,0.066 -0.71,0.186 -0.184,0.119 -0.275,0.265 -0.275,0.437 a 0.6,0.6 0 0 0 0.315,0.584 c 0.223,0.132 0.578,0.265 1.051,0.397 0.078,0.027 0.144,0.053 0.223,0.08 0.079,0.027 0.158,0.053 0.25,0.08 1.247,0.41 1.878,1.18 1.878,2.28 0,0.517 -0.131,0.981 -0.381,1.419 -0.25,0.424 -0.644,0.782 -1.156,1.034 -0.512,0.265 -1.143,0.398 -1.891,0.398 -0.644,0 -1.262,-0.12 -1.826,-0.345 z"
         inkscape:connector-curvature="0"
         style="fill:#ffffff" />
    </g>
  </g>
</svg>
