<svg xmlns="http://www.w3.org/2000/svg" width="305" height="61" fill="none" viewBox="0 0 305 61">
    <path fill="#0FF" d="M114.314 17.69c1.891 0 3.782.061 5.612 0 1.22-.061 1.525.366 1.403 1.464-.061 1.22-.122 2.44 0 3.66.061 1.159-.305 1.647-1.464 1.403-1.464-.244-1.952.183-1.525 1.769.61 2.44.122 4.819-1.281 6.832-.671.976-.427 1.464.244 2.257 6.039 6.588 2.928 17.202-5.612 19.52-4.941 1.342-10.126-.732-12.932-5.185-2.684-4.27-2.38-10.065.915-13.786 1.098-1.22 1.159-1.952.366-3.416-3.477-6.344 1.098-14.213 8.296-14.518 2.013-.061 4.026 0 5.978 0zM178.486 20.069c4.392-3.782 9.882-2.806 12.383-.244.549.549.854 1.769 1.525 1.647.61-.061 1.037-1.159 1.647-1.708 2.745-2.562 6.039-2.806 9.394-1.708 3.599 1.159 5.185 4.087 5.368 7.625.244 4.941.122 9.943.183 14.945 0 .793-.366.915-1.037.915-1.403 0-2.867-.061-4.27 0-1.037.061-1.281-.305-1.281-1.281.061-3.843 0-7.747 0-11.59 0-.671-.061-1.281-.244-1.952-.732-2.074-2.684-3.477-4.636-3.172-2.013.305-3.721 2.257-3.721 4.392a406.69 406.69 0 0 0 0 12.2c0 1.159-.305 1.525-1.464 1.403-1.342-.122-2.623-.061-3.965 0-.976.061-1.22-.305-1.22-1.22.061-3.904 0-7.808 0-11.712 0-.854-.122-1.708-.488-2.501-.915-1.83-2.806-2.867-4.636-2.501-1.891.427-3.416 2.257-3.477 4.331 0 4.087-.061 8.113 0 12.2 0 1.098-.244 1.525-1.464 1.464-1.342-.122-2.745-.061-4.087 0-.732 0-1.098-.122-1.098-.976V19.154c0-.732.305-.976.976-.976 1.281 0 2.562.061 3.782 0 1.342-.183 2.501-.244 1.83 1.891zM40.016 24.705c0-5.124.061-10.248 0-15.372 0-1.098.244-1.525 1.403-1.464 1.342.122 2.745.06 4.087 0 .854-.061 1.16.305 1.098 1.159-.06 2.562 0 5.185-.06 7.747 0 .976.243 1.28 1.28 1.28 4.636-.06 9.272 0 13.847-.06 1.16 0 1.464.305 1.464 1.464-.06 6.832-.06 13.725 0 20.557 0 1.159-.305 1.464-1.464 1.464-6.649 0-13.42 0-20.19.06-1.282 0-1.526-.426-1.465-1.585.061-5.063 0-10.187 0-15.25zM231.799 39.71c-6.283 3.966-11.834 3.478-16.043-1.22-4.148-4.696-4.331-12.016-.366-16.835 3.66-4.392 10.004-6.344 16.287-2.135-.122-1.525.793-1.525 1.83-1.464 1.525.122 3.66-.671 4.514.366.793.915.244 2.928.244 4.453v17.202c0 1.098-.183 1.586-1.403 1.464-1.098-.122-2.257-.061-3.355 0-1.159.06-2.074-.061-1.708-1.83zM132.186 20.13c2.806-2.684 5.917-3.294 9.272-2.379 3.538.976 5.917 4.026 6.161 8.357.244 4.819.122 9.638.122 14.457 0 .671-.244.915-.915.854a52.727 52.727 0 0 0-4.392 0c-1.037.061-1.281-.305-1.281-1.281.061-3.965 0-7.93 0-11.895 0-2.44-1.159-4.148-3.111-4.697-2.013-.549-4.209.488-5.429 2.501-.427.671-.488 1.403-.488 2.196 0 3.965-.061 7.93 0 11.895 0 .976-.244 1.342-1.281 1.281a49.84 49.84 0 0 0-4.27 0c-.793 0-1.037-.244-1.037-1.037V8.845c0-.793.244-1.098 1.037-1.037a49.84 49.84 0 0 0 4.27 0c1.037-.061 1.281.305 1.281 1.281 0 3.599.061 7.137.061 11.041zM249.856 20.008c2.623-2.44 5.551-3.05 8.662-2.379 3.538.732 5.917 3.477 6.588 7.503.549 3.416.183 6.893.305 10.37.061 1.586-.061 3.172 0 4.697.061 1.037-.366 1.342-1.342 1.281-1.22-.061-2.44-.122-3.66 0-1.22.122-1.647-.244-1.647-1.586.061-4.026.061-8.052 0-12.017-.122-3.416-3.172-5.368-6.039-3.965-1.769.854-2.928 2.257-2.928 4.453.061 3.904 0 7.808.061 11.712 0 1.159-.366 1.525-1.464 1.403-1.342-.122-2.623-.061-3.965 0-.976.061-1.159-.366-1.159-1.22 0-7.015.061-14.03 0-21.045 0-.976.366-1.22 1.22-1.159 1.159.061 2.318.061 3.477 0 1.342-.061 2.379 0 1.891 1.952zM152.133 22.265c0-3.416.061-6.832-.061-10.187-.061-1.22.366-1.525 1.464-1.403.915.061 1.83 0 2.745 0 2.379 0 2.379 0 2.379 2.44 0 1.281.061 2.562 0 3.782-.061.854.305 1.159 1.159 1.098 1.952-.061 3.965 0 5.917-.061.976-.061 1.342.305 1.281 1.281a45.661 45.661 0 0 0 0 4.087c.061.976-.244 1.342-1.281 1.342-1.952-.061-3.965 0-5.917-.061-.854 0-1.159.244-1.159 1.098.061 2.013 0 4.087 0 6.1.061 2.623 2.135 3.965 4.514 2.745.671-.305.976-.183 1.464.244 1.098 1.037 2.196 2.135 3.355 3.111.732.61.61 1.037-.061 1.525-3.111 2.44-6.527 3.111-10.126 1.464-3.599-1.647-5.49-4.575-5.612-8.54-.122-3.233-.061-6.649-.061-10.065zM74.48 20.435c2.074-2.196 4.148-2.989 6.527-2.867 1.281.061 1.952.488 1.83 1.952-.122 1.342-.06 2.745 0 4.087 0 .854-.183.976-1.037.793-2.013-.488-3.904-.183-5.49 1.342-1.037.976-1.586 2.135-1.586 3.66.061 3.599-.06 7.198.061 10.797 0 1.037-.305 1.403-1.342 1.342-1.342-.122-2.745-.061-4.087 0-.854.061-1.159-.244-1.159-1.098v-21.35c0-.854.366-1.037 1.098-1.037 1.098.061 2.257 0 3.355 0 1.098.061 2.745-.427 1.83 2.379zM93.575 29.768c0 3.416-.061 6.832.06 10.187.062 1.342-.426 1.647-1.646 1.586-1.342-.122-2.623-.061-3.965 0-.793 0-1.098-.183-1.098-1.037V19.032c0-.732.244-.976.976-.976 1.464.061 2.928.061 4.392 0 1.037-.061 1.28.366 1.28 1.342v10.37zM90.401 7.625c3.172 0 5.124 3.355 3.66 6.16-.305.55-.671.794-1.342.794-1.647 0-3.233-.061-4.88 0-.854.06-1.22-.427-1.403-1.098-1.22-3.416 1.342-6.344 3.965-5.856z"/>
    <path fill="#04050A" d="M114.375 43.127c0 3.111-2.44 5.673-5.551 5.673-3.111.061-5.673-2.501-5.734-5.673 0-3.111 2.501-5.673 5.551-5.673 3.233-.061 5.734 2.44 5.734 5.673zM108.824 23.485c2.196 0 4.026 1.891 4.026 4.148a4.114 4.114 0 0 1-4.148 4.148c-2.196-.061-4.026-1.891-4.026-4.148 0-2.318 1.891-4.209 4.148-4.148zM56.669 29.768c0 1.342-.061 2.623 0 3.965.06.976-.305 1.22-1.22 1.22a158.877 158.877 0 0 0-7.625 0c-.916 0-1.22-.244-1.22-1.22a171.84 171.84 0 0 0 0-7.93c0-.915.304-1.098 1.159-1.098 2.562.061 5.184.061 7.747 0 1.037 0 1.22.366 1.159 1.281v3.782zM231.861 29.768c0 3.538-2.867 6.527-6.283 6.527-3.477 0-6.283-2.989-6.344-6.649 0-3.66 2.867-6.588 6.344-6.588 3.599.061 6.283 2.989 6.283 6.71z"/>
</svg>
