<?xml version="1.0" encoding="UTF-8" standalone="no"?>
<!-- Created with Inkscape (http://www.inkscape.org/) -->

<svg
   xmlns:dc="http://purl.org/dc/elements/1.1/"
   xmlns:cc="http://creativecommons.org/ns#"
   xmlns:rdf="http://www.w3.org/1999/02/22-rdf-syntax-ns#"
   xmlns:svg="http://www.w3.org/2000/svg"
   xmlns="http://www.w3.org/2000/svg"
   xmlns:sodipodi="http://sodipodi.sourceforge.net/DTD/sodipodi-0.dtd"
   xmlns:inkscape="http://www.inkscape.org/namespaces/inkscape"
   width="59.642673mm"
   height="12.548407mm"
   viewBox="0 0 59.642673 12.548407"
   version="1.1"
   id="svg8"
   inkscape:version="0.92.4 (5da689c313, 2019-01-14)"
   sodipodi:docname="drawing.svg">
  <defs
     id="defs2" />
  <sodipodi:namedview
     id="base"
     pagecolor="#ffffff"
     bordercolor="#666666"
     borderopacity="1.0"
     inkscape:pageopacity="0.0"
     inkscape:pageshadow="2"
     inkscape:zoom="0.35"
     inkscape:cx="195.56771"
     inkscape:cy="166.57066"
     inkscape:document-units="mm"
     inkscape:current-layer="layer1"
     showgrid="false"
     fit-margin-top="0"
     fit-margin-left="0"
     fit-margin-right="0"
     fit-margin-bottom="0"
     inkscape:window-width="1920"
     inkscape:window-height="1017"
     inkscape:window-x="-8"
     inkscape:window-y="-8"
     inkscape:window-maximized="1" />
  <metadata
     id="metadata5">
    <rdf:RDF>
      <cc:Work
         rdf:about="">
        <dc:format>image/svg+xml</dc:format>
        <dc:type
           rdf:resource="http://purl.org/dc/dcmitype/StillImage" />
        <dc:title></dc:title>
      </cc:Work>
    </rdf:RDF>
  </metadata>
  <g
     inkscape:label="Layer 1"
     inkscape:groupmode="layer"
     id="layer1"
     transform="translate(-54.089377,-180.35675)">
    <g
       style="fill:none"
       id="g24"
       transform="matrix(0.26458333,0,0,0.26458333,43.504066,178.35343)">
      <path
         id="path10"
         d="m 114.314,17.69 c 1.891,0 3.782,0.061 5.612,0 1.22,-0.061 1.525,0.366 1.403,1.464 -0.061,1.22 -0.122,2.44 0,3.66 0.061,1.159 -0.305,1.647 -1.464,1.403 -1.464,-0.244 -1.952,0.183 -1.525,1.769 0.61,2.44 0.122,4.819 -1.281,6.832 -0.671,0.976 -0.427,1.464 0.244,2.257 6.039,6.588 2.928,17.202 -5.612,19.52 -4.941,1.342 -10.126,-0.732 -12.932,-5.185 -2.684,-4.27 -2.38,-10.065 0.915,-13.786 1.098,-1.22 1.159,-1.952 0.366,-3.416 -3.477,-6.344 1.098,-14.213 8.296,-14.518 2.013,-0.061 4.026,0 5.978,0 z m 64.172,2.379 c 4.392,-3.782 9.882,-2.806 12.383,-0.244 0.549,0.549 0.854,1.769 1.525,1.647 0.61,-0.061 1.037,-1.159 1.647,-1.708 2.745,-2.562 6.039,-2.806 9.394,-1.708 3.599,1.159 5.185,4.087 5.368,7.625 0.244,4.941 0.122,9.943 0.183,14.945 0,0.793 -0.366,0.915 -1.037,0.915 -1.403,0 -2.867,-0.061 -4.27,0 -1.037,0.061 -1.281,-0.305 -1.281,-1.281 0.061,-3.843 0,-7.747 0,-11.59 0,-0.671 -0.061,-1.281 -0.244,-1.952 -0.732,-2.074 -2.684,-3.477 -4.636,-3.172 -2.013,0.305 -3.721,2.257 -3.721,4.392 a 406.69,406.69 0 0 0 0,12.2 c 0,1.159 -0.305,1.525 -1.464,1.403 -1.342,-0.122 -2.623,-0.061 -3.965,0 -0.976,0.061 -1.22,-0.305 -1.22,-1.22 0.061,-3.904 0,-7.808 0,-11.712 0,-0.854 -0.122,-1.708 -0.488,-2.501 -0.915,-1.83 -2.806,-2.867 -4.636,-2.501 -1.891,0.427 -3.416,2.257 -3.477,4.331 0,4.087 -0.061,8.113 0,12.2 0,1.098 -0.244,1.525 -1.464,1.464 -1.342,-0.122 -2.745,-0.061 -4.087,0 -0.732,0 -1.098,-0.122 -1.098,-0.976 V 19.154 c 0,-0.732 0.305,-0.976 0.976,-0.976 1.281,0 2.562,0.061 3.782,0 1.342,-0.183 2.501,-0.244 1.83,1.891 z m -138.47,4.636 c 0,-5.124 0.061,-10.248 0,-15.372 0,-1.098 0.244,-1.525 1.403,-1.464 1.342,0.122 2.745,0.06 4.087,0 0.854,-0.061 1.16,0.305 1.098,1.159 -0.06,2.562 0,5.185 -0.06,7.747 0,0.976 0.243,1.28 1.28,1.28 4.636,-0.06 9.272,0 13.847,-0.06 1.16,0 1.464,0.305 1.464,1.464 -0.06,6.832 -0.06,13.725 0,20.557 0,1.159 -0.305,1.464 -1.464,1.464 -6.649,0 -13.42,0 -20.19,0.06 -1.282,0 -1.526,-0.426 -1.465,-1.585 0.061,-5.063 0,-10.187 0,-15.25 z M 231.799,39.71 c -6.283,3.966 -11.834,3.478 -16.043,-1.22 -4.148,-4.696 -4.331,-12.016 -0.366,-16.835 3.66,-4.392 10.004,-6.344 16.287,-2.135 -0.122,-1.525 0.793,-1.525 1.83,-1.464 1.525,0.122 3.66,-0.671 4.514,0.366 0.793,0.915 0.244,2.928 0.244,4.453 v 17.202 c 0,1.098 -0.183,1.586 -1.403,1.464 -1.098,-0.122 -2.257,-0.061 -3.355,0 -1.159,0.06 -2.074,-0.061 -1.708,-1.83 z M 132.186,20.13 c 2.806,-2.684 5.917,-3.294 9.272,-2.379 3.538,0.976 5.917,4.026 6.161,8.357 0.244,4.819 0.122,9.638 0.122,14.457 0,0.671 -0.244,0.915 -0.915,0.854 a 52.727,52.727 0 0 0 -4.392,0 c -1.037,0.061 -1.281,-0.305 -1.281,-1.281 0.061,-3.965 0,-7.93 0,-11.895 0,-2.44 -1.159,-4.148 -3.111,-4.697 -2.013,-0.549 -4.209,0.488 -5.429,2.501 -0.427,0.671 -0.488,1.403 -0.488,2.196 0,3.965 -0.061,7.93 0,11.895 0,0.976 -0.244,1.342 -1.281,1.281 a 49.84,49.84 0 0 0 -4.27,0 c -0.793,0 -1.037,-0.244 -1.037,-1.037 V 8.845 c 0,-0.793 0.244,-1.098 1.037,-1.037 a 49.84,49.84 0 0 0 4.27,0 c 1.037,-0.061 1.281,0.305 1.281,1.281 0,3.599 0.061,7.137 0.061,11.041 z m 117.67,-0.122 c 2.623,-2.44 5.551,-3.05 8.662,-2.379 3.538,0.732 5.917,3.477 6.588,7.503 0.549,3.416 0.183,6.893 0.305,10.37 0.061,1.586 -0.061,3.172 0,4.697 0.061,1.037 -0.366,1.342 -1.342,1.281 -1.22,-0.061 -2.44,-0.122 -3.66,0 -1.22,0.122 -1.647,-0.244 -1.647,-1.586 0.061,-4.026 0.061,-8.052 0,-12.017 -0.122,-3.416 -3.172,-5.368 -6.039,-3.965 -1.769,0.854 -2.928,2.257 -2.928,4.453 0.061,3.904 0,7.808 0.061,11.712 0,1.159 -0.366,1.525 -1.464,1.403 -1.342,-0.122 -2.623,-0.061 -3.965,0 -0.976,0.061 -1.159,-0.366 -1.159,-1.22 0,-7.015 0.061,-14.03 0,-21.045 0,-0.976 0.366,-1.22 1.22,-1.159 1.159,0.061 2.318,0.061 3.477,0 1.342,-0.061 2.379,0 1.891,1.952 z m -97.723,2.257 c 0,-3.416 0.061,-6.832 -0.061,-10.187 -0.061,-1.22 0.366,-1.525 1.464,-1.403 0.915,0.061 1.83,0 2.745,0 2.379,0 2.379,0 2.379,2.44 0,1.281 0.061,2.562 0,3.782 -0.061,0.854 0.305,1.159 1.159,1.098 1.952,-0.061 3.965,0 5.917,-0.061 0.976,-0.061 1.342,0.305 1.281,1.281 a 45.661,45.661 0 0 0 0,4.087 c 0.061,0.976 -0.244,1.342 -1.281,1.342 -1.952,-0.061 -3.965,0 -5.917,-0.061 -0.854,0 -1.159,0.244 -1.159,1.098 0.061,2.013 0,4.087 0,6.1 0.061,2.623 2.135,3.965 4.514,2.745 0.671,-0.305 0.976,-0.183 1.464,0.244 1.098,1.037 2.196,2.135 3.355,3.111 0.732,0.61 0.61,1.037 -0.061,1.525 -3.111,2.44 -6.527,3.111 -10.126,1.464 -3.599,-1.647 -5.49,-4.575 -5.612,-8.54 -0.122,-3.233 -0.061,-6.649 -0.061,-10.065 z M 74.48,20.435 c 2.074,-2.196 4.148,-2.989 6.527,-2.867 1.281,0.061 1.952,0.488 1.83,1.952 -0.122,1.342 -0.06,2.745 0,4.087 0,0.854 -0.183,0.976 -1.037,0.793 -2.013,-0.488 -3.904,-0.183 -5.49,1.342 -1.037,0.976 -1.586,2.135 -1.586,3.66 0.061,3.599 -0.06,7.198 0.061,10.797 0,1.037 -0.305,1.403 -1.342,1.342 -1.342,-0.122 -2.745,-0.061 -4.087,0 -0.854,0.061 -1.159,-0.244 -1.159,-1.098 v -21.35 c 0,-0.854 0.366,-1.037 1.098,-1.037 1.098,0.061 2.257,0 3.355,0 1.098,0.061 2.745,-0.427 1.83,2.379 z m 19.095,9.333 c 0,3.416 -0.061,6.832 0.06,10.187 0.062,1.342 -0.426,1.647 -1.646,1.586 -1.342,-0.122 -2.623,-0.061 -3.965,0 -0.793,0 -1.098,-0.183 -1.098,-1.037 V 19.032 c 0,-0.732 0.244,-0.976 0.976,-0.976 1.464,0.061 2.928,0.061 4.392,0 1.037,-0.061 1.28,0.366 1.28,1.342 v 10.37 z M 90.401,7.625 c 3.172,0 5.124,3.355 3.66,6.16 -0.305,0.55 -0.671,0.794 -1.342,0.794 -1.647,0 -3.233,-0.061 -4.88,0 -0.854,0.06 -1.22,-0.427 -1.403,-1.098 -1.22,-3.416 1.342,-6.344 3.965,-5.856 z"
         inkscape:connector-curvature="0"
         style="fill:#c4c4c4" />
      <path
         id="path12"
         d="m 114.375,43.127 c 0,3.111 -2.44,5.673 -5.551,5.673 -3.111,0.061 -5.673,-2.501 -5.734,-5.673 0,-3.111 2.501,-5.673 5.551,-5.673 3.233,-0.061 5.734,2.44 5.734,5.673 z m -5.551,-19.642 c 2.196,0 4.026,1.891 4.026,4.148 a 4.114,4.114 0 0 1 -4.148,4.148 c -2.196,-0.061 -4.026,-1.891 -4.026,-4.148 0,-2.318 1.891,-4.209 4.148,-4.148 z m -52.155,6.283 c 0,1.342 -0.061,2.623 0,3.965 0.06,0.976 -0.305,1.22 -1.22,1.22 a 158.877,158.877 0 0 0 -7.625,0 c -0.916,0 -1.22,-0.244 -1.22,-1.22 a 171.84,171.84 0 0 0 0,-7.93 c 0,-0.915 0.304,-1.098 1.159,-1.098 2.562,0.061 5.184,0.061 7.747,0 1.037,0 1.22,0.366 1.159,1.281 z m 175.192,0 c 0,3.538 -2.867,6.527 -6.283,6.527 -3.477,0 -6.283,-2.989 -6.344,-6.649 0,-3.66 2.867,-6.588 6.344,-6.588 3.599,0.061 6.283,2.989 6.283,6.71 z"
         inkscape:connector-curvature="0"
         style="fill:#04050a" />
    </g>
  </g>
</svg>
