<svg xmlns="http://www.w3.org/2000/svg" width="320" height="144" fill="none" viewBox="0 0 320 144">
    <path fill="#0FF" d="M122.527 63.792c-.345 15.264-6.135 28.282-17.742 38.678-1.844 1.642-3.831 3.111-5.905 4.464-.518.346-.518.346-.26.922a293.653 293.653 0 0 0 2.478 5.242c.201.403.23.748.086 1.18-.518 1.527-1.008 3.053-1.526 4.58-.144.403-.115.72.057 1.123 1.383 2.851 2.765 5.731 4.148 8.582.317.634.518 1.267.432 1.987-.058.519-.259.98-.634 1.325-.633.605-1.44.72-2.218.346-.633-.317-1.065-.864-1.353-1.527a1187.687 1187.687 0 0 0-4.954-10.483c-1.325-2.822-2.679-5.673-4.004-8.496-.23-.518-.26-.518-.749-.317a51.21 51.21 0 0 1-11.262 3.197c-4.119.663-8.237.807-12.385.49a50.158 50.158 0 0 1-11.29-2.16 1.108 1.108 0 0 0-.807.029c-1.296.489-2.65.748-4.061.691-.432-.029-.663.115-.836.518-2.131 4.579-4.291 9.13-6.423 13.68-.46.951-.893 1.93-1.354 2.88-.172.346-.374.691-.662.979-.72.778-1.613.98-2.448.548-.807-.404-1.296-1.383-1.152-2.333.057-.49.23-.922.46-1.383 1.383-2.851 2.737-5.673 4.12-8.524.201-.404.259-.749.086-1.181-.519-1.498-.98-3.024-1.498-4.522-.144-.432-.144-.806.058-1.238.46-.864.835-1.786 1.267-2.679.144-.316.144-.518-.087-.806a10.436 10.436 0 0 1-2.217-4.262c-.087-.346-.317-.548-.576-.749a51.59 51.59 0 0 1-12.53-13.795 51.646 51.646 0 0 1-6.912-17.712c-.605-3.255-.95-6.51-.893-9.821.173-13.277 4.666-24.912 13.624-34.733 7.23-7.92 16.158-13.075 26.642-15.494 2.91-.663 5.847-1.037 8.814-1.21 7.69-.403 15.093.835 22.207 3.773 10.859 4.493 19.269 11.837 25.202 21.974 3.198 5.415 5.243 11.261 6.28 17.453.316 1.987.547 3.974.604 5.962.087.892.116 1.728.173 2.822zM245.889 93.802c.26-.23.288-.461.346-.663.864-2.477 1.815-4.925 2.765-7.373.259-.69.115-.662.922-.662h1.584c.259 0 .403.086.374.374v16.445c0 .605 0 .605-.605.605-.547 0-1.094-.029-1.67 0-.375.029-.49-.144-.461-.49.029-.201 0-.403 0-.633v-8.007c0-.23.029-.49-.058-.748-.201.172-.23.403-.288.604-.576 1.67-1.209 3.341-1.843 4.983-.144.374-.317.518-.749.518-1.094-.029-1.066 0-1.498-1.037a142.352 142.352 0 0 1-1.67-4.521c-.058-.202-.087-.403-.259-.576-.173.144-.087.345-.087.49V101.951c0 .605 0 .605-.605.605-.547 0-1.094-.029-1.67 0-.346 0-.461-.115-.432-.432v-.346-15.84-.288c0-.518 0-.518.547-.518h1.44c.605 0 .634 0 .835.576a316.239 316.239 0 0 1 2.765 7.373c.116.201.231.432.317.72zM247.879 63.62c.288-.807.576-1.585.864-2.391.72-1.93 1.469-3.83 2.189-5.731.144-.404.345-.519.749-.519.547.029 1.094.029 1.67 0 .288 0 .432.058.403.374v16.244c0 .806.116.749-.72.749h-1.382c-.576 0-.576 0-.605-.634v-4.147-4.637c0-.115.058-.288-.086-.432-.144.144-.173.346-.231.518-.576 1.7-1.238 3.37-1.872 5.04-.144.346-.288.49-.691.49-1.124-.029-1.124 0-1.527-1.066-.576-1.526-1.123-3.052-1.699-4.608-.058-.172-.087-.345-.317-.576v9.678c0 .23-.086.345-.317.345h-2.074c-.23 0-.345-.087-.317-.317v-.403-15.898-.201c0-.519 0-.519.548-.519h1.526c.576 0 .605 0 .778.547l2.679 7.171c.115.288.23.605.345.893-.029.03.029.03.087.03zM278.811 62.352c-.144.374-.086.634-.086.864v8.611c0 .519 0 .519-.49.519h-1.872c-.259 0-.403-.087-.374-.375v-.403-15.811-.346c-.029-.317.086-.46.432-.46a14.53 14.53 0 0 0 1.584 0c.317 0 .489.115.605.403l1.382 3.456c.749 1.9 1.556 3.772 2.247 5.73.029.116.057.26.259.346 0-.23.029-.46.029-.662v-8.438-.49c-.029-.26.115-.374.374-.374h2.017c.23 0 .345.115.316.345V71.77c0 .518 0 .518-.547.518-.432 0-.864-.029-1.325 0-.403.029-.605-.115-.749-.49l-2.074-5.184c-.576-1.324-1.123-2.736-1.728-4.262zM267.693 32.371V41.962c0 .23-.087.345-.317.345h-2.074c-.288 0-.374-.144-.346-.374v-.403-15.812-.403c-.028-.259.087-.374.346-.374.605 0 1.21.029 1.786 0 .345 0 .403.23.489.46.778 1.901 1.527 3.802 2.305 5.703.489 1.267.979 2.506 1.497 3.83.231-.172.116-.403.116-.576v-8.553-.49c0-.23.057-.345.316-.345h2.074c.202 0 .288.086.288.288v16.646c.058.374-.144.49-.489.46a11.08 11.08 0 0 0-1.383 0c-.432.03-.605-.172-.749-.518-1.152-2.908-2.304-5.817-3.485-8.726a6.986 6.986 0 0 0-.288-.691c0-.087-.029-.087-.086-.058zM152.368 34.934c.144-.345.115-.576.115-.806v-8.352-.547c0-.23.086-.346.317-.346h2.016c.231 0 .346.087.346.317v16.3c0 .778.115.778-.778.778-.346 0-.691-.028-1.037 0-.461.058-.633-.144-.806-.547-1.124-2.88-2.305-5.76-3.457-8.669a1.988 1.988 0 0 0-.403-.72c0 .202-.029.432-.029.634v8.64c0 .634 0 .634-.633.662h-1.729c-.259 0-.374-.115-.374-.374v-.403V25.69v-.202c0-.576 0-.576.547-.576.461 0 .922.029 1.383 0 .374-.029.576.115.72.46.806 2.046 1.642 4.09 2.477 6.164.403 1.066.835 2.189 1.325 3.398zM169.245 34.848v-.691-8.496-.547c0-.173.087-.26.259-.26h2.132c.173 0 .259.087.259.26v16.761c.029.26-.115.375-.374.375-.49 0-.98-.03-1.441 0-.403.028-.604-.116-.748-.49-.605-1.555-1.268-3.11-1.873-4.666-.576-1.44-1.123-2.88-1.699-4.29-.058-.145-.058-.375-.346-.49V41.818c.029.316-.086.46-.432.46-.633-.028-1.238 0-1.872 0-.288 0-.432-.086-.432-.374v-.403V25.69v-.346c-.029-.317.086-.46.432-.432a14.53 14.53 0 0 0 1.584 0c.317 0 .49.115.605.403l1.988 4.925c.576 1.44 1.18 2.851 1.67 4.32.058.086.086.23.288.288zM233.16 102.499h-2.506c-.231 0-.317-.173-.375-.345a30.553 30.553 0 0 1-.461-1.527c-.518-1.613-1.008-3.254-1.526-4.867-.058-.173-.058-.403-.259-.46-.346-.058-.692-.087-1.008 0-.144.028-.116.23-.116.374v6.278c0 .49 0 .518-.489.518h-1.873c-.259 0-.403-.086-.374-.374v-.403-15.869c0-.72-.144-.778.72-.749 1.325.029 2.679-.086 4.004.058 1.987.201 3.226 1.296 3.629 3.225a9.046 9.046 0 0 1-.058 3.83c-.23.951-.691 1.758-1.526 2.305-.288.201-.317.374-.202.691.749 2.189 1.44 4.349 2.16 6.538.087.23.144.46.26.777zM135.403 63.648v-7.805-.49c-.029-.259.086-.403.345-.374h4.09c.548 0 1.095.058 1.642.202.864.259 1.469.835 1.786 1.67.259.663.374 1.325.403 2.016.058 3.053.058 6.135 0 9.187 0 .548-.115 1.095-.259 1.642-.461 1.584-1.498 2.42-3.111 2.592-1.152.115-2.304.029-3.456.029-.461 0-1.008.201-1.325-.115-.259-.288-.087-.836-.087-1.268-.028-2.39-.028-4.838-.028-7.286zM216.539 93.802v4.29c0 .634-.057 1.297-.23 1.902-.375 1.411-1.296 2.246-2.708 2.534a6.446 6.446 0 0 1-2.678-.029c-1.498-.317-2.333-1.267-2.65-2.736a5.854 5.854 0 0 1-.144-1.238V89.28c0-.605.115-1.18.288-1.757.403-1.296 1.267-2.131 2.592-2.448a6.562 6.562 0 0 1 3.082.058c1.095.288 1.786 1.008 2.16 2.045.202.576.317 1.21.317 1.814-.029 1.642-.029 3.226-.029 4.81zM179.472 33.696v-4.55c0-.634.086-1.239.259-1.844.432-1.41 1.412-2.246 2.852-2.505a6.354 6.354 0 0 1 2.333 0c1.613.288 2.563 1.267 2.851 2.966.087.519.144 1.037.144 1.584v8.439c0 .748-.086 1.526-.345 2.246-.404 1.18-1.21 1.93-2.42 2.218a5.865 5.865 0 0 1-2.995 0c-1.584-.404-2.506-1.584-2.65-3.37-.058-.72-.029-1.44-.029-2.131v-3.053zM249.001 33.696v-4.55c0-.634.087-1.239.26-1.844.432-1.41 1.411-2.246 2.851-2.505a6.354 6.354 0 0 1 2.333 0c1.613.288 2.563 1.267 2.852 2.966a9.57 9.57 0 0 1 .144 1.584v8.439c0 .748-.087 1.526-.346 2.246-.403 1.21-1.239 1.958-2.477 2.246a6.33 6.33 0 0 1-2.938 0c-1.584-.403-2.506-1.584-2.65-3.37-.057-.604-.029-1.238-.029-1.871v-3.341zM210.434 63.763v-4.752c0-.547.115-1.037.259-1.555.403-1.354 1.325-2.189 2.679-2.477.893-.201 1.786-.173 2.678.029 1.556.345 2.449 1.353 2.679 3.024.087.576.115 1.152.115 1.728v8.093c0 .69-.057 1.382-.259 2.044-.432 1.527-1.44 2.42-3.024 2.621-.576.058-1.152.087-1.728.03-2.132-.231-3.313-1.47-3.428-3.63-.057-.979-.029-1.93-.029-2.909.029-.777.029-1.497.058-2.246zM218.845 42.279h-2.333c-.259 0-.345-.116-.403-.375-.173-.922-.374-1.843-.518-2.794-.058-.374-.202-.49-.576-.49a28.48 28.48 0 0 1-2.218 0c-.375 0-.519.087-.576.49-.115.893-.317 1.757-.461 2.65-.086.49-.115.49-.605.49h-1.786c-.432 0-.432-.03-.345-.432.403-2.074.835-4.148 1.238-6.221.663-3.34 1.354-6.682 2.016-10.023.029-.115.058-.23.058-.345.029-.317.202-.403.518-.403.692.029 1.383 0 2.074 0 .519 0 .519 0 .634.518.346 1.67.662 3.34 1.008 5.011l2.247 11.146c.028.26.115.49.028.778zM173.912 102.499h-2.448c-.259 0-.259-.201-.288-.403-.173-.893-.346-1.814-.519-2.707-.086-.519-.086-.519-.605-.519h-2.217c-.317 0-.49.087-.548.432-.144.922-.345 1.844-.489 2.794-.058.317-.173.432-.49.403-.634-.029-1.238 0-1.872 0-.461 0-.49-.029-.403-.461.23-1.18.461-2.332.72-3.513.864-4.234 1.699-8.467 2.563-12.73.029-.115.058-.23.058-.345.029-.288.201-.375.461-.375.691.029 1.382 0 2.073 0 .548 0 .548 0 .663.547.288 1.412.576 2.794.864 4.205.806 4.003 1.613 8.035 2.419 12.039.058.201.116.374.058.633zM194.564 24.883h2.564c.288 0 .346.144.374.375.173 1.008.346 2.044.519 3.052.461 2.967.921 5.904 1.382 8.87 0 .058.029.145.058.26.259-.605.259-1.18.346-1.757.489-3.427 1.065-6.854 1.67-10.281.087-.519.087-.519.605-.519h2.333c-.144.864-.288 1.642-.432 2.42l-2.765 14.428c-.115.547-.115.547-.663.547-.748 0-1.469-.028-2.217 0-.375 0-.519-.144-.576-.49-.634-3.455-1.297-6.911-1.93-10.367-.375-2.045-.778-4.119-1.152-6.163a1.144 1.144 0 0 1-.116-.375zM165.156 55.008h2.593c.288 0 .316.23.345.432.115.663.202 1.325.317 1.987.576 3.37 1.094 6.71 1.555 10.11.26-.174.202-.404.231-.635.518-3.83 1.181-7.632 1.814-11.462.029-.26.116-.432.432-.432h2.477c0 .691-.201 1.296-.316 1.93-.951 4.982-1.901 9.936-2.852 14.918-.115.547-.115.547-.662.547-.749 0-1.469-.029-2.218 0-.375 0-.519-.144-.576-.49-.403-2.246-.836-4.463-1.268-6.71-.576-3.081-1.152-6.163-1.728-9.216-.029-.317-.086-.633-.144-.979zM135.401 93.773v-8.007c0-.633 0-.662.634-.633 1.267 0 2.535-.03 3.802.057 2.419.173 3.629 1.325 3.946 3.716.173 1.21.144 2.447-.115 3.657-.403 1.987-1.815 3.197-3.86 3.312-.432.029-.864.029-1.325 0-.317 0-.403.115-.403.403v5.732c0 .547 0 .547-.518.547h-1.671c-.518 0-.547 0-.547-.519V98.87c.057-1.757.057-3.427.057-5.097zM284.111 37.7c.086.518.144.92.288 1.324.23.605.662.835 1.267.864.749.029 1.21-.23 1.469-.806.087-.23.173-.49.173-.72 0-.548.029-1.095 0-1.67-.029-.75-.346-1.326-1.037-1.671-.403-.202-.778-.375-1.181-.576-.691-.317-1.354-.663-1.958-1.152-.864-.691-1.383-1.555-1.498-2.679-.115-1.008-.087-2.016.173-3.024.461-1.699 1.728-2.736 3.485-2.85.691-.058 1.382-.058 2.045.143 1.584.461 2.736 1.93 2.736 3.6 0 .26-.086.375-.345.432-.778.173-1.527.346-2.334.519-.144-.375-.086-.75-.201-1.066-.259-.749-.663-1.066-1.411-1.066-.663 0-1.153.346-1.383 1.037-.202.663-.173 1.325-.086 1.987.057.432.374.72.72.98.46.345.979.576 1.526.806.634.26 1.239.518 1.786.893.95.662 1.469 1.555 1.613 2.678.173 1.296.173 2.563-.144 3.83-.403 1.642-1.44 2.564-3.111 2.823-.95.144-1.872.115-2.794-.202a3.703 3.703 0 0 1-2.506-3.686c0-.144.029-.26.202-.288a93.759 93.759 0 0 0 2.506-.46zM226.478 63.677v-7.892-.547c0-.172.086-.259.259-.259H230.395c.634 0 1.296.058 1.901.26 1.124.374 1.872 1.123 2.247 2.246.489 1.41.461 2.85.288 4.29a6.254 6.254 0 0 1-.288 1.268c-.605 1.67-1.872 2.448-3.572 2.592-.432.029-.864 0-1.325.029-.489 0-.489 0-.489.518v5.674c0 .49-.029.49-.519.49-.576 0-1.152-.03-1.728 0-.374 0-.461-.116-.461-.49.029-1.872 0-3.744 0-5.587.029-.836.029-1.7.029-2.592zM151.417 63.706v-8.093c0-.605 0-.605.577-.634h6.567c.576 0 .576 0 .604.605v1.526c0 .288-.086.404-.403.404h-4.003c-.634 0-.605-.03-.605.604v3.658c0 .345.086.49.461.46 1.123-.028 2.246 0 3.398 0 .49 0 .49 0 .49.49 0 .547-.029 1.095 0 1.67.029.375-.144.462-.49.462-1.123-.03-2.246 0-3.398 0-.461 0-.49 0-.49.49v4.002c0 .461 0 .461.518.49h3.86c.691 0 .634-.029.634.662 0 .49-.029.98 0 1.44.028.317-.116.461-.432.432-.864-.028-1.7 0-2.564 0h-4.061c-.663 0-.691 0-.691-.662.028-2.678.028-5.357.028-8.007zM185.635 55.008h3.37c.489 0 .489.029.489.49v1.526c0 .49 0 .49-.489.49h-4.004c-.518 0-.518 0-.518.547v3.657c0 .519 0 .519.547.519h3.312c.519 0 .519 0 .519.547v1.44c0 .605 0 .605-.576.605h-3.169c-.605 0-.605 0-.633.576v3.945c0 .346.086.49.46.49 1.325-.029 2.679 0 4.004 0 .547 0 .547 0 .576.576v1.526c0 .317-.086.461-.432.461h-6.913c-.288 0-.432-.115-.403-.403v-.346-15.868c0-.807-.057-.75.749-.75 1.037-.028 2.074-.028 3.111-.028zM261.415 63.677v-7.892-.547c0-.172.086-.259.259-.259h6.769c.72 0 .691-.057.691.663 0 .49-.029.979 0 1.44.029.345-.115.431-.461.431-1.209-.028-2.448 0-3.658 0h-.489c-.346-.028-.432.116-.432.433.029.979 0 1.93 0 2.908 0 .317.029.634 0 .98-.029.345.144.431.432.431h3.312c.634 0 .634 0 .634.634v1.44c0 .49 0 .49-.49.519h-3.37c-.489 0-.489 0-.518.49v1.67c0 .806.029 1.612 0 2.419 0 .345.115.432.432.432h4.003c.576 0 .576 0 .576.547v1.526c0 .317-.057.461-.432.461h-6.912c-.375 0-.404-.173-.404-.46v-3.745c.058-1.526.058-3.024.058-4.521zM193.613 93.773V85.91v-.49c0-.23.115-.316.346-.316h6.855c.547 0 .576 0 .576.576 0 .518-.029 1.008 0 1.526.029.346-.115.49-.461.461-1.238-.029-2.477 0-3.715 0-.922 0-.807-.115-.807.778v3.312c0 .691-.029.605.634.605h3.168c.519 0 .519 0 .519.547v1.382c0 .691 0 .691-.663.691h-2.909c-.864 0-.778-.115-.778.75v6.134c0 .633 0 .633-.662.633h-1.527c-.547 0-.547 0-.547-.576v-2.361c-.029-1.93-.029-3.86-.029-5.79zM181.545 95.04v-6.826c0-.547 0-.547-.576-.576h-1.872c-.259 0-.374-.086-.374-.374v-1.872c0-.23.115-.346.345-.317h7.316c.663 0 .663 0 .663.634v1.526c0 .288-.087.403-.404.403h-2.016c-.345 0-.432.115-.432.432.029 1.095 0 2.16 0 3.255V102.038c.029.346-.086.49-.461.49-.576-.029-1.152 0-1.728 0-.489 0-.489 0-.518-.49v-2.62c.057-1.47.057-2.91.057-4.378zM229.185 34.79v6.826c0 .634 0 .662-.634.662h-1.671c-.288 0-.432-.086-.403-.403v-.49-13.247c0-.836.087-.75-.72-.75h-1.67c-.288 0-.432-.057-.404-.374.029-.576.029-1.152 0-1.728 0-.345.116-.432.432-.432 1.095.03 2.218 0 3.313 0h3.946c.633 0 .633 0 .633.663v1.526c0 .288-.115.346-.374.346h-2.074c-.259 0-.374.086-.374.345v7.056zM294.451 65.001v-6.566-.547c0-.26-.115-.346-.374-.346h-2.016c-.317 0-.461-.086-.432-.432.028-.547.028-1.094 0-1.67 0-.317.086-.46.432-.46.518.028 1.008 0 1.526 0h5.818c.577 0 .577 0 .577.546v1.383c0 .576 0 .576-.634.576-.576 0-1.152.029-1.728 0-.375-.03-.49.144-.461.49.029.489 0 .978 0 1.44V72c0 .23-.058.346-.317.346h-2.074c-.23 0-.345-.087-.317-.317v-.691V65zM150.87 93.802v-8.093c0-.605 0-.605.605-.605h1.728c.259 0 .403.086.374.374v13.536c0 .98 0 .98.951.98h3.399c.489 0 .489 0 .518.489v1.527c0 .518 0 .547-.547.547h-5.53c-.461 0-1.066.201-1.383-.115-.288-.288-.086-.893-.086-1.325-.058-2.477-.029-4.896-.029-7.315zM196.435 63.706V55.9v-.49c-.029-.288.057-.432.374-.432h2.017c.23 0 .345.087.316.317v13.997c0 .49 0 .49.49.49h4.004c.23 0 .345.057.345.316v1.93c0 .201-.086.288-.288.288H197.184c-.807 0-.749.057-.749-.72v-7.891zM138.168 33.552v8.439c0 .201-.086.287-.288.287h-2.131c-.202 0-.288-.115-.288-.316v-.346-15.811c0-1.095-.087-.893.922-.922h1.036c.836 0 .749-.086.749.72v7.949zM241.312 33.638v8.353c0 .201-.086.287-.288.287h-2.074c-.23 0-.346-.115-.317-.345v-.403-15.87c0-.863-.086-.748.778-.777h1.584c.231 0 .346.087.317.317v8.438z"/>
    <path fill="#04050A" d="M90.903 91.382c-.518-1.094-1.037-2.188-1.555-3.254-2.593-5.53-5.156-11.06-7.777-16.56-.173-.374-.202-.662.058-1.066 4.349-6.883 1.497-15.84-6.05-18.95-.517-.202-.517-.202-.517-.806v-12.99c0-1.871-1.124-3.484-2.823-4.118-2.765-1.008-5.617.893-5.818 3.888-.03.288 0 .548 0 .836v12.153c0 .807 0 .778-.692 1.095-4.407 2.016-7.085 5.414-7.776 10.252-.461 3.284.316 6.308 2.189 9.044.259.403.288.69.086 1.123a5377.027 5377.027 0 0 0-8.699 18.576c-.374.806-.892.95-1.612.403a34.449 34.449 0 0 1-9.131-10.426 34.407 34.407 0 0 1-4.061-11.52 34.057 34.057 0 0 1-.23-9.216c.979-8.553 4.637-15.753 10.916-21.6 4.925-4.579 10.714-7.401 17.339-8.61 2.535-.462 5.07-.634 7.633-.49 7.719.403 14.603 3.052 20.536 8.035 6.28 5.299 10.312 12.01 11.723 20.102 2.016 11.664-1.152 21.86-9.332 30.47-1.181 1.239-2.477 2.333-3.83 3.37-.174.058-.289.202-.577.26z"/>
    <path fill="#04050A" d="M25.72 63.734c-.03-16.589 8.813-31.507 22.783-39.513a44.46 44.46 0 0 1 15.61-5.444c2.852-.431 5.733-.633 8.613-.49 10.916.52 20.508 4.379 28.601 11.723 6.942 6.278 11.464 14.025 13.653 23.126a42.727 42.727 0 0 1 1.123 12.672c-.691 11.29-4.954 21.053-12.788 29.232l-.432.432c-.893.806-2.161.806-2.996 0-.835-.835-.864-2.102-.058-2.995.749-.807 1.527-1.584 2.247-2.448 4.81-5.674 7.863-12.183 9.188-19.498.547-3.053.72-6.134.547-9.216-.864-15.465-10.023-28.397-23.128-34.733-3.889-1.872-7.979-3.11-12.242-3.657-3.053-.404-6.106-.519-9.159-.23-8.67.806-16.36 4.003-22.984 9.676-6.74 5.789-11.147 13.046-13.25 21.686-.98 4.004-1.238 8.036-1.008 12.125.144 2.621.605 5.213 1.267 7.748.202.72.144 1.41-.345 2.015-.547.663-1.268.922-2.103.75-.835-.145-1.354-.663-1.613-1.44a29.082 29.082 0 0 1-.806-3.486c-.461-2.707-.778-5.5-.72-8.035z"/>
    <path fill="#04050A" d="M83.499 95.5c-.605.346-1.239.52-1.872.72a34.5 34.5 0 0 1-9.188 1.7c-3.975.202-7.835-.317-11.665-1.411-.404-.115-.778-.288-.98-.691-.086-.144-.172-.288-.288-.375-.547-.49-.518-.921-.201-1.613a3084.767 3084.767 0 0 0 8.064-17.05c.058-.114.116-.258.173-.374.087-.259.26-.316.547-.259.72.144 1.44.26 2.19.288 1.18.058 2.333-.086 3.485-.345.576-.144.605-.144.864.432 1.641 3.484 3.283 6.94 4.925 10.425 1.267 2.707 2.535 5.415 3.83 8.122a.75.75 0 0 0 .116.432zM60.773 107.626c.26-.605.605-1.181.836-1.815.201-.576.403-1.123.49-1.728.057-.374.23-.461.547-.374.864.173 1.728.317 2.592.432 2.823.374 5.645.461 8.468.288a40.944 40.944 0 0 0 10.83-2.247c.49-.172.95-.345 1.411-.547.26-.115.403-.086.547.202.49 1.065.98 2.131 1.498 3.168.144.288.058.403-.201.518-.922.317-1.815.691-2.708 1.008a44.026 44.026 0 0 1-11.06 2.189c-4.263.317-8.468 0-12.616-.864-.23-.058-.432-.086-.634-.23zM40.611 97.171c-.288-.086-.403-.259-.547-.403a45.752 45.752 0 0 1-8.209-10.166c-.26-.461-.518-.922-.49-1.47.03-.95.577-1.727 1.498-2.015.864-.288 1.786.029 2.333.749.173.23.317.518.461.749a41.311 41.311 0 0 0 6.884 8.61c.086.087.173.173.26.231.2.173.23.317.028.49a11.912 11.912 0 0 0-2.218 3.225zM46.459 102.384c-.058-1.958 1.526-4.291 4.32-4.291 2.39 0 4.292 1.958 4.292 4.32 0 2.361-1.959 4.32-4.32 4.291-2.392 0-4.321-1.93-4.292-4.32zM70.654 67.795a4.291 4.291 0 0 1-4.205-4.406c.057-2.333 2.045-4.263 4.378-4.205 2.419.058 4.262 1.958 4.234 4.378-.03 2.448-2.017 4.29-4.407 4.233zM226.909 90.173c0-.691.029-1.383 0-2.074-.028-.374.144-.49.49-.46.259.028.518 0 .749 0 .95.057 1.498.46 1.757 1.353.23.778.202 1.584 0 2.39-.202.75-.663 1.181-1.44 1.268-.058 0-.144.028-.202.028-1.325.144-1.325.144-1.325-1.18-.029-.404-.029-.864-.029-1.325zM138.137 63.677v-5.645c0-.49 0-.49.49-.49.317 0 .634-.029.979 0 .72.058 1.152.432 1.325 1.123.087.404.116.807.116 1.239v7.603c0 .403-.029.778-.116 1.152-.144.749-.576 1.152-1.325 1.18-.46.03-1.008.203-1.353-.057-.317-.259-.116-.806-.116-1.238-.028-1.642 0-3.254 0-4.867zM210.838 93.888v-4.349c0-.432.058-.864.259-1.267.288-.576.778-.806 1.411-.749.605.029.951.346 1.153.922.115.374.144.777.144 1.152v8.41c0 .46-.029.921-.231 1.353-.259.576-.72.778-1.325.778-.576 0-1.008-.26-1.238-.807-.144-.317-.173-.662-.173-1.008.029-1.497 0-2.966 0-4.435zM185.173 33.58v4.206c0 .345 0 .69-.115 1.008-.26.777-.692 1.065-1.498 1.036-.72-.028-1.124-.374-1.325-1.18a3.813 3.813 0 0 1-.087-.807v-8.265c0-.461.029-.922.202-1.354.23-.662.72-1.008 1.411-.98.692.03 1.037.318 1.297 1.038.115.345.115.662.115 1.008v4.29zM254.704 33.58v4.206c0 .345 0 .69-.115 1.008-.259.777-.691 1.065-1.498 1.036-.72-.028-1.123-.374-1.325-1.18a3.812 3.812 0 0 1-.086-.807v-8.265c0-.461.028-.922.201-1.354.231-.662.72-1.008 1.412-.98.691.03 1.037.318 1.296 1.038.115.345.115.662.115 1.008v4.29zM216.136 63.706v4.29c0 .462-.058.922-.288 1.326-.26.518-.692.69-1.268.69-.547 0-.979-.2-1.238-.72-.173-.345-.231-.748-.231-1.123v-8.553c0-.46.058-.922.231-1.354.259-.605.749-.892 1.44-.864.634.03.979.288 1.21.95.115.346.144.72.144 1.095v4.263zM215.043 36.086h-2.275c.374-2.361.72-4.665 1.094-6.998.231.346 1.095 5.587 1.181 6.998zM169.046 89.309c.374 2.333.72 4.665 1.094 7.027h-2.304c.374-2.362.72-4.694 1.094-7.027.029-.029.058-.029.116 0zM138.139 90.432v-2.333c0-.317.086-.46.432-.432.23.029.461 0 .691 0 1.066.029 1.613.432 1.872 1.469.231.95.231 1.9-.057 2.851-.231.778-.778 1.181-1.556 1.239-.317.028-.633 0-.95.028-.317.03-.404-.115-.404-.403-.028-.835-.028-1.613-.028-2.419zM229.186 60.307v-2.333c0-.316.086-.46.432-.432.432.03.864-.028 1.296.087.547.144.95.46 1.123 1.008.403 1.123.403 2.246.029 3.37-.231.662-.691 1.007-1.383 1.094-.374.029-.72.029-1.094.057-.288.03-.403-.115-.403-.403.028-.835 0-1.641 0-2.448z"/>
</svg>
