<svg xmlns="http://www.w3.org/2000/svg" width="97" height="105" fill="none" viewBox="0 0 97 105">
    <path fill="#04050A" fill-rule="evenodd" d="M6.818 29.661A6.818 6.818 0 0 0 0 36.48v60.918a6.818 6.818 0 0 0 6.818 6.818h83.364A6.818 6.818 0 0 0 97 97.397V84.975H77.363a6.818 6.818 0 0 1-6.818-6.818V66.942a6.818 6.818 0 0 1 6.818-6.818H97V36.479a6.818 6.818 0 0 0-6.818-6.818H6.818z" clip-rule="evenodd"/>
    <path fill="#04050A" d="M0 26.859a6.818 6.818 0 0 1 6.818-6.818h83.364A6.818 6.818 0 0 1 97 26.86v11.216a6.818 6.818 0 0 1-6.818 6.817H6.818A6.818 6.818 0 0 1 0 38.075V26.859z"/>
    <path fill="#fff" fill-rule="evenodd" d="M90.182 21.28H6.818A5.578 5.578 0 0 0 1.24 26.86v11.216a5.578 5.578 0 0 0 5.578 5.578h83.364a5.578 5.578 0 0 0 5.578-5.578V26.859a5.578 5.578 0 0 0-5.578-5.578zM6.818 20.042A6.818 6.818 0 0 0 0 26.86v11.216a6.818 6.818 0 0 0 6.818 6.817h83.364A6.818 6.818 0 0 0 97 38.075V26.859a6.818 6.818 0 0 0-6.818-6.818H6.818z" clip-rule="evenodd"/>
    <path fill="#fff" fill-rule="evenodd" d="M1.24 36.479A5.578 5.578 0 0 1 6.818 30.9h83.364a5.578 5.578 0 0 1 5.578 5.578v22.405H77.363a8.057 8.057 0 0 0-8.057 8.058v11.215a8.057 8.057 0 0 0 8.057 8.058H95.76v11.182a5.578 5.578 0 0 1-5.578 5.578H6.818a5.578 5.578 0 0 1-5.578-5.578V36.48zM97 86.349v11.048a6.818 6.818 0 0 1-6.818 6.818H6.818A6.818 6.818 0 0 1 0 97.397V36.48a6.818 6.818 0 0 1 6.818-6.818h83.364A6.818 6.818 0 0 1 97 36.48v49.87zm-1.24-1.374V60.124H77.363a6.818 6.818 0 0 0-6.818 6.818v11.215a6.818 6.818 0 0 0 6.818 6.818H95.76z" clip-rule="evenodd"/>
    <path fill="#04050A" fill-rule="evenodd" d="M78.244 44.732c6.035-4.534 9.938-11.752 9.938-19.88C88.182 11.125 77.056 0 63.33 0S38.479 11.126 38.479 24.851c0 8.13 3.904 15.347 9.938 19.881h29.827z" clip-rule="evenodd"/>
    <path fill="#0FF" fill-rule="evenodd" d="M77.824 43.493c5.551-4.323 9.118-11.066 9.118-18.642 0-13.04-10.571-23.611-23.611-23.611-13.04 0-23.612 10.57-23.612 23.611 0 7.576 3.567 14.32 9.118 18.642h28.987zm.42 1.24c6.035-4.535 9.938-11.752 9.938-19.882C88.182 11.126 77.056 0 63.33 0S38.479 11.126 38.479 24.851c0 8.13 3.904 15.347 9.938 19.881h29.827zM82.57 72.149H97v.62H82.57v-.62z" clip-rule="evenodd"/>
    <path fill="#0FF" d="M82.735 72.645a2.073 2.073 0 1 1-4.145 0 2.073 2.073 0 0 1 4.145 0zM27.36 86.894a2.073 2.073 0 1 1-4.146 0 2.073 2.073 0 0 1 4.145 0zM14.094 83.577a2.073 2.073 0 1 1-4.146 0 2.073 2.073 0 0 1 4.146 0z"/>
    <path fill="#0FF" fill-rule="evenodd" d="M12.827 84.975v18.438h-.62V84.975h.62zM19.15 93.127l5.512-5.119-.422-.454-5.71 5.303v10.957h.62V93.127zM79.085 38.023l.52.434a21.04 21.04 0 0 0 1.88-2.64l-.58-.35c-.54.9-1.15 1.754-1.82 2.556zm3.225-5.36l.627.255a20.83 20.83 0 0 0 .986-3.088l-.66-.155a20.15 20.15 0 0 1-.953 2.987zm1.433-6.089l.675.052a21.275 21.275 0 0 0-.038-3.68l-.674.065a20.57 20.57 0 0 1 .037 3.563zm-.81-7.47l.648-.196a20.863 20.863 0 0 0-1.577-3.803l-.597.32a20.196 20.196 0 0 1 1.526 3.679zm-3.742-6.99l.523-.43a21.118 21.118 0 0 0-2.91-2.91l-.43.523a20.447 20.447 0 0 1 2.817 2.817zm-9.61-7.207c1.327.403 2.6.933 3.802 1.577l-.32.597a20.189 20.189 0 0 0-3.679-1.526l.197-.648zm-4.104-.125l.065-.674a21.25 21.25 0 0 0-4.117 0l.065.674a20.575 20.575 0 0 1 3.987 0zm-7.894.773l-.196-.648c-1.328.403-2.6.933-3.803 1.577l.32.597a20.189 20.189 0 0 1 3.679-1.526zm-10.33 6.13a21.122 21.122 0 0 1 2.91-2.911l.43.523a20.446 20.446 0 0 0-2.817 2.817l-.523-.43zm-1.693 3.74l-.597-.32a20.863 20.863 0 0 0-1.577 3.803l.648.196a20.19 20.19 0 0 1 1.526-3.679zm-2.299 7.586l-.674-.065a21.255 21.255 0 0 0-.038 3.68l.675-.052a20.592 20.592 0 0 1 .037-3.563zm.443 6.663l-.66.155c.25 1.063.581 2.095.986 3.089l.627-.256a20.162 20.162 0 0 1-.953-2.988zm2.358 5.793l-.58.35a21.06 21.06 0 0 0 1.88 2.64l.52-.434a20.384 20.384 0 0 1-1.82-2.556z" clip-rule="evenodd"/>
    <path fill="#C4C4C4" d="M58.204 27.79c-.127.105-.33.21-.607.314-.277.105-.58.157-.907.157-.522 0-.977-.114-1.363-.341a2.312 2.312 0 0 1-.886-.914 2.667 2.667 0 0 1-.307-1.268c0-.504.102-.954.307-1.35.204-.395.49-.702.859-.92a2.414 2.414 0 0 1 1.275-.334c.304 0 .586.04.845.123.259.081.486.184.682.306l-.389.934c-.359-.272-.727-.409-1.104-.409-.255 0-.494.07-.716.212-.223.14-.4.334-.532.58-.132.24-.198.508-.198.804 0 .322.062.607.184.852.123.24.298.43.525.566.227.136.493.204.798.204.245 0 .466-.038.661-.116a1.5 1.5 0 0 0 .464-.286l.409.886zM58.888 25.704c0-.454.113-.88.34-1.275a2.61 2.61 0 0 1 .934-.94 2.455 2.455 0 0 1 1.282-.355c.46 0 .884.118 1.275.354.395.232.71.546.94.941.237.396.355.82.355 1.275 0 .464-.118.891-.354 1.282a2.61 2.61 0 0 1-.94.934c-.392.227-.817.34-1.276.34-.464 0-.89-.113-1.282-.34a2.627 2.627 0 0 1-.934-.934 2.505 2.505 0 0 1-.34-1.282zm1.022 0c0 .291.068.56.205.805.14.245.33.44.566.586.24.14.506.211.797.211.282 0 .539-.07.77-.211.232-.145.414-.339.546-.58.132-.245.198-.515.198-.81 0-.3-.068-.573-.205-.819a1.522 1.522 0 0 0-.559-.58 1.433 1.433 0 0 0-.777-.218c-.286 0-.548.073-.784.218a1.54 1.54 0 0 0-.552.58 1.656 1.656 0 0 0-.205.818zM65.989 23.188v5.018H65v-5.018h.989zM71.804 23.188v5.223h-.027l-3.512-3.17.02 2.965h-1.001v-5.215h.04l3.505 3.218-.02-3.02h.995z"/>
</svg>
