<svg xmlns="http://www.w3.org/2000/svg" width="130" height="106" fill="none" viewBox="0 0 130 106">
    <path fill="#04050A" d="M58.342 28.48C58.349 11.79 43.995-.006 29.184 0 14.373.007.008 11.819 0 28.509c-.005 11 3.909 17.445 7.995 23.395 3.872 5.637 8.012 10.871 8.434 18.544l25.445-.013c.43-7.673 4.574-12.911 8.45-18.552 4.093-5.954 8.013-12.403 8.018-23.403zM41.833 73.044l-25.365.013-.004 7.826 25.366-.012.003-7.827zM41.829 83.48l-25.366.012-.002 3.914c-.001 2.283 1.808 3.912 3.803 3.911l17.756-.008c1.995-.001 3.806-1.633 3.807-3.915l.002-3.914z"/>
    <path fill="#fff" fill-rule="evenodd" d="M57.708 28.48C57.715 12.186 43.692.627 29.184.634 14.676.641.642 12.214.634 28.51.63 39.319 4.46 45.636 8.518 51.545c.356.518.716 1.035 1.076 1.552 3.422 4.914 6.874 9.873 7.428 16.716l24.26-.011c.56-6.845 4.017-11.807 7.443-16.725.36-.518.72-1.034 1.077-1.553 4.064-5.913 7.9-12.233 7.906-23.044zM41.874 70.435l-25.445.013c-.383-6.967-3.832-11.924-7.362-16.997a309.51 309.51 0 0 1-1.072-1.547C3.91 45.954-.005 39.508 0 28.509.008 11.819 14.373.007 29.184 0c14.811-.007 29.165 11.79 29.158 28.48-.005 11-3.925 17.45-8.017 23.403-.357.519-.715 1.034-1.073 1.547-3.535 5.077-6.988 10.038-7.378 17.005zM17.101 73.69l-.003 6.559 24.098-.012.003-6.558-24.098.011zm-.633-.633l-.004 7.826 25.366-.012.003-7.827-25.365.013zm.628 11.07v3.28c-.002 1.924 1.516 3.277 3.168 3.276l17.756-.008c1.652-.001 3.172-1.356 3.173-3.282l.001-3.278-24.098.011zm-.633-.635l-.002 3.914c-.001 2.283 1.808 3.912 3.803 3.911l17.756-.008c1.995-.001 3.806-1.633 3.807-3.915l.002-3.914-25.366.012z" clip-rule="evenodd"/>
    <path fill="#04050A" d="M130 28.48C130.008 11.79 115.653-.006 100.842 0c-14.81.007-29.176 11.819-29.184 28.509-.005 11 3.91 17.445 7.996 23.395 3.871 5.637 8.011 10.871 8.434 18.544l25.444-.013c.43-7.673 4.574-12.911 8.451-18.552 4.092-5.954 8.012-12.403 8.017-23.403zM113.492 73.044l-25.366.013-.004 7.826 25.366-.012.004-7.827zM113.487 83.48l-25.366.012-.002 3.914c0 2.283 1.808 3.912 3.803 3.911l17.757-.008c1.994-.001 3.805-1.633 3.806-3.915l.002-3.914z"/>
    <path fill="#fff" fill-rule="evenodd" d="M129.366 28.48C129.373 12.186 115.35.627 100.843.634 86.335.641 72.3 12.214 72.293 28.51c-.005 10.81 3.825 17.127 7.884 23.036.356.518.715 1.035 1.075 1.552 3.422 4.914 6.875 9.873 7.428 16.716l24.261-.011c.559-6.845 4.016-11.807 7.443-16.725.36-.518.72-1.034 1.077-1.553 4.064-5.913 7.9-12.233 7.905-23.044zm-15.834 41.955l-25.444.013c-.384-6.967-3.833-11.924-7.362-16.997a312.89 312.89 0 0 1-1.072-1.547c-4.087-5.95-8-12.396-7.996-23.395C71.666 11.819 86.031.007 100.842 0 115.653-.007 130.008 11.79 130 28.48c-.005 11-3.925 17.45-8.017 23.403-.356.519-.715 1.034-1.072 1.547-3.535 5.077-6.989 10.038-7.379 17.005zM88.76 73.69l-.003 6.559 24.097-.012.003-6.558-24.097.011zm-.634-.633l-.004 7.826 25.366-.012.004-7.827-25.366.013zm.629 11.07l-.001 3.28c-.001 1.924 1.516 3.277 3.168 3.276l17.756-.008c1.653-.001 3.172-1.356 3.173-3.282l.002-3.278-24.098.011zm-.634-.635l-.002 3.914c0 2.283 1.808 3.912 3.803 3.911l17.757-.008c1.994-.001 3.805-1.633 3.806-3.915l.002-3.914-25.366.012z" clip-rule="evenodd"/>
    <path fill="#04050A" d="M110.976 32.024c0 6.13-4.685 11.098-10.463 11.098-5.78 0-10.464-4.969-10.464-11.098 0-6.129 4.685-11.097 10.464-11.097 5.778 0 10.463 4.968 10.463 11.097z"/>
    <path fill="#0FF" fill-rule="evenodd" d="M100.513 42.488c5.393 0 9.829-4.65 9.829-10.464s-4.436-10.463-9.829-10.463c-5.394 0-9.83 4.649-9.83 10.463 0 5.815 4.436 10.464 9.83 10.464zm0 .634c5.778 0 10.463-4.969 10.463-11.098 0-6.129-4.685-11.097-10.463-11.097-5.78 0-10.464 4.968-10.464 11.097 0 6.13 4.685 11.098 10.464 11.098z" clip-rule="evenodd"/>
    <path fill="#fff" d="M101.449 34.878l-1.248-1.925h-.891v1.925h-.89v-5.54h1.56c.619 0 1.114.157 1.484.472.376.315.563.75.563 1.309 0 .34-.073.657-.22.951-.143.29-.368.513-.678.67l1.347 2.138h-1.027zm-2.138-2.777h.791c.355 0 .611-.097.769-.29a1.02 1.02 0 0 0 .243-.662c0-.142-.03-.284-.091-.426a.845.845 0 0 0-.312-.373c-.147-.106-.34-.16-.579-.16h-.822v1.91z"/>
    <path fill="#04050A" d="M39.951 32.024c0 6.13-4.968 11.098-11.098 11.098-6.129 0-11.097-4.969-11.097-11.098 0-6.129 4.968-11.097 11.098-11.097 6.129 0 11.097 4.968 11.097 11.097z"/>
    <path fill="#0FF" fill-rule="evenodd" d="M28.854 42.488c5.778 0 10.463-4.685 10.463-10.464 0-5.778-4.685-10.463-10.463-10.463-5.78 0-10.464 4.685-10.464 10.463 0 5.78 4.685 10.464 10.463 10.464zm0 .634c6.129 0 11.097-4.969 11.097-11.098 0-6.129-4.968-11.097-11.098-11.097-6.129 0-11.097 4.968-11.097 11.097 0 6.13 4.968 11.098 11.098 11.098z" clip-rule="evenodd"/>
    <path fill="#fff" d="M26.9 29.338v.853h-1.43v4.687h-.883v-4.687h-1.393v-.853H26.9zM33.62 29.14v5.738h-.883v-3.204l-1.94 2.755h-.016l-1.894-2.625v3.074h-.86V29.14h.007l2.763 3.912 2.808-3.912h.015z"/>
    <path fill="#04050A" d="M93.22 43.066c.007-16.69-14.347-28.488-29.158-28.48-14.811.007-29.176 11.818-29.184 28.508-.005 11 3.909 17.445 7.995 23.395 3.872 5.637 8.012 10.872 8.434 18.544l25.445-.012c.43-7.673 4.574-12.912 8.45-18.552 4.093-5.954 8.013-12.403 8.018-23.403zM76.711 87.63l-25.365.012-.004 7.827 25.366-.012.003-7.827zM76.707 98.066l-25.366.012-.002 3.913c-.001 2.283 1.808 3.913 3.803 3.912l17.756-.009c1.995-.001 3.806-1.632 3.807-3.915l.002-3.913z"/>
    <path fill="#fff" fill-rule="evenodd" d="M43.919 65.771c.356.518.717 1.036 1.08 1.556 3.318 4.763 6.766 9.712 7.478 16.438l23.106-.012c.718-6.727 4.17-11.68 7.495-16.446.362-.52.724-1.039 1.08-1.556 4.036-5.873 7.788-12.064 7.793-22.686.008-15.898-13.684-27.218-27.888-27.211-14.205.007-27.91 11.341-27.917 27.24-.005 10.622 3.742 16.809 7.773 22.677zm41.284.698c-.356.518-.715 1.033-1.073 1.547-3.534 5.077-6.988 10.037-7.378 17.005l-25.445.012c-.383-6.967-3.832-11.924-7.362-16.997-.358-.514-.716-1.029-1.072-1.547-4.086-5.95-8-12.395-7.995-23.395.008-16.69 14.373-28.501 29.184-28.509 14.811-.007 29.165 11.791 29.158 28.481-.005 11-3.925 17.449-8.017 23.403zm-32.59 22.44l-.002 5.291 22.83-.011.001-5.29-22.829.01zm-1.267-1.267l-.004 7.827 25.366-.012.003-7.827-25.365.012zm1.262 11.704v2.646c-.001 1.567 1.224 2.643 2.533 2.643l17.757-.009c1.31-.001 2.538-1.08 2.538-2.648l.002-2.643-22.83.01zm-1.267-1.268l-.002 3.913c-.001 2.283 1.808 3.913 3.803 3.912l17.756-.009c1.995-.001 3.806-1.632 3.807-3.915l.002-3.913-25.366.012z" clip-rule="evenodd"/>
    <path fill="#04050A" d="M74.195 40.903c0 6.129-4.827 11.097-10.78 11.097-5.954 0-10.781-4.968-10.781-11.097 0-6.13 4.827-11.098 10.78-11.098 5.954 0 10.781 4.969 10.781 11.098z"/>
    <path fill="#0FF" fill-rule="evenodd" d="M63.414 51.366c5.587 0 10.147-4.667 10.147-10.463 0-5.797-4.56-10.464-10.147-10.464-5.586 0-10.146 4.667-10.146 10.464 0 5.796 4.56 10.463 10.146 10.463zm0 .634c5.954 0 10.781-4.968 10.781-11.097 0-6.13-4.827-11.098-10.78-11.098-5.954 0-10.781 4.969-10.781 11.098C52.634 47.032 57.46 52 63.414 52z" clip-rule="evenodd"/>
    <path fill="#fff" d="M65.926 44.519c-.19.136-.453.266-.79.39a3.087 3.087 0 0 1-1.092.187c-.669 0-1.255-.145-1.758-.435a3.112 3.112 0 0 1-1.154-1.181 3.404 3.404 0 0 1-.4-1.634c0-.645.134-1.222.4-1.731a2.993 2.993 0 0 1 1.128-1.19 3.156 3.156 0 0 1 1.65-.435c.38 0 .729.05 1.049.151.325.1.612.228.86.382l-.408.968c-.48-.338-.967-.506-1.465-.506-.378 0-.733.103-1.065.31-.325.202-.586.48-.781.835-.196.35-.293.734-.293 1.154 0 .444.089.843.266 1.199.184.349.441.624.773.825.337.196.725.293 1.163.293.313 0 .594-.047.843-.142.254-.095.468-.216.64-.364l.434.924z"/>
    <path fill="#0FF" fill-rule="evenodd" d="M25.031 51.897l3.125 9.09v8.77h-.634v-8.664l-3.09-8.99.6-.206zM30.82 61.1l3.087-8.016-.592-.228-3.129 8.126v8.775h.634V61.1zM60.546 65.855l3.123 9.732v9.389h-.634v-9.29l-3.092-9.638.603-.193zm5.786 9.837l3.089-8.596-.597-.214-3.126 8.7v9.394h.634v-9.284zM97.325 51.897l3.124 9.09v8.77h-.634v-8.664l-3.09-8.99.6-.206zm5.788 9.202l3.086-8.016-.592-.228-3.129 8.126v8.775h.635V61.1z" clip-rule="evenodd"/>
    <path fill="#0FF" d="M62.147 65.951a1.902 1.902 0 1 1-3.805 0 1.902 1.902 0 0 1 3.805 0zM71.659 65.951a1.903 1.903 0 1 1-3.805 0 1.903 1.903 0 0 1 3.805 0zM98.927 52a1.902 1.902 0 1 1-3.805 0 1.902 1.902 0 0 1 3.805 0zM35.512 52a1.903 1.903 0 1 1-3.805 0 1.903 1.903 0 0 1 3.805 0zM26.634 52a1.902 1.902 0 1 1-3.805 0 1.902 1.902 0 0 1 3.805 0zM107.805 52A1.903 1.903 0 1 1 104 52a1.903 1.903 0 0 1 3.805 0z"/>
</svg>
