<svg xmlns="http://www.w3.org/2000/svg" width="128" height="114" fill="none" viewBox="0 0 128 114">
    <path fill="#fff" fill-rule="evenodd" d="M49.312 1.331L3.758 26.011a6.024 6.024 0 0 0-2.427 8.167l33.864 62.503a6.025 6.025 0 0 0 8.167 2.427l45.553-24.68a6.024 6.024 0 0 0 2.427-8.167L57.478 3.758a6.024 6.024 0 0 0-8.166-2.427zm-45.84 24.15a6.627 6.627 0 0 0-2.67 8.984l33.864 62.503a6.627 6.627 0 0 0 8.983 2.67l45.553-24.68a6.627 6.627 0 0 0 2.67-8.984L58.008 3.471a6.627 6.627 0 0 0-8.983-2.67L3.472 25.481z" clip-rule="evenodd"/>
    <path fill="#04050A" d="M27.648 26.728a6.627 6.627 0 0 1 4.925-7.973L82.993 6.84a6.627 6.627 0 0 1 7.974 4.925l16.349 69.182a6.628 6.628 0 0 1-4.925 7.973L51.97 100.835a6.626 6.626 0 0 1-7.973-4.925L27.648 26.728z"/>
    <path fill="#fff" fill-rule="evenodd" d="M83.27 8.012L32.85 19.928a5.422 5.422 0 0 0-4.03 6.523l16.35 69.182a5.422 5.422 0 0 0 6.523 4.03l50.42-11.916a5.421 5.421 0 0 0 4.03-6.523L89.794 12.042a5.422 5.422 0 0 0-6.523-4.03zM32.574 18.755a6.627 6.627 0 0 0-4.925 7.973L43.997 95.91a6.626 6.626 0 0 0 7.973 4.925L102.39 88.92a6.628 6.628 0 0 0 4.925-7.973l-16.35-69.182a6.627 6.627 0 0 0-7.972-4.925l-50.42 11.915z" clip-rule="evenodd"/>
    <path fill="#0FF" fill-rule="evenodd" d="M36.48 31.753a.301.301 0 0 1 .225-.362l47.515-11.11a.301.301 0 1 1 .138.586L36.842 31.978a.301.301 0 0 1-.362-.225zM38.987 39.829a.301.301 0 0 1 .225-.362l47.515-11.111a.301.301 0 1 1 .137.586L39.35 40.053a.301.301 0 0 1-.362-.224zM40.77 47.455a.301.301 0 0 1 .225-.362L88.51 35.98a.301.301 0 1 1 .137.587L41.132 47.68a.301.301 0 0 1-.362-.224zM42.69 55.667a.301.301 0 0 1 .225-.362l47.516-11.111a.301.301 0 1 1 .137.587L43.053 55.89a.301.301 0 0 1-.362-.224zM44.61 63.88a.301.301 0 0 1 .226-.362L92.35 52.407a.301.301 0 1 1 .137.586L44.973 64.104a.301.301 0 0 1-.362-.224zM46.531 72.092a.301.301 0 0 1 .225-.362L94.27 60.62a.301.301 0 0 1 .137.586l-47.515 11.11a.301.301 0 0 1-.362-.224zM48.314 79.718a.301.301 0 0 1 .225-.362l47.515-11.111a.301.301 0 1 1 .138.587l-47.516 11.11a.301.301 0 0 1-.362-.224zM50.236 87.93a.301.301 0 0 1 .224-.361l47.516-11.112a.301.301 0 1 1 .137.587L50.597 88.155a.301.301 0 0 1-.361-.225z" clip-rule="evenodd"/>
    <path fill="#04050A" d="M62.937 35.763a6.627 6.627 0 0 1 6.627-6.626h51.809A6.627 6.627 0 0 1 128 35.763v71.088a6.627 6.627 0 0 1-6.627 6.626h-51.81a6.627 6.627 0 0 1-6.626-6.626V35.763z"/>
    <path fill="#0FF" fill-rule="evenodd" d="M121.373 30.341h-51.81a5.422 5.422 0 0 0-5.421 5.422v71.088a5.421 5.421 0 0 0 5.422 5.421h51.809a5.421 5.421 0 0 0 5.422-5.421V35.763a5.422 5.422 0 0 0-5.422-5.422zm-51.81-1.204a6.627 6.627 0 0 0-6.626 6.626v71.088a6.627 6.627 0 0 0 6.627 6.626h51.809a6.627 6.627 0 0 0 6.627-6.626V35.763a6.627 6.627 0 0 0-6.627-6.626h-51.81z" clip-rule="evenodd"/>
    <path fill="#0FF" fill-rule="evenodd" d="M81.99 41.92c.26.21.3.589.092.848l-5.766 7.164-4.178-4.417a.603.603 0 0 1 .876-.828l3.229 3.415 4.9-6.09c.209-.259.588-.3.847-.091zM81.99 54.572c.26.209.3.588.092.847l-5.766 7.165-4.178-4.418a.602.602 0 1 1 .876-.828l3.229 3.415 4.9-6.09c.209-.259.588-.3.847-.091zM81.99 67.223c.26.209.3.588.092.847l-5.766 7.165-4.178-4.418a.602.602 0 1 1 .876-.827l3.229 3.414 4.9-6.09c.209-.258.588-.3.847-.09zM81.99 79.874c.26.209.3.588.092.847l-5.766 7.165-4.178-4.417a.603.603 0 0 1 .876-.828l3.229 3.414 4.9-6.089c.209-.26.588-.3.847-.092zM81.99 92.525c.26.209.3.588.092.847l-5.766 7.165-4.178-4.418a.602.602 0 1 1 .876-.827l3.229 3.414 4.9-6.09c.209-.258.588-.3.847-.09z" clip-rule="evenodd"/>
    <path fill="#fff" fill-rule="evenodd" d="M88.842 47.21c0-.333.27-.603.602-.603h27.11a.603.603 0 0 1 0 1.205h-27.11a.602.602 0 0 1-.602-.602zM88.842 59.86c0-.332.27-.602.602-.602h27.11a.603.603 0 0 1 0 1.205h-27.11a.602.602 0 0 1-.602-.602zM88.842 73.114c0-.333.27-.602.602-.602h27.11a.603.603 0 0 1 0 1.205h-27.11a.602.602 0 0 1-.602-.603zM88.842 85.163c0-.333.27-.602.602-.602h27.11a.603.603 0 0 1 0 1.204h-27.11a.602.602 0 0 1-.602-.602zM88.842 98.417c0-.333.27-.603.602-.603h27.11a.603.603 0 0 1 0 1.205h-27.11a.602.602 0 0 1-.602-.602z" clip-rule="evenodd"/>
    <circle cx="89.896" cy="42.768" r="1.003" fill="#0FF"/>
    <circle cx="96.915" cy="42.768" r="1.003" fill="#0FF"/>
    <circle cx="103.935" cy="42.768" r="1.003" fill="#0FF"/>
    <circle cx="89.896" cy="54.8" r="1.003" fill="#0FF"/>
    <circle cx="96.915" cy="54.8" r="1.003" fill="#0FF"/>
    <circle cx="103.935" cy="54.8" r="1.003" fill="#0FF"/>
    <circle cx="89.896" cy="68.839" r="1.003" fill="#0FF"/>
    <circle cx="96.915" cy="68.839" r="1.003" fill="#0FF"/>
    <circle cx="103.935" cy="68.839" r="1.003" fill="#0FF"/>
    <circle cx="89.896" cy="80.871" r="1.003" fill="#0FF"/>
    <circle cx="96.915" cy="80.871" r="1.003" fill="#0FF"/>
    <circle cx="103.935" cy="80.871" r="1.003" fill="#0FF"/>
    <circle cx="89.896" cy="93.907" r="1.003" fill="#0FF"/>
    <circle cx="96.915" cy="93.907" r="1.003" fill="#0FF"/>
    <circle cx="103.935" cy="93.907" r="1.003" fill="#0FF"/>
</svg>
