<svg xmlns="http://www.w3.org/2000/svg" width="105" height="93" fill="none" viewBox="0 0 105 93">
    <path fill="#04050A" d="M0 5.775A5.775 5.775 0 0 1 5.775 0h93.45A5.775 5.775 0 0 1 105 5.775v69.3a5.775 5.775 0 0 1-5.775 5.775H5.775A5.775 5.775 0 0 1 0 75.075v-69.3z"/>
    <path fill="#fff" fill-rule="evenodd" d="M99.225 1.05H5.775A4.725 4.725 0 0 0 1.05 5.775v69.3A4.725 4.725 0 0 0 5.775 79.8h93.45a4.725 4.725 0 0 0 4.725-4.725v-69.3a4.725 4.725 0 0 0-4.725-4.725zM5.775 0A5.775 5.775 0 0 0 0 5.775v69.3a5.775 5.775 0 0 0 5.775 5.775h93.45A5.775 5.775 0 0 0 105 75.075v-69.3A5.775 5.775 0 0 0 99.225 0H5.775z" clip-rule="evenodd"/>
    <path fill="#0FF" fill-rule="evenodd" d="M90.825 18.9H70.35a4.725 4.725 0 0 0-4.725 4.725V68.25a4.725 4.725 0 0 0 4.725 4.725h20.475a4.725 4.725 0 0 0 4.725-4.725V23.625a4.725 4.725 0 0 0-4.725-4.725zM70.35 17.85a5.775 5.775 0 0 0-5.775 5.775V68.25a5.775 5.775 0 0 0 5.775 5.775h20.475A5.775 5.775 0 0 0 96.6 68.25V23.625a5.775 5.775 0 0 0-5.775-5.775H70.35z" clip-rule="evenodd"/>
    <path fill="#fff" fill-rule="evenodd" d="M105 14.7H0v-.525h105v.525zM96.075 4.2H48.3a2.625 2.625 0 1 0 0 5.25h47.775a2.625 2.625 0 0 0 0-5.25zM48.3 3.675a3.15 3.15 0 1 0 0 6.3h47.775a3.15 3.15 0 1 0 0-6.3H48.3zM13.125 26.775a1.575 1.575 0 1 0 0-3.15 1.575 1.575 0 0 0 0 3.15zm0 .525a2.1 2.1 0 1 0 0-4.2 2.1 2.1 0 0 0 0 4.2z" clip-rule="evenodd"/>
    <path fill="#fff" fill-rule="evenodd" d="M12.707 20.9a1.473 1.473 0 0 1-2.327.964c-.39-.286-.877.201-.59.591.654.892.129 2.16-.965 2.327-.478.073-.478.762 0 .836a1.472 1.472 0 0 1 .964 2.327c-.286.39.2.877.59.59a1.473 1.473 0 0 1 2.328.965c.073.478.762.478.835 0a1.473 1.473 0 0 1 2.328-.964c.39.286.877-.201.59-.591a1.473 1.473 0 0 1 .965-2.327c.478-.073.478-.762 0-.836a1.473 1.473 0 0 1-.965-2.327c.287-.39-.2-.877-.59-.59-.892.654-2.16.129-2.327-.965-.074-.478-.763-.478-.836 0zm1.354-.08c-.164-1.072-1.709-1.072-1.873 0a.948.948 0 0 1-1.497.621c-.875-.642-1.967.45-1.325 1.325a.948.948 0 0 1-.62 1.497c-1.073.164-1.073 1.71 0 1.874a.948.948 0 0 1 .62 1.497c-.642.875.45 1.967 1.325 1.325a.948.948 0 0 1 1.497.62c.164 1.072 1.71 1.072 1.873 0a.948.948 0 0 1 1.498-.62c.874.642 1.967-.45 1.325-1.325a.948.948 0 0 1 .62-1.497c1.072-.164 1.072-1.71 0-1.874a.948.948 0 0 1-.62-1.497c.642-.874-.45-1.967-1.325-1.325a.948.948 0 0 1-1.498-.62z" clip-rule="evenodd"/>
    <path fill="#0FF" fill-rule="evenodd" d="M89.775 57.225H72.45a1.05 1.05 0 1 0 0 2.1h17.325a1.05 1.05 0 1 0 0-2.1zM72.45 56.7a1.575 1.575 0 1 0 0 3.15h17.325a1.575 1.575 0 1 0 0-3.15H72.45zM89.775 51.975H72.45a1.05 1.05 0 1 0 0 2.1h17.325a1.05 1.05 0 1 0 0-2.1zM72.45 51.45a1.575 1.575 0 1 0 0 3.15h17.325a1.575 1.575 0 1 0 0-3.15H72.45zM89.775 62.475H72.45a1.05 1.05 0 1 0 0 2.1h17.325a1.05 1.05 0 1 0 0-2.1zM72.45 61.95a1.575 1.575 0 1 0 0 3.15h17.325a1.575 1.575 0 1 0 0-3.15H72.45z" clip-rule="evenodd"/>
    <path fill="#0FF" d="M11.55 7.875a1.575 1.575 0 1 1-3.15 0 1.575 1.575 0 0 1 3.15 0zM16.275 7.875a1.575 1.575 0 1 1-3.15 0 1.575 1.575 0 0 1 3.15 0zM21 7.875a1.575 1.575 0 1 1-3.15 0 1.575 1.575 0 0 1 3.15 0zM25.725 7.875a1.575 1.575 0 1 1-3.15 0 1.575 1.575 0 0 1 3.15 0zM30.45 7.875a1.575 1.575 0 1 1-3.15 0 1.575 1.575 0 0 1 3.15 0zM35.175 7.875a1.575 1.575 0 1 1-3.15 0 1.575 1.575 0 0 1 3.15 0z"/>
    <path fill="#0FF" fill-rule="evenodd" d="M80.85 33.075a3.675 3.675 0 1 0 0-7.35 3.675 3.675 0 0 0 0 7.35zm0 1.05a4.725 4.725 0 1 0 0-9.45 4.725 4.725 0 0 0 0 9.45zM86.944 42.448c-.452-3.297-2.997-5.686-5.887-5.686-2.89 0-5.436 2.39-5.887 5.686h11.774zm1.057 0c-.461-3.803-3.394-6.736-6.944-6.736s-6.484 2.933-6.945 6.736a8.709 8.709 0 0 0-.063 1.05h14.016c0-.356-.022-.706-.064-1.05z" clip-rule="evenodd"/>
    <path fill="#04050A" fill-rule="evenodd" d="M49.674 46.33c0-6.45-5.23-11.68-11.68-11.68-6.45 0-11.68 5.23-11.68 11.68v18.687h23.36V46.33z" clip-rule="evenodd"/>
    <path fill="#fff" fill-rule="evenodd" d="M48.624 46.33c0-5.871-4.76-10.63-10.63-10.63-5.87 0-10.63 4.759-10.63 10.63v17.637h21.26V46.33zm-10.63-11.68c6.45 0 11.68 5.23 11.68 11.68v18.687h-23.36V46.33c0-6.45 5.23-11.68 11.68-11.68z" clip-rule="evenodd"/>
    <path fill="#04050A" d="M55.125 74.408c0 9.859-7.992 17.85-17.85 17.85s-17.85-7.991-17.85-17.85c0-9.858 7.991-17.85 17.85-17.85 9.858 0 17.85 7.992 17.85 17.85z"/>
    <path fill="#fff" fill-rule="evenodd" d="M37.275 91.208c9.278 0 16.8-7.521 16.8-16.8 0-9.278-7.522-16.8-16.8-16.8-9.279 0-16.8 7.522-16.8 16.8 0 9.279 7.521 16.8 16.8 16.8zm0 1.05c9.858 0 17.85-7.991 17.85-17.85 0-9.858-7.992-17.85-17.85-17.85s-17.85 7.992-17.85 17.85c0 9.859 7.991 17.85 17.85 17.85z" clip-rule="evenodd"/>
    <path fill="#fff" fill-rule="evenodd" d="M38.98 76.035l.509-.411a3.622 3.622 0 1 0-4.322.167l.615.422-1.863 6.831h6.653l-1.593-7.009zm2.908 8.06h-9.344l2.028-7.439a4.672 4.672 0 1 1 5.576-.216l1.74 7.654z" clip-rule="evenodd"/>
</svg>
