<svg xmlns="http://www.w3.org/2000/svg" width="200" height="159" fill="none" viewBox="0 0 200 159">
    <path fill="#04050A" d="M197.708 13.616c9.362 106.2-34.539 125.245-59.071 137.512-24.856-12.267-70.37-41.318-58.104-137.512 30.989 9.684 48.42-3.55 58.104-12.266 20.659 18.593 47.989 15.925 59.071 12.266z"/>
    <path fill="#0FF" fill-rule="evenodd" d="M138.637 0l.671.604c20.29 18.261 47.192 15.655 58.086 12.06l1.203-.398.111 1.262c4.692 53.232-3.948 84.796-16.987 104.621-12.394 18.843-28.683 26.939-40.782 32.953-.63.313-1.248.62-1.854.923l-.445.223-.447-.221c-12.498-6.167-30.284-16.6-43.38-37.652-13.102-21.06-21.43-52.617-15.275-100.886l.151-1.188 1.144.357c15.304 4.783 27.191 3.89 36.42.774 9.248-3.122 15.905-8.501 20.712-12.828l.672-.604zM81.38 14.924c-5.826 47.255 2.439 77.98 15.136 98.391 12.655 20.342 29.791 30.568 42.119 36.692l1.368-.681c12.093-6.014 27.952-13.899 40.041-32.28 12.605-19.164 21.198-49.888 16.772-102.101-11.814 3.467-37.953 5.39-58.176-12.252-4.833 4.289-11.541 9.533-20.745 12.64-9.418 3.18-21.374 4.098-36.514-.41z" clip-rule="evenodd"/>
    <path fill="#04050A" d="M187.794 23.873c7.823 88.806-28.862 104.731-49.362 114.988-20.77-10.257-58.804-34.55-48.553-114.988 25.895 8.098 40.461-2.969 48.553-10.257 17.263 15.548 40.101 13.317 49.362 10.257z"/>
    <path fill="#0FF" fill-rule="evenodd" d="M138.432 12.941l.335.302c17.079 15.382 39.703 13.182 48.87 10.154l.601-.199.056.631c3.917 44.469-3.301 70.778-14.141 87.269-10.305 15.679-23.845 22.415-33.954 27.443l-1.543.769-.223.112-.223-.111c-10.42-5.146-25.218-13.835-36.114-31.361-10.897-17.53-17.851-43.835-12.715-84.14l.076-.594.571.178c12.853 4.02 22.859 3.275 30.643.645 7.793-2.633 13.396-7.167 17.425-10.796l.336-.302zm-48.13 11.588c-4.972 39.797 1.95 65.686 12.647 82.891 10.674 17.17 25.145 25.757 35.482 30.881l1.299-.648c10.107-5.028 23.431-11.658 33.585-27.106 10.622-16.16 17.817-42.048 14.034-86.005-9.648 2.965-31.875 4.809-48.916-10.253-4.042 3.61-9.671 8.076-17.441 10.7-7.879 2.662-17.921 3.42-30.69-.46z" clip-rule="evenodd"/>
    <path fill="#fff" fill-rule="evenodd" d="M172.075 61.905c.429.35.492.983.141 1.412l-30.815 37.674-21.687-22.56a1.004 1.004 0 0 1 1.447-1.391l20.118 20.93 29.384-35.924a1.003 1.003 0 0 1 1.412-.141z" clip-rule="evenodd"/>
    <path fill="#fff" d="M141.097 63.972a1.291 1.291 0 1 1-2.582 0 1.291 1.291 0 0 1 2.582 0zM121.729 101.74a1.614 1.614 0 1 1-3.228 0 1.614 1.614 0 0 1 3.228 0zM130.122 117.88a1.614 1.614 0 1 1-3.228 0 1.614 1.614 0 0 1 3.228 0zM144.325 124.336a1.613 1.613 0 1 1-3.226 0 1.613 1.613 0 0 1 3.226 0zM157.882 120.462a1.614 1.614 0 1 1-3.228 0 1.614 1.614 0 0 1 3.228 0zM174.668 85.6a1.614 1.614 0 1 1-3.227 0 1.614 1.614 0 0 1 3.227 0zM146.261 112.715a1.614 1.614 0 1 1-3.228 0 1.614 1.614 0 0 1 3.228 0zM182.415 57.517a1.291 1.291 0 1 1-2.583 0 1.291 1.291 0 0 1 2.583 0zM157.882 54.934a1.291 1.291 0 1 1-2.582 0 1.291 1.291 0 0 1 2.582 0zM140.452 38.149a1.291 1.291 0 1 1-2.582 0 1.291 1.291 0 0 1 2.582 0zM164.338 38.149a1.291 1.291 0 1 1-2.582 0 1.291 1.291 0 0 1 2.582 0z"/>
    <path fill="#04050A" d="M120.237 20.072c9.361 106.2-34.539 125.245-59.071 137.512C36.31 145.317-9.204 116.266 3.062 20.072c30.989 9.684 48.42-3.55 58.104-12.266 20.659 18.593 47.989 15.924 59.071 12.266z"/>
    <path fill="#fff" fill-rule="evenodd" d="M61.165 6.456l.672.604c20.29 18.261 47.192 15.655 58.086 12.06l1.202-.398.112 1.262c4.692 53.232-3.948 84.796-16.987 104.62-12.394 18.843-28.683 26.94-40.782 32.954-.63.313-1.248.62-1.854.923l-.446.223-.447-.221c-12.497-6.167-30.284-16.601-43.38-37.652C4.24 99.771-4.089 68.214 2.067 19.945l.151-1.188 1.143.357c15.304 4.783 27.192 3.89 36.421.774 9.248-3.122 15.905-8.501 20.712-12.828l.671-.604zM3.91 21.38c-5.826 47.255 2.439 77.98 15.136 98.39 12.655 20.343 29.79 30.569 42.118 36.693.45-.225.907-.452 1.369-.681 12.093-6.014 27.951-13.899 40.041-32.28 12.605-19.164 21.198-49.888 16.772-102.101-11.814 3.467-37.954 5.39-58.177-12.252-4.832 4.289-11.54 9.533-20.744 12.64-9.418 3.18-21.375 4.098-36.515-.41z" clip-rule="evenodd"/>
    <path fill="#04050A" d="M110.323 30.33c7.822 88.805-28.862 104.73-49.362 114.987-20.77-10.257-58.804-34.55-48.554-114.988 25.895 8.098 40.461-2.969 48.554-10.257C78.224 35.62 101.062 33.39 110.323 30.33z"/>
    <path fill="#fff" fill-rule="evenodd" d="M60.96 19.397l.336.302c17.08 15.382 39.703 13.182 48.87 10.154l.601-.199.056.631c3.917 44.469-3.301 70.778-14.141 87.269-10.306 15.679-23.845 22.414-33.955 27.443l-1.542.769-.223.112-.224-.111c-10.42-5.146-25.218-13.835-36.113-31.361C13.727 96.876 6.774 70.57 11.91 30.266l.075-.594.572.178c12.852 4.02 22.859 3.275 30.642.645 7.793-2.633 13.397-7.167 17.426-10.796l.336-.302zM12.83 30.985c-4.97 39.797 1.951 65.686 12.647 82.891 10.675 17.17 25.146 25.756 35.482 30.881l1.3-.648c10.107-5.028 23.43-11.658 33.585-27.106 10.621-16.16 17.817-42.048 14.033-86.005-9.647 2.965-31.874 4.809-48.916-10.253-4.04 3.61-9.67 8.076-17.44 10.7-7.88 2.662-17.921 3.42-30.69-.46z" clip-rule="evenodd"/>
    <path fill="#04050A" fill-rule="evenodd" d="M68.849 85.904a12.307 12.307 0 0 0 4.591-9.6c0-6.81-5.52-12.332-12.331-12.332-6.81 0-12.331 5.521-12.331 12.332 0 4.22 2.12 7.945 5.353 10.168l-5.354 19.632H73.44l-4.591-20.2z" clip-rule="evenodd"/>
    <path fill="#0FF" fill-rule="evenodd" d="M66.614 85.128l.974-.786a10.3 10.3 0 0 0 3.845-8.038c0-5.702-4.622-10.325-10.324-10.325s-10.324 4.623-10.324 10.325a10.31 10.31 0 0 0 4.483 8.514l1.174.808-5.037 18.471h19.52l-4.31-18.969zm6.826 20.976H48.777l5.354-19.632a12.318 12.318 0 0 1-5.353-10.168c0-6.81 5.52-12.332 12.331-12.332 6.81 0 12.331 5.521 12.331 12.332 0 3.879-1.79 7.34-4.591 9.6l4.59 20.2z" clip-rule="evenodd"/>
    <path fill="#0FF" d="M39.093 98.512a1.614 1.614 0 1 1-3.228 0 1.614 1.614 0 0 1 3.228 0zM38.447 83.986a1.291 1.291 0 1 1-2.582 0 1.291 1.291 0 0 1 2.582 0zM39.739 68.492a1.291 1.291 0 1 1-2.582 0 1.291 1.291 0 0 1 2.582 0zM52.005 54.934a1.291 1.291 0 1 1-2.582 0 1.291 1.291 0 0 1 2.582 0zM31.346 42.022a1.291 1.291 0 1 1-2.583 0 1.291 1.291 0 0 1 2.583 0zM24.89 69.783a1.291 1.291 0 1 1-2.582 0 1.291 1.291 0 0 1 2.582 0zM28.764 92.379a1.291 1.291 0 1 1-2.583 0 1.291 1.291 0 0 1 2.583 0zM46.84 111.424a1.614 1.614 0 1 1-3.228 0 1.614 1.614 0 0 1 3.228 0zM46.84 127.563a1.614 1.614 0 1 1-3.227 0 1.614 1.614 0 0 1 3.227 0zM62.335 138.539a1.614 1.614 0 1 1-3.229 0 1.614 1.614 0 0 1 3.229 0zM77.183 123.044a1.614 1.614 0 1 1-3.227 0 1.614 1.614 0 0 1 3.227 0zM70.082 116.588a1.614 1.614 0 1 1-3.227 0 1.614 1.614 0 0 1 3.227 0zM55.233 119.171a1.614 1.614 0 1 1-3.228 0 1.614 1.614 0 0 1 3.228 0zM93.968 107.55a1.614 1.614 0 1 1-3.227 0 1.614 1.614 0 0 1 3.227 0zM77.829 113.36a1.614 1.614 0 1 1-3.227 0 1.614 1.614 0 0 1 3.227 0zM82.348 98.512a1.614 1.614 0 1 1-3.228 0 1.614 1.614 0 0 1 3.228 0zM97.196 94.961a1.291 1.291 0 1 1-2.582 0 1.291 1.291 0 0 1 2.582 0zM89.449 79.467a1.291 1.291 0 1 1-2.582 0 1.291 1.291 0 0 1 2.582 0zM90.74 63.972a1.291 1.291 0 1 1-2.582 0 1.291 1.291 0 0 1 2.582 0zM104.943 60.099a1.291 1.291 0 1 1-2.582 0 1.291 1.291 0 0 1 2.582 0zM81.057 40.731a1.291 1.291 0 1 1-2.582 0 1.291 1.291 0 0 1 2.582 0z"/>
</svg>
