<svg xmlns="http://www.w3.org/2000/svg" width="105" height="97" fill="none" viewBox="0 0 105 97">
    <path fill="#04050A" d="M0 7.5A7.5 7.5 0 0 1 7.5 0h58.636a7.5 7.5 0 0 1 7.5 7.5v80.454a7.5 7.5 0 0 1-7.5 7.5H7.5a7.5 7.5 0 0 1-7.5-7.5V7.5z"/>
    <path fill="#fff" fill-rule="evenodd" d="M66.136 1.364H7.5A6.136 6.136 0 0 0 1.364 7.5v80.454A6.136 6.136 0 0 0 7.5 94.091h58.636a6.136 6.136 0 0 0 6.136-6.137V7.5a6.136 6.136 0 0 0-6.136-6.136zM7.5 0A7.5 7.5 0 0 0 0 7.5v80.454a7.5 7.5 0 0 0 7.5 7.5h58.636a7.5 7.5 0 0 0 7.5-7.5V7.5a7.5 7.5 0 0 0-7.5-7.5H7.5z" clip-rule="evenodd"/>
    <path fill="#0FF" d="M16.364 16.364a2.727 2.727 0 1 1-5.455 0 2.727 2.727 0 0 1 5.455 0zM27.954 27.273a2.727 2.727 0 1 1-5.454 0 2.727 2.727 0 0 1 5.454 0z"/>
    <path fill="#0FF" fill-rule="evenodd" d="M10.678 29.067a.34.34 0 0 1 .02-.482l16.544-15.22a.341.341 0 0 1 .461.502L11.16 29.087a.34.34 0 0 1-.482-.02z" clip-rule="evenodd"/>
    <path fill="#fff" fill-rule="evenodd" d="M9.546 39.886c0-.188.152-.34.34-.34h55.228a.34.34 0 0 1 0 .681H9.887a.341.341 0 0 1-.341-.34zM9.546 46.023a.34.34 0 0 1 .34-.341h55.228a.34.34 0 1 1 0 .681H9.887a.34.34 0 0 1-.341-.34zM9.546 52.159a.34.34 0 0 1 .34-.341h55.228a.34.34 0 1 1 0 .682H9.887a.34.34 0 0 1-.341-.341zM9.546 58.295c0-.188.152-.34.34-.34h55.228a.34.34 0 0 1 0 .681H9.887a.341.341 0 0 1-.341-.34zM9.546 64.432a.34.34 0 0 1 .34-.341h55.228a.34.34 0 1 1 0 .682H9.887a.34.34 0 0 1-.341-.341zM9.546 70.568a.34.34 0 0 1 .34-.341h55.228a.34.34 0 1 1 0 .682H9.887a.34.34 0 0 1-.341-.341zM9.546 76.704a.34.34 0 0 1 .34-.34h55.228a.34.34 0 1 1 0 .681H9.887a.34.34 0 0 1-.341-.34zM9.546 82.84c0-.188.152-.34.34-.34h55.228a.341.341 0 0 1 0 .681H9.887a.341.341 0 0 1-.341-.34z" clip-rule="evenodd"/>
    <path fill="#04050A" d="M91.404 32.394H61.37l4.29 17.209S52.867 61.362 49.93 70.723c-2.507 7.986-3.337 16.034 0 21.119 3.337 5.084 48.148 5.475 51.961 0 3.814-5.476 2.601-13.153 0-21.12-3.099-9.494-16.684-21.12-16.684-21.12l6.197-17.208z"/>
    <path fill="#0FF" fill-rule="evenodd" d="M60.498 31.712h31.876l-6.368 17.683.244.217a100.815 100.815 0 0 1 6.638 6.528c3.788 4.097 8.052 9.47 9.652 14.37 1.308 4.008 2.283 7.987 2.438 11.678.156 3.696-.509 7.147-2.527 10.044-.322.463-.822.844-1.406 1.165-.591.326-1.315.616-2.14.876-1.648.52-3.767.94-6.18 1.27-4.83.659-10.927.965-16.996.94-6.068-.024-12.134-.38-16.904-1.051-2.382-.335-4.462-.753-6.065-1.255-.8-.251-1.5-.53-2.066-.84-.556-.304-1.037-.669-1.334-1.121-1.773-2.701-2.41-6.14-2.303-9.865.106-3.729.958-7.803 2.222-11.833 1.515-4.826 5.533-10.197 9.103-14.312a101.862 101.862 0 0 1 6.253-6.573l.268-.254-4.405-17.666zm5.625 18.393l-.008.007-.027.025-.105.098a86.84 86.84 0 0 0-1.884 1.833 100.556 100.556 0 0 0-4.687 5.031c-3.56 4.105-7.408 9.293-8.832 13.828-1.241 3.957-2.059 7.9-2.16 11.463-.102 3.568.516 6.695 2.08 9.078.12.183.38.417.85.674.459.252 1.067.498 1.818.734 1.502.47 3.5.875 5.848 1.206 4.69.66 10.69 1.014 16.719 1.038 6.028.024 12.058-.28 16.806-.929 2.376-.324 4.41-.732 5.955-1.219.772-.243 1.405-.501 1.891-.77.493-.27.791-.528.945-.75 1.796-2.578 2.431-5.704 2.284-9.207-.148-3.509-1.08-7.351-2.373-11.311-1.5-4.594-5.577-9.78-9.357-13.869a99.475 99.475 0 0 0-6.543-6.435 57.433 57.433 0 0 0-.543-.478l-.028-.024-.008-.007-.358-.306 6.028-16.739h-28.19l4.177 16.755-.298.274z" clip-rule="evenodd"/>
    <path fill="#04050A" d="M61.363 49.099a3.068 3.068 0 0 1 3.068-3.068h23.864a3.068 3.068 0 1 1 0 6.136H64.43a3.068 3.068 0 0 1-3.068-3.068z"/>
    <path fill="#0FF" fill-rule="evenodd" d="M88.295 47.394H64.43a1.705 1.705 0 1 0 0 3.41h23.864a1.705 1.705 0 0 0 0-3.41zM64.43 46.031a3.068 3.068 0 1 0 0 6.136h23.864a3.068 3.068 0 0 0 0-6.136H64.43z" clip-rule="evenodd"/>
    <path fill="#fff" d="M69.84 77.54c0 .672-.23 1.24-.687 1.707-.45.458-1.06.728-1.829.81v.748H66.6v-.748a5.083 5.083 0 0 1-1.4-.295 5.645 5.645 0 0 1-1.19-.626l.528-.945c.278.205.602.385.97.54.376.148.74.238 1.092.27v-3.215c-.663-.262-1.19-.565-1.583-.908-.385-.344-.577-.83-.577-1.46 0-.664.22-1.204.663-1.62.442-.426 1.023-.672 1.743-.737v-.786h.724v.798a5.223 5.223 0 0 1 2.16.687l-.455.92c-.58-.31-1.15-.494-1.706-.552v2.786h.013c.458.164.843.344 1.153.54.32.189.581.455.786.798.213.336.319.765.319 1.289zm-4.173-4.221c0 .278.103.52.307.724.213.205.503.393.871.565v-2.48c-.368.058-.658.193-.87.406a1.064 1.064 0 0 0-.308.785zm1.657 5.645c.368-.073.671-.229.908-.466.246-.237.368-.552.368-.945 0-.344-.114-.63-.343-.86-.221-.236-.532-.44-.933-.613v2.884zM80.067 77.54c0 .672-.23 1.24-.688 1.707-.45.458-1.06.728-1.828.81v.748h-.725v-.748a5.083 5.083 0 0 1-1.399-.295 5.645 5.645 0 0 1-1.19-.626l.528-.945c.278.205.601.385.97.54.376.148.74.238 1.091.27v-3.215c-.662-.262-1.19-.565-1.583-.908-.384-.344-.576-.83-.576-1.46 0-.664.22-1.204.662-1.62.442-.426 1.023-.672 1.743-.737v-.786h.724v.798a5.224 5.224 0 0 1 2.16.687l-.454.92c-.58-.31-1.15-.494-1.706-.552v2.786h.012c.458.164.843.344 1.154.54.32.189.58.455.785.798.213.336.32.765.32 1.289zm-4.173-4.221c0 .278.102.52.307.724.212.205.503.393.871.565v-2.48c-.368.058-.659.193-.871.406a1.064 1.064 0 0 0-.307.785zm1.657 5.645c.368-.073.67-.229.908-.466.245-.237.368-.552.368-.945 0-.344-.115-.63-.344-.86-.22-.236-.532-.44-.932-.613v2.884zM88.93 77.54c0 .672-.228 1.24-.687 1.707-.45.458-1.06.728-1.828.81v.748h-.724v-.748a5.082 5.082 0 0 1-1.4-.295 5.644 5.644 0 0 1-1.19-.626l.528-.945c.278.205.601.385.97.54.376.148.74.238 1.092.27v-3.215c-.663-.262-1.19-.565-1.583-.908-.385-.344-.577-.83-.577-1.46 0-.664.22-1.204.662-1.62.442-.426 1.023-.672 1.743-.737v-.786h.724v.798a5.224 5.224 0 0 1 2.16.687l-.454.92c-.58-.31-1.15-.494-1.706-.552v2.786h.013a5.86 5.86 0 0 1 1.153.54c.32.189.581.455.786.798.212.336.319.765.319 1.289zm-4.172-4.221c0 .278.102.52.307.724.213.205.503.393.871.565v-2.48c-.368.058-.658.193-.871.406a1.064 1.064 0 0 0-.307.785zm1.657 5.645c.368-.073.67-.229.908-.466.246-.237.368-.552.368-.945 0-.344-.114-.63-.343-.86-.221-.236-.532-.44-.933-.613v2.884z"/>
</svg>
