<svg width="78" height="42" viewBox="0 0 78 42" fill="none" xmlns="http://www.w3.org/2000/svg">
<path d="M75.2999 30.8C75.0999 30.5 75.2999 30.1 75.5999 29.9C75.8999 29.7 76.2999 29.9001 76.4999 30.2001C76.6999 30.5001 76.5 30.9 76.2 31.1C76.1 31.1 76 31.2001 75.9 31.2001C75.7 31.2001 75.3999 31.1 75.2999 30.8ZM68.7 16.9C68.8 16.9 68.8999 16.9 68.9999 16.8C69.2999 16.6 69.3999 16.2 69.2999 15.9C69.0999 15.6 68.7 15.5 68.4 15.6C68.1 15.8 67.9999 16.2 68.0999 16.5C68.2999 16.7 68.5 16.9 68.7 16.9ZM60.0999 3.30003C60.1999 3.30003 60.3999 3.30006 60.4999 3.20006C60.7999 3.00006 60.8999 2.60003 60.5999 2.30003C60.3999 2.00003 60 1.90006 59.7 2.20006C59.4 2.40006 59.2999 2.80005 59.5999 3.10005C59.6999 3.20005 59.8999 3.30003 60.0999 3.30003ZM62.7999 38.5C62.8999 38.5 62.9999 38.5 63.0999 38.4C63.3999 38.2 63.5 37.9 63.4 37.6C63.2 37.3 62.8999 37.2 62.5999 37.3C62.2999 37.5 62.1999 37.8 62.2999 38.1C62.2999 38.4 62.5999 38.5 62.7999 38.5ZM55.0999 24.4C55.1999 24.4 55.3 24.4 55.4 24.3C55.7 24.1 55.7999 23.7 55.5999 23.4C55.3999 23.1 55 23.0001 54.7 23.2001C54.4 23.4001 54.2999 23.8001 54.4999 24.1C54.6999 24.3001 54.8999 24.4 55.0999 24.4ZM46.4999 10.8C46.5999 10.8 46.7 10.8001 46.9 10.7001C47.2 10.5001 47.1999 10.1 46.9999 9.80003C46.7999 9.50003 46.3999 9.50006 46.0999 9.70006C45.7999 9.90005 45.7999 10.3 45.9999 10.6C46.0999 10.7 46.2999 10.8 46.4999 10.8ZM41.9 31.3C42 31.3 42.1 31.3001 42.2 31.2001C42.5 31.0001 42.6 30.7 42.4 30.4C42.2 30.1 41.8999 30.0001 41.5999 30.2001C41.2999 30.4001 41.2 30.7 41.4 31C41.5 31.2 41.7 31.3 41.9 31.3ZM32.9999 17.9C33.0999 17.9 33.1999 17.9 33.2999 17.8C33.5999 17.6 33.6 17.2 33.4 17C33.2 16.7 32.7999 16.7 32.5999 16.9C32.2999 17.1 32.2999 17.5001 32.4999 17.7001C32.5999 17.8001 32.7999 17.9 32.9999 17.9ZM22.9999 5.40004C23.0999 5.40004 23.3 5.40005 23.4 5.20006C23.6 5.00006 23.6 4.60004 23.4 4.40004C23.2 4.20004 22.7999 4.20004 22.5999 4.40004C22.3999 4.60004 22.2999 5.00006 22.5999 5.20006C22.5999 5.30006 22.7999 5.40004 22.9999 5.40004ZM28.9999 37.6C29.0999 37.6 29.1999 37.6 29.2999 37.5C29.4999 37.3 29.6 37 29.4 36.8C29.2 36.6 28.9 36.5001 28.7 36.7001C28.5 36.9001 28.3999 37.2 28.5999 37.4C28.6999 37.5 28.7999 37.6 28.9999 37.6ZM19.7 24.5C19.8 24.5 19.8999 24.5 19.9999 24.4C20.1999 24.2 20.2999 23.9001 20.0999 23.7001C19.8999 23.5001 19.5999 23.4 19.2999 23.6C19.0999 23.8001 19 24.1 19.2 24.3C19.4 24.4 19.6 24.5 19.7 24.5ZM9.59992 12C9.69992 12 9.79995 12 9.99995 11.9C10.1999 11.7 10.1999 11.4 9.99995 11.1C9.79995 10.9 9.49996 10.9 9.19996 11.1C8.99996 11.3 8.99996 11.6 9.19996 11.9C9.29996 11.9 9.39992 12 9.59992 12ZM6.59992 30.4C6.69992 30.4 6.79997 30.4 6.89997 30.3C7.09997 30.1 7.09995 29.8001 6.99995 29.6C6.79995 29.4 6.49994 29.4 6.29994 29.5C6.09994 29.7 6.09996 30.0001 6.19996 30.2001C6.29996 30.4001 6.49992 30.4 6.59992 30.4ZM73.9999 6.20006C74.0999 6.20006 74.3 6.20005 74.4 6.10005C75.1 5.90005 75.5999 5.10004 75.2999 4.40004C75.0999 3.70004 74.2999 3.20004 73.5999 3.50004C72.8999 3.70004 72.4 4.50006 72.7 5.20006C72.8 5.80006 73.3999 6.20006 73.9999 6.20006ZM70.2999 31.4C70.3999 31.4 70.6 31.4 70.7 31.3C71.4 31.1 71.7999 30.3001 71.4999 29.6C71.2999 28.9 70.4999 28.5001 69.7999 28.7001C69.0999 28.9001 68.6999 29.7 68.9999 30.4C69.1999 31 69.6999 31.4 70.2999 31.4ZM65.7 16C65.8 16 65.8999 16 65.9999 16C66.6999 15.8 67.1 15.1 66.9 14.4C66.7 13.7 65.9999 13.3 65.2999 13.5C64.5999 13.7 64.2 14.4 64.4 15.1C64.6 15.6 65.1 16 65.7 16ZM61.0999 40.2001C61.1999 40.2001 61.3999 40.2 61.4999 40.1C62.1999 39.9 62.4999 39.1 62.2999 38.5C62.0999 37.8 61.3 37.4001 60.7 37.7001C60 37.9001 59.7 38.7 59.9 39.3C60 39.9 60.4999 40.2001 61.0999 40.2001ZM56.5999 24.8C56.6999 24.8 56.8 24.8 56.9 24.8C57.6 24.6 57.9999 23.9001 57.7999 23.2001C57.5999 22.5001 56.9 22.1 56.2 22.3C55.5 22.5 55.0999 23.2 55.2999 23.9C55.4999 24.4 55.9999 24.8 56.5999 24.8ZM53.0999 9.10005C53.1999 9.10005 53.2999 9.10005 53.2999 9.10005C53.9999 9.00005 54.4999 8.30005 54.2999 7.60005C54.1999 6.90005 53.4999 6.40005 52.7999 6.60005C52.0999 6.70005 51.5999 7.40005 51.7999 8.10005C51.9999 8.60005 52.4999 9.10005 53.0999 9.10005ZM46.7999 32.7001C46.8999 32.7001 46.9999 32.7001 47.0999 32.7001C47.7999 32.5001 48.1999 31.8001 47.9999 31.2001C47.7999 30.5001 47.1999 30.1 46.4999 30.3C45.7999 30.5 45.3999 31.2 45.5999 31.8C45.7999 32.3 46.2999 32.7001 46.7999 32.7001ZM43.4999 17C43.5999 17 43.6 17 43.7 17C44.4 16.9 44.8 16.2 44.7 15.6C44.6 14.9 43.8999 14.5 43.2999 14.6C42.5999 14.7 42.1999 15.4 42.2999 16C42.2999 16.5 42.8999 17 43.4999 17ZM36.5999 39.7001C36.6999 39.7001 36.8 39.7001 36.9 39.7001C37.5 39.5001 37.8999 38.9001 37.7999 38.2001C37.5999 37.6001 36.9999 37.2 36.2999 37.3C35.6999 37.5 35.2999 38.1 35.4999 38.8C35.5999 39.4 36.0999 39.7001 36.5999 39.7001ZM33.2 24C33.3 24 33.3 24 33.4 24C34.1 23.9 34.5 23.3001 34.4 22.6C34.3 21.9 33.6999 21.5 32.9999 21.6C32.2999 21.7001 31.8999 22.3 31.9999 23C32.0999 23.6 32.7 24 33.2 24ZM31.4 8.00004C31.4 8.00004 31.5 8.00004 31.4 8.00004C32.1 8.00004 32.5999 7.40005 32.5999 6.70006C32.5999 6.00006 31.9999 5.50005 31.2999 5.60005C30.5999 5.60005 30.1 6.20004 30.2 6.90004C30.2 7.50004 30.8 8.00004 31.4 8.00004ZM34.4 30.7001C34.5 30.7001 34.6 30.7001 34.7 30.7001C35.3 30.5001 35.6999 29.9001 35.5999 29.2001C35.3999 28.6001 34.8 28.2 34.2 28.3C33.6 28.5 33.1999 29.1 33.2999 29.8C33.3999 30.4 33.9 30.7001 34.4 30.7001ZM31.4 14.9C31.5 14.9 31.4999 14.9 31.5999 14.9C32.1999 14.8 32.6999 14.2 32.5999 13.5C32.4999 12.8 31.9 12.4 31.2 12.5C30.5 12.6 30.1 13.2 30.2 13.9C30.3 14.5 30.9 14.9 31.4 14.9ZM34.4999 30.9C34.5999 30.9 34.6999 30.9 34.7999 30.9C35.3999 30.7 35.8 30.1 35.7 29.4C35.5 28.8 34.9 28.4 34.2 28.5C33.6 28.7 33.1999 29.3 33.2999 30C33.3999 30.5 33.8999 30.9 34.4999 30.9ZM31.0999 15.2001C31.1999 15.2001 31.1999 15.2001 31.2999 15.2001C31.8999 15.1001 32.3999 14.5 32.2999 13.8C32.1999 13.1 31.6 12.7 30.9 12.8C30.2 12.9 29.8 13.5001 29.9 14.2001C30 14.8001 30.4999 15.2001 31.0999 15.2001ZM34.9999 32.6C35.0999 32.6 35.1999 32.6 35.2999 32.6C35.8999 32.4 36.2999 31.7001 36.0999 31.1C35.8999 30.5 35.2999 30.1 34.5999 30.3C33.9999 30.5 33.5999 31.2 33.7999 31.8C33.9999 32.3 34.3999 32.6 34.9999 32.6ZM31.0999 17C31.1999 17 31.2999 17 31.2999 17C31.8999 16.9 32.4 16.2 32.2 15.6C32.1 14.9 31.3999 14.5001 30.7999 14.7001C30.1999 14.8001 29.7 15.5 29.9 16.1C30 16.6 30.4999 17 31.0999 17ZM35.9 35.9C36 35.9 36.0999 35.9 36.2999 35.8C36.8999 35.6 37.2999 34.9 37.0999 34.3C36.8999 33.7 36.1999 33.3 35.5999 33.5C34.9999 33.7 34.5999 34.4 34.7999 35C34.9999 35.6 35.4 35.9 35.9 35.9ZM31.5999 20.4C31.6999 20.4 31.8 20.4 31.9 20.4C32.5 20.2 32.8999 19.6 32.7999 18.9C32.5999 18.2 32 17.9 31.4 18C30.8 18.2 30.3999 18.8 30.4999 19.5C30.5999 20.1 30.9999 20.4 31.5999 20.4ZM28.4 4.70006C28.5 4.70006 28.4999 4.70006 28.5999 4.70006C29.2999 4.60006 29.6999 4.00003 29.5999 3.30003C29.4999 2.60003 28.9 2.20003 28.2 2.30003C27.6 2.40003 27.1 3.00006 27.2 3.70006C27.3 4.20006 27.8 4.70006 28.4 4.70006ZM37.4999 40.8C37.5999 40.8 37.8 40.8001 37.9 40.7001C38.5 40.5001 38.8999 39.8001 38.5999 39.2001C38.3999 38.6001 37.6999 38.2 37.0999 38.5C36.4999 38.7 36.2 39.4 36.4 40C36.5 40.5 36.9999 40.8 37.4999 40.8ZM32.5999 25.5C32.6999 25.5 32.8 25.5 32.9 25.5C33.5 25.3 33.9 24.7 33.7 24C33.5 23.4 32.9 23.0001 32.2 23.2001C31.6 23.4001 31.2 24.0001 31.4 24.7001C31.6 25.2001 32.0999 25.5 32.5999 25.5ZM28.7999 9.90004C28.8999 9.90004 28.9999 9.90004 28.9999 9.90004C29.5999 9.80004 30.1 9.10004 29.9 8.50004C29.8 7.80004 29.0999 7.40005 28.4999 7.60005C27.7999 7.70005 27.3999 8.40004 27.5999 9.00004C27.7999 9.50004 28.2999 9.90004 28.7999 9.90004ZM34.0999 32.2001C34.1999 32.2001 34.2999 32.2001 34.4999 32.1C35.0999 31.9 35.4999 31.2001 35.2999 30.6C35.0999 30 34.3999 29.6 33.7999 29.8C33.1999 30 32.7999 30.7 32.9999 31.3C33.1999 31.9 33.5999 32.2001 34.0999 32.2001ZM29.7999 16.7001C29.8999 16.7001 29.9999 16.7001 30.0999 16.7001C30.6999 16.5001 31.0999 15.9001 30.9999 15.2001C30.7999 14.6001 30.1999 14.2 29.4999 14.3C28.8999 14.5 28.4999 15.1 28.5999 15.8C28.7999 16.3 29.2999 16.7001 29.7999 16.7001ZM36.2 41.1C36.3 41.1 36.4999 41.1 36.5999 41C37.1999 40.8 37.4999 40.1 37.2999 39.4C37.0999 38.8 36.4 38.5001 35.7 38.7001C35.1 38.9001 34.7999 39.6 34.9999 40.3C35.2999 40.8 35.8 41.1 36.2 41.1ZM30.7999 26C30.8999 26 31.1 26 31.2 25.9C31.8 25.7 32.1999 25 31.9999 24.4C31.7999 23.8 31.0999 23.4 30.4999 23.6C29.8999 23.8001 29.5 24.5 29.7 25.1C29.8 25.7001 30.2999 26 30.7999 26ZM25.9999 10.6C26.0999 10.6 26.1999 10.6 26.2999 10.6C26.8999 10.4 27.2999 9.70005 27.0999 9.10005C26.8999 8.50005 26.2999 8.10003 25.5999 8.30003C24.9999 8.50003 24.5999 9.20003 24.7999 9.80003C24.9999 10.3 25.4999 10.6 25.9999 10.6ZM33.5999 36.7001C33.6999 36.7001 33.8999 36.7 33.9999 36.6C34.5999 36.4 35 35.7 34.7 35.1C34.5 34.5 33.8 34.1 33.2 34.4C32.6 34.6 32.1999 35.3 32.4999 35.9C32.6999 36.4 33.0999 36.7001 33.5999 36.7001ZM28.5999 21.5C28.6999 21.5 28.7999 21.5 28.9999 21.4C29.5999 21.2 29.9999 20.5 29.7999 19.9C29.5999 19.3 28.8999 18.9 28.2999 19.1C27.6999 19.3001 27.2999 20 27.4999 20.6C27.5999 21.1 28.0999 21.5 28.5999 21.5ZM24.0999 6.00004C24.1999 6.00004 24.3 6.00004 24.4 6.00004C25 5.80004 25.4 5.20004 25.2 4.50004C25 3.90004 24.4 3.50006 23.7 3.70006C23.1 3.90006 22.7 4.50006 22.9 5.20006C23.1 5.70006 23.5999 6.00004 24.0999 6.00004ZM31.2999 34.4C31.3999 34.4 31.5 34.4 31.7 34.4C32.3 34.2 32.6999 33.5 32.4999 32.9C32.2999 32.3 31.5999 31.9 30.9999 32.1C30.3999 32.3001 30 33 30.2 33.6C30.3 34 30.7999 34.4 31.2999 34.4ZM26.7 18.9C26.8 18.9 26.8999 18.9 26.9999 18.9C27.5999 18.7 27.9999 18 27.7999 17.4C27.5999 16.8 26.9999 16.4001 26.2999 16.6C25.6999 16.8001 25.2999 17.4 25.4999 18.1C25.6999 18.6 26.2 18.9 26.7 18.9ZM22.4999 3.40004C22.5999 3.40004 22.6999 3.40004 22.7999 3.40004C23.3999 3.20004 23.8 2.60004 23.7 1.90004C23.5 1.30004 22.9 0.900043 22.2 1.00004C21.6 1.20004 21.1999 1.80004 21.2999 2.50004C21.4999 3.10004 21.9999 3.40004 22.4999 3.40004ZM28.9 34.2001C29 34.2001 29.1 34.2001 29.2 34.2001C29.8 34.0001 30.1999 33.4001 30.0999 32.7001C29.8999 32.0001 29.3 31.7 28.7 31.8C28.1 32 27.6999 32.6 27.7999 33.3C27.8999 33.8 28.4 34.2001 28.9 34.2001ZM24.9999 18.6C25.0999 18.6 25.1999 18.6 25.2999 18.6C25.8999 18.4 26.3 17.8001 26.2 17.1C26 16.5 25.4 16.1001 24.7 16.2001C24.1 16.4001 23.6999 17.0001 23.7999 17.7001C23.9999 18.2001 24.4999 18.6 24.9999 18.6ZM21.2999 2.90004C21.3999 2.90004 21.4999 2.90004 21.5999 2.90004C22.1999 2.70004 22.5999 2.10004 22.4999 1.50004C22.2999 0.800043 21.6999 0.500049 21.0999 0.600049C20.4999 0.800049 20.1 1.40004 20.2 2.00004C20.2 2.60004 20.6999 2.90004 21.2999 2.90004ZM25.7999 36.3C25.8999 36.3 25.8999 36.3 25.9999 36.3C26.6999 36.2 27.0999 35.6 26.9999 34.9C26.8999 34.2 26.2999 33.8 25.5999 33.9C24.9999 34 24.4999 34.6 24.5999 35.3C24.6999 35.9 25.1999 36.3 25.7999 36.3ZM22.9999 20.4C23.0999 20.4 23.2 20.4 23.2 20.4C23.8 20.3 24.3 19.6 24.2 19C24.1 18.3 23.3999 17.9 22.7999 18C22.0999 18.1 21.6999 18.8 21.7999 19.4C21.9999 20 22.4999 20.4 22.9999 20.4ZM19.9 4.60005C20 4.60005 20.0999 4.60005 20.0999 4.60005C20.7999 4.50005 21.1999 3.80006 20.9999 3.20006C20.8999 2.50006 20.1999 2.10003 19.5999 2.30003C18.8999 2.40003 18.5 3.10006 18.7 3.70006C18.9 4.20006 19.4 4.60005 19.9 4.60005ZM21.0999 39.2001C21.7999 39.2001 22.2999 38.6 22.2999 37.9C22.2999 37.2 21.6999 36.7 20.9999 36.8C20.2999 36.8 19.8 37.4 19.9 38.1C19.9 38.7 20.3999 39.2001 21.0999 39.2001ZM19.7999 23.2001H19.9C20.6 23.1001 20.9999 22.5 20.9999 21.9C20.8999 21.2 20.3 20.7 19.7 20.8C19 20.9 18.5999 21.5 18.5999 22.1C18.6999 22.7001 19.1999 23.2001 19.7999 23.2001ZM17.9 7.20006C18 7.20006 17.9999 7.20006 18.0999 7.20006C18.7999 7.10006 19.1999 6.50003 19.0999 5.80003C18.9999 5.10003 18.4 4.70003 17.7 4.80003C17 4.90003 16.6 5.50006 16.7 6.20006C16.8 6.80006 17.3 7.20006 17.9 7.20006ZM14.7 29.4C15.4 29.4 15.9 28.9001 15.9 28.2001C15.9 27.5001 15.4 27 14.7 27C14 27 13.4999 27.5001 13.4999 28.2001C13.4999 28.8001 14 29.4 14.7 29.4ZM14.4999 13.3C14.4999 13.3 14.5999 13.3 14.4999 13.3C15.1999 13.3 15.7 12.7 15.7 12C15.7 11.3 15.0999 10.8 14.4999 10.8C13.7999 10.8 13.2999 11.4 13.2999 12.1C13.3999 12.8 13.8999 13.3 14.4999 13.3ZM8.39997 21.4C8.99997 21.4 9.49992 20.9 9.59992 20.3C9.69992 19.6 9.19995 19 8.49995 19C7.79995 18.9 7.29996 19.4 7.19996 20.1C7.09996 20.8001 7.59994 21.3 8.29994 21.4H8.39997ZM9.39997 5.30003C9.99997 5.30003 10.5999 4.80005 10.5999 4.10005C10.5999 3.40005 10.1 2.90004 9.39997 2.90004C8.69997 2.90004 8.19996 3.40005 8.19996 4.10005C8.19996 4.70005 8.69997 5.30003 9.39997 5.30003ZM1.79994 15C2.39994 15 2.89995 14.6 2.99995 14C3.09995 13.3 2.69995 12.7 1.99995 12.6C1.39995 12.5 0.699923 12.9 0.599923 13.6C0.499923 14.3 0.899923 14.9 1.59992 15C1.59992 15 1.69994 15 1.79994 15ZM76.9 20.5C77 20.5 77.0999 20.5 77.2999 20.5C77.5999 20.4 77.6999 20.1 77.5999 19.8C77.4999 19.5 77.2 19.4 76.9 19.5C76.6 19.6 76.4999 19.9001 76.5999 20.2001C76.5999 20.3001 76.8 20.4 76.9 20.5ZM72.4 5.00004C72.5 5.00004 72.6 5.00004 72.7 5.00004C73 4.90004 73.1999 4.60003 73.0999 4.30003C72.9999 4.00003 72.7 3.80004 72.4 3.90004C72.1 4.00004 71.8999 4.30005 71.9999 4.60005C72.0999 4.90005 72.2 5.00004 72.4 5.00004ZM76.2 34C76.3 34.1 76.4999 34 76.5999 34C76.7999 33.9 76.8999 33.5 76.7999 33.3C76.6999 33.1 76.3999 33 76.0999 33.1C75.8999 33.2 75.8 33.5 75.9 33.8C76 33.9 76.1 33.9 76.2 34ZM68.9 19.8C69 19.8 69.0999 19.8 69.2999 19.8C69.4999 19.7 69.6999 19.4 69.5999 19.1C69.4999 18.9 69.1999 18.7 68.9999 18.9C68.6999 19 68.6 19.3 68.7 19.5C68.6 19.6 68.8 19.7 68.9 19.8ZM63.2 4.70006C63.3 4.70006 63.3999 4.70006 63.4999 4.70006C63.7999 4.60006 63.8999 4.30005 63.7999 4.10005C63.6999 3.80005 63.4 3.70003 63.2 3.80003C62.9 3.90003 62.8 4.20004 62.9 4.40004C62.9 4.60004 63 4.70006 63.2 4.70006ZM69.0999 31.9C69.1999 32 69.3999 31.9 69.4999 31.8C69.6999 31.7 69.6999 31.4001 69.5999 31.2001C69.4999 31.0001 69.1999 31 68.9999 31.1C68.7999 31.2001 68.8 31.5001 68.9 31.7001C68.9 31.9001 68.9999 31.9 69.0999 31.9ZM60.7 18.3C60.8 18.3 60.8999 18.3 61.0999 18.3C61.2999 18.2 61.3999 17.9001 61.2999 17.7001C61.1999 17.5001 60.9 17.4 60.7 17.5C60.5 17.6 60.3999 17.9 60.4999 18.1C60.5999 18.1 60.6 18.2 60.7 18.3ZM53.9999 3.70006C54.0999 3.70006 54.1999 3.70006 54.2999 3.70006C54.4999 3.60006 54.5999 3.30005 54.4999 3.10005C54.3999 2.90005 54.1 2.80004 53.9 2.90004C53.7 3.00004 53.6 3.30004 53.7 3.50004C53.8 3.60004 53.8999 3.60006 53.9999 3.70006ZM72.4 40.9C72.5 41 72.6999 40.9 72.7999 40.8C72.8999 40.6 72.8999 40.4001 72.7999 40.2001C72.5999 40.1001 72.4 40.1001 72.2 40.2001C72.1 40.4001 72.1 40.6 72.2 40.8C72.3 40.9 72.3 40.9 72.4 40.9ZM61.4 29.3C61.5 29.3 61.6999 29.3001 61.7999 29.2001C61.9999 29.1001 62 28.8001 61.9 28.6C61.8 28.4 61.4999 28.4 61.2999 28.5C61.0999 28.6 61.1 28.9 61.2 29.1C61.3 29.2001 61.3 29.2 61.4 29.3ZM52.2999 16.1C52.3999 16.1 52.4999 16.1 52.5999 16.1C52.7999 16 52.9 15.7 52.7 15.6C52.6 15.4 52.2999 15.3 52.0999 15.5C51.8999 15.6 51.7999 15.9 51.9999 16.1C52.1999 16 52.1999 16 52.2999 16.1ZM44.7 1.90004C44.8 1.90004 44.8999 1.90004 44.9999 1.90004C45.1999 1.80004 45.3 1.60004 45.2 1.40004C45.1 1.20004 44.9 1.10006 44.7 1.20006C44.5 1.30006 44.3999 1.50006 44.4999 1.70006C44.5999 1.80006 44.6 1.90004 44.7 1.90004ZM43.7 38.5C43.9 38.6 44.1 38.5 44.2 38.3C44.3 38.1 44.1999 37.9 43.9999 37.8C43.7999 37.7 43.5999 37.8 43.4999 38C43.3999 38.2 43.5 38.4 43.7 38.5ZM48.7999 23.3C48.7999 23.3 48.8999 23.3 48.7999 23.3C49.0999 23.4 49.2999 23.2 49.2999 23C49.2999 22.8 49.1999 22.6 48.9999 22.5C48.7999 22.5 48.5999 22.6 48.4999 22.8C48.4999 23 48.5999 23.2 48.7999 23.3ZM50.4 7.30003H50.4999C50.6999 7.30003 50.9 7.10004 50.9 6.90004C50.9 6.70004 50.6999 6.50004 50.4999 6.50004C50.2999 6.50004 50.0999 6.70004 50.0999 6.90004C50.1999 7.10004 50.3 7.30003 50.4 7.30003ZM45.5999 37.8C45.5999 37.8 45.6999 37.8 45.5999 37.8C45.8999 37.9 46.2 37.7 46.2 37.5C46.3 37.2 46.1 37 45.9 36.9C45.6 36.8 45.3999 37.0001 45.2999 37.2001C45.2999 37.4001 45.3999 37.7 45.5999 37.8ZM48.4999 22H48.5999C48.8999 22 49.0999 21.8 49.0999 21.5C49.0999 21.2 48.8999 21 48.5999 21C48.2999 21 48.0999 21.2 48.0999 21.5C48.0999 21.7 48.2999 21.9 48.4999 22ZM47.5999 6.00004C47.6999 6.00004 47.7999 6.00004 47.7999 6.00004C48.0999 6.00004 48.3 5.70004 48.2 5.40004C48.2 5.10004 47.8999 5.00004 47.5999 5.00004C47.2999 5.00004 47.1 5.30005 47.2 5.60005C47.3 5.80005 47.4999 5.90004 47.5999 6.00004ZM46.4 36.1H46.4999C46.7999 36.1 47.1 35.9 47.2 35.6C47.2 35.3 47 35 46.7 35C46.4 35 46.0999 35.2 46.0999 35.5C45.9999 35.7 46.1 36 46.4 36.1ZM46.7 20C46.8 20 46.8999 20 46.9999 20C47.2999 20 47.4999 19.7 47.4999 19.4C47.4999 19.1 47.2 18.8 46.9 18.9C46.6 18.9 46.4 19.2 46.4 19.5C46.3 19.8 46.5 19.9 46.7 20ZM43.5999 4.30003C43.6999 4.30003 43.7999 4.40003 43.9999 4.30003C44.2999 4.20003 44.5 3.90005 44.4 3.60005C44.3 3.30005 44 3.10006 43.7 3.20006C43.4 3.30006 43.1999 3.60004 43.2999 3.90004C43.2999 4.10004 43.4999 4.20003 43.5999 4.30003ZM45.7 33.6C45.8 33.6 45.8999 33.6 45.9999 33.6C46.3999 33.6 46.7 33.3 46.7 32.9C46.7 32.5 46.3999 32.2 45.9999 32.3C45.5999 32.3 45.4 32.6 45.4 33C45.2 33.3 45.4 33.5 45.7 33.6ZM43.4 17.7001C43.5 17.7001 43.6999 17.8001 43.7999 17.7001C44.1999 17.6001 44.3999 17.2 44.2999 16.9C44.1999 16.5 43.8999 16.3 43.4999 16.4C43.0999 16.5 42.8999 16.9001 42.9999 17.2001C42.9999 17.5001 43.2 17.7001 43.4 17.7001ZM38.5999 2.40004C38.6999 2.50004 38.8999 2.50004 39.0999 2.40004C39.3999 2.30004 39.5999 1.90004 39.4999 1.50004C39.3999 1.20004 38.9999 1.00005 38.5999 1.10005C38.2999 1.20005 38.1 1.60004 38.2 2.00004C38.3 2.20004 38.3999 2.40004 38.5999 2.40004ZM43.2 30.7001C43.3 30.7001 43.4999 30.8001 43.5999 30.7001C43.9999 30.6001 44.3 30.2 44.2 29.8C44.1 29.4 43.6999 29.1001 43.2999 29.2001C42.8999 29.3001 42.6 29.7001 42.7 30.1C42.8 30.4 43 30.7001 43.2 30.7001ZM38.7999 15.3C38.9999 15.4 39.0999 15.4 39.2999 15.3C39.6999 15.2 39.8999 14.7 39.7999 14.3C39.6999 13.9 39.1999 13.7 38.7999 13.9C38.3999 14 38.1999 14.5 38.2999 14.9C38.4999 15.1 38.5999 15.2 38.7999 15.3ZM39.2 27.7001C39.4 27.8001 39.5999 27.8001 39.7999 27.7001C40.1999 27.5001 40.4999 27.1 40.2999 26.6C40.0999 26.2001 39.7 25.9 39.2 26.1C38.8 26.3001 38.5 26.7001 38.7 27.2001C38.7 27.5001 38.9 27.6001 39.2 27.7001ZM33.0999 12.9C33.2999 13 33.5 13 33.7 12.9C34.1 12.7 34.2999 12.2 34.0999 11.8C33.8999 11.4 33.3999 11.2 32.9999 11.4C32.5999 11.6 32.3999 12.1 32.5999 12.5C32.7999 12.6 32.8999 12.8 33.0999 12.9ZM39.5999 39.7001C39.7999 39.8001 40 39.8001 40.2 39.7001C40.7 39.5001 40.9999 39 40.7999 38.5C40.6999 38 40.0999 37.7 39.5999 37.9C39.0999 38.1 38.7999 38.6 38.9999 39.1C39.0999 39.4 39.2999 39.6001 39.5999 39.7001ZM33.7999 24.8C33.9999 24.9 34.2999 24.9 34.4999 24.8C34.9999 24.6 35.1999 24 34.9999 23.6C34.7999 23.1 34.1999 22.9 33.7999 23.1C33.2999 23.3001 33.0999 23.9 33.2999 24.3C33.2999 24.5 33.4999 24.7 33.7999 24.8ZM26.5999 10.4C26.7999 10.5 27.1 10.5 27.4 10.4C27.9 10.2 27.9999 9.60005 27.7999 9.10005C27.5999 8.60005 26.9999 8.50006 26.4999 8.70006C25.9999 8.90005 25.8999 9.50004 26.0999 10C26.1999 10.2 26.3999 10.3 26.5999 10.4ZM34.4999 36.3C34.6999 36.4 34.9999 36.4 35.2999 36.3C35.7999 36.1 35.9999 35.5 35.7999 34.9C35.5999 34.4 35 34.2 34.4 34.4C33.9 34.6 33.6 35.2 33.9 35.8C34 36 34.1999 36.2 34.4999 36.3ZM27.2999 22C27.5999 22.1 27.9 22.1 28.2 21.9C28.7 21.6 28.8999 21 28.5999 20.5C28.2999 20 27.7 19.8001 27.2 20.1C26.7 20.4 26.4999 21 26.7999 21.5C26.8999 21.7 27.0999 21.9 27.2999 22ZM19.4 8.00004C19.7 8.10004 19.9999 8.10004 20.2999 7.90004C20.7999 7.60004 21 7.00004 20.7 6.50004C20.4 6.00004 19.7999 5.80005 19.2999 6.10005C18.7999 6.40005 18.6 7.00004 18.9 7.50004C19 7.80004 19.2 7.90004 19.4 8.00004ZM28.2 33.1C28.5 33.2 28.7999 33.2 29.0999 33C29.5999 32.7 29.7999 32 29.4999 31.5C29.1999 31 28.4999 30.8001 27.9999 31.1C27.4999 31.4 27.2999 32.1 27.5999 32.6C27.6999 32.8 28 33 28.2 33.1ZM20.0999 19.3C20.3999 19.4 20.7999 19.4001 21.0999 19.2001C21.5999 18.9001 21.7999 18.2001 21.4999 17.7001C21.1999 17.2001 20.4999 17 19.9999 17.3C19.4999 17.6 19.2999 18.3 19.5999 18.8C19.6999 19 19.8999 19.2 20.0999 19.3ZM11.7 5.60005C12 5.70005 12.4 5.70004 12.7 5.50004C13.2 5.20004 13.3999 4.50004 13.0999 4.00004C12.7999 3.50004 12.0999 3.30005 11.5999 3.60005C11.0999 3.90005 10.9 4.60005 11.2 5.10005C11.3 5.40005 11.5 5.50005 11.7 5.60005ZM20.9999 30.1C21.2999 30.2001 21.6999 30.2 22.0999 30C22.6999 29.6 22.7999 28.9 22.4999 28.3C22.0999 27.7 21.3999 27.6 20.7999 27.9C20.1999 28.3 20.1 29 20.4 29.6C20.5 29.9 20.7999 30 20.9999 30.1ZM12.2999 16.7001C12.5999 16.8001 13 16.8001 13.4 16.6C14 16.2001 14.1 15.5 13.7 14.9C13.3 14.3 12.5999 14.2 11.9999 14.6C11.3999 15 11.3 15.7 11.7 16.3C11.8 16.4 11.9999 16.6001 12.2999 16.7001ZM3.69996 3.10005C3.99996 3.20005 4.39996 3.20004 4.69996 3.00004C5.29996 2.60004 5.39992 1.90003 5.09992 1.30003C4.79992 0.700031 3.99995 0.600037 3.49995 0.900037C2.89995 1.30004 2.79992 2.00005 3.09992 2.60005C3.19992 2.90005 3.39996 3.00005 3.69996 3.10005ZM21.9999 40.6C22.3999 40.7 22.8 40.7 23.2 40.5C23.8 40.1 23.9999 39.3001 23.5999 38.7001C23.1999 38.1001 22.3999 37.9 21.7999 38.3C21.1999 38.7 21 39.5 21.4 40.1C21.6 40.3 21.7999 40.5 21.9999 40.6ZM13.0999 27.3C13.4999 27.4 13.8999 27.4 14.2999 27.1C14.8999 26.7001 14.9999 25.9 14.5999 25.3C14.1999 24.7 13.3999 24.6 12.7999 25C12.1999 25.4 12.0999 26.2 12.4999 26.8C12.6999 27 12.8999 27.2 13.0999 27.3ZM4.09992 14.1C4.49992 14.2 4.89994 14.2 5.29994 14C5.89994 13.6 6.09996 12.8001 5.69996 12.2001C5.29996 11.6001 4.49997 11.5 3.89997 11.9C3.29997 12.3 3.09995 13.1001 3.49995 13.7001C3.59995 13.8001 3.79992 14 4.09992 14.1ZM14.0999 37.6C14.4999 37.8 15 37.7 15.4 37.4C16 37 16.2 36.1 15.7 35.5C15.3 34.9 14.3999 34.7001 13.7999 35.2001C13.1999 35.6001 12.9999 36.5 13.4999 37.1C13.6999 37.3 13.8999 37.5 14.0999 37.6ZM4.69996 24.6C5.09996 24.8001 5.59995 24.7 5.99995 24.4C6.59995 24 6.79994 23.1 6.29994 22.5C5.89994 21.9 4.99997 21.7001 4.39997 22.2001C3.79997 22.7001 3.59992 23.5 4.09992 24.1C4.29992 24.3001 4.49996 24.5 4.69996 24.6Z" fill="#00FFFF"/>
</svg>
