<svg width="60" height="38" viewBox="0 0 60 38" fill="none" xmlns="http://www.w3.org/2000/svg">
<path d="M53.7001 20.8999C53.5001 20.5999 53.5001 20.0999 53.9001 19.8999C54.2001 19.6999 54.7001 19.6999 54.9001 20.0999C55.1001 20.3999 55.1001 20.8999 54.7001 21.0999C54.6001 21.1999 54.4001 21.1999 54.3001 21.1999C54.0001 21.1999 53.8001 21.0999 53.7001 20.8999ZM44.6001 8.2999C44.7001 8.2999 44.9001 8.29992 45.0001 8.19992C45.3001 7.99992 45.4001 7.49992 45.1001 7.19992C44.9001 6.89992 44.4001 6.79992 44.1001 7.09992C43.8001 7.29992 43.7001 7.79992 44.0001 8.09992C44.2001 8.19992 44.4001 8.2999 44.6001 8.2999ZM39.4001 29.9999C39.5001 29.9999 39.7001 29.9999 39.8001 29.8999C40.1001 29.6999 40.1001 29.1999 39.9001 28.9999C39.7001 28.6999 39.3001 28.6999 39.0001 28.8999C38.7001 29.0999 38.7001 29.5999 38.9001 29.7999C39.0001 29.8999 39.2001 29.9999 39.4001 29.9999ZM29.5001 17.2999C29.6001 17.2999 29.8001 17.2999 29.9001 17.1999C30.2001 16.9999 30.2001 16.4999 30.0001 16.2999C29.8001 15.9999 29.4001 15.9999 29.1001 16.1999C28.8001 16.3999 28.8001 16.8999 29.0001 17.0999C29.1001 17.1999 29.3001 17.2999 29.5001 17.2999ZM19.5001 4.69992C19.6001 4.69992 19.8001 4.69991 19.9001 4.49991C20.2001 4.29991 20.2001 3.79992 20.0001 3.59992C19.8001 3.29992 19.3001 3.29991 19.1001 3.49991C18.8001 3.69991 18.8001 4.1999 19.0001 4.3999C19.1001 4.6999 19.3001 4.69992 19.5001 4.69992ZM4.30011 13.4999C4.40011 13.4999 4.60013 13.4999 4.70013 13.3999C5.00013 13.1999 5.00011 12.7999 4.80011 12.4999C4.60011 12.1999 4.20015 12.1999 3.90015 12.3999C3.60015 12.5999 3.60011 12.9999 3.80011 13.2999C4.00011 13.4999 4.10011 13.4999 4.30011 13.4999ZM57.8001 20.2999C58.5001 20.2999 59.1001 19.6999 59.1001 18.9999C59.1001 18.2999 58.5001 17.6999 57.8001 17.6999C57.1001 17.6999 56.5001 18.2999 56.5001 18.9999C56.5001 19.6999 57.1001 20.2999 57.8001 20.2999ZM49.3001 29.0999C50.0001 29.0999 50.6001 28.4999 50.6001 27.7999C50.6001 27.0999 50.0001 26.4999 49.3001 26.4999C48.6001 26.4999 48.0001 27.0999 48.0001 27.7999C48.0001 28.4999 48.6001 29.0999 49.3001 29.0999ZM43.0001 37.3999C43.7001 37.3999 44.3001 36.7999 44.3001 36.0999C44.3001 35.3999 43.7001 34.7999 43.0001 34.7999C42.3001 34.7999 41.7001 35.3999 41.7001 36.0999C41.7001 36.7999 42.2001 37.3999 43.0001 37.3999ZM50.3001 12.9999C50.9001 12.9999 51.5001 12.4999 51.6001 11.8999C51.7001 11.1999 51.2001 10.4999 50.5001 10.4999C49.8001 10.3999 49.1001 10.8999 49.1001 11.5999C49.0001 12.2999 49.5001 12.9999 50.2001 12.9999H50.3001ZM40.0001 36.8999C40.7001 36.8999 41.2001 36.3999 41.2001 35.6999C41.2001 34.9999 40.7001 34.3999 40.0001 34.3999C39.3001 34.3999 38.7001 34.8999 38.7001 35.5999C38.8001 36.2999 39.3001 36.8999 40.0001 36.8999ZM43.6001 32.5999C44.3001 32.5999 44.8001 32.0999 44.8001 31.3999C44.8001 30.6999 44.3001 30.0999 43.6001 30.0999C42.9001 30.0999 42.3001 30.5999 42.3001 31.2999C42.4001 31.9999 42.9001 32.5999 43.6001 32.5999ZM41.2001 20.8999C41.8001 20.8999 42.4001 20.3999 42.4001 19.7999C42.5001 19.0999 42.0001 18.4999 41.3001 18.3999C40.6001 18.2999 40.0001 18.7999 39.9001 19.4999C39.8001 20.1999 40.3001 20.7999 41.0001 20.8999C41.1001 20.8999 41.2001 20.8999 41.2001 20.8999ZM48.7001 20.8999C49.3001 20.8999 49.9001 20.3999 49.9001 19.7999C50.0001 19.0999 49.5001 18.4999 48.8001 18.3999C48.1001 18.2999 47.5001 18.7999 47.4001 19.4999C47.3001 20.1999 47.8001 20.7999 48.5001 20.8999C48.6001 20.8999 48.6001 20.8999 48.7001 20.8999ZM49.3001 16.8999C49.4001 16.8999 49.6001 16.8999 49.7001 16.7999C50.0001 16.5999 50.1001 16.0999 49.9001 15.7999C49.7001 15.4999 49.2001 15.3999 48.9001 15.5999C48.6001 15.7999 48.5001 16.2999 48.7001 16.5999C48.9001 16.7999 49.1001 16.8999 49.3001 16.8999ZM52.9001 16.0999C53.6001 16.0999 54.2001 15.4999 54.2001 14.7999C54.2001 14.0999 53.6001 13.4999 52.9001 13.4999C52.2001 13.4999 51.6001 14.0999 51.6001 14.7999C51.6001 15.4999 52.2001 16.0999 52.9001 16.0999ZM36.3001 16.5999C36.9001 16.5999 37.5001 16.0999 37.5001 15.4999C37.6001 14.7999 37.1001 14.1999 36.4001 14.0999C35.7001 13.9999 35.1001 14.4999 35.0001 15.1999C34.9001 15.8999 35.4001 16.4999 36.1001 16.5999C36.2001 16.5999 36.2001 16.5999 36.3001 16.5999ZM43.7001 16.5999C44.3001 16.5999 44.9001 16.0999 44.9001 15.4999C45.0001 14.7999 44.5001 14.1999 43.8001 14.0999C43.1001 13.9999 42.5001 14.4999 42.4001 15.1999C42.3001 15.8999 42.8001 16.4999 43.5001 16.5999C43.6001 16.5999 43.7001 16.5999 43.7001 16.5999ZM46.8001 25.0999C46.9001 25.0999 47.1001 25.0999 47.2001 24.9999C47.5001 24.7999 47.6001 24.2999 47.4001 23.9999C47.2001 23.6999 46.7001 23.5999 46.4001 23.7999C46.1001 23.9999 46.0001 24.4999 46.2001 24.7999C46.4001 24.9999 46.6001 25.0999 46.8001 25.0999ZM50.4001 24.2999C51.1001 24.2999 51.7001 23.6999 51.7001 22.9999C51.7001 22.2999 51.1001 21.6999 50.4001 21.6999C49.7001 21.6999 49.1001 22.2999 49.1001 22.9999C49.1001 23.6999 49.7001 24.2999 50.4001 24.2999ZM33.8001 24.7999C34.4001 24.7999 35.0001 24.2999 35.0001 23.6999C35.1001 22.9999 34.6001 22.3999 33.9001 22.2999C33.2001 22.1999 32.6001 22.6999 32.5001 23.3999C32.4001 24.0999 32.9001 24.6999 33.6001 24.7999C33.7001 24.7999 33.7001 24.7999 33.8001 24.7999ZM41.2001 24.7999C41.8001 24.7999 42.4001 24.2999 42.4001 23.6999C42.5001 22.9999 42.0001 22.3999 41.3001 22.2999C40.6001 22.1999 40.0001 22.6999 39.9001 23.3999C39.8001 24.0999 40.3001 24.6999 41.0001 24.7999C41.1001 24.7999 41.2001 24.7999 41.2001 24.7999ZM37.2001 3.2999C37.8001 3.2999 38.3001 2.8999 38.4001 2.2999C38.6001 1.5999 38.1001 0.999897 37.5001 0.799897C36.8001 0.599897 36.2001 0.999922 36.0001 1.69992C35.8001 2.39992 36.2001 2.99992 36.9001 3.19992C37.0001 3.29992 37.1001 3.2999 37.2001 3.2999ZM40.5001 8.2999C41.1001 8.2999 41.6001 7.8999 41.7001 7.2999C41.9001 6.5999 41.4001 5.9999 40.8001 5.7999C40.1001 5.5999 39.5001 5.99992 39.3001 6.69992C39.1001 7.39992 39.5001 7.99992 40.2001 8.19992C40.3001 8.29992 40.4001 8.2999 40.5001 8.2999ZM31.6001 27.8999C32.2001 27.8999 32.7001 27.4999 32.8001 26.8999C32.9001 26.1999 32.4001 25.5999 31.8001 25.4999C31.1001 25.3999 30.5001 25.8999 30.4001 26.4999C30.3001 27.1999 30.8001 27.7999 31.4001 27.8999C31.4001 27.8999 31.5001 27.8999 31.6001 27.8999ZM34.5001 12.0999C35.0001 12.0999 35.5001 11.6999 35.7001 11.1999C35.9001 10.4999 35.5001 9.89992 34.8001 9.69992C34.2001 9.49992 33.5001 9.89992 33.4001 10.5999C33.2001 11.2999 33.6001 11.8999 34.3001 12.0999C34.3001 12.0999 34.4001 12.0999 34.5001 12.0999ZM29.0001 34.7999C29.6001 34.7999 30.2001 34.2999 30.2001 33.5999C30.2001 32.8999 29.7001 32.3999 29.1001 32.2999C28.4001 32.2999 27.9001 32.7999 27.8001 33.4999C27.7001 34.1999 28.2001 34.7999 29.0001 34.7999C28.9001 34.7999 28.9001 34.7999 29.0001 34.7999ZM30.4001 18.7999C31.0001 18.7999 31.5001 18.3999 31.6001 17.7999C31.7001 17.0999 31.2001 16.4999 30.6001 16.3999C29.9001 16.2999 29.3001 16.7999 29.2001 17.3999C29.1001 18.0999 29.6001 18.6999 30.2001 18.7999C30.3001 18.7999 30.4001 18.7999 30.4001 18.7999ZM33.4001 2.99991C33.9001 2.99991 34.4001 2.59992 34.6001 2.09992C34.7001 1.39992 34.3001 0.799922 33.7001 0.699922C33.1001 0.499922 32.4001 0.899916 32.3001 1.59992C32.1001 2.19992 32.5001 2.89991 33.2001 2.99991C33.2001 2.99991 33.3001 2.99991 33.4001 2.99991ZM27.4001 35.0999C28.1001 35.0999 28.6001 34.5999 28.6001 33.8999C28.6001 33.1999 28.1001 32.6999 27.4001 32.6999C26.7001 32.6999 26.2001 33.1999 26.2001 33.8999C26.2001 34.5999 26.7001 35.0999 27.4001 35.0999ZM28.1001 19.0999C28.7001 19.0999 29.2001 18.5999 29.3001 17.9999C29.3001 17.2999 28.9001 16.7999 28.2001 16.6999C27.5001 16.5999 27.0001 17.0999 26.9001 17.7999C26.8001 18.3999 27.3001 18.9999 28.1001 19.0999C28.0001 19.0999 28.0001 19.0999 28.1001 19.0999ZM30.1001 3.09992C30.7001 3.09992 31.2001 2.69992 31.3001 2.09992C31.4001 1.39992 31.0001 0.799922 30.3001 0.699922C29.6001 0.599922 29.0001 0.999922 28.9001 1.69992C28.8001 2.39992 29.2001 2.99992 29.9001 3.09992C29.9001 3.09992 30.0001 3.09992 30.1001 3.09992ZM26.1001 37.0999C26.8001 37.0999 27.3001 36.4999 27.3001 35.7999C27.3001 35.0999 26.7001 34.5999 26.0001 34.6999C25.3001 34.6999 24.8001 35.2999 24.9001 35.9999C24.9001 36.5999 25.5001 37.0999 26.1001 37.0999ZM25.9001 20.9999C26.5001 20.9999 27.1001 20.4999 27.1001 19.7999C27.1001 19.0999 26.6001 18.5999 25.9001 18.5999C25.2001 18.5999 24.7001 19.0999 24.7001 19.7999C24.7001 20.3999 25.2001 20.9999 25.9001 20.9999ZM26.9001 4.99991C27.5001 4.99991 28.0001 4.4999 28.1001 3.8999C28.2001 3.1999 27.7001 2.59992 27.0001 2.59992C26.3001 2.49992 25.8001 2.99992 25.7001 3.69992C25.6001 4.39992 26.1001 4.99991 26.8001 4.99991H26.9001ZM24.3001 24.5999C25.0001 24.5999 25.5001 23.9999 25.5001 23.3999C25.5001 22.6999 24.9001 22.1999 24.3001 22.1999C23.6001 22.1999 23.1001 22.7999 23.1001 23.3999C23.1001 24.0999 23.6001 24.5999 24.3001 24.5999ZM24.2001 8.59992C24.8001 8.59992 25.4001 8.0999 25.4001 7.3999C25.4001 6.6999 24.9001 6.19992 24.2001 6.19992C23.5001 6.19992 23.0001 6.6999 23.0001 7.3999C23.0001 7.9999 23.5001 8.49992 24.2001 8.59992ZM22.3001 13.9999C23.0001 13.9999 23.5001 13.3999 23.5001 12.6999C23.5001 11.9999 22.9001 11.4999 22.3001 11.4999C21.6001 11.4999 21.1001 12.0999 21.1001 12.6999C21.1001 13.4999 21.6001 13.9999 22.3001 13.9999ZM22.9001 37.0999C22.9001 37.0999 23.0001 37.0999 23.1001 37.0999C23.8001 36.9999 24.2001 36.3999 24.1001 35.6999C24.0001 34.9999 23.4001 34.5999 22.8001 34.6999C22.1001 34.7999 21.7001 35.3999 21.8001 36.0999C21.8001 36.5999 22.3001 37.0999 22.9001 37.0999ZM21.1001 21.0999H21.2001C21.9001 20.9999 22.3001 20.4999 22.3001 19.7999C22.2001 19.0999 21.7001 18.5999 21.0001 18.6999C20.3001 18.7999 19.8001 19.3999 19.9001 19.9999C20.0001 20.5999 20.5001 21.0999 21.1001 21.0999ZM20.0001 4.99991C20.7001 4.99991 21.2001 4.39992 21.2001 3.69992C21.2001 2.99992 20.6001 2.49992 19.9001 2.59992C19.2001 2.59992 18.7001 3.1999 18.8001 3.8999C18.8001 4.4999 19.4001 4.99991 20.0001 4.99991ZM15.5001 15.2999H15.6001C16.3001 15.1999 16.7001 14.5999 16.7001 13.9999C16.6001 13.2999 16.0001 12.8999 15.4001 12.8999C14.7001 12.9999 14.3001 13.5999 14.3001 14.1999C14.4001 14.8999 14.9001 15.2999 15.5001 15.2999ZM13.4001 10.7999C13.5001 10.7999 13.5001 10.7999 13.6001 10.7999C14.3001 10.6999 14.7001 10.0999 14.6001 9.3999C14.5001 8.6999 13.9001 8.2999 13.2001 8.3999C12.5001 8.4999 12.1001 9.0999 12.2001 9.7999C12.3001 10.2999 12.8001 10.7999 13.4001 10.7999ZM11.6001 8.19992C11.7001 8.19992 11.7001 8.19992 11.8001 8.19992C12.5001 8.09992 12.9001 7.4999 12.8001 6.7999C12.7001 6.0999 12.1001 5.6999 11.4001 5.7999C10.8001 5.8999 10.3001 6.49992 10.4001 7.19992C10.5001 7.79992 11.0001 8.19992 11.6001 8.19992ZM10.2001 7.69992C10.3001 7.69992 10.4001 7.69992 10.4001 7.69992C11.0001 7.59992 11.5001 6.8999 11.4001 6.2999C11.3001 5.5999 10.6001 5.1999 10.0001 5.2999C9.30012 5.3999 8.90012 6.09992 9.00012 6.69992C9.10012 7.29992 9.60013 7.69992 10.2001 7.69992ZM9.30011 9.2999C9.40011 9.2999 9.50012 9.2999 9.50012 9.2999C10.1001 9.1999 10.6001 8.4999 10.4001 7.8999C10.3001 7.1999 9.60012 6.79991 9.00012 6.99991C8.40012 7.09991 7.9001 7.7999 8.1001 8.3999C8.3001 8.8999 8.80011 9.2999 9.30011 9.2999ZM8.70013 11.5999C8.80013 11.5999 8.90015 11.5999 8.90015 11.5999C9.50015 11.4999 10.0001 10.7999 9.80011 10.1999C9.70011 9.49992 9.00015 9.0999 8.40015 9.2999C7.80015 9.3999 7.30012 10.0999 7.50012 10.6999C7.60012 11.1999 8.10013 11.5999 8.70013 11.5999ZM9.70013 17.1999H9.80011C10.5001 17.0999 10.9001 16.4999 10.8001 15.8999C10.7001 15.1999 10.1001 14.7999 9.50012 14.7999C8.80012 14.8999 8.40012 15.4999 8.50012 16.0999C8.60012 16.6999 9.10013 17.1999 9.70013 17.1999ZM6.6001 9.09992H6.70013C7.40013 8.99992 7.80011 8.3999 7.80011 7.7999C7.70011 7.0999 7.10012 6.69992 6.50012 6.69992C5.80012 6.79992 5.40012 7.39991 5.50012 7.99991C5.50012 8.59991 6.0001 9.09992 6.6001 9.09992ZM4.70013 18.9999C5.40013 18.9999 5.90015 18.3999 5.90015 17.7999C5.90015 17.0999 5.30013 16.5999 4.70013 16.5999C4.00013 16.5999 3.50012 17.1999 3.50012 17.7999C3.50012 18.4999 4.10013 18.9999 4.70013 18.9999ZM1.30011 14.5999C1.90011 14.5999 2.50012 14.0999 2.50012 13.3999C2.50012 12.6999 2.00011 12.1999 1.30011 12.1999C0.60011 12.1999 0.100098 12.6999 0.100098 13.3999C0.100098 13.9999 0.60011 14.5999 1.30011 14.5999ZM53.1001 25.8999C53.2001 25.8999 53.3001 25.8999 53.4001 25.8999C53.7001 25.7999 53.8001 25.5999 53.7001 25.2999C53.6001 24.9999 53.4001 24.8999 53.1001 24.9999C52.8001 25.0999 52.7001 25.2999 52.8001 25.5999C52.8001 25.7999 52.9001 25.8999 53.1001 25.8999ZM49.0001 10.3999C49.1001 10.3999 49.2001 10.3999 49.3001 10.3999C49.6001 10.2999 49.7001 10.0999 49.7001 9.7999C49.6001 9.4999 49.4001 9.39991 49.1001 9.49991C48.8001 9.59991 48.7001 9.79992 48.7001 10.0999C48.7001 10.1999 48.8001 10.2999 49.0001 10.3999ZM42.0001 25.4999C42.1001 25.4999 42.2001 25.4999 42.3001 25.4999C42.5001 25.3999 42.7001 25.1999 42.6001 24.8999C42.5001 24.6999 42.3001 24.4999 42.0001 24.5999C41.8001 24.6999 41.6001 24.8999 41.7001 25.1999C41.7001 25.3999 41.9001 25.4999 42.0001 25.4999ZM37.0001 10.1999C37.1001 10.1999 37.2001 10.1999 37.3001 10.1999C37.5001 10.0999 37.7001 9.89992 37.6001 9.59992C37.5001 9.39992 37.3001 9.1999 37.0001 9.2999C36.8001 9.3999 36.6001 9.5999 36.7001 9.8999C36.8001 10.0999 36.9001 10.1999 37.0001 10.1999ZM31.0001 24.3999C31.1001 24.3999 31.2001 24.3999 31.3001 24.3999C31.5001 24.2999 31.6001 24.0999 31.5001 23.8999C31.4001 23.6999 31.2001 23.5999 31.0001 23.6999C30.8001 23.7999 30.7001 23.9999 30.8001 24.1999C30.8001 24.2999 30.9001 24.3999 31.0001 24.3999ZM25.3001 9.3999C25.4001 9.3999 25.5001 9.3999 25.6001 9.3999C25.8001 9.2999 25.9001 9.0999 25.8001 8.8999C25.7001 8.6999 25.5001 8.59992 25.3001 8.69992C25.1001 8.79992 25.0001 8.99992 25.1001 9.19992C25.1001 9.29992 25.2001 9.3999 25.3001 9.3999ZM43.5001 27.7999C43.6001 27.7999 43.7001 27.7999 43.8001 27.7999C44.0001 27.6999 44.1001 27.4999 44.1001 27.2999C44.0001 27.0999 43.8001 26.9999 43.6001 26.9999C43.4001 27.0999 43.3001 27.2999 43.3001 27.4999C43.3001 27.6999 43.4001 27.7999 43.5001 27.7999ZM38.7001 12.4999C38.8001 12.4999 38.9001 12.4999 39.0001 12.4999C39.2001 12.3999 39.3001 12.1999 39.3001 11.9999C39.2001 11.7999 39.0001 11.6999 38.8001 11.6999C38.6001 11.7999 38.5001 11.9999 38.5001 12.1999C38.4001 12.3999 38.5001 12.4999 38.7001 12.4999ZM37.9001 27.0999C38.0001 27.0999 38.1001 27.0999 38.2001 27.0999C38.5001 26.9999 38.6001 26.6999 38.5001 26.4999C38.4001 26.1999 38.1001 26.0999 37.9001 26.1999C37.6001 26.2999 37.5001 26.5999 37.6001 26.7999C37.7001 26.8999 37.8001 26.9999 37.9001 27.0999ZM32.5001 11.9999C32.6001 11.9999 32.7001 11.9999 32.8001 11.9999C33.1001 11.8999 33.2001 11.5999 33.1001 11.3999C33.0001 11.0999 32.7001 10.9999 32.5001 11.0999C32.2001 11.1999 32.1001 11.4999 32.2001 11.6999C32.2001 11.7999 32.4001 11.8999 32.5001 11.9999ZM31.8001 26.0999C31.9001 26.0999 32.1001 26.0999 32.2001 26.0999C32.5001 25.9999 32.6001 25.5999 32.5001 25.2999C32.4001 24.9999 32.0001 24.8999 31.7001 24.9999C31.4001 25.0999 31.3001 25.4999 31.4001 25.7999C31.5001 25.8999 31.6001 25.9999 31.8001 26.0999ZM26.0001 11.0999C26.1001 11.0999 26.3001 11.0999 26.4001 11.0999C26.7001 10.9999 26.8001 10.6999 26.7001 10.3999C26.6001 10.0999 26.3001 9.89992 26.0001 10.0999C25.7001 10.1999 25.5001 10.4999 25.7001 10.7999C25.7001 10.8999 25.8001 10.9999 26.0001 11.0999ZM25.2001 24.7999C25.4001 24.8999 25.5001 24.8999 25.7001 24.7999C26.0001 24.6999 26.2001 24.2999 26.1001 23.8999C26.0001 23.5999 25.6001 23.3999 25.2001 23.4999C24.9001 23.5999 24.7001 23.9999 24.8001 24.3999C24.9001 24.5999 25.1001 24.7999 25.2001 24.7999ZM19.3001 9.8999C19.4001 9.9999 19.6001 9.9999 19.8001 9.8999C20.1001 9.7999 20.3001 9.39992 20.2001 9.09992C20.1001 8.69992 19.7001 8.59992 19.4001 8.69992C19.0001 8.79992 18.9001 9.19991 19.0001 9.49991C18.9001 9.69991 19.1001 9.7999 19.3001 9.8999ZM12.5001 8.3999C12.7001 8.4999 12.8001 8.4999 13.0001 8.3999C13.4001 8.2999 13.6001 7.89991 13.5001 7.49991C13.4001 7.09991 13.0001 6.89991 12.6001 6.99991C12.2001 7.09991 12.0001 7.4999 12.1001 7.8999C12.1001 8.0999 12.3001 8.2999 12.5001 8.3999ZM11.1001 21.5999C11.3001 21.6999 11.5001 21.6999 11.7001 21.5999C12.1001 21.3999 12.3001 20.8999 12.1001 20.4999C11.9001 20.0999 11.4001 19.8999 11.0001 20.0999C10.6001 20.2999 10.4001 20.7999 10.6001 21.1999C10.7001 21.2999 10.9001 21.4999 11.1001 21.5999ZM5.6001 6.49991C5.8001 6.59991 5.9001 6.59991 6.1001 6.49991C6.5001 6.39991 6.80013 5.89991 6.70013 5.49991C6.60013 4.99991 6.10013 4.7999 5.70013 4.8999C5.20013 4.9999 5.0001 5.4999 5.1001 5.8999C5.2001 6.1999 5.4001 6.39991 5.6001 6.49991ZM3.70013 19.5999C3.90013 19.6999 4.20015 19.6999 4.40015 19.5999C4.90015 19.3999 5.10015 18.7999 4.90015 18.3999C4.70015 17.8999 4.20013 17.6999 3.70013 17.8999C3.20013 18.0999 3.00013 18.6999 3.20013 19.0999C3.30013 19.2999 3.40013 19.4999 3.70013 19.5999Z" fill="#00FFFF"/>
</svg>
