<svg xmlns="http://www.w3.org/2000/svg" width="80" height="80" viewBox="0 0 80 80">
    <g fill="none" fill-rule="nonzero">
        <path fill="#EF531F" d="M73.333 10.667V4c0-.736-.597-1.333-1.333-1.333H58.667c-.737 0-1.334.597-1.334 1.333v6.667h-2.666c-.412 0-.8.19-1.054.514l-9.333 12c-.182.235-.28.522-.28.819v5.333h-8V24c0-.308-.106-.606-.301-.844L24 8.857V1.333C24 .597 23.403 0 22.667 0h-9.334C12.597 0 12 .597 12 1.333v7.524L.301 23.156A1.333 1.333 0 0 0 0 24v49.333A6.675 6.675 0 0 0 6.667 80h66.666A6.675 6.675 0 0 0 80 73.333v-56a6.675 6.675 0 0 0-6.667-6.666zM60 5.333h10.667v5.334H60V5.333zm-24 32V32h2.667v5.333h2.666V32H44v5.333h2.667V32h2.666v8H30.667v-8h2.666v5.333H36zM14.667 2.667h6.666V8h-6.666V2.667zm-12 21.809l11.298-13.81h8.07l11.298 13.81v4.857h-4c-.736 0-1.333.597-1.333 1.334V32H2.667v-7.524zm22.666 52.857H6.667a4 4 0 0 1-4-4v-2.666h22.666v6.666zm0-36V68H2.667v-2.667H16v-2.666H2.667v-28H28V40h-1.333c-.737 0-1.334.597-1.334 1.333zm26.667 36H28V42.667h24v34.666zm25.333-4a4 4 0 0 1-4 4H54.667v-6.666h22.666v2.666zm0-5.333H54.667v-2.667h14.666v-2.666H54.667V41.333c0-.736-.597-1.333-1.334-1.333H52v-9.333c0-.737-.597-1.334-1.333-1.334h-4v-4h30.666V68zm0-45.333H48.06l7.259-9.334h18.014a4 4 0 0 1 4 4v5.334z"/>
        <path fill="#FFC3AE" d="M40 49.333a9.333 9.333 0 1 0 9.333 9.334A9.344 9.344 0 0 0 40 49.333zm0 16a6.667 6.667 0 0 1-6.107-4.008l2.05-2.049a2.912 2.912 0 0 1 4.114 0 5.565 5.565 0 0 0 6.376 1.048A6.667 6.667 0 0 1 40 65.334zm6.057-7.942a2.98 2.98 0 0 1-4.114 0 5.581 5.581 0 0 0-7.886 0l-.666.666A6.652 6.652 0 0 1 40 52a6.667 6.667 0 0 1 6.435 5.013l-.378.378zM18.667 62.667h2.667v2.667h-2.667zM72 62.667h2.667v2.667H72zM72 29.333h-9.333c-.737 0-1.334.597-1.334 1.334V40c0 .736.597 1.333 1.334 1.333H72c.736 0 1.333-.597 1.333-1.333v-9.333c0-.737-.597-1.334-1.333-1.334zm-1.333 9.334H64V32h6.667v6.667z"/>
    </g>
</svg>
