<svg xmlns="http://www.w3.org/2000/svg" width="80" height="75" viewBox="0 0 80 75">
    <g fill="none" fill-rule="nonzero">
        <path fill="#FFC3AE" d="M40 53.125a1.563 1.563 0 1 0 .001 3.126A1.563 1.563 0 0 0 40 53.125z"/>
        <path fill="#EF531F" d="M75.313 28.125h-5.626V4.687A4.693 4.693 0 0 0 65 0H4.687A4.693 4.693 0 0 0 0 4.688v37.5a4.693 4.693 0 0 0 4.688 4.687h5.625v23.438A4.693 4.693 0 0 0 15 75h60.313A4.693 4.693 0 0 0 80 70.312v-37.5a4.693 4.693 0 0 0-4.688-4.687zM3.124 12.5h63.438v6.25H3.124V12.5zm1.563-9.375H65c.862 0 1.563.7 1.563 1.563v4.687H3.124V4.687c0-.861.7-1.562 1.563-1.562zm0 40.625c-.862 0-1.563-.7-1.563-1.563V21.875h63.438v6.25H15a4.693 4.693 0 0 0-4.688 4.688V43.75H4.689zm72.187 26.563c0 .861-.7 1.562-1.563 1.562H15c-.862 0-1.563-.7-1.563-1.563v-37.5c0-.861.701-1.562 1.563-1.562h60.313c.861 0 1.562.7 1.562 1.563v37.5z"/>
        <path fill="#FFC3AE" d="M61.875 37.5c-1.703 0-3.346.56-4.688 1.566A7.81 7.81 0 0 0 52.5 37.5c-4.308 0-7.813 3.505-7.813 7.813 0 4.307 3.505 7.812 7.813 7.812 1.704 0 3.347-.56 4.687-1.566a7.817 7.817 0 0 0 4.688 1.566c4.308 0 7.813-3.505 7.813-7.813 0-4.307-3.505-7.812-7.813-7.812zm-14.063 7.813a4.693 4.693 0 0 1 4.688-4.688 4.686 4.686 0 0 1 3.515 1.59 4.676 4.676 0 0 1-.001 6.198A4.686 4.686 0 0 1 52.5 50a4.693 4.693 0 0 1-4.688-4.688zM61.876 50c-.936 0-1.84-.281-2.606-.792a7.8 7.8 0 0 0 0-7.79 4.692 4.692 0 0 1 2.606-.793 4.693 4.693 0 0 1 4.688 4.688A4.693 4.693 0 0 1 61.874 50zM27.5 62.5h-6.25a1.562 1.562 0 1 0 0 3.125h6.25a1.562 1.562 0 1 0 0-3.125zM40 62.5h-6.25a1.562 1.562 0 1 0 0 3.125H40a1.562 1.562 0 1 0 0-3.125zM52.5 62.5h-6.25a1.562 1.562 0 1 0 0 3.125h6.25a1.562 1.562 0 1 0 0-3.125zM65 62.5h-6.25a1.562 1.562 0 1 0 0 3.125H65a1.562 1.562 0 1 0 0-3.125zM21.25 56.25h12.5a1.562 1.562 0 1 0 0-3.125h-12.5a1.562 1.562 0 1 0 0 3.125z"/>
    </g>
</svg>
