<svg xmlns="http://www.w3.org/2000/svg" width="80" height="80" viewBox="0 0 80 80">
    <g fill="none" fill-rule="nonzero">
        <path fill="#EF531F" d="M78.285 76.725h-6.862v-12.32a1.56 1.56 0 0 0-3.119 0v12.32H49.591v-29.63a1.56 1.56 0 0 0-1.56-1.559H31.813a1.56 1.56 0 0 0-1.56 1.56v29.63H11.54V41.481h.6c.414 0 .81-.165 1.103-.457l26.68-26.68L66.6 41.026c.293.292.69.457 1.103.457h.6v11.696a1.56 1.56 0 0 0 3.12 0V41.482h6.86a1.56 1.56 0 0 0 1.103-2.663L41.025.457a1.56 1.56 0 0 0-2.206 0L24.16 15.116a1.56 1.56 0 0 0 2.206 2.205L39.922 3.765 74.52 38.363h-6.17L41.025 11.038a1.56 1.56 0 0 0-2.206 0L11.494 38.363h-6.17l12.31-12.309a1.56 1.56 0 0 0-2.206-2.205L.457 38.819a1.56 1.56 0 0 0 1.103 2.663H8.42v35.243H1.56a1.56 1.56 0 0 0 0 3.12h76.724a1.56 1.56 0 0 0 0-3.12zm-31.813 0h-13.1v-28.07h13.1v28.07z"/>
        <path fill="#FFC3AE" d="M63.314 45.536h-8.733a1.56 1.56 0 0 0-1.56 1.56V62.69c0 .862.699 1.56 1.56 1.56h8.733a1.56 1.56 0 0 0 1.56-1.56V47.096a1.56 1.56 0 0 0-1.56-1.56zm-1.56 15.595h-5.613V48.655h5.614v12.476zM25.263 45.536H16.53a1.56 1.56 0 0 0-1.56 1.56V62.69c0 .862.7 1.56 1.56 1.56h8.733a1.56 1.56 0 0 0 1.56-1.56V47.096a1.56 1.56 0 0 0-1.56-1.56zm-1.56 15.595H18.09V48.655h5.614v12.476zM39.922 25.625c-3.955 0-7.173 3.218-7.173 7.174 0 3.955 3.218 7.173 7.173 7.173 3.956 0 7.174-3.218 7.174-7.173 0-3.956-3.218-7.174-7.174-7.174zm0 11.228a4.06 4.06 0 0 1-4.054-4.054 4.06 4.06 0 0 1 4.054-4.055 4.06 4.06 0 0 1 4.055 4.055 4.06 4.06 0 0 1-4.055 4.054z"/>
        <path fill="#EF531F" d="M38.062 61.588a1.57 1.57 0 0 0-1.103-.457c-.41 0-.812.167-1.102.457-.29.29-.457.692-.457 1.102 0 .41.166.813.457 1.103.29.29.692.457 1.102.457.41 0 .813-.167 1.103-.457.29-.29.457-.692.457-1.103 0-.41-.167-.812-.457-1.102zM21.843 19.639a1.57 1.57 0 0 0-1.102-.457c-.41 0-.813.166-1.103.457-.29.29-.457.692-.457 1.102 0 .41.167.813.457 1.103.29.29.693.457 1.103.457.41 0 .812-.167 1.102-.457.29-.29.457-.693.457-1.103 0-.41-.167-.812-.457-1.102zM70.966 57.273a1.572 1.572 0 0 0-1.102-.457c-.41 0-.813.167-1.103.457-.29.291-.457.692-.457 1.102 0 .41.167.813.457 1.104.29.29.693.456 1.103.456.41 0 .812-.166 1.102-.456.29-.291.457-.692.457-1.104 0-.41-.167-.812-.457-1.102z"/>
        <path fill="#FFC3AE" d="M77.174 22.141v-2.66h-2.661v2.66H71.85v2.662h2.662v2.66h2.66v-2.66h2.662V22.14zM61.24 3.324V.663h-2.66v2.66h-2.662v2.662h2.661v2.661h2.661V5.985h2.661V3.324zM7.32 4.646V1.985H4.657v2.661H1.997v2.661h2.661v2.661H7.32v-2.66H9.98V4.645z"/>
    </g>
</svg>
