<svg xmlns="http://www.w3.org/2000/svg" width="120" height="120" viewBox="0 0 120 120">
    <g fill="none" fill-rule="evenodd">
        <path fill="#EF531F" d="M0 0h120v120H0z"/>
        <g fill="#FFF" fill-rule="nonzero">
            <path d="M60 100H44.807v-2.083h2.922l-2.104-23.49H37.21l-2.337 23.49h2.922V100H29v-2.083h2.922L40.132 19h9.35l7.596 78.946H60V100zM45.479 72.373l-3.857-43.769-4.295 43.77h8.152zm6.924 25.544l-7.362-76.834h-2.338l7.363 76.834h2.337zM91 89.22c0 3.234-1.32 6.005-3.957 8.315-2.639 2.31-5.81 3.465-9.543 3.465-3.705 0-6.848-1.155-9.515-3.465C65.347 95.225 64 92.454 64 89.22V30.78c0-3.234 1.32-6.005 3.985-8.315C70.624 20.155 73.795 19 77.5 19c3.733 0 6.904 1.155 9.543 3.465C89.68 24.775 91 27.546 91 30.78v13.022h-8.981V25.7c0-1.27-.45-2.368-1.32-3.263-.87-.895-1.936-1.357-3.17-1.357-1.236 0-2.302.462-3.172 1.357-.87.895-1.32 1.992-1.32 3.263v68.574c0 1.27.45 2.367 1.32 3.262.87.895 1.936 1.357 3.171 1.357 1.235 0 2.302-.462 3.172-1.357.87-.895 1.319-1.992 1.319-3.262V58.758h-4.49V56.68H91v32.54zm-20.994 7.767c-.982-1.473-1.487-3.32-1.487-5.573V28.586c0-2.223.505-4.071 1.487-5.515-2.498 1.733-3.733 4.042-3.733 6.93v60.056c0 2.858 1.263 5.168 3.733 6.93zM86.51 41.78V28.932c0-3.089-1.347-5.514-4.07-7.276 1.208 1.444 1.797 3.32 1.797 5.688v14.437h2.273zm0 49.287v-32.31h-2.245v33.955c0 2.34-.59 4.216-1.796 5.63 2.694-1.76 4.041-4.186 4.041-7.275z"/>
        </g>
    </g>
</svg>
