<svg xmlns="http://www.w3.org/2000/svg" width="80" height="80" viewBox="0 0 80 80">
    <g fill="none" fill-rule="nonzero">
        <path fill="#EF531F" d="M79.793 58.568a19.936 19.936 0 0 0-15.925-18.23V3.992a3.992 3.992 0 1 0-7.983 0v30.603H45.24v-1.33a1.33 1.33 0 0 0-1.33-1.331h-2.761a9.333 9.333 0 0 0-4.713-6.816 9.314 9.314 0 0 0-4.675-12.315 9.314 9.314 0 0 0-13.048 7.236c-7.28-.801-13.83 4.451-14.631 11.73l-.017.165H1.332a1.33 1.33 0 0 0-1.33 1.33v5.323c0 .735.595 1.33 1.33 1.33h2.66v15.967c.001.467.246.9.646 1.14l6.008 3.605v5.077L5.37 63.07a3.711 3.711 0 1 0-3.318 6.64l8.593 4.295v3.17H0v2.66h61.206v-.068c10.987-.721 19.308-10.213 18.586-21.2zM10.646 71.03l-7.404-3.702a1.045 1.045 0 0 1 .472-1.982c.162 0 .322.037.468.11l6.464 3.226v2.348zm47.9-67.037a1.33 1.33 0 0 1 2.661 0V19.96h-2.661V3.993zm0 18.628h2.661v2.661h-2.661v-2.661zm0 5.322h2.661v25.281h-2.661v-25.28zm0 27.942h2.661v1.33a1.33 1.33 0 0 1-2.661 0v-1.33zm1.33 5.322a3.992 3.992 0 0 0 3.992-3.991v-.852a5.322 5.322 0 1 1-7.983 0v.852a3.992 3.992 0 0 0 3.991 3.991zM42.58 34.597v2.66H29.274v-2.66h13.305zM18.532 22.693c.386.047.77.115 1.148.204h.037a10.658 10.658 0 0 1 4.272 2.087l1.673-2.067a13.347 13.347 0 0 0-4.303-2.309A6.636 6.636 0 1 1 33.468 25a1.33 1.33 0 0 0 .665 1.996 6.653 6.653 0 0 1 4.303 4.939H27.943a1.33 1.33 0 0 0-1.33 1.33v21.29a1.33 1.33 0 0 1-2.662 0V42.579a3.992 3.992 0 1 0-7.983 0v5.323a1.33 1.33 0 0 1-2.661 0V33.266a1.33 1.33 0 0 0-1.33-1.331H6.741c.704-5.808 5.982-9.945 11.79-9.24zM2.662 37.257v-2.66h7.984v2.66H2.662zm10.645 39.917V59.877c0-.467-.245-.9-.646-1.14l-6.007-3.605V39.918h3.992v7.984a3.992 3.992 0 1 0 7.983 0v-5.323a1.33 1.33 0 0 1 2.661 0v11.976a3.992 3.992 0 1 0 7.984 0V39.918h3.991v29.273h2.661V39.918h7.984a1.33 1.33 0 0 0 1.33-1.33v-1.33h10.645v3.08c-10.787 2.188-17.758 12.706-15.57 23.493a19.929 19.929 0 0 0 9.647 13.343H13.307zm63.782-15.613l-5.19-.915-.463 2.62 5.174.911a17.286 17.286 0 0 1-4.64 8.043l-3.378-4.025-2.039 1.71 3.374 4.021a17.176 17.176 0 0 1-8.72 3.18v-5.254h-2.661v5.254a17.176 17.176 0 0 1-8.722-3.18l3.374-4.02-2.038-1.71-3.378 4.024a17.286 17.286 0 0 1-4.64-8.043l5.173-.911-.463-2.62-5.189.915a17.142 17.142 0 0 1 1.629-9.146l4.549 2.626 1.33-2.304-4.532-2.619a17.314 17.314 0 0 1 10.246-7.073v9.942a7.983 7.983 0 1 0 7.983 0v-9.942a17.314 17.314 0 0 1 10.245 7.073l-4.534 2.619 1.33 2.304 4.55-2.626a17.142 17.142 0 0 1 1.715 7.462c0 .568-.032 1.13-.085 1.684z"/>
        <path fill="#EF531F" d="M33.265 71.852h2.661v2.661h-2.661z"/>
        <path fill="#FFC3AE" d="M77.174 21.141v-2.66h-2.661v2.66H71.85v2.662h2.662v2.66h2.66v-2.66h2.662V21.14zM45.24 5.324V2.663h-2.66v2.66h-2.662v2.662h2.661v2.661h2.661V7.985h2.661V5.324zM7.32 10.646V7.985H4.657v2.661H1.997v2.661h2.661v2.661H7.32v-2.66H9.98v-2.662z"/>
    </g>
</svg>
