<svg xmlns="http://www.w3.org/2000/svg" width="78" height="93" viewBox="0 0 78 93">
    <g fill="none" fill-rule="nonzero">
        <path fill="#FFC3AE" d="M38 53a2 2 0 1 0-.002-4.002A2 2 0 0 0 38 53z"/>
        <path fill="#EF531F" d="M37.92 92.662c.323.225.701.338 1.08.338.379 0 .757-.113 1.08-.338C59 79.442 78 73.642 78 46.442V12.768c0-.945-.74-1.732-1.703-1.81l-4.827-.395C60.404 9.661 49.516 6.103 39.984.276a1.893 1.893 0 0 0-1.968 0c-9.533 5.828-20.42 9.385-31.487 10.288l-4.826.393C.74 11.037 0 11.823 0 12.767v33.675c0 27.967 21.667 34.864 37.92 46.22zM3.715 14.438l3.124-.254C18.112 13.264 29.206 9.73 39 3.948c9.794 5.783 20.888 9.316 32.161 10.236l3.125.254v32.004c0 24.526-16.71 29.789-35.289 42.519C22.691 77.89 3.714 71.608 3.714 46.44V14.439z"/>
        <path fill="#FFC3AE" d="M38.432 79.685a1.86 1.86 0 0 0 2.136-.046C57.165 68.459 67 64.78 67 47.259v-23.4c0-.883-.664-1.634-1.561-1.765a82.364 82.364 0 0 1-25.098-7.898 1.91 1.91 0 0 0-1.763.04 82.313 82.313 0 0 1-25.017 7.858c-.897.131-1.561.881-1.561 1.765v23.4c0 17.688 10.772 22.029 26.432 32.426zM15.667 25.38a86.033 86.033 0 0 0 21.981-6.722v26.158c0 .985.82 1.784 1.833 1.784s1.834-.799 1.834-1.784V18.642a86.098 86.098 0 0 0 22.018 6.738v21.879c0 14.502-6.98 17.664-22.018 27.56V59.09c0-.986-.821-1.785-1.834-1.785-1.012 0-1.833.799-1.833 1.784v15.783c-14.05-9.101-21.981-12.99-21.981-27.612V25.38z"/>
    </g>
</svg>
