<svg xmlns="http://www.w3.org/2000/svg" width="80" height="80" viewBox="0 0 80 80">
    <g fill="none" fill-rule="nonzero">
        <path fill="#EF531F" d="M78.667 54.667h-1.334V27.695a14.599 14.599 0 0 0-9.22-13.619L54.02 8.439a5.308 5.308 0 0 1-3.353-4.952V0H48v3.487a7.976 7.976 0 0 0 1.163 4.133L40 16.781 30.837 7.62A7.976 7.976 0 0 0 32 3.487V0h-2.667v3.487a5.308 5.308 0 0 1-3.353 4.952l-14.093 5.637a14.599 14.599 0 0 0-9.22 13.619v26.972H1.333C.597 54.667 0 55.264 0 56v8c0 .736.597 1.333 1.333 1.333h1.334V80h2.666V65.333h9.334V80h2.666V32.4l5.11-7.664a1.34 1.34 0 0 0 .224-.736V12.636l4.305-1.721A8.073 8.073 0 0 0 28 10.41V24c0 .736.597 1.333 1.333 1.333h21.334c.736 0 1.333-.597 1.333-1.333V10.41c.33.193.674.361 1.028.505l4.305 1.721V24c0 .263.079.52.224.74l5.11 7.66V80h2.666V65.333h9.334V80h2.666V65.333h1.334c.736 0 1.333-.597 1.333-1.333v-8c0-.736-.597-1.333-1.333-1.333zm-64 8h-12v-5.334h12v5.334zM20 23.6l-5.11 7.664a1.34 1.34 0 0 0-.223.736v22.667H5.333V27.695a11.944 11.944 0 0 1 7.544-11.143L20 13.702V23.6zm18.667-.933h-8V11.223l8 8v3.444zm10.666 0h-8v-3.448l8-8v11.448zM65.11 31.26L60 23.6v-9.893l7.123 2.849a11.944 11.944 0 0 1 7.544 11.139v26.972h-9.334V32c0-.263-.078-.52-.224-.74zm12.224 31.407h-12v-5.334h12v5.334z"/>
        <path fill="#FFC3AE" d="M24 26.667h2.667v2.667H24zM53.333 26.667H56v2.667h-2.667zM46.667 56h2.667v2.667h-2.667z"/>
        <path fill="#FFC3AE" d="M56 45.333H24c-.736 0-1.333.597-1.333 1.334V52c0 .736.597 1.333 1.333 1.333h1.333v16a8.008 8.008 0 0 0 8 8h13.334a8.008 8.008 0 0 0 8-8v-16H56c.736 0 1.333-.597 1.333-1.333v-5.333c0-.737-.597-1.334-1.333-1.334zm-4 24a5.333 5.333 0 0 1-5.333 5.334H33.333A5.333 5.333 0 0 1 28 69.333V58.667h16V56H28v-2.667h24v16zm2.667-18.666H25.333V48h29.334v2.667z"/>
    </g>
</svg>
